<?xml version="1.0" encoding="utf-8"?>
<!-- Generator: Adobe Illustrator 16.0.0, SVG Export Plug-In . SVG Version: 6.00 Build 0)  -->
<!DOCTYPE svg PUBLIC "-//W3C//DTD SVG 1.1//EN" "http://www.w3.org/Graphics/SVG/1.1/DTD/svg11.dtd">
<svg version="1.1" id="Layer_3" xmlns="http://www.w3.org/2000/svg" xmlns:xlink="http://www.w3.org/1999/xlink" x="0px" y="0px"
	 width="595.281px" height="595.281px" viewBox="0 0 595.281 595.281" enable-background="new 0 0 595.281 595.281"
	 xml:space="preserve">
<path fill="none" stroke="#000000" stroke-width="4" stroke-miterlimit="10" d="M516.141,28.808c0,0-9.333,34.667-31.333,58
	s-107.334,72.667-118.667,84.667s-102,91.333-118,154.667s-22.667,234-20.667,244.667"/>
<path fill="none" stroke="#000000" stroke-width="3" stroke-miterlimit="10" d="M414.141,27.474c0,0-58,30.667-109.333,113.333
	c-51.333,82.667-80.667,221.999-80.667,225.333"/>
<path fill="none" stroke="#000000" stroke-width="4" stroke-miterlimit="10" d="M305.474,26.141c0,0-43.333,34-58,70.667
	s-47.333,134.667-47.333,206.667"/>
<path fill="none" stroke="#000000" stroke-width="3" stroke-miterlimit="10" d="M199.474,28.141c0,0,0.667,317.333,0,336
	s0.667,73.334,0.667,73.334"/>
<path fill="none" stroke="#000000" stroke-width="3" stroke-miterlimit="10" d="M133.474,27.474c0,0,14,138.667,14,154.667"/>
<path fill="none" stroke="#000000" stroke-width="4" stroke-miterlimit="10" d="M121.474,28.808c0,0,29.333,216.667,29.333,294.667
	s16.667,242.666,13.333,247.999"/>
<path fill="none" stroke="#000000" stroke-width="3" stroke-miterlimit="10" d="M152.807,229.473c0,0,11.333,228,10,246"/>
</svg>
