<?xml version="1.0" encoding="utf-8"?>
<!-- Generator: Adobe Illustrator 16.0.0, SVG Export Plug-In . SVG Version: 6.00 Build 0)  -->
<!DOCTYPE svg PUBLIC "-//W3C//DTD SVG 1.1//EN" "http://www.w3.org/Graphics/SVG/1.1/DTD/svg11.dtd">
<svg version="1.1" id="Layer_3" xmlns="http://www.w3.org/2000/svg" xmlns:xlink="http://www.w3.org/1999/xlink" x="0px" y="0px"
	 width="595.281px" height="595.281px" viewBox="0 0 595.281 595.281" enable-background="new 0 0 595.281 595.281"
	 xml:space="preserve">
<path fill="none" stroke="#000000" stroke-width="4" stroke-miterlimit="10" d="M228.641,448.641c0,0,14,19,28,20s48,3.5,62-5
	s23.75-15.25,8.75-23.25s-31.25-14.75-44.25-13.75s-20.75,2-32.75,5.5c-7.311,2.133-15.25,2-20,8
	C226.291,445.319,228.641,448.641,228.641,448.641z"/>
<path fill="none" stroke="#000000" stroke-width="4" stroke-miterlimit="10" d="M292.641,426.641c0,0,30-108.5,67.5-155.5
	s67-61.5,71-64.5s43-28.5,49.5-36.5s13-18.5,13-18.5s4.5,7,4,16s-5.5,67-13,85.5s-62,87.5-86.5,107s-86.5,72-86.5,72"/>
<path fill="none" stroke="#000000" stroke-width="3" stroke-miterlimit="10" d="M301.391,428.641c0,0,80-87,95-109.5
	s72-93,81.5-120.5s11.5-40.5,11.5-40.5"/>
<path fill="none" stroke="#000000" stroke-width="4" stroke-miterlimit="10" d="M322.141,437.141c0,0,45.667-43.334,58.667-53.667
	s87.333-53.999,107-61.666s78.833-28.667,78.833-28.667c-8,29.5-56.5,70.5-108,101s-126.5,49-126.5,49"/>
<path fill="none" stroke="#000000" stroke-width="3" stroke-miterlimit="10" d="M324.141,436.391c0,0,77-34.584,131-62.917
	s108.334-76.333,108.334-76.333"/>
<path fill="none" stroke="#000000" stroke-width="4" stroke-miterlimit="10" d="M332.891,453.891c0,0,54,5.75,107.5-1.25
	s109.5-35.25,109.5-35.25s-58.75,3.25-76.5,3.25s-87,11-88.5,11.75s-43.25,8.25-43.25,8.25"/>
<path fill="none" stroke="#000000" stroke-width="4" stroke-miterlimit="10" d="M260.474,431.141c0,0-44.667-103.666-54.333-119.333
	s-55.281-89.287-96.333-126.667c-41-37.333-54.833-59.167-66.333-70.667c0,0-3.333,50.167,0.167,63.667s18,68,34,90s72.5,80,74,82
	s85.5,85.5,85.5,85.5"/>
<path fill="none" stroke="#000000" stroke-width="3" stroke-miterlimit="10" d="M45.474,120.808c0,0,27,72,44.667,100.333
	s74.667,129.666,109,162s47.667,49,47.667,49"/>
<path fill="none" stroke="#000000" stroke-width="4" stroke-miterlimit="10" d="M158.474,357.141c0,0-55-38.666-90.333-48.333
	s-37-9.334-37-9.334s4,11.334,8.667,17.667s47,52.666,103,82.333s87,44.667,87,44.667"/>
<path fill="none" stroke="#000000" stroke-width="3" stroke-miterlimit="10" d="M33.807,299.975c0,0,44.667,41.167,67.667,58.833
	s79.666,49.332,88.333,52.666s43.667,20.667,43.667,20.667"/>
<path fill="none" stroke="#000000" stroke-width="4" stroke-miterlimit="10" d="M228.641,447.141c0,0-66.5-22.5-72.5-25.25
	s-26.25-7-32.5-6c0,0,4.5,9.25,9.75,13.25s64,41.5,86,42.25s31.5-4.75,31.5-4.75"/>
<path fill="none" stroke="#000000" stroke-width="3" stroke-miterlimit="10" d="M276.141,24.641c0,0,1.5,131.5,4.5,157.5
	s9.5,137,10,162.5s-2,81.5-2,81.5"/>
<path fill="none" stroke="#000000" stroke-width="3" stroke-miterlimit="10" d="M252.641,20.141l5.5,171.5c0,0,5,107,5.5,113.5
	s-0.5,123.5-0.5,123.5"/>
<path fill="none" stroke="#000000" stroke-width="3" stroke-miterlimit="10" d="M285.141,470.141c0,0-3.667,68.667-11,100.667"/>
<path fill="none" stroke="#000000" stroke-width="3" stroke-miterlimit="10" d="M258.474,468.808c0,0-0.667,67.667-9.667,100"/>
<line fill="none" stroke="#000000" stroke-width="3" stroke-miterlimit="10" x1="280.141" y1="426.641" x2="279.641" y2="470.641"/>
<path fill="none" stroke="#000000" stroke-width="4" stroke-miterlimit="10" d="M247.141,400.474c0,0-24.333-50.333-20.333-115.667
	c4-65.333,21-82.667,23.333-85s7.667-6.333,7.667-6.333"/>
<path fill="none" stroke="#000000" stroke-width="4" stroke-miterlimit="10" d="M289.141,415.808c0,0,14.333-36.667,15-99.334
	c0.667-62.667-5.666-77.333-10.333-89.667s-11.667-22.333-11.667-22.333"/>
</svg>
