<?xml version="1.0" encoding="utf-8"?>
<!-- Generator: Adobe Illustrator 16.0.0, SVG Export Plug-In . SVG Version: 6.00 Build 0)  -->
<!DOCTYPE svg PUBLIC "-//W3C//DTD SVG 1.1//EN" "http://www.w3.org/Graphics/SVG/1.1/DTD/svg11.dtd">
<svg version="1.1" id="Layer_4" xmlns="http://www.w3.org/2000/svg" xmlns:xlink="http://www.w3.org/1999/xlink" x="0px" y="0px"
	 width="595.281px" height="595.281px" viewBox="0 0 595.281 595.281" enable-background="new 0 0 595.281 595.281"
	 xml:space="preserve">
<path fill="none" stroke="#000000" stroke-width="4" stroke-miterlimit="10" d="M436.141,102.807c0,0-1.365,2.534-11.527,12.083
	c-8.629,8.11-23.603,21.279-49.473,42.25c-67.904,55.047-194.333,194.334-198.667,200s-1,26.334,15.667,33.667
	s18,17.333,88.667-38.667s156.667-208,175.333-248s18.667-71.333,18.667-71.333s-20.167,31.833-44.667,48.833s-96.5,55-115,66
	s-86,56.5-104.5,73.5s-49,55-52,61.5s-5.5,27-1,39s9.667,17.168,14.667,14.334s42-37.834,43.667-40s85.667-79.083,92.667-85.083
	s84.167-68.417,84.167-68.417"/>
<path fill="none" stroke="#000000" stroke-width="3" stroke-miterlimit="10" d="M334.641,155.308c0,0-6.5,17-6,26.5
	s2,12.833,2,12.833s5.834,3.5,21.334,3.5s27.999-5,31.166-7.167s15.334-16,15.334-16"/>
<path fill="none" stroke="#000000" stroke-width="3" stroke-miterlimit="10" d="M277.974,196.141c0,0-15,22.167-16.833,36.833
	s0.167,19.667,0.167,19.667"/>
<path fill="none" stroke="#000000" stroke-width="3" stroke-miterlimit="10" d="M344.975,228.141c0,0-15.667,15.333-36.167,22.5
	s-38.833,6.833-38.833,6.833"/>
<path fill="none" stroke="#000000" stroke-width="3" stroke-miterlimit="10" d="M215.641,244.391c0,0-10,20.75-10.5,35.5
	s3.5,23.25,3.5,23.25"/>
<path fill="none" stroke="#000000" stroke-width="3" stroke-miterlimit="10" d="M291.391,315.141c0,0-32.5,16.75-57.25,14.25
	s-27-5.25-27-5.25"/>
<path fill="none" stroke="#000000" stroke-width="3" stroke-miterlimit="10" d="M111.474,128.808c0,0,18,128.666,20,155.333
	s2,72.668-0.667,139.334s-3.333,140.666-3.333,140.666"/>
<path fill="none" stroke="#000000" stroke-width="4" stroke-miterlimit="10" d="M175.391,361.641c0,0-11.5,3-16.5,38.25
	s-5.75,83-5.75,83l-0.333,83.917"/>
<path fill="none" stroke="#000000" stroke-width="4" stroke-miterlimit="10" d="M151.141,126.474c0,0,1,106,1,110s-1,57-1,57
	l4.667,13.333"/>
</svg>
