<?xml version="1.0" encoding="utf-8"?>
<!-- Generator: Adobe Illustrator 16.0.0, SVG Export Plug-In . SVG Version: 6.00 Build 0)  -->
<!DOCTYPE svg PUBLIC "-//W3C//DTD SVG 1.1//EN" "http://www.w3.org/Graphics/SVG/1.1/DTD/svg11.dtd">
<svg version="1.1" id="Layer_4" xmlns="http://www.w3.org/2000/svg" xmlns:xlink="http://www.w3.org/1999/xlink" x="0px" y="0px"
	 width="595.281px" height="595.281px" viewBox="0 0 595.281 595.281" enable-background="new 0 0 595.281 595.281"
	 xml:space="preserve">
<path fill="none" stroke="#000000" stroke-width="3" stroke-miterlimit="10" d="M153.474,358.808c0,0-44,53.333-31.333,79.333
	s46,46.667,75.333,38.667s72-22.001,112-79.334s52-68.667,56-100.667c4-32,6-73.333,38-103.333s108-82.667,120.667-122
	s6-45.333,6-45.333s-32.667,26-46.667,35.333s-67.332,42-98.666,50s-68.668,27.333-69.334,31.333s-94.666,62.667-110,63.333"/>
<path fill="none" stroke="#000000" stroke-width="3" stroke-miterlimit="10" d="M131.141,383.808c0,0-20.333,7.667-39,1
	s-33.333-46-25-63s52.667-69,69-82.333s30.667-25,30.667-25"/>
<path fill="none" stroke="#000000" stroke-width="4" stroke-miterlimit="10" d="M167.141,98.141c0,0,5,15,4,56s-14,144-17.5,153
	s-8,41.5-8,41.5s1.184,18.471,17.625,10.25c15.75-7.875,16.375-15.75,16.375-15.75c3.5-12.25,19-101,24-134.5s6-106.5,6-106.5"/>
<path fill="none" stroke="#000000" stroke-width="3" stroke-miterlimit="10" d="M195.141,323.641c0,0,82-76.5,93-84.5
	s26-18.5,45.5-34.5s37-42,54.5-56.5s78-48.5,93-64s25-15.5,33-40"/>
<path fill="none" stroke="#000000" stroke-width="3" stroke-miterlimit="10" d="M319.641,158.641c0,0-9,9.5-10,23.5s3,38.5,3,38.5
	s8.75,1.5,29-0.25s38.5-11.25,39.5-14"/>
<path fill="none" stroke="#000000" stroke-width="3" stroke-miterlimit="10" d="M217.891,301.391c0,0-5.25-49.75-2.5-61.5
	s9.75-35.25,9.75-35.25"/>
<path fill="none" stroke="#000000" stroke-width="3" stroke-miterlimit="10" d="M178.141,347.474c0,0,12.667,19.001,49.333,23.334
	s67-5.334,67-5.334s33.667-20.667,36.667-28"/>
<path fill="none" stroke="#000000" stroke-width="3" stroke-miterlimit="10" d="M101.807,319.808c0,0,20,21.667,44.333,21"/>
<path fill="none" stroke="#000000" stroke-width="3" stroke-miterlimit="10" d="M177.807,433.474c0,0-9-3-10.667-26
	s1.667-51,1.667-51"/>
<path fill="none" stroke="#000000" stroke-width="4" stroke-miterlimit="10" d="M178.141,479.141c0,0-7.667,84.666-10,91.333"/>
<path fill="none" stroke="#000000" stroke-width="4" stroke-miterlimit="10" d="M142.474,462.474c0,0-14,85.334-18,98.667"/>
</svg>
