<?xml version="1.0" encoding="utf-8"?>
<!-- Generator: Adobe Illustrator 16.0.0, SVG Export Plug-In . SVG Version: 6.00 Build 0)  -->
<!DOCTYPE svg PUBLIC "-//W3C//DTD SVG 1.1//EN" "http://www.w3.org/Graphics/SVG/1.1/DTD/svg11.dtd">
<svg version="1.1" id="Layer_4" xmlns="http://www.w3.org/2000/svg" xmlns:xlink="http://www.w3.org/1999/xlink" x="0px" y="0px"
	 width="595.281px" height="595.281px" viewBox="0 0 595.281 595.281" enable-background="new 0 0 595.281 595.281"
	 xml:space="preserve">
<path fill="none" stroke="#000000" stroke-width="4" stroke-miterlimit="10" d="M193.816,27.899c0,0-15.124,83.441-13.038,118.381
	c2.086,34.941,20.338,119.946,29.726,142.893s41.72,16.688,49.543,8.344s90.22-151.237,99.085-168.446
	c8.866-17.21,52.673-107.43,52.673-107.43"/>
<path fill="none" stroke="#000000" stroke-width="4" stroke-miterlimit="10" d="M158.354,27.899c0,0-9.909,145.5-4.172,181.484
	c5.737,35.983,20.339,100.129,27.119,112.645c6.779,12.517,44.328,34.42,60.495,31.813c16.167-2.607,37.027-41.721,39.634-44.851
	c2.607-3.128,72.49-114.209,72.49-114.209l93.349-157.494"/>
<path fill="none" stroke="#000000" stroke-width="4" stroke-miterlimit="10" d="M183.386,166.793c0,0,23.642-33.725,29.552-34.072
	c5.911-0.347,16.688-3.477,20.86-8.344c4.172-4.867,22.599-27.814,34.419-30.248c11.82-2.433,76.834-27.118,120.988-25.032"/>
<path fill="none" stroke="#000000" stroke-width="4" stroke-miterlimit="10" d="M447.268,63.622c0,0,10.431,0.261,38.331-12.516
	c27.9-12.777,51.89-20.078,51.89-20.078s-21.903,30.769-26.597,45.893c-4.694,15.124,2.607,38.07,0.521,69.36
	c-2.087,31.29-148.107,264.925-156.452,272.226c-8.343,7.301-98.042,17.21-109.516,17.731s-11.473-8.865-22.946-9.908
	s-29.205,16.688-29.205,16.688s-17.209-7.822-26.597-16.688s-34.419-26.598-41.72-32.334s-21.903-7.301-30.769-10.43
	c-8.866-3.129-19.818-3.65-30.769-35.984c-10.952-32.333,7.823-85.005,14.081-97.521s74.575-70.403,74.575-70.403"/>
<path fill="none" stroke="#000000" stroke-width="3" stroke-miterlimit="10" d="M84.04,309.512c0,0,17.47,19.035,45.631,21.382
	c28.162,2.347,55.801-3.65,55.801-3.65"/>
<path fill="none" stroke="#000000" stroke-width="3" stroke-miterlimit="10" d="M161.744,387.998c0,0,21.382-21.643,23.989-32.594
	c2.607-10.952,1.825-25.814,1.825-25.814"/>
<path fill="none" stroke="#000000" stroke-width="3" stroke-miterlimit="10" d="M225.889,383.826c0,0-1.826-12.516,0-16.428
	c1.825-3.911,11.473-13.298,11.473-13.298"/>
<path fill="none" stroke="#000000" stroke-width="3" stroke-miterlimit="10" d="M358.352,360.619c0,0-27.379,19.296-51.108,11.995
	c-23.728-7.302-43.285-37.027-43.285-37.027"/>
<path fill="none" stroke="#000000" stroke-width="3" stroke-miterlimit="10" d="M469.432,202.342c0,0-39.896,49.804-86.048,67.274
	c-46.153,17.471-88.135,18.514-88.135,18.514"/>
<path fill="none" stroke="#000000" stroke-width="3" stroke-miterlimit="10" d="M489.51,133.503c0,0-65.971,50.847-80.833,57.105
	c-14.863,6.257-78.227,41.72-78.227,41.72"/>
<path fill="none" stroke="#000000" stroke-width="3" stroke-miterlimit="10" d="M263.003,113.252c0,0-23.294,75.097-27.814,112.645
	s-6.258,77.183-6.258,77.183"/>
<path fill="none" stroke="#000000" stroke-width="3" stroke-miterlimit="10" d="M353.744,88.915c0,0-37.201,52.151-62.233,104.301
	c-25.032,52.15-41.373,109.517-41.373,109.517"/>
<path fill="none" stroke="#000000" stroke-width="3" stroke-miterlimit="10" d="M191.991,443.017c0,0-10.691,71.187-10.691,95.437
	c0,24.249,1.043,35.722,1.043,35.722"/>
<path fill="none" stroke="#000000" stroke-width="3" stroke-miterlimit="10" d="M239.709,435.455c0,0-2.869,73.271-5.215,85.005
	c-2.347,11.734-13.56,58.931-13.56,58.931"/>
</svg>
