<?xml version="1.0" encoding="utf-8"?>
<!-- Generator: Adobe Illustrator 16.0.0, SVG Export Plug-In . SVG Version: 6.00 Build 0)  -->
<!DOCTYPE svg PUBLIC "-//W3C//DTD SVG 1.1//EN" "http://www.w3.org/Graphics/SVG/1.1/DTD/svg11.dtd">
<svg version="1.1" id="Layer_3" xmlns="http://www.w3.org/2000/svg" xmlns:xlink="http://www.w3.org/1999/xlink" x="0px" y="0px"
	 width="595.281px" height="595.281px" viewBox="0 0 595.281 595.281" enable-background="new 0 0 595.281 595.281"
	 xml:space="preserve">
<path fill="none" stroke="#000000" stroke-width="4" stroke-miterlimit="10" d="M395.475,26.807c0,0,1.332,30.667-1.334,64.667
	s-44.666,221.333-63.333,279.333s-75.333,180.666-75.333,180.666"/>
<path fill="none" stroke="#000000" stroke-width="3" stroke-miterlimit="10" d="M375.475,26.141c0,0-18.001,88-29.334,120.667
	s-56,118-83.333,164.667s-56,204.666-55.333,226s0.667,21.334,0.667,21.334"/>
<path fill="none" stroke="#000000" stroke-width="3" stroke-miterlimit="10" d="M368.141,189.641c0,0-21.5,91.5-37,140
	s-64.5,177.5-64.5,177.5"/>
<path fill="none" stroke="#000000" stroke-width="5" stroke-miterlimit="10" d="M272.141,25.141c0,0-8.667,133-8.667,168.333
	s-2,120-2,120"/>
<path fill="none" stroke="#000000" stroke-width="4" stroke-miterlimit="10" d="M231.891,26.016c0,0,2.666,273.999,1.333,307.333
	s-7.333,94.667-7.333,94.667"/>
<path fill="none" stroke="#000000" stroke-width="5" stroke-miterlimit="10" d="M67.141,560.641c0,0,27-21.5,35.5-21
	s19.5,16.5,32,17s12-17,23-16s20.5,19.5,41,19.5s32-18,46-15s21,18,44.5,17s47.5-8.25,60-25.25s25.5-17,34-16.5s40,1.75,44.5,10.75
	s-1.5,24,20,26s39.5-6.5,51.5-4s14.5,16,23,17s12,2,12,2"/>
</svg>
