<?xml version="1.0" encoding="utf-8"?>
<!-- Generator: Adobe Illustrator 16.0.0, SVG Export Plug-In . SVG Version: 6.00 Build 0)  -->
<!DOCTYPE svg PUBLIC "-//W3C//DTD SVG 1.1//EN" "http://www.w3.org/Graphics/SVG/1.1/DTD/svg11.dtd">
<svg version="1.1" id="Layer_4" xmlns="http://www.w3.org/2000/svg" xmlns:xlink="http://www.w3.org/1999/xlink" x="0px" y="0px"
	 width="595.281px" height="595.281px" viewBox="0 0 595.281 595.281" enable-background="new 0 0 595.281 595.281"
	 xml:space="preserve">
<path fill="none" stroke="#000000" stroke-width="4" stroke-miterlimit="10" d="M191.641,401.141c0,0-7.5-57,13.5-88.5
	s25.5-27,27.5-34s14.5-66.5,26.5-76s23-4,29.5-8.5s54.5-57,68.5-64.5s34.5-13.5,44-20s10.666-12.833,20-17.833s22-9.333,29-16.667
	s17.666-19.333,26-19.333s33.668-13,45.334-19.667s27.666-17,27.666-17s-24.666,36-26.666,39s-17.334,22.333-14.667,27.333
	s9.667,2.333,7,7.667s-20.666,20.667-21.333,24.667s2.666,25.333-0.334,32s-22,35-19,41.333s8.667,12,3.667,18.333
	s-15.666,12.667-16.333,21s2.332,15.333-0.334,20.667s-44.666,28.333-47.666,37.667s0.666,12.001-2.334,20.667s-30.666,26-32.333,33
	s0.333,12.666-4.667,16.333s-19.001,3.001-20.667,7.667s1.334,11.332-2.666,15.666s-25,10.333-30,14s-8,9-11,13
	s-14.667-0.999-21.333,2.334s-16,11.999-21.333,12.666s-22.333-6.334-28.667-8s-19.667,1-26.667,1.667s-11-4.333-11-4.333"/>
<path fill="none" stroke="#000000" stroke-width="3" stroke-miterlimit="10" d="M126.474,474.141c0,0,34.667-38.5,63.667-70.5
	s33.5-49.5,139.5-163.5s152-142,152-142s-84.5,82-127,126s-93.5,110.5-111,133.5s-120,153.5-125.5,160.5s-9,14-10,25s2,27,2,27"/>
<path fill="none" stroke="#000000" stroke-width="4" stroke-miterlimit="10" d="M120.807,83.474c0,0-5.333,254-8,267.333
	s-5.167,104.666-5.167,104.666"/>
<path fill="none" stroke="#000000" stroke-width="3" stroke-miterlimit="10" d="M76.141,84.141c0,0,14.667,48,10.667,87.333
	s-6.667,42-6.667,42"/>
<path fill="none" stroke="#000000" stroke-width="4" stroke-miterlimit="10" d="M86.641,167.141c0,0-13-1.5-21,3s-20,51.5-13.5,65.5
	s13,15.5,15.5,17.5c0,0-5,85.5-5,89s-10.5,180.5-10,188s1,34.5,1,34.5"/>
<path fill="none" stroke="#000000" stroke-width="3" stroke-miterlimit="10" d="M93.807,488.974c0,0,1.334-20.834,10.667-30
	s14.667-8.834,19.167-7s6.333,9.666,5.5,13.5s-6.333,17.834-9,22.334s-10.5,15.999-13,17.666s-10.667,0-13.667-4
	S93.807,488.974,93.807,488.974z"/>
<path fill="none" stroke="#000000" stroke-width="3" stroke-miterlimit="10" d="M251.141,268.141c0,0-10.75,29.25-11.25,37
	s2.25,34.5,2.25,34.5"/>
<path fill="none" stroke="#000000" stroke-width="3" stroke-miterlimit="10" d="M344.641,334.391c0,0-25.75,12.5-54.25,17.25
	s-43.75,2.75-43.75,2.75"/>
<path fill="none" stroke="#000000" stroke-width="3" stroke-miterlimit="10" d="M305.891,208.891c0,0-10.75,16-10.5,32.5
	s3.25,31.25,3.25,31.25"/>
<path fill="none" stroke="#000000" stroke-width="3" stroke-miterlimit="10" d="M395.141,260.641c0,0-19,9.25-47.25,13.75
	s-38.75,1.75-38.75,1.75"/>
<path fill="none" stroke="#000000" stroke-width="3" stroke-miterlimit="10" d="M430.641,206.641c0,0-18.25,8.5-33.5,8.5
	s-29.75-2.75-29.75-2.75"/>
<path fill="none" stroke="#000000" stroke-width="3" stroke-miterlimit="10" d="M387.141,135.391c0,0-15.75,19.75-16.75,31.75
	s-1,31-1,31"/>
</svg>
