<?xml version="1.0" encoding="utf-8"?>
<!-- Generator: Adobe Illustrator 16.0.0, SVG Export Plug-In . SVG Version: 6.00 Build 0)  -->
<!DOCTYPE svg PUBLIC "-//W3C//DTD SVG 1.1//EN" "http://www.w3.org/Graphics/SVG/1.1/DTD/svg11.dtd">
<svg version="1.1" id="Layer_5" xmlns="http://www.w3.org/2000/svg" xmlns:xlink="http://www.w3.org/1999/xlink" x="0px" y="0px"
	 width="595.281px" height="595.281px" viewBox="0 0 595.281 595.281" enable-background="new 0 0 595.281 595.281"
	 xml:space="preserve">
<path stroke="#000000" stroke-miterlimit="10" d="M450.289,37.719c0,0-7.913,23.743-7.123,40.362
	c0.792,16.619,24.534,38.779,27.699,51.442c3.166,12.662,3.958,110.005,17.411,128.208c13.454,18.202,49.86,19.785,56.19,18.202
	c6.331-1.583,17.411-12.662,17.411-12.662l2.374-227.134L450.289,37.719z"/>
<path stroke="#000000" stroke-miterlimit="10" d="M413.092,36.929c0,0-10.288,20.576-7.123,41.944
	c3.166,21.369,31.657,39.571,34.823,61.729c3.165,22.16-24.534,64.104-33.239,66.478c-8.707,2.375-19.786,2.375-22.16,16.621
	c-2.373,14.245-16.619,27.699-30.072,3.166c-13.454-24.534-24.535-34.03-24.535-52.233c0-18.202,10.289-26.116,5.54-39.57
	c-4.748-13.454-18.993-19.785-15.035-32.448c3.956-12.662,18.2-12.662,18.2-26.116s-16.619-13.454-21.366-22.159
	c-4.749-8.706,3.166-16.62,3.166-16.62L413.092,36.929z"/>
<path stroke="#000000" stroke-miterlimit="10" d="M275.387,36.929c0,0,34.822,33.238,18.203,42.736
	c-16.619,9.497-45.902-4.749-53.815,11.079c-7.915,15.828-18.995,26.908-28.491,11.08c-9.497-15.828-7.123-30.074-20.577-36.405
	c-13.454-6.332-18.995-27.7-18.995-27.7L275.387,36.929z"/>
<path stroke="#000000" stroke-miterlimit="10" d="M562.667,469.038c0,0-9.497-28.491-29.281-34.822
	c-19.785-6.332-34.822,13.454-41.945-3.958c-7.122-17.41-3.165-37.988-16.618-43.527c-13.454-5.539-46.693-8.706-37.196-31.656
	s28.491-34.822,27.699-49.857c-0.792-15.038,5.539-55.399-10.289-68.854s-31.656-31.656-39.57-17.411
	c-7.913,14.245-10.289,51.442-21.367,55.398c-11.079,3.958-68.062,22.951-68.853,56.981c-0.792,34.03,11.87,62.521,28.49,74.392
	c16.621,11.872,23.741,23.742,23.741,51.441s-4.747,79.142-11.078,86.265c-6.332,7.122-10.288,10.287-10.288,10.287l206.556-0.791
	V469.038z"/>
<path stroke="#000000" stroke-miterlimit="10" d="M562.667,294.928c0,0-37.985,11.871-47.483,6.332
	c-9.497-5.542-20.577-3.166-28.49,7.122c-7.914,10.288-11.871,53.023,0,61.73c11.87,8.704,37.988,17.41,43.527,27.699
	c5.539,10.287,27.699,28.489,30.864,28.489C564.251,426.3,562.667,294.928,562.667,294.928z"/>
<path stroke="#000000" stroke-miterlimit="10" d="M136.1,36.137c0,0-11.871,18.203,7.123,33.24
	c18.994,15.036,37.197,15.036,41.154,30.073c3.956,15.037-32.449,36.405-49.859,37.988c-17.411,1.583-41.944,13.454-44.319,24.534
	c-2.374,11.079-15.828,35.613-31.655,44.319c-15.829,8.706-25.326,23.742-22.16,23.742c3.166,0,0-191.521,0-191.521L136.1,36.137z"
	/>
<path stroke="#000000" stroke-miterlimit="10" d="M288.841,101.032c0,0-26.907-6.332-35.613,1.583
	c-8.706,7.915-13.454,30.865-7.123,46.693c6.332,15.828,26.116,23.742,33.239,15.828s26.117-13.454,28.491-20.577
	s-9.497-22.951-12.663-26.116C292.007,115.278,288.841,101.032,288.841,101.032z"/>
<path stroke="#000000" stroke-miterlimit="10" d="M37.174,299.675c0,0,18.993-2.374,25.324,12.664
	c6.332,15.035,5.541,74.391,5.541,85.472c0,11.078-0.792,68.853,2.374,74.392s-2.374,44.318-7.123,49.067
	c-4.748,4.747-15.036,18.202-27.699,18.202L37.174,299.675z"/>
<path stroke="#000000" stroke-miterlimit="10" d="M321.291,553.716c0,0,22.157-2.373,26.115-37.195
	c3.957-34.821,14.245-72.81-2.374-89.43c-16.62-16.618-43.527-30.864-56.19-30.864c-12.662,0-39.569-7.123-49.858,11.08
	c-10.288,18.203-21.368,55.399-35.614,37.196s-7.915-45.903,8.707-53.023c16.619-7.123,63.312-11.081,66.477-34.032
	c3.166-22.95,5.542-49.858,24.534-64.895c18.994-15.037,37.988-26.908,36.404-41.153c-1.582-14.246-9.496-26.909-26.115-38.779
	c-16.62-11.871-48.276-22.16-63.313-33.239c-15.037-11.08-18.203-26.117-20.576-37.197c-2.375-11.079-8.707-22.951-17.411-24.534
	c-8.707-1.582-33.24,13.455-42.737,22.951c-9.497,9.498-33.239,13.454-50.649,18.203c-17.412,4.749-15.829,37.987-30.074,46.692
	s-44.318,30.074-40.361,52.233c3.956,22.16,44.318,27.699,45.109,42.735c0.792,15.038-15.828,67.27-12.662,95.761
	c3.165,28.491,10.288,60.938,7.914,79.933c-2.374,18.993-9.496,46.692-22.951,57.772c-13.454,11.08-15.036,23.742-15.036,23.742
	L321.291,553.716z"/>
</svg>
