<?xml version="1.0" encoding="utf-8"?>
<!-- Generator: Adobe Illustrator 16.0.0, SVG Export Plug-In . SVG Version: 6.00 Build 0)  -->
<!DOCTYPE svg PUBLIC "-//W3C//DTD SVG 1.1//EN" "http://www.w3.org/Graphics/SVG/1.1/DTD/svg11.dtd">
<svg version="1.1" id="Layer_6" xmlns="http://www.w3.org/2000/svg" xmlns:xlink="http://www.w3.org/1999/xlink" x="0px" y="0px"
	 width="595.281px" height="595.281px" viewBox="0 0 595.281 595.281" enable-background="new 0 0 595.281 595.281"
	 xml:space="preserve">
<path stroke="#000000" stroke-miterlimit="10" d="M60.45,43.039c0,0,1.704,483.502-3.404,503.93
	c-5.107,20.43,34.045,1.701,37.453-3.406c2.777-4.166,10.306-198.445,12.642-301.922c0.528-23.402,7.029-41.201,6.087-52.192
	c-5.108-59.584,3.404-143.005-6.811-153.221C96.201,26.013,67.261,34.526,60.45,43.039z"/>
<path stroke="#000000" stroke-miterlimit="10" d="M159.406,393.108c0,0-7.023-106.407,45.75-150.882
	c50.193-42.296,139.866-46.277,181.528-42.988c48.52,3.832,148.753,47.456,161.521,67.034c0,0-53.627,8.938-97.039,26.814
	c-18.376,7.566-146.408,92.148-173.651,98.956c-27.243,6.808-85.973,7.236-91.082,4.684c0,0,47.244-75.334,111.939-105.979
	s101.289-31.286,128.532-37.242c0,0-85.118,1.491-133.215,24.473C263.619,292.348,179.835,357.356,159.406,393.108"/>
<path stroke="#000000" stroke-miterlimit="10" d="M94.39,541.723c0,0,49.254-100.105,69.061-120.314
	c16.189-16.519,16.189-17.769,16.189-17.769l-6.25-9l-13.771,2.085c0,0-42.988,56.604-50.223,66.819
	c-7.233,10.215-11.256,26.68-11.256,26.68L94.39,541.723z"/>
</svg>
