<?xml version="1.0" encoding="utf-8"?>
<!-- Generator: Adobe Illustrator 16.0.0, SVG Export Plug-In . SVG Version: 6.00 Build 0)  -->
<!DOCTYPE svg PUBLIC "-//W3C//DTD SVG 1.1//EN" "http://www.w3.org/Graphics/SVG/1.1/DTD/svg11.dtd">
<svg version="1.1" xmlns="http://www.w3.org/2000/svg" xmlns:xlink="http://www.w3.org/1999/xlink" x="0px" y="0px"
	 width="595.281px" height="595.281px" viewBox="0 0 595.281 595.281" enable-background="new 0 0 595.281 595.281"
	 xml:space="preserve">
<g id="Layer_4">
	<path stroke="#000000" stroke-miterlimit="10" d="M509.821,428.089c0,0,53.517-20.178,42.926-49.717
		c-10.588-29.537-43.092-32.816-43.092-32.816s44.95-37.689,23.278-63.369s-67.053-21.373-67.053-21.373s31.061-35.649,1.851-70.504
		c-29.211-34.855-70.459,1.857-70.459,1.857s15.063-53.06-26.099-80.337c-41.163-27.278-72.934,25.076-72.934,25.076
		s4.731-63.122-47.315-71.711c-52.044-8.588-58.521,62.906-58.521,62.906s-33.693-23.667-53.947-12.271
		c-20.252,11.396-50.954,73.938-12.867,78.999c38.086,5.061,37.268,13.419,37.268,13.419s-19.417,3.967-34.083,17.142
		c-14.666,13.175-9.968,26.084-9.968,26.084s41.455-2.021,64.333,4.333c1.991,0.552,14.354,5.13,16,6
		c20.546,10.857-3.333-53-3.333-53s34.668,3.669,53.333,26c18.667,22.333,22.333,25,22.333,25s8.484-32.153,3.667-46
		c0,0,26,7,37,26.667c8.601,15.376,16.051,41.175,20.667,30c2.698-6.526,0.333-41.333,0.333-41.333s40.608,29.229,47,59.667
		c6.102,29.055,8.843-17.03,14.334-22.667c0,0,26.629,27.048,33.075,41.55c8.091,18.2,9.507,23.283,17.341,8.2
		c3.112-5.992,25.5,32.5,29.739,45.892c2.257,7.129,15.041,15.573,27.12,17.264C513.829,380.739,509.821,428.089,509.821,428.089z"
		/>
</g>
<g id="Layer_5">
	<path stroke="#000000" stroke-miterlimit="10" d="M489.286,476.425c0,0-15.536,31.762-35.01,42.889c0,0,6.027-22.716-12.518-43.118
		c0,0-20.629,45.436-43.814,58.419c0,0,7.65-29.905-2.087-43.814c0,0-28.514,55.637-52.854,58.42c0,0,9.735-41.73-1.392-60.507
		c0,0-34.077,63.982-72.329,61.201c0,0,29.209-45.205,15.3-63.981c0,0-36.859,56.331-84.151,51.464c0,0,31.991-35.469,29.209-49.38
		c0,0-59.116,37.556-87.629,24.342c0,0,22.254-27.819,19.473-46.596c0,0-63.288,9.04-77.892-10.433c0,0,45.205-29.904,41.728-44.509
		c0,0-61.201,3.478-72.33-11.128c0,0,20.865-8.347,28.515-26.429c0,0-51.464-18.082-47.988-56.332c0,0,42.424-20.169,59.115-6.261
		c0,0,2.087-16.691-6.259-25.037c0,0,59.116-3.478,70.244,22.952c0,0-7.548-38.682-33.977-49.114c0,0,75.008-3.047,84.05,25.466
		c0,0,15.3-52.16,4.868-61.201c0,0,49.377,20.863,52.161,60.505c0,0,25.035-27.818,18.777-46.596c0,0,38.252,26.427,38.945,58.419
		c0,0,23.647-18.777,20.17-34.773c0,0,38.946,27.123,36.859,62.591c0,0,32.521-29.388,20.004-46.08c0,0,31.461,37.734,25.897,67.64
		c0,0,25.16-5.093,23.769-18.307c0,0,30.478,40.561,24.219,64.207c0,0,16.531-10.957,27.781-8.207
		c12.237,2.991-1.353,68.019-4.83,76.363c0,0-150.222-109.189-378.336-115.447C116.974,344.056,417.885,417.542,489.286,476.425z"/>
	<path stroke="#000000" stroke-miterlimit="10" d="M503.854,466.123c0,0,50.993,5.149,56.608,12.442
		c12.141,15.765-8.461,30.899-8.635,30.891c-9.365-0.483-13.516-12.676-31.859-20.189c-18.346-7.514-23.965-12.438-23.965-12.438
		L503.854,466.123z"/>
</g>
</svg>
