<?xml version="1.0" encoding="utf-8"?>
<!-- Generator: Adobe Illustrator 16.0.0, SVG Export Plug-In . SVG Version: 6.00 Build 0)  -->
<!DOCTYPE svg PUBLIC "-//W3C//DTD SVG 1.1//EN" "http://www.w3.org/Graphics/SVG/1.1/DTD/svg11.dtd">
<svg version="1.1" id="Layer_2" xmlns="http://www.w3.org/2000/svg" xmlns:xlink="http://www.w3.org/1999/xlink" x="0px" y="0px"
	 width="595.281px" height="595.281px" viewBox="0 0 595.281 595.281" enable-background="new 0 0 595.281 595.281"
	 xml:space="preserve">
<path stroke="#000000" stroke-miterlimit="10" d="M457.712,455.453c0,0,79.733-47.052,87.575-96.72
	c7.843-49.665-3.921-81.034-3.921-81.034s-52.277,2.619-73.192,27.449c-20.914,24.829-24.837,71.882-20.914,99.33
	C451.18,431.927,457.712,455.453,457.712,455.453z"/>
<path stroke="#000000" stroke-miterlimit="10" d="M457.712,455.453c0,0-87.206-31.085-130.37-5.292
	c-43.163,25.787-59.713,54.919-59.713,54.919s35.498,38.461,67.96,38.623c32.466,0.152,71.109-26.975,89.676-47.567
	C443.828,475.542,457.712,455.453,457.712,455.453z"/>
<path stroke="#000000" stroke-miterlimit="10" d="M398.895,173.13c0,0,35.298,41.823,26.147,86.265
	c-8.846,42.942-80.285,77.573-80.285,77.573s-28.198-65.802-5.98-114.165C360.994,174.439,398.895,173.13,398.895,173.13z"/>
<path stroke="#000000" stroke-miterlimit="10" d="M175.826,364.654c0,0,36.232,40.445,81.51,38.155
	c43.753-2.198,88.395-66.36,88.395-66.36s-60.97-37.113-112.037-22.738C182.635,328.085,175.826,364.654,175.826,364.654z"/>
<path stroke="#000000" stroke-miterlimit="10" d="M249.892,229.336c0,0,62.746-40.522,64.706-91.496
	c1.991-51.75-29.416-83.646-49.022-99.332c0,0-33.966,24.83-41.816,55.547c-5.537,21.673-3.921,72.533,13.065,94.758
	C253.813,211.039,249.892,229.336,249.892,229.336z"/>
<path stroke="#000000" stroke-miterlimit="10" d="M244.178,232.399c0,0-45.728,63.221-96.711,61.208
	c-51.749-2.038-80.866-37.872-94.835-59.897c0,0,27.646-33.989,58.932-39.848c22.079-4.126,72.64,1.654,93.342,21.444
	C225.614,235.079,244.178,232.399,244.178,232.399z"/>
<path stroke="#000000" stroke-miterlimit="10" d="M80.638,43.081c0,0,69.271,3.27,90.838,43.133
	c21.566,39.862,16.987,81.693,16.987,81.693s-48.348-6.541-76.455-40.521C83.902,93.405,80.638,43.081,80.638,43.081z"/>
<path stroke="#000000" stroke-miterlimit="10" d="M497.254,468.526c0,0,25.978-2.94,27.938,10.784
	c1.962,13.723-5.391,17.155-14.214,18.625c-8.822,1.471-25.978-1.962-25.978-13.234C485,473.427,497.254,468.526,497.254,468.526z"
	/>
<path stroke="#000000" stroke-miterlimit="10" d="M492.842,508.227c0,0,0.491,23.038-17.155,22.058
	c-17.645-0.98-24.996-22.547-16.665-35.29c8.334-12.744,24.018-6.371,27.448-3.431C489.902,494.503,492.842,508.227,492.842,508.227
	z"/>
<path stroke="#000000" stroke-miterlimit="10" d="M384.031,378.339c0,0-10.293-25.486-0.98-35.29
	c9.313-9.803,17.155-7.353,17.155-7.353s16.175,9.313,9.312,20.097C402.657,366.578,384.031,378.339,384.031,378.339z"/>
<path stroke="#000000" stroke-miterlimit="10" d="M376.678,373.929c0,0-16.174-8.823-27.938-2.45
	c-11.765,6.371-14.215,15.684-14.215,15.684s6.862,12.254,22.057,5.882C371.777,386.673,376.678,373.929,376.678,373.929z"/>
<path stroke="#000000" stroke-miterlimit="10" d="M278.159,263.646c0,0,13.725-8.333,12.745-20.585
	c-0.981-12.254-7.842-16.175-7.842-16.175s-13.235,4.411-12.254,12.743C271.788,247.96,278.159,263.646,278.159,263.646z"/>
<path stroke="#000000" stroke-miterlimit="10" d="M267.375,255.804c0,0-15.684-3.921-25.978,0.981
	c-10.293,4.9-11.763,20.096-11.763,20.096s19.606,7.352,27.938-1.47C265.905,266.586,267.375,255.804,267.375,255.804z"/>
<path stroke="#000000" stroke-miterlimit="10" d="M184.39,164.39c0,0,55.5,63.25,58.75,67.75s101,111.25,104.5,114
	s95.083,99.835,96.75,102.501s36.668,39.333,39.334,41.333s26,28,26,28s2.333-2.334,2.166-3.334s-58.333-64.667-58.333-64.667
	S336.391,324.307,335.724,322.307s-89.667-98.333-89.667-98.333l-60.333-63"/>
</svg>
