<?xml version="1.0" encoding="utf-8"?>
<!-- Generator: Adobe Illustrator 16.0.0, SVG Export Plug-In . SVG Version: 6.00 Build 0)  -->
<!DOCTYPE svg PUBLIC "-//W3C//DTD SVG 1.1//EN" "http://www.w3.org/Graphics/SVG/1.1/DTD/svg11.dtd">
<svg version="1.1" id="Layer_6" xmlns="http://www.w3.org/2000/svg" xmlns:xlink="http://www.w3.org/1999/xlink" x="0px" y="0px"
	 width="595.281px" height="595.281px" viewBox="0 0 595.281 595.281" enable-background="new 0 0 595.281 595.281"
	 xml:space="preserve">
<path stroke="#000000" stroke-miterlimit="10" d="M106.367,532.458c0,0-3.878-17.448,16.804-66.571
	c11.112-26.386,47.719-82.479,80.149-146.726c43.034-85.258,83.305-180.837,91.78-201.015c9.233-21.978,29.324-42.584,32.643-44.114
	c6.302-2.909,37.167,31.185-35.226,150.115c0,0,57.522-104.869,73.036-107.456c15.513-2.586,53.002-1.454,50.416,14.059
	c-2.587,15.512-106.648,201.989-110.526,218.792c0,0,55.585-74.979,69.806-99.54c14.222-24.56,50.416-117.635,56.881-121.513
	c6.465-3.879,38.129-18.747,35.546-8.404c-2.582,10.343-127.329,239.152-151.892,284.396
	c-24.559,45.242-65.93,150.604-78.856,162.237c-12.926,11.636-47.833,11.636-46.537-10.343
	c1.294-21.977,28.438-71.102,38.781-91.783c10.343-20.683,23.268-63.341,23.268-63.341s-20.681,41.366-36.194,58.17
	c-15.512,16.805-52.351,86.61-62.694,94.368C143.209,561.544,106.367,532.458,106.367,532.458z"/>
<path stroke="#000000" stroke-miterlimit="10" d="M385.64,195.14"/>
<path stroke="#000000" stroke-miterlimit="10" d="M448.612,103.928c0,0-18.417,4.522-21.651-4.204
	c-3.233-8.726-1.295-31.025-10.021-37.164c-8.727-6.14-28.765-15.188-38.782-12.926c-10.017,2.26-22.295,14.542-19.064,19.712
	c3.231,5.17,19.708,14.543,28.76,15.512c9.052,0.97,22.943,2.587,23.27,10.665c0.325,8.078-4.205,10.987-19.391,7.109
	c-15.188-3.878-58.168-23.269-55.907-44.599s20.682-27.469,26.5-29.086c5.816-1.617,21.651-5.496,51.706,4.848
	c30.056,10.343,47.508,21.652,51.385,30.056C469.294,72.256,474.468,93.263,448.612,103.928z"/>
</svg>
