<?xml version="1.0" encoding="utf-8"?>
<!-- Generator: Adobe Illustrator 16.0.0, SVG Export Plug-In . SVG Version: 6.00 Build 0)  -->
<!DOCTYPE svg PUBLIC "-//W3C//DTD SVG 1.1//EN" "http://www.w3.org/Graphics/SVG/1.1/DTD/svg11.dtd">
<svg version="1.1" id="Layer_3" xmlns="http://www.w3.org/2000/svg" xmlns:xlink="http://www.w3.org/1999/xlink" x="0px" y="0px"
	 width="595.281px" height="595.281px" viewBox="0 0 595.281 595.281" enable-background="new 0 0 595.281 595.281"
	 xml:space="preserve">
<path stroke="#000000" stroke-miterlimit="10" d="M153.667,190.694c0,0,39.975-116.29,163.533-89.035
	c123.557,27.255,196.238,92.667,181.702,190.788c-14.536,98.119-52.694,110.837-87.216,125.374c0,0,12.391-102.929-60.29-164.707
	C278.716,191.335,235.434,170.706,153.667,190.694z"/>
<path stroke="#000000" stroke-miterlimit="10" d="M154.576,212.497c0,0,37.356-23.554,78.239-10.833
	c40.883,12.719,160.721,93.591,163.171,180.811c1.622,57.759-44.265,72.597-118.763,107.119
	c-61.409,28.458-133.231,47.703-187.153,13.629c-3.694-2.336,22.042-51.262,3.634-61.78c-21.198-12.113-36.937,27.54-39.368,23.014
	c-26.652-49.662-10.6-110.23,5.754-137.484C76.444,299.714,113.693,228.85,154.576,212.497z"/>
<path stroke="#000000" stroke-miterlimit="10" d="M463.776,156.17c0,0,12.107,9.689,27.857,0
	c15.749-9.689,81.163-48.457,78.738-65.414c-2.423-16.957-31.497-9.692-35.13-3.633c-3.634,6.058-65.413,43.608-69.046,53.3
	C462.561,150.116,462.564,152.536,463.776,156.17z"/>
<path stroke="#000000" stroke-miterlimit="10" d="M67.661,464.456c0,0,18.17-19.986,19.987-4.844
	c1.817,15.145-4.238,30.283-7.872,34.524c-3.634,4.239-15.147,19.991-19.384,13.325C56.155,500.796,60.393,476.569,67.661,464.456z"
	/>
</svg>
