<?xml version="1.0" encoding="utf-8"?>
<!-- Generator: Adobe Illustrator 16.0.0, SVG Export Plug-In . SVG Version: 6.00 Build 0)  -->
<!DOCTYPE svg PUBLIC "-//W3C//DTD SVG 1.1//EN" "http://www.w3.org/Graphics/SVG/1.1/DTD/svg11.dtd">
<svg version="1.1" xmlns="http://www.w3.org/2000/svg" xmlns:xlink="http://www.w3.org/1999/xlink" x="0px" y="0px"
	 width="595.281px" height="595.281px" viewBox="0 0 595.281 595.281" enable-background="new 0 0 595.281 595.281"
	 xml:space="preserve">
<g id="Layer_3_1_">
	<path stroke="#000000" stroke-miterlimit="10" d="M320.371,378.471c0,0,17.778-7.196,26.209-27.615
		c11.101-26.884,28.573-54.646,49.949-39.002c27.64,20.222-11.853,50.795-38.191,66.192
		C344.651,386.049,320.371,378.471,320.371,378.471z"/>
	<path stroke="#000000" stroke-miterlimit="10" d="M398.821,303.729c0,0-4.03-2.705,5.017-21.824
		c10.618-22.444,52.799-86.904,65.654-87.18c12.855-0.274,25.299,10.553,20.972,19.858c-4.325,9.304-46.483,64.454-71.16,83.744
		C405.108,309.424,398.821,303.729,398.821,303.729z"/>
	<path stroke="#000000" stroke-miterlimit="10" d="M478.901,182.004c1.714-11.73,39.044-59.353,55.539-70.685
		c8.581-5.896,34.609-13.664,38.201-7.222c3.592,6.443-49.403,75.419-63.635,86.459c-14.876,11.54-16.509,7.65-21.619,3.706
		C482.274,190.317,477.97,188.393,478.901,182.004z"/>
</g>
<g id="Layer_2">
	<path stroke="#000000" stroke-miterlimit="10" d="M192.268,246.997c0,0-17.048-17.357-19.839-36.885
		c-2.789-19.527,1.984-56.394,10.229-76.871c9.609-23.867,21.363-33.476,29.136-33.476c15.808,0,24.642,14.858,30.064,28.207
		c8.06,19.838,17.049,56.723,8.68,88.339c-6.639,25.087-17.979,30.066-22.628,30.996c0,0-8.058-1.242-11.778-14.568
		c-3.719-13.328-5.268-38.435-5.268-38.435s-2.481,25.415-8.991,39.054C197.617,242.284,192.268,246.997,192.268,246.997z"/>
	<path stroke="#000000" stroke-miterlimit="10" d="M171.964,257.845c0,0-10.693-20.922-46.493-32.545
		c-35.8-11.624-90.849-8.406-95.313,14.413c-4.185,21.387,39.583,49.3,63.696,55.327c29.756,7.44,67.416,2.327,69.741,0
		c0,0-22.782-25.571-43.705-28.825C119.891,266.214,161.736,267.609,171.964,257.845z"/>
	<path stroke="#000000" stroke-miterlimit="10" d="M244.031,256.45c0,0,22.782-31.151,54.398-39.52
		c31.065-8.224,81.829-10.228,92.987,8.37c11.16,18.597-32.545,55.792-56.723,66.486s-59.977,8.368-71.135,6.045
		c0,0,1.86-19.527,17.668-26.967c15.806-7.439,18.132-8.833,18.132-8.833s-19.993,4.649-37.195,1.395
		C244.96,260.169,244.031,256.45,244.031,256.45z"/>
	<path stroke="#000000" stroke-miterlimit="10" d="M249.609,311.313c0,0,27.432,2.326,45.566,22.318
		c18.132,19.992,45.689,93.411,22.315,108.33c-21.852,13.948-83.224-40.914-92.058-65.559c-8.106-22.61-4.185-42.308-4.185-42.308
		s20.923-2.789,33.477,14.878C254.725,348.973,246.821,322.471,249.609,311.313z"/>
	<path stroke="#000000" stroke-miterlimit="10" d="M205.441,335.954c0,0-2.325,32.547-13.484,49.75
		c-11.158,17.203-74.021,72.55-96.707,51.606c-18.133-16.737,2.79-75.318,28.826-103.68c10.682-11.635,36.73-23.247,46.495-20.458
		c0,0-0.931,26.966-12.554,39.52C158.017,352.692,186.378,331.306,205.441,335.954z"/>
	<path stroke="#000000" stroke-miterlimit="10" d="M207.301,258.31c-23.718,0-27.896,15.809-26.967,28.362
		c0.931,12.553,4.185,29.756,27.896,29.292c23.712-0.466,28.826-13.95,29.292-28.364C237.985,273.188,233.801,258.31,207.301,258.31
		z"/>
</g>
</svg>
