<?xml version="1.0" encoding="utf-8"?>
<!-- Generator: Adobe Illustrator 16.0.0, SVG Export Plug-In . SVG Version: 6.00 Build 0)  -->
<!DOCTYPE svg PUBLIC "-//W3C//DTD SVG 1.1//EN" "http://www.w3.org/Graphics/SVG/1.1/DTD/svg11.dtd">
<svg version="1.1" id="Layer_4" xmlns="http://www.w3.org/2000/svg" xmlns:xlink="http://www.w3.org/1999/xlink" x="0px" y="0px"
	 width="595.281px" height="595.281px" viewBox="0 0 595.281 595.281" enable-background="new 0 0 595.281 595.281"
	 xml:space="preserve">
<path stroke="#000000" stroke-miterlimit="10" d="M306.392,389.683c0,0-159.63-4.228-222.896-66.121
	C20.23,261.677,8.203,189.593,44.558,160.823c57.408-45.427,123.911,14.937,165.235,98.841c0,0-20.967-78.874-18.385-131.321
	c2.492-50.629,49.429-55.98,66.807-53.882c17.387,2.098,30.303,19.043,58.243,18.139c27.955,0,37.272-15.974,54.576-18.634
	c17.304-2.66,41.27,1.33,53.251,50.583c11.98,49.253-5.327,101.174-5.327,101.174c38.602-85.195,101.173-90.523,137.115-61.238
	c35.941,29.285,11.981,89.193-49.257,153.09C445.58,381.472,306.392,389.683,306.392,389.683"/>
<path fill="#FFFFFF" stroke="#000000" stroke-miterlimit="10" d="M297.82,292.28c0,0,5.99-91.189,1.997-108.494
	c-3.993-17.304-7.987-12.647-2.664-28.622c5.323-15.975,12.647-19.968,21.965-13.978c9.317,5.99,19.964,14.648,13.311,25.295
	c-6.652,10.647-11.313,9.984-11.313,19.968c0,9.983-3.327,94.517,2.664,103.833c5.99,9.317,23.96,43.931,19.301,53.247
	c-4.661,9.317-15.312,24.629-36.609,24.629s-39.265-18.642-36.605-33.283C272.524,320.235,297.82,292.28,297.82,292.28z"/>
<path fill="#FFFFFF" stroke="#000000" stroke-miterlimit="10" d="M219.278,314.912c0,0-19.305,7.987-21.964,1.33
	c-2.66-6.656-9.317-27.956,4.66-23.962c13.978,3.995,19.301-1.997,23.295,7.987C229.262,310.251,219.278,314.912,219.278,314.912z"
	/>
<path fill="#FFFFFF" stroke="#000000" stroke-miterlimit="10" d="M244.573,264.325c0,0,1.327,10.647-7.324,13.31
	c-8.65,2.664-19.305,1.998-19.968-3.994c-0.663-5.99-7.324-21.964,1.997-25.291c9.321-3.327,19.973-2.664,23.298,3.994
	C245.903,259.002,244.573,264.325,244.573,264.325z"/>
<path fill="#FFFFFF" stroke="#000000" stroke-miterlimit="10" d="M267.201,231.709c0,0-13.977,9.321-9.983,18.638
	c3.993,9.317,15.311,13.311,22.631,7.32c7.32-5.991,14.645-15.312,10.651-23.962C286.506,225.056,267.201,231.709,267.201,231.709z"
	/>
<path fill="#FFFFFF" stroke="#000000" stroke-miterlimit="10" d="M348.407,234.373c0,0,18.635,9.984,12.645,19.968
	c-5.991,9.984-16.638,13.311-24.625,7.987c-7.987-5.324-11.984-18.638-9.321-21.965
	C329.769,237.037,348.407,234.373,348.407,234.373z"/>
<path fill="#FFFFFF" stroke="#000000" stroke-miterlimit="10" d="M374.366,258.334c0,0-9.321,15.307-1.334,23.295
	c7.986,7.987,17.304,3.993,21.965,0.666c4.659-3.327,12.651-18.638,5.327-25.958C393,249.018,374.366,258.334,374.366,258.334z"/>
<path fill="#FFFFFF" stroke="#000000" stroke-miterlimit="10" d="M406.314,300.934c-3.331,8.651-6.658,11.313-0.668,19.301
	c5.991,7.988,19.303,4.657,25.292-4.659c5.99-9.318,11.98-12.645,3.994-22.628c-7.987-9.984-9.98-8.651-14.642-5.99
	C415.631,289.617,406.314,300.934,406.314,300.934z"/>
<path stroke="#000000" stroke-miterlimit="10" d="M312.14,412.89c0,0-81.442-13.28-109.503-10.119
	c-35.83,4.036-93.182,39.265-85.195,54.576c7.987,15.312,28.622,15.308,42.6,1.997s38.606-37.272,71.885-39.27
	c33.278-1.996,61.901,1.331,61.901,1.331s1.329,88.853-0.667,99.502c-1.997,10.651,35.942,3.995,35.942,3.995
	s-5.993-100.168-0.666-102.165c5.327-1.996,81.206-1.332,102.503,16.638c21.298,17.972,61.234,40.607,73.215,29.29
	c11.98-11.318-3.993-40.604-21.298-50.587c-17.304-9.985-85.215-22.688-116.481-17.304C352.6,403.147,312.14,412.89,312.14,412.89z"
	/>
</svg>
