<?xml version="1.0" encoding="utf-8"?>
<!-- Generator: Adobe Illustrator 16.0.0, SVG Export Plug-In . SVG Version: 6.00 Build 0)  -->
<!DOCTYPE svg PUBLIC "-//W3C//DTD SVG 1.1//EN" "http://www.w3.org/Graphics/SVG/1.1/DTD/svg11.dtd">
<svg version="1.1" id="Layer_3" xmlns="http://www.w3.org/2000/svg" xmlns:xlink="http://www.w3.org/1999/xlink" x="0px" y="0px"
	 width="595.281px" height="595.281px" viewBox="0 0 595.281 595.281" enable-background="new 0 0 595.281 595.281"
	 xml:space="preserve">
<path stroke="#000000" stroke-miterlimit="10" d="M272.827,261.667c0,0-24.247-24.687-28.216-52.46
	c-3.967-27.773,2.822-80.207,14.549-109.331c13.667-33.945,30.384-47.611,41.44-47.611c22.482,0,35.047,21.132,42.76,40.118
	c11.463,28.215,24.247,80.674,12.344,125.64c-9.443,35.681-25.57,42.763-32.183,44.085c0,0-11.461-1.766-16.751-20.72
	c-5.29-18.955-7.493-54.664-7.493-54.664s-3.529,36.147-12.787,55.546C280.435,254.964,272.827,261.667,272.827,261.667z"/>
<path stroke="#000000" stroke-miterlimit="10" d="M243.95,277.095c0,0-15.209-29.756-66.125-46.288
	c-50.917-16.532-129.211-11.956-135.56,20.498c-5.952,30.419,56.298,70.118,90.593,78.691c42.321,10.581,95.883,3.308,99.19,0
	c0,0-32.402-36.37-62.159-40.998C169.889,288.999,229.403,290.982,243.95,277.095z"/>
<path stroke="#000000" stroke-miterlimit="10" d="M346.447,275.112c0,0,32.403-44.305,77.368-56.208
	c44.184-11.696,116.383-14.547,132.252,11.904c15.873,26.45-46.287,79.351-80.673,94.561
	c-34.387,15.209-85.304,11.902-101.174,8.597c0,0,2.646-27.773,25.129-38.354c22.481-10.581,25.789-12.563,25.789-12.563
	s-28.436,6.612-52.902,1.983C347.77,280.402,346.447,275.112,346.447,275.112z"/>
<path stroke="#000000" stroke-miterlimit="10" d="M354.381,353.14c0,0,39.016,3.308,64.806,31.743
	c25.789,28.434,64.984,132.854,31.739,154.073c-31.078,19.839-118.365-58.191-130.931-93.239
	c-11.528-32.158-5.951-60.174-5.951-60.174s29.759-3.968,47.612,21.16C361.657,406.704,350.415,369.012,354.381,353.14z"/>
<path stroke="#000000" stroke-miterlimit="10" d="M291.563,388.188c0,0-3.307,46.29-19.178,70.756
	c-15.87,24.467-105.278,103.184-137.542,73.4c-25.79-23.806,3.967-107.124,40.998-147.461
	c15.192-16.548,52.239-33.064,66.127-29.097c0,0-1.323,38.354-17.854,56.207C224.113,411.994,264.45,381.576,291.563,388.188z"/>
<path stroke="#000000" stroke-miterlimit="10" d="M294.208,277.757c-33.733,0-39.677,22.484-38.354,40.338
	c1.323,17.853,5.951,42.32,39.675,41.66c33.725-0.662,40.999-19.84,41.66-40.339S331.899,277.757,294.208,277.757z"/>
</svg>
