<?xml version="1.0" encoding="utf-8"?>
<!-- Generator: Adobe Illustrator 16.0.0, SVG Export Plug-In . SVG Version: 6.00 Build 0)  -->
<!DOCTYPE svg PUBLIC "-//W3C//DTD SVG 1.1//EN" "http://www.w3.org/Graphics/SVG/1.1/DTD/svg11.dtd">
<svg version="1.1" id="Layer_3" xmlns="http://www.w3.org/2000/svg" xmlns:xlink="http://www.w3.org/1999/xlink" x="0px" y="0px"
	 width="595.281px" height="595.281px" viewBox="0 0 595.281 595.281" enable-background="new 0 0 595.281 595.281"
	 xml:space="preserve">
<path fill="none" stroke="#000000" stroke-width="3" stroke-miterlimit="10" d="M191.391,16.641c0,0,3.75,22.75-11.75,40.25
	s-60,47.75-60,47.75"/>
<path fill="none" stroke="#000000" stroke-width="3" stroke-miterlimit="10" d="M200.141,16.891c0,0,2,25.5-15.25,41.5
	s-45.583,32.25-45.583,32.25"/>
<path fill="none" stroke="#000000" stroke-width="4" stroke-miterlimit="10" d="M209.641,18.391c0,0-0.25,26.75-17,41.5
	s-58.5,34.75-58.5,34.75"/>
<path fill="none" stroke="#000000" stroke-width="4" stroke-miterlimit="10" d="M227.391,17.141c0,0,2.5,17-16.25,36.75
	s-47,38.75-47,38.75l-34.667,7.667"/>
<path fill="none" stroke="#000000" stroke-width="3" stroke-miterlimit="10" d="M240.891,16.391c0,0-0.375,23.428-20,40.25
	c-11.813,10.125-26.583,14.167-26.583,14.167"/>
<path fill="none" stroke="#000000" stroke-width="3" stroke-miterlimit="10" d="M249.391,16.391c0,0-0.416,25.583-16.083,38.75
	s-39.333,18.333-39.333,18.333"/>
<path fill="none" stroke="#000000" stroke-width="3" stroke-miterlimit="10" d="M257.974,16.641c0,0,0.833,21.5-12.833,33.833
	s-26.833,23.667-26.833,23.667s-12.334,6.833-15.667,8"/>
<path fill="none" stroke="#000000" stroke-width="3" stroke-miterlimit="10" d="M267.391,29.391c0,0,2.25,10-4,18.75
	s-22.5,29-33,35.5s-26,2.5-26,2.5l-10.5-10.5l-0.75-6"/>
<path fill="none" stroke="#000000" stroke-width="4" stroke-miterlimit="10" d="M290.391,88.391c0,0,0.5-7.75-12-7.75
	s-21.25,5.75-24.75,7.5s-24.25,13-25.5,15.5s-0.25,10,4.5,11.75s12.25,5,12.5,7.5s-16,29.5-13.5,39s2.75,16,10,16.25
	s20.25-1.75,22.5-9.25s-1-21.5,4.25-30.75s17.25-14.5,20.75-21.25S290.391,88.391,290.391,88.391z"/>
<path fill="none" stroke="#000000" stroke-width="3" stroke-miterlimit="10" d="M276.141,160.891c0,0-2.5-14,18-31.25
	s23.5-21.75,29.75-21.75s17,12,17.75,14.5s0.5,18.75,2,20.75s8,9.75,4,16s-12.75,6-15.75,7.25s-8.25,13.25-8.25,16.25
	s-6.167,7.334-6.5,9.167s3.168,26.667-7.166,25.5s-10.668-14.333-11.334-21.833c-0.667-7.5-5.833-7.667-7.667-10.167
	s2.333-9.834-3.5-15.667s-5.833-2-8.5-4S276.141,160.891,276.141,160.891z"/>
<path fill="none" stroke="#000000" stroke-width="3" stroke-miterlimit="10" d="M310.808,17.308c0,0-5.999,3.167-3.833,6.667
	s11.5,8.833,6.833,11.167s-13.667-1-15.5,8.833c-1.833,9.833-0.334,24.167,0.833,27.167s-1.666,27.167,7.834,29.833
	s18.833,0.167,22.833-7s1.833-16.833,8.833-22.167s11.334-6.5,13.167-10.333s4.499-20.833,1.833-26.333s-11.334-11.833-11.5-18.833"
	/>
<path fill="none" stroke="#000000" stroke-width="3" stroke-miterlimit="10" d="M239.391,205.891c0-9.25,12.25-19.5,17.25-23.75
	s10.5-6,12.75-5.25s12.5,9.75,12.75,18.25s-4,19.75-2.25,23.25s9.75,14.5,9.5,18.75s-6.75,8.25-5.5,14.25s11.75,15-9.5,18
	s-24.5-0.5-25.5-6.25s0.25-21.25,6.25-27.25s11-12.5,6.5-16.5s-17-3-19.75-6.75S239.391,205.891,239.391,205.891z"/>
<path fill="none" stroke="#000000" stroke-width="4" stroke-miterlimit="10" d="M175.808,270.474c0,0-0.333-36.167,8.5-46.333
	s15.167-14.333,24.5-14.167s29.167,4.667,32.167,10.5s2.167,17.667-1.5,25s-4.5,18-2.5,21.833s3.333,10.167,1.167,12.667
	s-13.5,8.5-19.167,8.333s-12.5,1.166-16.167,3.333s-5.334,7.5-15.167-0.667S175.808,270.474,175.808,270.474z"/>
<path fill="none" stroke="#000000" stroke-width="4" stroke-miterlimit="10" d="M140.641,182.641c0,0,3.75-17.75,10.25-17.5
	s18.5,9.5,19.5,17.75s1.25,17,1.75,20.25s2.5,10.75-3.25,15.25s-9.75,5.5-10.75,10.25s-2.75,10.75-5.25,7.5s-7.75-14-8.5-20
	s1.25-13.5,1.5-16.75s-2.75-7-4.75-11S140.641,182.641,140.641,182.641z"/>
<path fill="none" stroke="#000000" stroke-width="4" stroke-miterlimit="10" d="M157.891,101.891c0,0,20-9.25,25-13.5
	s16-8.5,22,2.25s13.75,22.5,16.75,25.25s10.75,6.5,9.75,11.75s-13.25,22.5-10.25,33.5s11,18,8.75,22.25s-1,16.25-5,16.75
	s-19.75-0.5-26,3.25s-10.25,7-14,6.5s-8-18.5-6-25.75s-3.5-14.25-7.25-19.25s-17.75-7.5-17.75-14s13-15.5,14-24.25s0-11-2.25-12.5
	s-15,0.25-14-4.75S157.891,101.891,157.891,101.891z"/>
<path fill="none" stroke="#000000" stroke-width="3" stroke-miterlimit="10" d="M190.391,302.641c0,0,5.75,5.5,6.25,9.5
	s-8.75,14.5-12,18.25s-5.5,21.75,1.75,24.5s28.25,4,32.75,4.75s19-1.25,22.5-4.5s10.25-13.75,5.5-19.25s-8.5-16-9-21.75
	s0.25-15.75-7-19.5s-17.5-1.25-19.25-0.5s-16.25,7.125-17.875,5.875S190.391,302.641,190.391,302.641z"/>
<path fill="none" stroke="#000000" stroke-width="4" stroke-miterlimit="10" d="M293.391,275.891c0,0-19,0.25-23.25-0.25
	s-11.25-2.75-16,6s-12.25,12.75-9.25,19.25s12.5,11,14,16s-2.5,27.75,3,39.5s13.25,19.5,21.25,16.5s14.5-4.75,15.75-16
	s-0.5-39.25-2.25-44.5s1-13.25,3.75-19.75s1.5-15.75-1.5-16.75S293.391,275.891,293.391,275.891z"/>
<path fill="none" stroke="#000000" stroke-width="4" stroke-miterlimit="10" d="M352.475,17.141c0,0,10.666,6,10.333,16
	s-0.333,25.667-4.333,33.667s-13,28.667-10,33.667s12,15.667,15.333,21.667s8.333,20.333,5,31s-29.001,32.667-33.667,39.333
	s-6.332,17-5.666,20.667s-6,7.333-7,14s4,14,6.333,18s1.001,13.333,3.667,17.667s5.667,6,10,1.333s4.666-12,12.333-13.333
	s14.667-4.333,23,3.333s23,2.667,25,0s12.333-22,18-26.333s10.666-8.333,20.333-7.333s16.334-18,19.667-25s4.999-28.333,4.333-30"/>
<path fill="none" stroke="#000000" stroke-width="4" stroke-miterlimit="10" d="M361.641,259.141c-8.25,2-15,9.5-16,10.75
	s-13.75,4.75-16.75,4.75s-7.5,13.5-7.5,18.5s3.5,40.25,4,41.75s-4.75,10.75-5.5,13s-5.75,9-2.25,15.25s18.5,13.75,19.25,20.25
	s-9,16-6.25,27.75s14.75,13,25.75,10.25s27.25-14.75,29.25-26.25s-2.5-18.25-4.5-20s-15.25-1.5-14-12s3.25-22,11-32.75
	s14.75-25.75,13.75-35.75s-3.5-15-7.5-20.5s-9.5-13.75-13-14.75S361.641,259.141,361.641,259.141z"/>
<path fill="none" stroke="#000000" stroke-width="4" stroke-miterlimit="10" d="M454.891,277.141c0,0-3-3.5-7-4.5s-10.5,0.5-12.75-6
	s-4.5-13.75-11.5-10.25s-17,17.5-19.5,17.75s-5,2.25-6,6s2,17.75,0,24.25s-12.75,23.5-13.75,26.75s-6.25,19.25-4.75,24.25
	s9.75,24.5,20,26.5s27.5-3.75,32.5-14s8-18,4.75-23.5s-9.5-5.75-7.5-13.5s7.25-23.75,13.75-28.75s8-5.5,12.25-9.5s7.25-7.25,6.75-10
	S454.891,277.141,454.891,277.141z"/>
<path fill="none" stroke="#000000" stroke-width="3" stroke-miterlimit="10" d="M415.141,397.641c-6.25-5.75-13-10-22-0.25
	s-7.25,20-11.25,24.25s-18.5,10-22.75,10.25s-13.75-5.5-22,4.25s-5.75,21.25-5.25,25.25s5.75,12.75,4.5,17.5s-8.25,7.25-11.75,15.5
	s-2.25,15.5,3.5,17.5s49.75,12.5,66.75,4.25s27.5-15.75,28.25-25.25s-4.5-12.5,2-20s14.5-7.75,15.75-13s4.25-19-0.75-24.25
	s-10-0.5-15.25-5.25s-1.5-8.75,0.5-16.25s-1.25-6.75-2.75-8.25S415.141,397.641,415.141,397.641z"/>
<path fill="none" stroke="#000000" stroke-width="4" stroke-miterlimit="10" d="M434.641,507.308c-4,3.333-13.5,7.333-17,9.833
	s-2.5,6.833-2,10.5s0.5,6.667-2.333,9.167s-8.334,7-8.667,9.333s1.334,6.833,2.167,10.833s2.167,9.833,2.5,13
	s-4.166,8.666,3.667,6.5s8.832-3.167,11.166-7.5s10.333-12.332,10-19.666s-1.666-8.668-4.666-11.834s-7.001-5.5-4.834-8.833
	s6.666-10.667,10-12s4.333-1.333,5-3.333s2.833-5.001,1-6.334S434.641,507.308,434.641,507.308z"/>
<path fill="none" stroke="#000000" stroke-width="4" stroke-miterlimit="10" d="M275.391,429.891c-4.75,3.75-6.25,7-10,13
	s-8.75,8.5-11,10.75s-2.25,2.5-2.75,8s1.25,5.25-4.5,11.5s-6.25,10.25-8.5,10.25s-5.5-3.25-7,6.25s-2.25,15,5,17.25
	s14,7.75,21.25,1.25s18.5-11.25,25.5-11.75s9.25,1,11-8.75s3.25-5.75-1.75-15.75s-4.5-9.5-3.75-14.25s1-14.75,2.25-18.75
	s2.75-8.25-1.25-11.75s-6.5-5.25-9-3.25S275.391,429.891,275.391,429.891z"/>
<path fill="none" stroke="#000000" stroke-width="4" stroke-miterlimit="10" d="M260.391,380.641
	c2.875,0.75,7.375,1.75,12.125,5.125s11.875,8.625,12.125,13.375s-1,10.5-2.875,12.875s-1.5,2.625-5.125,6.75s-2.5,5.625-6.25,7.125
	s-6.5,4.75-8.125-1.125s-1.875-6.25-2.75-11.25s-0.375-4.5-2.75-8.75s-3.25-7.5-2.125-11.5s-1-10.25-0.625-11.875
	s0.125-2.625,1.75-3.125S260.391,380.641,260.391,380.641z"/>
<path fill="none" stroke="#000000" stroke-width="4" stroke-miterlimit="10" d="M118.557,293.808c0,0,12.917-23.667,20.917-23
	s24.333,6.999,24,23.333s-6.667,36.666-6.667,42s-1.667,31.334-2.333,35.334s-1,26-4.667,30.333s-17,11.999-17.667,17.333
	s0,13,0,15.667s1.416,10.973-4.667,13c-3,1-9.833,1.333-9.833,1.333"/>
<path fill="none" stroke="#000000" stroke-width="4" stroke-miterlimit="10" d="M175.641,365.891c0,0,3,13.75,1.5,18.5
	s-5.75,33.25-5.25,41s15,27.75,19,34.5s3,19,3,24.75s-4,36.75-8,40s-11.25,1.5-20.25-7.5s-16-14.25-20.25-19s-10.5-7.75-6.25-14.25
	s6.75-9,8.5-17.5s-2-29.25-2.75-35.5s2.5-11.5,9.5-19.25s15.25-19.75,13.75-29s-3.25-10.5-0.5-15s3.25-5.25,4.25-5.25
	S175.641,365.891,175.641,365.891z"/>
<path fill="none" stroke="#000000" stroke-width="3" stroke-miterlimit="10" d="M217.391,577.391c0,0,0-6.5,0.25-9.75
	s1.75-9.75,6-12.75s7.25-8.25,11.5-15.25s8.5-23.25,1.25-25.5s-11.75-18-13.25-24s5-18,9.25-23.5s6.25-14.5,10.25-17.25
	s14.5-14.75,15.75-18.5s-2.5-5.75-5-11s-3.75-10.25-4-13.25s-0.25-11-0.5-15s-6-6.75-10-7.75s-8.25,2.25-13.5,5.5s-6-6.5-7.5-10.25
	s-10-13.5-13.5-14.75s-11.75,3.75-17,9c0,0-5,6.5-4.5,14.5s-2.25,25.25,0,28.75s4.25,6.75,3,13.5s0.25,13.75,2.5,17
	s8.5,10.5,10,15.75s2.25,28-1.5,41.75s-5.75,24.75-4.5,30.25s4.75,35.5,4.75,41.25"/>
<path fill="none" stroke="#000000" stroke-width="4" stroke-miterlimit="10" d="M236.141,576.641c0,0,0.75-21.25,5-29
	s5-16.5,4.5-20.75s2.5-11.25,7.75-11.5s17.25,4.5,17.5,7.5s0.25,7.75,6.75,12.75s13,2.75,15.5,11.25s4,18,2.75,21.25
	s-2.75,9.25-2.75,9.25"/>
<path fill="none" stroke="#000000" stroke-width="3" stroke-miterlimit="10" d="M319.141,576.391c0,0-3.25-17.25-10.25-26.5
	s-9-21.75-9.75-25s-4.5-6-7-7.5s-8.5-2.5-8.75-5.5s3.417-12.083,8.917-11.083s7.083-4.167,13.083-2.917s10.25,10,11.5,11.75
	s8,11.75,11.75,13.75s15-0.5,19.25,0.25s24.5,3.25,33.25,1.75s15.75-5.25,18.75-0.25s6.25,6.75,3,12.75s-5.5,9-5.75,12.5s-1,7,2,15
	s5,11.25,5,11.25"/>
<path fill="none" stroke="#000000" stroke-width="3" stroke-miterlimit="10" d="M318.641,377.891c-3.75,4.5-5.5,8.5-10.75,11.25
	s-14.25,3.75-13.75,14.5s1.75,15.25,3.5,22.25s1.5,7.25,3.5,12.75s1,22.25,6.5,30.5s10.75,11.75,14.75,7s3-15,1.25-21.75
	s-0.25-17.5-1.5-25.75s-6-18-5-22s2.25-8.5,6.25-15.25s5.25-7.5,4.25-11.25s-2.25-5.75-3.5-6S318.641,377.891,318.641,377.891z"/>
<path fill="none" stroke="#000000" stroke-width="2" stroke-miterlimit="10" d="M128.641,99.141c3.5,7,15.5,20,22,21.25
	s15.25,3,10.5,11s-17.5,20.5-20.75,24.5s-11.75,15.25-12.5,22.75s1.5,14.25,3.75,18.5s6.25,7.5,6.25,14.25s-2.75,9.25,1,14.75
	s8.25,6.5,11,13s7.25,9.75,5.5,14.5s-5.75,7.25-9.25,7.25s-9.25-2.25-14.75,3s-10.833,9.25-12.583,10"/>
<path fill="none" stroke="#000000" stroke-width="3" stroke-miterlimit="10" d="M155.141,19.141c-3.5,11.75-7,14.5-10.25,18.75
	s-8.5,10-11.5,11.5s-14.25,3.5-14.25,3.5"/>
<path fill="none" stroke="#000000" stroke-width="4" stroke-miterlimit="10" d="M-187.859-31.192"/>
<line fill="none" stroke="#000000" stroke-width="4" stroke-miterlimit="10" x1="119.474" y1="17.474" x2="117.474" y2="571.473"/>
<path fill="none" stroke="#000000" stroke-width="3" stroke-miterlimit="10" d="M335.308,539.308c3.5-6,1.499-6.832,7.166-7.666
	s12.166-2,15.5,4.333s7.166,10.666,3,16.333s-13.5,11.334-18.833,9.167s-8.833-2.666-9-8.833S335.308,539.308,335.308,539.308z"/>
<path fill="none" stroke="#000000" stroke-width="3" stroke-miterlimit="10" d="M366.474,530.308c0,0,15.5,7.666,10,19
	s-16.333,17.667-18.333,18.667"/>
<path fill="none" stroke="#000000" stroke-width="3" stroke-miterlimit="10" d="M381.474,531.308c0,0,10.167,8.5,7.167,21
	s-5.834,16.334-9.667,19.167s-11.166,3.667-11.666,3.667"/>
<path fill="none" stroke="#000000" stroke-width="4" stroke-miterlimit="10" d="M474.641,176.891c0,0-5.25,25-14,37.75
	s-17.25,14.75-21,17s-12.25,5.75-13.25,10.5s4.25,11.5,11.75,12.5s24.25,0.5,28.25,1.25s13.5,2.75,13.5,2.75"/>
<path fill="none" stroke="#000000" stroke-width="2" stroke-miterlimit="10" d="M412.641,290.974c0,0,8.166,6,10,10.5
	s2.666,16.666-0.5,23.666s-8.5,15.834-8.5,15.834"/>
<path fill="none" stroke="#000000" stroke-width="2" stroke-miterlimit="10" d="M449.475,286.974c0,0-0.001,2.833-4.334,5.667
	s-9.166,5.5-11.333,7.667s-9.667,11.001-9.5,11.667"/>
<path fill="none" stroke="#000000" stroke-width="2" stroke-miterlimit="10" d="M287.266,390.391c-5.5-4.5-4.833-10.499,1.5-13.833
	s12.5-10.5,17-2.167s3.166,9.833-2.5,11.833C297.599,388.224,287.266,390.391,287.266,390.391z"/>
<path fill="none" stroke="#000000" stroke-width="3" stroke-miterlimit="10" d="M277.474,48.641c0,0-4.333,7.167-11.167,14.333
	s-19.334,19.5-28.667,24.333s-11.5,5.5-17.333,6.167s-9.833-6-9.833-6"/>
<path fill="none" stroke="#000000" stroke-width="3" stroke-miterlimit="10" d="M300.641,15.808c0,0-10.333,5.5-10.167,11.333
	s3.667,13.833,3.5,17s-8.5,6.667-9.333,13.667s1.833,9.333-0.167,11.667s-9.833,10.667-13,12"/>
</svg>
