<?xml version="1.0" encoding="utf-8"?>
<!-- Generator: Adobe Illustrator 16.0.0, SVG Export Plug-In . SVG Version: 6.00 Build 0)  -->
<!DOCTYPE svg PUBLIC "-//W3C//DTD SVG 1.1//EN" "http://www.w3.org/Graphics/SVG/1.1/DTD/svg11.dtd">
<svg version="1.1" id="Layer_4" xmlns="http://www.w3.org/2000/svg" xmlns:xlink="http://www.w3.org/1999/xlink" x="0px" y="0px"
	 width="595.281px" height="595.281px" viewBox="0 0 595.281 595.281" enable-background="new 0 0 595.281 595.281"
	 xml:space="preserve">
<path fill="none" stroke="#000000" stroke-width="7" stroke-miterlimit="10" d="M29.141,595.281c0,0-3-35.141-1-63.141
	s27-180,20-196s-2-70,1-94s10-196,13-216s1-26.141,1-26.141"/>
<path fill="none" stroke="#000000" stroke-width="7" stroke-miterlimit="10" d="M572.141,595.281c0,0-1-232.141-3-262.141
	s-1-207-3-213s-7-118-7-118"/>
<path fill="none" stroke="#000000" stroke-width="4" stroke-miterlimit="10" d="M517.475,595.281c0,0-3.334-22.475-7.334-29.141
	s-9.999-29.999-10.666-34.666s-7.333-19.334-8-28.667s-1.334-37.333-1.334-47.333s-4-31.334,2.667-38.667"/>
<path fill="none" stroke="#000000" stroke-width="4" stroke-miterlimit="10" d="M509.475,484.808c0,0-8-25.999-4-31.333
	s0.666-18.667,5.333-24.667s11.333-0.666,9.333-17.333s7.333-24.667,8-30.667s3.333-14.667-2-20s-8-16-8-16"/>
<path fill="none" stroke="#000000" stroke-width="3" stroke-miterlimit="10" d="M489.475,595.281c0,0-5.333-24.474-10-32.474
	s-10-16-8-24s0-25.333,0-28s6-9.333,6-9.333"/>
<path fill="none" stroke="#000000" stroke-width="4" stroke-miterlimit="10" d="M453.475,595.281c0,0-8.667-21.807-8.667-34.474
	s12-24.666,4-33.333s-3.333-25.333-1.333-32s11.999-25.333,12.666-44s6.001-28.668,3.334-39.334s6-21.332-2-28.666
	s-10.668-10.666-11.334-16s3.334-17.334,3.334-17.334s-7.334-6-6.667-11.333s5.333-43.333,2-47.333s-7.334-10.667-6.667-14.667
	s2.666-15.333,2-25.333s-3.334-20-2-28c0,0-9-20.333-10.5-25.333s-9.5-22-10-28.5s3.5-54.5,0-62.5s-1.5-15,1-18.5s0.5-10-1.5-14
	s-9.5-11.5-3.5-21"/>
<path fill="none" stroke="#000000" stroke-width="4" stroke-miterlimit="10" d="M418.141,595.281c0,0-2-53.14-1.333-57.807
	s-12.667-0.666-12.667-4s0.668-35.333,3.334-40s2.666-27.333-1.334-36s-7.999-24.667-2.666-36.667s-0.001-18.667,0.666-28
	s0-15.333,0-15.333"/>
<path fill="none" stroke="#000000" stroke-width="3" stroke-miterlimit="10" d="M372.808,597.475c0,0-10.666-6.666-1.333-16
	s14-5.334,16-16.667s2.667-28.001,4-30.667"/>
<path fill="none" stroke="#000000" stroke-width="4" stroke-miterlimit="10" d="M128.141,595.281c0,0,3.333-22.473,4-31.807
	s-1.333-28,3.333-38.667s4-39.333,6.667-46s4-10,4-22s-3.333-30,1.333-34c0,0-2.833-20.167-2.833-25.667s-9.5-10.5-9.5-18.5
	s2.5-11.5,3-24.5s-3-25-3-26.5"/>
<path fill="none" stroke="#000000" stroke-width="4" stroke-miterlimit="10" d="M106.808,595.281c0,0-2.667-26.473,3.333-33.807
	s7.334-25.333,4.667-30s-0.667-14.001,1.333-27.334s-4-23.333,0-33.333s4.667-42.001,5.333-44.667"/>
<path fill="none" stroke="#000000" stroke-width="4" stroke-miterlimit="10" d="M86.808,595.281c0,0,10.667-22.473,6-31.807
	s2.667-22,2.667-24s-4.667-58-0.667-64.667s2.667-33.333,2.667-33.333"/>
<path fill="none" stroke="#000000" stroke-width="4" stroke-miterlimit="10" d="M70.141,595.281c0,0,1.334-33.807,4.667-40.474
	s5.333-61.334,6.667-68.667s-2-28.666-2-28.666"/>
<path fill="none" stroke="#000000" stroke-width="4" stroke-miterlimit="10" d="M176.141,595.281c0,0,8.667-23.141,7.333-28.474
	s0.667-38.667-2.667-48s-0.667-13.999,0-17.333s-2.667-18.001-1.333-23.334s8-20.666,10.667-27.333s4-24,3.333-28
	s-4.667-17.333-4.667-17.333"/>
<path fill="none" stroke="#000000" stroke-width="4" stroke-miterlimit="10" d="M238.141,595.281c0,0-1.333-9.141-6.667-18.474
	s-12.667-23.999-13.333-29.333s8-26,6.667-32s-6.667-9.334-4.667-16.667s3.334-29.333,2.667-40s-4.667-20,1.333-28
	s6-22.667,6-22.667"/>
<path fill="none" stroke="#000000" stroke-width="4" stroke-miterlimit="10" d="M281.474,598.141
	c-2-2.859,6.667-19.999,4.667-26.666s-13.333-24-14-42s2-18,0.667-26.667s-10.667-26.667-10.667-26.667"/>
<path fill="none" stroke="#000000" stroke-width="3" stroke-miterlimit="10" d="M476.808,286.807c2-1.333-1.333-14-2-22
	s-2.667-28-2.667-35.333s-3.333-25.334-7.333-32.667s-19.333-15.333-17.333-26s12-32,12-38s-0.666-9.333,2-26.667
	s-4.666-22.667,0-32s5.333-28,5.333-28"/>
<path fill="none" stroke="#000000" stroke-width="3" stroke-miterlimit="10" d="M507.475,328.141c0,0-11.334-0.001-11.334-8.667
	s0-29.333,2-33.333s8.001-18,3.334-26.667s-8.667-33.334-10.667-36.667s-6.001-16-0.667-26.667s5.333-30.667,6-42.667
	s-3.332-64.667-4.666-78.667s-3.334-26.667-3.334-26.667"/>
<path fill="none" stroke="#000000" stroke-width="5" stroke-miterlimit="10" d="M496.141,397.474c-0.666-2,3.334-14-6.666-16
	s-14-8-14.667-20s8.666-33.333,5.333-37.333s-6,0.666-7.333-6.667s-1.333-28.667-1.333-28.667"/>
<path fill="none" stroke="#000000" stroke-width="4" stroke-miterlimit="10" d="M390.808,430.808c0,0-12.667-7.333-10-16
	s10.001-18.666,6.667-30s-9.334-17.333-2.667-22s22.667,2,14.667-14.667s-10-26-10-30s-1.334-12-1.334-12"/>
<path fill="none" stroke="#000000" stroke-width="4" stroke-miterlimit="10" d="M409.475,330.808c0,0,3.334-20-2-24
	s-14-13.333-14.667-23.333s-2.666-16.667-3.333-23.333s-7.334-7.333-7.334-17.333s8.667-46.667,8.667-52s-2.666-23.333,0.667-35.333
	s-0.001-22.667-3.334-38.667s-2-27.333-2-29.333s2-24,2-34s-3.332-25.334-4.666-34.667s-1.334-16.667-1.334-16.667"/>
<path fill="none" stroke="#000000" stroke-width="3" stroke-miterlimit="10" d="M382.141,348.141c0,0,1.334-18.001-11.333-20.667
	s-12.667-16.001-12.667-26c0-10,10.001-10.666,1.334-22s1.999-17.334,0.666-26.667s-2.666-19.333-2.666-24.667
	c0,0,0.666-41.333,0.666-51.333s-2.667-24-12.667-48s-10-32.667-9.333-46.667s1.333-22,3.333-32s2.667-26,2.667-26"/>
<path fill="none" stroke="#000000" stroke-width="3" stroke-miterlimit="10" d="M354.808,375.474
	c-1.333-2-19.333-3.333-21.333-17.333s-10-27.333-12.667-37.333s-9.333-18.667-3.333-28.667s2.666-19.333,4.666-27.333
	s4-14.667,4-14.667"/>
<path fill="none" stroke="#000000" stroke-width="4" stroke-miterlimit="10" d="M522.808,341.474c0,0,3.334-30,4.667-48.667
	s-0.001-52.667-1.334-60s2.668,4-0.666-11.333s-6.666-23.333-4-29.333s3.334-15.333,4-21.333s5.332-41.333,0.666-53.333
	s-8.666-26.667-6.666-36s3.334-14,2-24.667s-4.667-32-4.667-35.333s-0.667-26-0.667-26"/>
<path fill="none" stroke="#000000" stroke-width="4" stroke-miterlimit="10" d="M544.141,336.808c0,0-3.333-24,0.667-45.333
	s7.333-36,7.333-52.667s-6.666-18-1.333-36s-0.667-45.333,0-54.667s-6-11.333-2-27.333s0.667-28-1.333-35.333s-1.333-11.333-2-18
	s0.667-34-2-42S542.141,0,542.141,0"/>
<path fill="none" stroke="#000000" stroke-width="3" stroke-miterlimit="10" d="M368.641,583.141c0,0-9-16-12-29s1-21.5-4-31
	s-8-12-2.5-19.5s14.5-13.5,16-16.5s3.5-15,3.5-15"/>
<path fill="none" stroke="#000000" stroke-width="3" stroke-miterlimit="10" d="M274.141,504.641c0,0,10,1,16.5-6.5s11.5-17,21.5-28
	s15.5-18.5,22-25s6.5-10,10-20s4-18.5,4-18.5"/>
<path fill="none" stroke="#000000" stroke-width="3" stroke-miterlimit="10" d="M229.641,417.141c0,0,2.5,0-7.5-5.5
	s-13.5-8-19.5-5.5s-12,2.5-12,2.5"/>
<path fill="none" stroke="#000000" stroke-width="3" stroke-miterlimit="10" d="M219.641,502.641c0,0-9,0.5-12.5,0.5
	s-11.5-1.5-16.5,3.5s-11.5,2-11.5,2"/>
<path fill="none" stroke="#000000" stroke-width="3" stroke-miterlimit="10" d="M179.641,486.141c0,0-16.5,2-21-1.5s-15-9.5-15-9.5"
	/>
<line fill="none" stroke="#000000" stroke-width="3" stroke-miterlimit="10" x1="133.641" y1="533.641" x2="116.141" y2="538.641"/>
<path fill="none" stroke="#000000" stroke-width="3" stroke-miterlimit="10" d="M214.641,405.641c0,0-7-10-1.5-20.5s6-21.5,8-33
	s0.5-13.5,7.5-20.5s6.5-14,12.5-12s24,16,35,16s20-3.5,20-3.5"/>
<path fill="none" stroke="#000000" stroke-width="4" stroke-miterlimit="10" d="M174.641,406.141c1.5-7.5,3.5-21.5,2.5-26.5
	s-9.5-20-7.5-31.5s-1.5-24.5,6-33.5s7-7.5,13-15s9.5-12.5,15-19s6.5-13,9.5-18.5s22-35.5,15-46.5s-7-30.5-4-36s9.5-8.5,12.5-9.5
	s13.5-18,13-29s-4.5-16,0.5-24.5s19.333-21.833,18.667-37.833s-2-22-8-35.333s-5.333-17.333-5.333-17.333"/>
<path fill="none" stroke="#000000" stroke-width="4" stroke-miterlimit="10" d="M200.141,169.474c-1.333-6,2.667-32,6.667-38
	s7.334-27.333,8.667-39.333s0-21.333,5.333-36s8-19.333,8-23.333s-1.333-12-1.333-12"/>
<path fill="none" stroke="#000000" stroke-width="3" stroke-miterlimit="10" d="M257.474,33.474c0,0-2.667-1.333-11.333,0
	s-17.333-0.667-17.333-0.667"/>
<path fill="none" stroke="#000000" stroke-width="4" stroke-miterlimit="10" d="M302.808-3.193c0,0-0.667,28.667-2.667,30.667
	s-4.667,10.667-4.667,10.667s8.666,6,10,22.667s3.334,31.333,3.334,41.333s5.333,4.667-0.667,17.333s12.666,32,9.333,42
	s-7.334,28.667-8,36s0.666,24.667,6,34s13.333,12,12,15.333s-4,2.667-4,2.667"/>
<path fill="none" stroke="#000000" stroke-width="3" stroke-miterlimit="10" d="M312.808,116.807c0,0-0.668,8,12.666,0.667
	s13.334-7.333,13.334-7.333"/>
<path fill="none" stroke="#000000" stroke-width="3" stroke-miterlimit="10" d="M224.808,515.475c0,0,7.833-1.334,17.833,0.166
	s20.5,1,20.5,1l9-1"/>
<path fill="none" stroke="#000000" stroke-width="3" stroke-miterlimit="10" d="M55.141,567.641c0,0,5,2,6.5,3.5s5-1.5,9-1.5"/>
<path fill="none" stroke="#000000" stroke-width="5" stroke-miterlimit="10" d="M62.141,489.141c0,0,0,37,0,43s-4,30-4,30l-6,23
	l-6,10.141"/>
<path fill="none" stroke="#000000" stroke-width="3" stroke-miterlimit="10" d="M445.641,520.141c0,0,5.5-5,12-2s14,0.5,14,0.5"/>
<path fill="none" stroke="#000000" stroke-width="3" stroke-miterlimit="10" d="M490.141,455.475c0,0-3,1.666,5.5,2.666s8.5,1,8.5,1
	"/>
<path fill="none" stroke="#000000" stroke-width="3" stroke-miterlimit="10" d="M461.641,440.141c0,0,6.5,2,12.5,3s14.5-2,14.5-2"/>
<path fill="none" stroke="#000000" stroke-width="3" stroke-miterlimit="10" d="M470.141,296.141c0,0-3.5-1-8-5.5s-20-10-20-10"/>
<polyline fill="none" stroke="#000000" stroke-width="3" stroke-miterlimit="10" points="308.141,201.141 283.641,205.141 
	264.141,208.141 "/>
<path fill="none" stroke="#000000" stroke-width="3" stroke-miterlimit="10" d="M280.808,334.808c0,0,16-9.333,8-18s-14-8.667-12-18
	c2-9.333-12.667-21.333,5.333-30.667s17.333-13.333,24-13.333s9.334-0.667,10.667,1.333s7.333,5.333,7.333,5.333"/>
<path fill="none" stroke="#000000" stroke-width="3" stroke-miterlimit="10" d="M178.141,384.641c0,0,6.5-0.5,12.5-3s14.5-3,14.5-3
	l9,3.5"/>
<path fill="none" stroke="#000000" stroke-width="3" stroke-miterlimit="10" d="M172.141,360.141c0,0-15-1.5-16.5-1.5
	s-12,6.5-12,6.5l-8,3.5"/>
<path fill="none" stroke="#000000" stroke-width="3" stroke-miterlimit="10" d="M532.141,593.641c0,0-5-16.5-6-21s0.5-40,0.5-40
	l-4.5-13.5"/>
<path fill="none" stroke="#000000" stroke-width="4" stroke-miterlimit="10" d="M546.641,593.641c0,0-2.5-3.5-4.5-16s-7-23.5-0.5-36
	s6.5-28,4-46.5s-9-31.5-6.5-43s5.5-30,5.5-30"/>
<path fill="none" stroke="#000000" stroke-width="3" stroke-miterlimit="10" d="M241.141,319.641c0,0,1.5-10-0.5-13.5
	s-7-4.5-10.5-9.5s-8-13.5-2-21s10.5-13,10.5-13"/>
<path fill="none" stroke="#000000" stroke-width="3" stroke-miterlimit="10" d="M274.141,272.641c0,0-13.5,1-18.5-4.5s-6-12-17.5-8
	s-25,2-25,2s-23.5,3-28.5,0s-20.5-4.5-20.5-4.5"/>
<path fill="none" stroke="#000000" stroke-width="3" stroke-miterlimit="10" d="M283.641,564.641c0,0,15,2,21.5-9s9-11.5,13.5-19
	s4.5-22.5,4.5-22.5l6.5-19.5"/>
</svg>
