<?xml version="1.0" encoding="utf-8"?>
<!-- Generator: Adobe Illustrator 16.0.0, SVG Export Plug-In . SVG Version: 6.00 Build 0)  -->
<!DOCTYPE svg PUBLIC "-//W3C//DTD SVG 1.1//EN" "http://www.w3.org/Graphics/SVG/1.1/DTD/svg11.dtd">
<svg version="1.1" id="Layer_3" xmlns="http://www.w3.org/2000/svg" xmlns:xlink="http://www.w3.org/1999/xlink" x="0px" y="0px"
	 width="595.281px" height="595.281px" viewBox="0 0 595.281 595.281" enable-background="new 0 0 595.281 595.281"
	 xml:space="preserve">
<path fill="none" stroke="#000000" stroke-width="3" stroke-miterlimit="10" d="M252.141,326.141c0-2,3.333-24-2.667-38.667
	s0-97.333-1.333-108.667s-4.667-31.333-10.667-45.333s15.333-31.333,17.333-36.667s-7.667-50.667-7.667-50.667s-5.5,10.5-4,15
	s7.5,24.5,5.5,30s-19,25.5-20.5,32.5s3,24,6.5,33.5s3,21,2.5,26.5s5.5,13.5,4.5,21s3,33.5-2,44.5s-6,21.5-1,30.5s5.5,24.5,4.5,32
	s-4,18.5,2,21.5s7.5-0.5,7.5-0.5L252.141,326.141z"/>
<path fill="none" stroke="#000000" stroke-width="3" stroke-miterlimit="10" d="M405.475,0c0,0,1.334,29.474-4,42.141
	s-16,31.333-12,45.333s9.332,45.333,12.666,52s-1.999,13.333-0.666,25.333s9.332,45.333,6.666,56s-0.666,26-0.666,26"/>
<path fill="none" stroke="#000000" stroke-width="3" stroke-miterlimit="10" d="M562.141,0c0,0,3.334,24.141,0.667,42.141
	s-10.666,72.667-7.333,84s-5.334,24-1.334,33.333s8.667,28.666,6.667,37.333s-4.667,30,0,38"/>
<path fill="none" stroke="#000000" stroke-width="3" stroke-miterlimit="10" d="M573.475,0c0,0-5.334,25.474-3.334,32.141
	s-6,64-3.333,73.333s8.666,18,3.333,29.333s-9.999,20.667-8.666,22.667s8,22,7.333,30.667s-6.666,21.333-7.333,27.333
	s-0.667,19.333-0.667,19.333"/>
<path fill="none" stroke="#000000" stroke-width="3" stroke-miterlimit="10" d="M398.141,0c0,0,4.667,24.807-5.333,40.807
	s-17.999,42-11.333,62s11.999,36,12.666,44s12.001,86,13.334,100"/>
<path fill="none" stroke="#000000" stroke-width="3" stroke-miterlimit="10" d="M386.141,232.141c0,0,4.668,27.333,5.334,41.333
	s-8.001,30-7.334,44.667s-20,29.999-20,39.333s17.333,20.667,16,34.667s-18.666,20.001-18.666,40.667s0,28.666,10,40.666
	s12.666,17,12.666,27.667s12,16.999,4,26.333s-9.333,10.001-9.333,21.334s-1.333,25.999-1.333,25.999l-6,20.475v4.191"/>
<path fill="none" stroke="#000000" stroke-width="3" stroke-miterlimit="10" d="M386.141,232.141c0,0-1,33.75-3,40
	s-3.5,17.75-5.25,22.5s-4.75,23.75-6.5,31.25s-0.917,10.583-5.25,16.917c-1.961,2.866-12.25,8.083-10.75,16.083
	s11,24.917,10.75,28.917s-2.5,13.583-6.25,17.583s-6.5,39.75-4.5,46s14,32.25,16.25,38s5.75,27.25,0.5,34.25s-6.5,15.75-6,19
	s1.5,14,2.25,18s-0.75,14.25-3,22.75s-3,13.5-3,13.5"/>
<path fill="none" stroke="#000000" stroke-width="3" stroke-miterlimit="10" d="M303.141,0c0,0-4,10.391-1,19.641
	s11.25,27.5,8.75,35.75c-1.135,3.745-8.5,5.25-10.5,12c-3.625,12.234-4.25,28.75-4.5,37.75s-0.494,11.873,2,14.75
	c3.25,3.75,5,7.5,5,7.5s-0.75-33.917-0.75-45.25s12.068-15.826,13.75-19.75c3.75-8.75,2-25.75-3-38
	C307.922,12.217,313.475,0,313.475,0"/>
<path fill="none" stroke="#000000" stroke-width="3" stroke-miterlimit="10" d="M227.141,0c0,0-4.333,22.808-2.333,27.474s7,16,7,16
	s-0.667-9.667,0.333-17.667s0-20,0.333-21.667s0.667-5.333,0.667-5.333"/>
<path fill="none" stroke="#000000" stroke-width="3" stroke-miterlimit="10" d="M274.141,597.641c0,0-0.5-7.5-0.5-13s4.5-25,5-33
	s-16.5-48.5-20-58.5s15-49,15-57s-6-22-6-22s-2.5,14.5-2.5,20s-7,32.5-11,36s-2,21.5-2.5,28.5s3.5,15.5,9.5,27s10.5,17,8,29
	s-8.5,26.5-6.5,34s4,7,4,7"/>
<path fill="none" stroke="#000000" stroke-width="3" stroke-miterlimit="10" d="M180.141,595.281c0,0,0,0,1-2.641s2.5-23.5,5-34
	s4.5-12.5,2.5-22s1.5-21,2.5-29.5s-2-24-2-24s-4,10.5-4.5,15s-1,20-2,24s0.5,19.5-0.5,25.5s-6.5,26.5-6.5,34s-3,14.5-3,14.5"/>
<path fill="none" stroke="#000000" stroke-width="3" stroke-miterlimit="10" d="M228.641,450.641c0,0,0.5-8.5-0.5-12.5s5-19,5.5-31
	s9.5-12.5,12-18s10-29.5,13.5-33.5s-1.5-19-1.5-19s-4,5.5-5.5,9.5s-11.5,16-11,21.5s0,16.5-2,18.5s-10,12-9.5,15.5s-4.5,18-5.5,27.5
	s-1.5,15,1,19S228.641,450.641,228.641,450.641z"/>
<path fill="none" stroke="#000000" stroke-width="3" stroke-miterlimit="10" d="M461.141,595.641c0,0-2.5-27.5,3.5-40.5
	s8-24.5,10-37.5s2.5-68.5,3-78.5s0-29.5,2.5-37.5s18-14.5,18-16s2.5-32,3-46s2-34,6-43.5s15.5-10.5,13-21s-4.5-32.5-6-37.5
	s-1-23-1-23s-0.5,19.5,7,28.5s16,23,12.5,29s-14.5,23.5-14,34s-0.5,28.5-2,37.5s-4.5,25-14.5,39.5s-13.5,10.5-10.5,24.5
	s-3,64-3.5,80s1,27.5-1,39s-11.5,13.5-8.5,27s2,44.5,2,46"/>
<path fill="none" stroke="#000000" stroke-width="3" stroke-miterlimit="10" d="M88.641,595.641c0,0-4.5-24.5,0.5-36s12.5-59,9-69.5
	s-10.5-27.5-3-36s7-15,5-22s2-18.5,5-24.5s8-29.5-1.5-47.5s-13.5-70-7.5-82s14-34.5,20.5-43.5s14-18.5,9-32s-11-56.5-8.5-67.5
	s10.333-44.333,7.667-60s-4.333-23.333-4.333-27.667s1.667-7.333,1.667-7.333s4,4,6.667,11.333s8.167,38.167,2.667,62.667
	s-3.333,41.333,3.333,72c3.425,15.756-2.167,37-9.667,52.5s-4.5,17.5-7,28.5s-9,31-12.5,54.5s7,22.5,9,32s8,28.5,7,45
	s-5,26.5-5.5,35s4,8,7,20.5s-10.5,16-13.5,21s0.5,9.5,3,22s0,56.5-6.5,65s-7,31.5-7,31.5"/>
<path fill="none" stroke="#000000" stroke-width="3" stroke-miterlimit="10" d="M95.807,0c0,0,3.334,0.14,3.667,9.807s2,14,0.333,18
	s-0.667,17.333-0.667,17.333s-1-7.667,4-17s9-10.333,9-17.333s-1.667-13.667-1.667-13.667"/>
<path fill="none" stroke="#000000" stroke-width="3" stroke-miterlimit="10" d="M55.807,0c0,0,4.667,32.474,5.667,50.141
	s-7.667,66.667-12,78.667s-10,43.334-9.667,45.667s-9.667,23.666-7.667,42.333s12,66,11.333,74s1.333,67.333,1.333,79.333
	s-6,26.001,0,32.667s0.667,39.332,0,52.666s-11.333,76.001-12,91.334s-1.333,50.666-1.333,50.666"/>
<path fill="none" stroke="#000000" stroke-width="3" stroke-miterlimit="10" d="M22.141,593.641c0,0-1-40,2.5-50.5s7.5-52,7.5-62
	s4.5-79,0.5-89s-4.5-76-6.5-87s2-38-1-44s-2-61,0.5-68.5s6.5-86,6.5-92.5s-0.5-49.5,0.5-63s3-26.5,4-30s1-7.141,1-7.141"/>
</svg>
