<?xml version="1.0" encoding="utf-8"?>
<!-- Generator: Adobe Illustrator 16.0.0, SVG Export Plug-In . SVG Version: 6.00 Build 0)  -->
<!DOCTYPE svg PUBLIC "-//W3C//DTD SVG 1.1//EN" "http://www.w3.org/Graphics/SVG/1.1/DTD/svg11.dtd">
<svg version="1.1" id="Layer_4" xmlns="http://www.w3.org/2000/svg" xmlns:xlink="http://www.w3.org/1999/xlink" x="0px" y="0px"
	 width="595.281px" height="595.281px" viewBox="0 0 595.281 595.281" enable-background="new 0 0 595.281 595.281"
	 xml:space="preserve">
<path fill="none" stroke="#000000" stroke-width="2" stroke-miterlimit="10" d="M33.141,262.141c0,0,3.5-26.5,4-32.5
	s6.5-19.5,7.5-26s0.5-24.5,0.5-24.5s0-14,5-15.5s12,5,15.5,11s18,6.5,22,4.5s14-4,16,0.5s5.5,14,8.5,17s2,7,1,13.5s4,9,0.5,13
	s-5,16.5-3,19.5s9,17.5,5,27s-7,19.5-6,22.5s-7,24-12,29s-12,5-13,10.5s-1.5,12.5-7,18s-11.5,19.5-17,25s-20,31-22.5,38
	s-11,11.5-10.5,20.5s-13,3-13,3s-9.5,0-12.5,1.5"/>
<path fill="none" stroke="#000000" stroke-width="3" stroke-miterlimit="10" d="M274.141,198.641c0,0,15-12,25-13.5s26.5-28.5,28-32
	s12-39,21.5-38s19,19,26,25s16.5,14.5,18.5,20s4.5,19,11.5,23.5s0,19.5,3.5,25.5s12,13,6,19s-39,56.5-39,64.5s0.5,37.5-8.5,44
	s-30.5-3.5-41-18.5s-32-38-42.5-44s-18.5-22.5-18.5-32.5s9-34.5,9-34.5L274.141,198.641z"/>
<path fill="none" stroke="#000000" stroke-width="3" stroke-miterlimit="10" d="M374.391,448.641c0,0,12.75,2.25,15.75,1.5
	s-0.25,5.75,0.75,10.25s6.25,14,4.25,15.75s-13.25,14.5-12,20.5s-12,9.75-18.25-0.75s-7.75-6.25-9.75-10s-1.5-14,3.75-19.5
	s8.25-11,8.75-14.5S374.391,448.641,374.391,448.641z"/>
<path fill="none" stroke="#000000" stroke-width="3" stroke-miterlimit="10" d="M547.141,525.808c0,0-1.333-8.334-3.333-12
	s-6-9-3-15.334s-0.333-11.666-0.667-19.333s1.334-12.333,0.334-18.333s-1.667-9,5.666-12.334c6.737-3.063,11.225-17.1,11.394-21.687
	c0.015-0.405-0.005-0.736-0.06-0.979c-0.666-3,7-12,5.666-17.667s-3-22-1.333-35.333s-10.333-14.667-14-15.667
	s-6.667-14-9.667-21.667s-7.333-3.666-7.333-3.666s-13.334,10.332-18.667,12.666s-22.667,34.334-20,42.667s5.666,15.666,4,23.333
	s-11.332,27.667-15.666,31.667s-10,29.334-5.667,38.667s11.334,28.333,16.667,32.333s10,6.666,15.333,11.333
	s18.334,13.334,25.667,12.667s14.333-7.999,21.333-8.333s4.333-11,10-13s14.666-0.666,13.333-5s-5.333-6.667-4.333-15.667
	s5.666-22.667,7.333-25.667s5-2.333,0-11.333s-8.667-23.999-14-26.333s-5-3-5-3"/>
<path fill="none" stroke="#000000" stroke-width="3" stroke-miterlimit="10" d="M108.808,595.281c0,0-2.667-13.641-2.667-19.141
	s-4-17.5-1.5-21s13-22.5,19-31s8-14,18.5-13s12-7,15.5-12s-0.5-30-2.5-50.5s17-37.5,24-42s14.5-15.5,12-23s7-32.5,5.5-38
	s-26.5-14-34-21s-13-39-11.5-52s28.5-40.5,28.5-40.5s8.167-8.667,17.833,1s14.667,19.667,14.667,24.667s-5.667,72-1,82.333
	s12,21.999,27.333,20.333s16.667,18.001,17,20.334s-2,8.332,1.667,13.665s0.333,19.666-4.333,30.666s-0.333,24.334-5,32.667
	s-18,38.996-35.333,54.329s-28,8.333-37.667,4.333s-20.333-3.667-21.333,6.333s-0.334,30.666,0.333,35s-2.667,32.331-8.667,39.331"
	/>
<path fill="none" stroke="#000000" stroke-width="3" stroke-miterlimit="10" d="M296.391,2.641c0,0-2.5,9-7.5,10.25
	s-9.5-1.75-11,4.75s-5,42.75-1.25,49.75s14,18.25,15.5,26s-0.5,12.75,4.75,12s4.5-4.75,10.5-3.5s14.75,2.5,20-6s8-29.75,7.25-33.25
	s2-23.5-2.5-31.25s-9.5-19.25-20-24.25S296.391,2.641,296.391,2.641z"/>
<path fill="none" stroke="#000000" stroke-width="2" stroke-miterlimit="10" d="M420.141,0.807c0,0,3.75,2.583,8.5,7.083
	s2,4.25,0.75,11.5s-0.25,25-0.25,30s-4.75,30.25-9.25,34.75s-9,8-12.75,6s-2.25-5.5-0.75-10.5s-4.75-7.75-8.75-8.5s-9,9.25-12.25,15
	s3.25,16.75,0.75,18.5s-1.25,9-4,11.75s-4.5,5.5-7.5,6.25s-7.25,0.25-8.5-1.25s-7.25-2.75-13-9.5s-5.75-6.75-4.75-14.5
	s14-14.5,19.75-23s-9.25-19.75-13.75-23.75s-13.25-13-12.5-19s10-6,16.5-9.75s22-18.25,22-18.25l7.083-3.5"/>
<path fill="none" stroke="#000000" stroke-width="3" stroke-miterlimit="10" d="M545.141,122.141c0,0,2.667-1.333,8.667,14
	s7.334,26.667,11,31s2,28-0.667,35.667s-9.667,29.333-13,32.333s-5.001,7.333-5.667,10s-13.666,5-16.333,3.333s-7-15.667-10-19.333
	s-11.001-20-9.667-25.667s-4.666-16.333-6.666-21s2.334-7.333,4-11.333s-3-10,0-14.333s4.332-10.333,9.666-17.333
	s8.334-13,10.334-10.667s1.666,10,6.333,9.667s8.333-7,9.333-11.333S545.141,122.141,545.141,122.141z"/>
<path fill="none" stroke="#000000" stroke-miterlimit="10" d="M413.266,216.391c0,0,1.874-10.917,5.208-15.917
	s12.001-16.334,9.334-20.667s-4-11-4-14s-4-9.333-10.667-9.333s-14.666,0-15.333,2.667s-3.542,3.5-3.542,3.5"/>
<path fill="none" stroke="#000000" stroke-width="3" stroke-miterlimit="10" d="M381.266,330.953c0,0-7.792,1.521-7.125,7.854
	s3.668,27.667,3.334,32s1.332,6.667,4.666,4.667s8.001,5,12.334,7.333s13.332-5.666,12.666-10.333s0-10.334-2.333-18.334
	s-2.438-16.682-6.667-20.333c-3.813-3.292-4.5-2.729-7.625-3.354C387.88,329.926,381.266,330.953,381.266,330.953z"/>
<path fill="none" stroke="#000000" stroke-width="2" stroke-miterlimit="10" d="M414.808,220.474c0,0-1.667-1.667,5-3
	s6.333-0.667,9,4.667s7.667,8.667,8,11.667s-6.001,12.333,0.333,17s10.001,10.333,14.334,7.667s5.333-10,8.333-12s-0.001,1,5.333,3
	s12.334-3,17.667,7s12.667,19,13,30.333s-4,16.334-3,21.667s2.333,16.334,0.333,19s-1,8.667,0.667,13s-9.333,17.999-11.333,20.666
	s-1.666,6.333-2,9s-7.666,7.334-9,7.334s-3.668,4.332-5.334,7.666s-12,0.334-13.333-1.666s-19.333-9.666-27.333-13
	s-18.668-5.334-18.334-15.667s-1.666-25-6.333-31s-7.042-8.479-14.917-3.479c-7.604,4.827-8.042,10.354-11.375,12.688
	s0.396,10.938-3.938,7.938s-1.771-7.146-1.771-7.146"/>
<path fill="none" stroke="#000000" stroke-width="3" stroke-miterlimit="10" d="M102.307,361.974c0,0,5.834-7.5,13.167-7.333
	s11.167-2.333,15.167-2.833s7.333,4.166,15.833,7.166s9.5,3.334,10.5,7.167s-2.667,26-1,31.5s-1.667,14.166-5.5,17.333
	s-12.334,12.334-13.167,15.334s-9.166,4.5-13.833,2.833s-13.5-2.333-14.333-1.833s-5.167-11.166-7-17.5s-4.333-9.834-6.333-15.834
	s0.167-8.666,1.667-12.333s5.833-12.834,4.333-17.167S102.307,361.974,102.307,361.974z"/>
<path fill="none" stroke="#000000" stroke-width="2" stroke-miterlimit="10" d="M158.641,484.641c0,0-5.75-4.5-7.75-12
	s-5-17.75-12-22s-9.75-3.5-16.75-9.5s-6-9.25-13-6.75s-15.25,19-18.75,24s-1.75,29.75-5.25,40.25s-11.25,26.5-10.75,32.5
	s7,14,8.75,18.75s6.25,13,11,13.75s8.75-2.75,8.75-2.75"/>
<path fill="none" stroke="#000000" stroke-width="3" stroke-miterlimit="10" d="M27.891,435.391c0,0,5.5,4.5,6.5,12
	s-6,23.75-7.5,30.5s-0.25,12.25-6,19s-7.25,10.75-7.25,17s-0.75,16-3.25,19.5s-9.75,10.75-10.75,10"/>
<path fill="none" stroke="#000000" stroke-width="3" stroke-miterlimit="10" d="M114.391,354.641c0,0,7-4.5,3.25-9
	s-11.25-7.75-9.25-12.5s8.5-12,10-15.25s1.25-4.75,1.25-4.75s3-10.166,6-13.833s7.167-16.667,9.833-20.833s3.333-12.5,3.333-12.5"/>
<path fill="none" stroke="#000000" stroke-width="2" stroke-miterlimit="10" d="M281.307,272.808c0,0-2.167,4.666,0.333,8.333
	s4.167,5,2.833,7.167s-5.167,1.833-1.833,4.333s4.5,5.666,3.667,8s-12.333,11.501-16,18.334s-7.833,20.499-12.667,26.666
	s-15.5,15.334-15.5,15.334"/>
<path fill="none" stroke="#000000" stroke-width="2" stroke-miterlimit="10" d="M281.141,73.391c0,0-1.25,6.75-3.25,14.75
	s-3.5,20.25-2.25,26s8,23.5,21,21.5s16-9.5,18.75-15.25s1.25-7.75,10.25-12.5s15.25-18.25,15-24s0.75-20,0.25-21.25s-7-10.5-7-10.5"
	/>
<path fill="none" stroke="#000000" stroke-miterlimit="10" d="M279.641,143.391c0,0,2.75,4.5,9.25,8.5s4.5,7.75,5.25,13s1.5,6,2,11
	s-2.25,10.75-2.25,10.75"/>
<path fill="none" stroke="#000000" stroke-width="2" stroke-miterlimit="10" d="M277.308,23.808c0,0-1.167-1-3.167-0.167
	s-7.167,7.833-10.167,7.5s-10.667-7.167-16.833-9.167s-19.666,7.167-20.833,12.5s-5.833,23.5-3.5,40.333s-3.334,30.5-11.667,36
	s-26.25,15.083-26.25,30.833s1.5,15.75-5.25,15.75s-6.25-20-12.25-20s-37.25,19.75-36.25,34.5s6.25,18,6.5,33.5s-4,23.5-4.25,31.75
	s5.75,12.5,5.5,20.5s-0.25,15.5,4,16.5s8.5-3.5,8.5-3.5"/>
<path fill="none" stroke="#000000" stroke-miterlimit="10" d="M105.307,183.308c0,0,0.5-4.833,8.833-6.833s8.667-5.167,11.333-0.667
	s4.5,6.333,6.833,8.667s2.667,5,2.667,5"/>
<path fill="none" stroke="#000000" stroke-width="2" stroke-miterlimit="10" d="M32.391,265.891c2.5,0.75,4.75-1.5,8.5-9
	s2.75-20.25,5.25-26s1.5-12.25,5-17.75s5.75-7,3.5-11s-1.75-4.5-4-7.5s-5-4-5-4"/>
<path fill="none" stroke="#000000" stroke-width="2" stroke-miterlimit="10" d="M31.141,331.891c0,0,2.75,10,11,9s15.75-8,20-10.25
	s3.75-3.5,13-10.25s10.25-28.25,13.5-33s9.5-34.75,11.25-38.5s-5.25-16.5-4-23.25s3.5-16.5-2-19.75s-10.25,5.5-18.75,5.5
	s-20-6.75-20-6.75"/>
<path fill="none" stroke="#000000" stroke-miterlimit="10" d="M34.141,444.141c0,0,3.25-9,7-14s8.25-14,10.5-17.75s5.25-19,12.25-26
	s6.5-7.5,11.75-14.75s5.25-13,11.5-19.5s13.25-4.5,12.5-10s0.75-7,3.5-10.5s7.5-3.75,7.5-3.75"/>
<path fill="none" stroke="#000000" stroke-miterlimit="10" d="M99.641,406.141c0,0-2.75,8.75-7,10s-7,9-10.25,11
	s-6.5,8.25-14.75,9.5s-20,1.25-22.5-2s-3.5-6.75-3.5-6.75"/>
<path fill="none" stroke="#000000" stroke-width="3" stroke-miterlimit="10" d="M100.808-0.192c0,0-3.334,5.667-1.667,12
	s9.667,16,13,19.667s10.667,10.333,16.667,9.667s15.333-5.666,20.333-3.333s11.333,12,14.333,22.667s3,22.333,1.333,24.667
	c0,0,2.333-1.333,5.667,3.667s3.333,16,8.333,21c0.688,0.688,1.472,1.339,2.316,1.949c5.287,3.82,12.959,6.051,14.684,6.051
	c2,0,5.667-0.667,5.667-0.667"/>
<path fill="none" stroke="#000000" stroke-miterlimit="10" d="M184.807,139.474c0,0-4.166,3.5-5.333-1.667s-1.334-7.5,0.333-10.5
	s2.5-10.833,2.5-11.5s-2.5-4.667-2.5-4.667"/>
<path fill="none" stroke="#000000" stroke-width="2" stroke-miterlimit="10" d="M276.891,118.641c0,0,0,12.25,1.625,15.5
	s2.25,7.125,0.375,10.375s-3.875,10-4.125,15.5s1.375,14.625-1.25,16.875s-4.375,6.75-2.875,10.375s-1,4.875,0.625,8
	s2.875,3.375,2.875,3.375"/>
<path fill="none" stroke="#000000" stroke-miterlimit="10" d="M98.766,10.766c0,0,0.625,9.5,1.75,13.875s1.875,6.125,5.5,8.375
	s5.5,1.625,8,4.75s9.25,9.125,12.375,7.625s10.125-2.625,14.5-0.375s5.75,4.875,9.375,6.5s5.75-1.25,7.25-0.125
	s5.125,6.875,5.125,6.875"/>
<path fill="none" stroke="#000000" stroke-width="2" stroke-miterlimit="10" d="M0,264.641c0,0,1.141,3.833,3.308,7.833
	s3,4.167,2.333,8.5s-2.333,7.833-2.333,7.833s6.5-8.5,9-8.667s9.833-6.5,5.667-10.167s-5.667-0.833-5.667-6s-1-11,2.333-22.167
	s2.667-14.167,2.667-18.833s-3.667-6.333,0.667-9.167s5-7.5,8.167-1.667s3.834,7.833,5.167,10.833s4,6,4.167,8.167
	s0.333,10.333,0.333,10.333"/>
<path fill="none" stroke="#000000" stroke-miterlimit="10" d="M57.141,269.641c0,0-3.167,9.833-5.333,13s-1.833,6.5-2.333,13.833
	s-2.5,12.167,0.167,12.333s1.333-3.834,5.333-0.167s1,7.668,5.833,5.334s6-4,7.5-5.167s2.5-6.166,4-5.833s2.5,2.5,2.833,6
	s-1,10.333-1,10.333"/>
<path fill="none" stroke="#000000" stroke-width="2" stroke-miterlimit="10" d="M11.016,314.641c0,0,3.875-1.625,6.375-1.125
	s8.25,0.75,10.875,0.625s6.125,0.5,7.125,3s1.25,11.25-1.625,12s-5.625,5.125-5.875,5.5s-8.125,7.875-9.75,6.875
	s-3.125-4.5-6.125-4.375s-5.5-1.75-6.125-3.375s-2.125-3.875-2.125-5s-0.125-5.125-0.875-6.5s-0.125-3.125,1-5.375
	s1.125-1.875,1.75-3"/>
<path fill="none" stroke="#000000" stroke-miterlimit="10" d="M22.266,289.766c0,0-0.625,12.5-1.5,15.125s-2.625,6.75-2.625,6.75"/>
<path fill="none" stroke="#000000" stroke-miterlimit="10" d="M31.891,265.766c0,0-1.5,12.125,0.375,14.125s1,7.625,0.5,8.875
	s-4.5,5.125-4.5,5.125"/>
<path fill="none" stroke="#000000" stroke-width="2" stroke-miterlimit="10" d="M249.141,595.281c0,0,0.667-9.808-3-14.308
	s0.167-21.834-1.333-25.5s-0.166-10.333,3.167-11.833s10.333-3.501,13.333-6.667s6.834-2.332,9.667,1.334s8.833,3,12.833,2
	s12-0.667,16.5,6.833s10.666,22.667,14.333,26s5.333,11.166,7.833,15.333s6.167,6.808,6.167,6.808"/>
<path fill="none" stroke="#000000" stroke-width="3" stroke-miterlimit="10" d="M208.016,595.281c0,0,3.25-17.891,8.5-21.516
	s9.5-9.375,10.875-12s-0.875-8.125,5.25-7.75s8.5-1.125,10,1.125s2.5,4.375,2.5,4.375"/>
<path fill="none" stroke="#000000" stroke-width="3" stroke-miterlimit="10" d="M382.141,595.281c0,0-1.25-9.641,6.5-18.891
	s18.5-19.5,17-24s-0.5-9.75,2-13.25s6.5-7.5,9-12.75s9-2.5,12.5-3.25s8.75-1.5,6.5-5s-1-13,3.25-14.5s15.25,4,13.75,11
	s-4.75,12.25-2,15.5s12,13,13.25,19.25s-4.75,10.5,0,16.25s2.25,8.75,0.75,16.5s0,12.031-1,13.141"/>
<path fill="none" stroke="#000000" stroke-width="2" stroke-miterlimit="10" d="M527.474,595.281c0,0-1.166-9.307,2.834-11.807
	s10.166,1.333,11.833,3.333s2.501,5.194,3.667,6.834s1.166,2.666,1.166,2.666"/>
<path fill="none" stroke="#000000" stroke-width="3" stroke-miterlimit="10" d="M578.642,596.808c0,0-1.666-16.5-7-19.333
	s-19.334-9.333-16.834-14.833s6.668-10.834,8.834-15.667s6.438-17.378,8.5-20.167c2.833-3.833,5.167-5.999,9-2.166
	s6.834,5.833,9.5,7.333s4.666,1.667,4.666,1.667"/>
<path fill="none" stroke="#000000" stroke-miterlimit="10" d="M567.975,547.808c0,0,3.499,9.334,3.833,15.167
	s-0.833,13.5-0.833,13.5"/>
<path fill="none" stroke="#000000" stroke-width="2" stroke-miterlimit="10" d="M595.281,435.141c0,0-2.641,11-5.391,12.25
	s-13.25-0.25-17-11s-3.25-16.75-5.5-20.5s-6.25-29.75-4.75-33s11.25-17.5,8.5-22.75s-6.5-16-5-19.25s3.25-4.25,3.25-4.25
	s-2-0.25-4.5-3s-1.5-14.25,0-15.75s-16,0.5-18.5-16.25s-0.25-35.25,0-41.75s6.75-14.75,8.75-22s7.75-26,10.5-28.5
	s10.75-20.25,10-25.75s-3-27.75-4.75-34.5s-9.75-12.5-11-17.5s0.25-23-10-30s-26-15.5-28.25-23.5s-1.25-27.25,2.25-36
	s3.75-21.75,2.5-26.5s-3.75-12.25-3.75-13.75s1-3.25,1-3.25"/>
<path fill="none" stroke="#000000" stroke-width="3" stroke-miterlimit="10" d="M595.281,88.891c0,0-11.641-8-16.641-13.5
	s-15.5-23-15-27.75s2.25-18.25-0.25-22.5s-2.75-7.75-1.75-11s4.25-12.5,6-14.25"/>
<path fill="none" stroke="#000000" stroke-width="3" stroke-miterlimit="10" d="M526.391,15.641c0,0,3.75,8,6.75,5.75
	s1.75-7.25,5.5-8.25s7,1.5,8,3.75s4,0.25,6.5,0s8.5-2.75,8.5-2.75"/>
<path fill="none" stroke="#000000" stroke-miterlimit="10" d="M234.141,25.391c0,0-4.25-7.5,4.25-10s15-1.5,20.75-7
	s8.75-8.5,8.75-8.5"/>
<path fill="none" stroke="#000000" stroke-width="3" stroke-miterlimit="10" d="M-0.609,154.141c0,0,3,0.75,4,11.25
	s-1.75,23,4.5,29.25s4.5,9.25,7.25,8.25s9.5-12,13.25-15s14.25-3.75,14.25-3.75l2.5,1.5"/>
<path fill="none" stroke="#000000" stroke-width="3" stroke-miterlimit="10" d="M46.141,168.641c0,0-7,0.25-5.5-9.5
	s3.25-45,6.75-49.75s9.75-27,8.5-35.75s-4.5-15.5-0.75-21s7.833-11.667,8-16s5.167-8.833,5.5-15.667s-2.167-11.833-1.5-14.333
	S69.308,0,69.308,0"/>
</svg>
