<?xml version="1.0" encoding="utf-8"?>
<!-- Generator: Adobe Illustrator 16.0.0, SVG Export Plug-In . SVG Version: 6.00 Build 0)  -->
<!DOCTYPE svg PUBLIC "-//W3C//DTD SVG 1.1//EN" "http://www.w3.org/Graphics/SVG/1.1/DTD/svg11.dtd">
<svg version="1.1" id="Layer_3" xmlns="http://www.w3.org/2000/svg" xmlns:xlink="http://www.w3.org/1999/xlink" x="0px" y="0px"
	 width="595.281px" height="595.281px" viewBox="0 0 595.281 595.281" enable-background="new 0 0 595.281 595.281"
	 xml:space="preserve">
<path fill="none" stroke="#000000" stroke-width="3" stroke-miterlimit="10" d="M55.14,5.64c0,0-4,217-3.5,227
	s1.167,78.834,1.167,78.834s2.667,158.666,2.667,167.333s7.333,46.001,6.667,54.667s-11.333,32.666-11.333,41.333s2,18.667,2,18.667
	"/>
<path fill="none" stroke="#000000" stroke-width="4" stroke-miterlimit="10" d="M221.474,5.14c7.667,3.333,29,28,35.333,33.667
	s11.667,9.333,13.333,15s9.333,18.333,9.333,18.333"/>
<path fill="none" stroke="#000000" stroke-width="4" stroke-miterlimit="10" d="M279.474,72.14c5.333-5,10.667-8.666,21.333-15.333
	s18.666-14.334,26.666-12.667s14.334,4.667,18.667,9.667s6,9.333,11,14.667s5,6,12,13s10,1,12,17.333s-3.667,23-2,28
	s5.001,5.333,7.667,10s8.666,6,5.666,16.333s-4.334,13.667-9,16.333s0.333,9.667-15,3.333s-12.666-12-27.333-11.667
	s-6.334,8.333-20.667,1s-30-6.666-26.333-16.333s3.666-6.667,10.333-15.667s6.001-8.666,2.334-21.333s10.333-9-10-19.667
	c-20.333-10.667-19.208-8.958-20.542-14.625"/>
<path fill="none" stroke="#000000" stroke-width="4" stroke-miterlimit="10" d="M214.14,14.807c4.667,7.333,8,10.333,16,16.333
	s2.333-1,14.333,12s28.333,7,18.667,23.667s-14.667,22.667-20.333,26s-0.167,4.833-0.167,4.833s8.833-2.5,13.5-7.5
	s20.833-14.375,23.5-18.375"/>
<path fill="none" stroke="#000000" stroke-width="4" stroke-miterlimit="10" d="M369.89,3.39c2.25,2,8,11.25,6.75,15
	s-6.5,12.75-9.5,15.75s-8.25,13.75-9.5,16.25s-10.75,5.5-10.75,5.5"/>
<path fill="none" stroke="#000000" stroke-width="3" stroke-miterlimit="10" d="M400.39,4.64c0,0.75,12.5,31.25,10,35.5
	s-13,11.75-12.75,16s-2.75,27.25,1.75,32.75s7.5,11.75,8,14.75s-3,18-0.75,21.25s13.5,10.75,14.25,18s-2.75,16.75-4.5,20.5
	s-2.5,19.25,0.5,24.5s14.584,16.25,16.917,22.417s-1.333,13.333,1.5,16.667s28.5,17.833,26,26s-9.834,21.5-8.334,27
	s-20.5,13.667-25.333,17.833s-14.833,16.833-16.333,24.667s2.666,17.334-0.834,21.834s-13.666,7.666-15.666,15.666
	s-3.999,31.334-2.833,35.667s7.165,39.499,11.499,46.166s23.667,22.333,32.667,24s18.667-3.999,26.667,4.334
	s5.333,18.332,2.333,21.666s-13.999,11.001-14.333,19.334s5.667,24.334,7,33s2,17.666,0.333,24.333s-2,20-2,20"/>
<path fill="none" stroke="#000000" stroke-width="4" stroke-miterlimit="10" d="M547.39,123.89c0,0-21-9.25-20.75,11.25
	s4,21.5,1.5,24.5"/>
<path fill="none" stroke="#000000" stroke-width="3" stroke-miterlimit="10" d="M527.64,161.39c0,0-13.75,0-25-13s-24-24-27.25-28.5
	s-5.916-1.083-5.916-1.083s2.666,11.333,9.166,16.583s16,16.25,21.25,20.75s10.5,8.5,16,13s6.75,4.25,7.75,10s0,11-2.25,15.75
	s-1,9.5,2.5,16.75s10.25,17.25,10.75,24s-4,4.25,0.75,19s7.25,26.5,5.25,28.75s-6.25,24.5-10.5,29.25s-11.75,5-12.5,13.5
	s1.5,8.75-4,19.5s-6-2-8.75,14.75s-8.5,20.5-5.5,28.25s8.917,21.334,10.917,28.334s6.833,11,8,18s1.5,27.667,1.5,27.667
	s2.001-50.667-2.666-60.167s-7.5-8.167-3.167-16.167s8.334-11.167,9.167-18.5s-2.667-7.167,1.333-20s9.667-15.001,14.667-19.834
	s7.334-7.334,9-15s2-9.833,2-9.833"/>
<path fill="none" stroke="#000000" stroke-width="4" stroke-miterlimit="10" d="M512.14,268.89c0,0,0.25-17.5-5-19.5
	s-11.75-1.5-14,2.75s-4.75,8.5-0.25,12.5"/>
<path fill="none" stroke="#000000" stroke-width="4" stroke-miterlimit="10" d="M503.39,250.64c-1.25,0.5-13,3.25-11,7.5"/>
<path fill="none" stroke="#000000" stroke-width="4" stroke-miterlimit="10" d="M444.473,591.474c0,0,1.666-12.999-2-14.333
	s-10.666,4.667-11.666,0s-4.667-9.334-1.667-17.334s3.999-13.332,6.333-20.666s2.334-8.666,2.334-19s-2-26-2.667-30
	c0,0-2.667-4.333-6.667,4s-8.333,9.332-7.333,15.666s2.333,20.668-0.667,24.334s-7.332,7.666-8.666,11.333s-3,10.001-1.667,16.667
	s-0.667,19.666-3,21.666s-5.667,7.334-5.667,7.334"/>
<path fill="none" stroke="#000000" stroke-width="4" stroke-miterlimit="10" d="M385.807,588.807c1.333-1,12.334-11.334,14-18
	s5.332-13.333,4.666-22.333s-2.999-5.999-2.666-20.333s4.999-23,5.666-26.667s7.667-4.667,0.667-15.667
	s-43.666-32.333-49.333-39.333s-18.334-5.667-24.667-9.667s-5.667-4.334-11-7s-6.25-10.167-15.75-9.417
	c0,0-2.583,6.751-11.917,10.417s-8.333,4.666-11.667,10.333s-7,6-12,9s-9.333,7.667-9.333,13.667s-4.333,13.333-6.667,15.333
	s-8.667,10.001-10,10.667c0,0,14.333-4.668,23.333-2.334s14.667,2,19.333,13s6.333,13.668,4,21.334s-7,19.667-10.667,25
	S270.14,565.14,270.14,567.14"/>
<path fill="none" stroke="#000000" stroke-width="3" stroke-miterlimit="10" d="M274.807,487.807c0,0-5.667-12.334,9-22.334
	s10.001-6.999,20.667-13.666s13-13,14-15.667s2.666-7.75,2.666-7.75"/>
<path fill="none" stroke="#000000" stroke-width="4" stroke-miterlimit="10" d="M355.474,443.14c0,0,15.334-14.001,15-20.667
	s4.999-24-2.334-34s-16.333-16.334-16.333-21s3.999-12.332,10.333-17.666s9.333-6.001,10-14.334s-5.334-16.666,2-26.666
	s26.668-27,32.334-31s20-3.667,23-12s4.999-8.667-1.334-14.333s-17.999-15.333-20.666-18.333s-31.834-14-31.334-27.25
	s-2.25-32.25-2.25-32.25"/>
<path fill="none" stroke="#000000" stroke-width="3" stroke-miterlimit="10" d="M357.807,375.474c0,0-5.666,8.666-6.333,17.333
	s3.666,19,6.333,27s1.999,12.333,0.333,17s-3,8-3,8"/>
<path fill="none" stroke="#000000" stroke-width="3" stroke-miterlimit="10" d="M203.474,11.474c0,0-15.333,24.333-26.333,25.333
	s-19.666-4-27.333,0S136.473,49.474,136.14,56.14s-1.333,15,8.667,21.667s21.667,6,22,16.333s-7,22.333-9,28
	s-9.667,22.667-16.333,23s-8-1.667-17.333,5.333s-25.333,19-23.667,31s-7.333,11.333-11,17s-19.333,9-14,26s6,24.333,2.667,28.667
	s-6.666,13.667-6.333,18.667S64.64,289.14,69.64,297.64s-1.5,11,10.5,7.5s19-13.5,19.5-2s-9,23.5,0.5,33s5.5,17.5,6,22.5s2,2,12,12
	s10.5,11,5,16.5s-16.5,3.5-19.5,25.5s1.5,22.5,6,36.5s-9,20-3.5,31s16,10.5,11.5,21.5s-13,13-16.5,16s-13.5-5.5-7,14.5
	s9,12.668,0.667,20.001s-16.667,7.667-11,15s7.333,12.666,4.333,17.666s-5,6.667-5,6.667"/>
<path fill="none" stroke="#000000" stroke-width="4" stroke-miterlimit="10" d="M181.807,5.807c0,0-0.667,10-6,15
	s-25.667,7.333-31.667,8.667s-11.333,6-14,11s-5,21.667-4.667,25.333s5,18.666,13.333,23.333s16,14.667,14.333,20.667
	s-11.333,19.333-19.333,25s-11.667,7.333-23,14s-16.667,12.333-21.667,21s-6.333,16.333-10.667,21s-12.667,8-14.333,17.333
	s-7.667,16.333-6.667,25.333s-1,41.333-0.667,47s-2.333,19.333,2.333,24.667s6.667,10.668,13.667,18.334s10.667,8.666,13.667,17.666
	s5,15.666,6.333,24s7.333,9.25,2.583,18s-12.5,19.25-13.25,24.5s-3.25,6.25,5.5,18.5s14.5,14.25,15,22.75s-3,11.75-7.75,21.75
	s0,11,2.25,15.25s12,6.25,3.5,14.75s-18-1.25-16.5,7.5s-1.25,18.5,1.75,23.25s11,10,7.5,14s-4.75,12.25-4.75,12.25"/>
</svg>
