<?xml version="1.0" encoding="utf-8"?>
<!-- Generator: Adobe Illustrator 16.0.0, SVG Export Plug-In . SVG Version: 6.00 Build 0)  -->
<!DOCTYPE svg PUBLIC "-//W3C//DTD SVG 1.1//EN" "http://www.w3.org/Graphics/SVG/1.1/DTD/svg11.dtd">
<svg version="1.1" id="Layer_4" xmlns="http://www.w3.org/2000/svg" xmlns:xlink="http://www.w3.org/1999/xlink" x="0px" y="0px"
	 width="595.281px" height="595.281px" viewBox="0 0 595.281 595.281" enable-background="new 0 0 595.281 595.281"
	 xml:space="preserve">
<path fill="none" stroke="#000000" stroke-width="4" stroke-miterlimit="10" d="M277.14,69.64c0,0,8-10,18.5-9.5s26,1.5,26,3"/>
<path fill="none" stroke="#000000" stroke-width="4" stroke-miterlimit="10" d="M436.89,62.39c0,0,12.25-12,25-3.5
	s11.75,10.75,11.75,10.75s-16.25,1.25-23.75-0.5S436.89,62.39,436.89,62.39z"/>
<path fill="none" stroke="#000000" stroke-width="4" stroke-miterlimit="10" d="M118.807,54.807c0,0,2.333-5.667,14.667-5.667
	s19,3.667,19.667,5.333"/>
<path fill="none" stroke="#000000" stroke-width="4" stroke-miterlimit="10" d="M121.474,156.807c0,0,5.333-10.667,24.333-12.667
	s27-4,36-0.667s-13,11.333-18,13s-21.334,2.667-25.667,0"/>
<path fill="none" stroke="#000000" stroke-width="4" stroke-miterlimit="10" d="M122.14,382.14c0,0,4.667-8.333,12-9.333
	s16-0.001,17.333,3.333s-6.333,5.333-12,7s-12-0.666-12-0.666"/>
<path fill="none" stroke="#000000" stroke-width="4" stroke-miterlimit="10" d="M163.807,435.807c0,0,10.667-9.001,20.667-9.667
	s23.333-1,29,2.667s0.666,7.333-2.667,9s-20,1.667-27.667,2s-13.667-3.333-13.667-3.333"/>
<path fill="none" stroke="#000000" stroke-width="4" stroke-miterlimit="10" d="M316.473,519.474c0,0,3.668-6.334,20.334-7.667
	s20.666-1.999,28.666-0.333s10.667,4.333,10.667,4.333s-10.334,8.333-17.667,9s-17.666-1-25.666-2s-10.334-3-10.334-3"/>
<path fill="none" stroke="#000000" stroke-width="4" stroke-miterlimit="10" d="M443.807,430.473c0,0,7.001-7.999,16.667-5.666
	s17,6.333,18.333,8.333s-5.334,5.333-10.667,3.333s-11-5.666-13.333-5.333"/>
<path fill="none" stroke="#000000" stroke-width="4" stroke-miterlimit="10" d="M491.14,565.807c0,0-15.666-1.666-15.666,5
	s4,12.667,7.333,13s9.667,3.332,14.667,0.666"/>
<path fill="none" stroke="#000000" stroke-width="4" stroke-miterlimit="10" d="M110.807,5.474l-4,89.333c0,0,4,71.333,3.333,87.333
	s-1.333,68,1.333,70s-3.333,62-0.667,68.667s2.667,16,4,20s-0.667,173.334-0.667,180.667s-11.333,33.334-9.333,40s5.333,28.667,8,30
	"/>
<path fill="none" stroke="#000000" stroke-width="4" stroke-miterlimit="10" d="M276.64,68.39c0,0,6.75,6.5,11.25,5.25
	s8.5-2.75,8.5-2.75"/>
<path fill="none" stroke="#000000" stroke-width="4" stroke-miterlimit="10" d="M128.14,56.14c5-1.5,7.5-2.833,10.833-1.833
	s6.667,3,7,3.667"/>
</svg>
