<?xml version="1.0" encoding="utf-8"?>
<!-- Generator: Adobe Illustrator 16.0.0, SVG Export Plug-In . SVG Version: 6.00 Build 0)  -->
<!DOCTYPE svg PUBLIC "-//W3C//DTD SVG 1.1//EN" "http://www.w3.org/Graphics/SVG/1.1/DTD/svg11.dtd">
<svg version="1.1" id="Layer_1" xmlns="http://www.w3.org/2000/svg" xmlns:xlink="http://www.w3.org/1999/xlink" x="0px" y="0px"
	 width="595.281px" height="595.281px" viewBox="0 0 595.281 595.281" enable-background="new 0 0 595.281 595.281"
	 xml:space="preserve">
<g id="Layer_3" display="none">
	<path display="inline" fill="none" stroke="#000000" stroke-width="3" stroke-miterlimit="10" d="M252.141,326.141
		c0-2,3.333-24-2.667-38.667c-6-14.667,0-97.333-1.333-108.667s-4.667-31.333-10.667-45.333s15.333-31.333,17.333-36.667
		S247.14,46.14,247.14,46.14s-5.5,10.5-4,15s7.5,24.5,5.5,30s-19,25.5-20.5,32.5s3,24,6.5,33.5s3,21,2.5,26.5s5.5,13.5,4.5,21
		s3,33.5-2,44.5s-6,21.5-1,30.5s5.5,24.5,4.5,32s-4,18.5,2,21.5s7.5-0.5,7.5-0.5L252.141,326.141z"/>
	<path display="inline" fill="none" stroke="#000000" stroke-width="3" stroke-miterlimit="10" d="M405.475,0
		c0,0,1.334,29.474-4,42.141s-16,31.333-12,45.333s9.332,45.333,12.666,52s-1.998,13.333-0.666,25.333
		c1.334,12,9.332,45.333,6.666,56s-0.666,26-0.666,26"/>
	<path display="inline" fill="none" stroke="#000000" stroke-width="3" stroke-miterlimit="10" d="M562.141,0
		c0,0,3.334,24.141,0.667,42.141s-10.666,72.667-7.333,84s-5.334,24-1.334,33.333s8.667,28.666,6.667,37.333s-4.667,30,0,38"/>
	<path display="inline" fill="none" stroke="#000000" stroke-width="3" stroke-miterlimit="10" d="M573.475,0
		c0,0-5.334,25.474-3.334,32.141s-6,64-3.333,73.333s8.666,18,3.333,29.333s-9.999,20.667-8.666,22.667s8,22,7.333,30.667
		s-6.666,21.333-7.333,27.333s-0.667,19.333-0.667,19.333"/>
	<path display="inline" fill="none" stroke="#000000" stroke-width="3" stroke-miterlimit="10" d="M398.141,0
		c0,0,4.668,24.807-5.332,40.807s-18,42-11.334,62s12,36,12.666,44c0.668,8,12.002,86,13.334,100"/>
	<path display="inline" fill="none" stroke="#000000" stroke-width="3" stroke-miterlimit="10" d="M386.141,232.141
		c0,0,4.668,27.333,5.334,41.333s-8,30-7.334,44.667c0.668,14.667-20,29.999-20,39.333s17.334,20.667,16,34.667
		c-1.332,14-18.666,20.001-18.666,40.667s0,28.666,10,40.666s12.666,17,12.666,27.667s12,16.999,4,26.333
		s-9.332,10.001-9.332,21.334s-1.334,25.999-1.334,25.999l-6,20.476v4.19"/>
	<path display="inline" fill="none" stroke="#000000" stroke-width="3" stroke-miterlimit="10" d="M386.141,232.141
		c0,0-1,33.75-3,40s-3.5,17.75-5.25,22.5c-1.75,4.75-4.75,23.75-6.5,31.25s-0.916,10.583-5.25,16.917
		c-1.961,2.866-12.25,8.083-10.75,16.083s11,24.917,10.75,28.917s-2.5,13.583-6.25,17.583s-6.5,39.75-4.5,46s14,32.25,16.25,38
		s5.75,27.25,0.5,34.25s-6.5,15.75-6,19s1.5,14,2.25,18s-0.75,14.25-3,22.75s-3,13.5-3,13.5"/>
	<path display="inline" fill="none" stroke="#000000" stroke-width="3" stroke-miterlimit="10" d="M303.141,0c0,0-4,10.391-1,19.641
		s11.25,27.5,8.75,35.75c-1.135,3.745-8.5,5.25-10.5,12c-3.625,12.234-4.25,28.75-4.5,37.75s-0.494,11.873,2,14.75
		c3.25,3.75,5,7.5,5,7.5s-0.75-33.917-0.75-45.25s12.068-15.826,13.75-19.75c3.75-8.75,2-25.75-3-38
		C307.922,12.217,313.475,0,313.475,0"/>
	<path display="inline" fill="none" stroke="#000000" stroke-width="3" stroke-miterlimit="10" d="M227.141,0
		c0,0-4.333,22.808-2.333,27.474s7,16,7,16s-0.667-9.667,0.333-17.667s0-20,0.333-21.667s0.667-5.333,0.667-5.333"/>
	<path display="inline" fill="none" stroke="#000000" stroke-width="3" stroke-miterlimit="10" d="M274.141,597.641
		c0,0-0.5-7.5-0.5-13s4.5-25,5-33s-16.5-48.5-20-58.5s15-49,15-57s-6-22-6-22s-2.5,14.5-2.5,20s-7,32.5-11,36s-2,21.5-2.5,28.5
		s3.5,15.5,9.5,27s10.5,17,8,29s-8.5,26.5-6.5,34s4,7,4,7"/>
	<path display="inline" fill="none" stroke="#000000" stroke-width="3" stroke-miterlimit="10" d="M180.141,595.281c0,0,0,0,1-2.642
		c1-2.641,2.5-23.5,5-34s4.5-12.5,2.5-22s1.5-21,2.5-29.5s-2-24-2-24s-4,10.5-4.5,15s-1,20-2,24s0.5,19.5-0.5,25.5s-6.5,26.5-6.5,34
		s-3,14.5-3,14.5"/>
	<path display="inline" fill="none" stroke="#000000" stroke-width="3" stroke-miterlimit="10" d="M228.641,450.641
		c0,0,0.5-8.5-0.5-12.5s5-19,5.5-31s9.5-12.5,12-18s10-29.5,13.5-33.5s-1.5-19-1.5-19s-4,5.5-5.5,9.5s-11.5,16-11,21.5
		s0,16.5-2,18.5s-10,12-9.5,15.5s-4.5,18-5.5,27.5s-1.5,15,1,19S228.641,450.641,228.641,450.641z"/>
	<path display="inline" fill="none" stroke="#000000" stroke-width="3" stroke-miterlimit="10" d="M461.141,595.641
		c0,0-2.5-27.5,3.5-40.5s8-24.5,10-37.5s2.5-68.5,3-78.5s0-29.5,2.5-37.5s18-14.5,18-16s2.5-32,3-46s2-34,6-43.5
		c4-9.5,15.5-10.5,13-21s-4.5-32.5-6-37.5s-1-23-1-23s-0.5,19.5,7,28.5s16,23,12.5,29s-14.5,23.5-14,34c0.5,10.5-0.5,28.5-2,37.5
		s-4.5,25-14.5,39.5s-13.5,10.5-10.5,24.5s-3,64-3.5,80s1,27.5-1,39s-11.5,13.5-8.5,27s2,44.5,2,46"/>
	<path display="inline" fill="none" stroke="#000000" stroke-width="3" stroke-miterlimit="10" d="M88.641,595.641
		c0,0-4.5-24.5,0.5-36s12.5-59,9-69.5s-10.5-27.5-3-36s7-15,5-22s2-18.5,5-24.5s8-29.5-1.5-47.5s-13.5-70-7.5-82s14-34.5,20.5-43.5
		s14-18.5,9-32s-11-56.5-8.5-67.5s10.333-44.333,7.667-60s-4.333-23.333-4.333-27.667s1.667-7.333,1.667-7.333s4,4,6.667,11.333
		s8.167,38.167,2.667,62.667s-3.333,41.333,3.333,72c3.425,15.756-2.167,37-9.667,52.5s-4.5,17.5-7,28.5s-9,31-12.5,54.5
		s7,22.5,9,32s8,28.5,7,45s-5,26.5-5.5,35s4,8,7,20.5s-10.5,16-13.5,21s0.5,9.5,3,22s0,56.5-6.5,65s-7,31.5-7,31.5"/>
	<path display="inline" fill="none" stroke="#000000" stroke-width="3" stroke-miterlimit="10" d="M95.807,0
		c0,0,3.334,0.14,3.667,9.807s2,14,0.333,18S99.14,45.14,99.14,45.14s-1-7.667,4-17s9-10.333,9-17.333S110.473-2.86,110.473-2.86"/>
	<path display="inline" fill="none" stroke="#000000" stroke-width="3" stroke-miterlimit="10" d="M55.807,0
		c0,0,4.667,32.474,5.667,50.141s-7.667,66.667-12,78.667s-10,43.334-9.667,45.667s-9.667,23.666-7.667,42.333s12,66,11.333,74
		c-0.667,8,1.333,67.333,1.333,79.333s-6,26.001,0,32.667s0.667,39.332,0,52.666s-11.333,76.001-12,91.334
		s-1.333,50.666-1.333,50.666"/>
	<path display="inline" fill="none" stroke="#000000" stroke-width="3" stroke-miterlimit="10" d="M22.141,593.641
		c0,0-1-40,2.5-50.5s7.5-52,7.5-62s4.5-79,0.5-89s-4.5-76-6.5-87c-2-11,2-38-1-44s-2-61,0.5-68.5s6.5-86,6.5-92.5s-0.5-49.5,0.5-63
		s3-26.5,4-30s1-7.141,1-7.141"/>
</g>
<path fill="none" stroke="#000000" stroke-width="6" stroke-miterlimit="10" d="M358.729,598.716c0,0-2.998-86.995,3-107.994
	c6-20.999,0-71.997,0-71.997"/>
<path fill="none" stroke="#000000" stroke-width="4" stroke-miterlimit="10" d="M405.141,598.141c0,0-12-61-2-73s13-33,12-46
	s-8-22-21-38s-18-46-14-57s-3-26-3-26s-9-16.25-16-24s-13-27-14.25-34.75s-4.25-24.75-4.25-24.75"/>
<path fill="none" stroke="#000000" stroke-width="6" stroke-miterlimit="10" d="M494.141,595.281c0,0-17-18.474-22.333-24.808
	s-10.667-18.333-10.667-18.333s-13-71-10-86s-2-30,5-39s5-20,4-35s-8-60-8-60"/>
<path fill="none" stroke="#000000" stroke-width="6" stroke-miterlimit="10" d="M144.141,595.281c0,0,15-63.142,24-89.142
	s17-86,20-107s18-42,18-74c0-32-6-63-10-77s-2-27-2-27s1.667-56.333,1.333-76s5.333-60.333,4-68.667s-3-62.667-3-62.667"/>
<path fill="none" stroke="#000000" stroke-width="6" stroke-miterlimit="10" d="M296.141,595.281c0,0,6-38.142,9-61.142s15-40,19-66
	s20-44,24-58s7-49,5-59s-6-18-8-40c-2-22-3-24-2-53s2-36,1-52s-1-42,2-51s14-41,7-47s-13-14-13-25s-7-39-7-48s-8-35.141-8-35.141"/>
<path fill="none" stroke="#000000" stroke-width="6" stroke-miterlimit="10" d="M508.141,595.281c0,0-3-21.142,0-45.142s11-48,12-57
	s1-34,1-34"/>
<path fill="none" stroke="#000000" stroke-width="6" stroke-miterlimit="10" d="M543.808,595.281c0,0,12.333-32.141,0.333-56.141
	s-1-55-3-69s-6-18-13-35s-8-50-8-50s-7.5-49-6.5-63s-4-26-4-26"/>
<path fill="none" stroke="#000000" stroke-width="6" stroke-miterlimit="10" d="M543.058,390.308
	c1.084-10.499-1.917-28.167-4.917-60.167s-5-34-13-55s-12-15-18-33s1-25-4-51s-4-44-1-60s2-26,4-45s-1-24,6-37s9-23,9-30
	s1-19.141,1-19.141"/>
<path fill="none" stroke="#000000" stroke-width="4" stroke-miterlimit="10" d="M477.141,394.141c-2-5,4-46,5-64s-2-45,8-58
	s14.875-38.25,14.875-38.25"/>
<path fill="none" stroke="#000000" stroke-width="6" stroke-miterlimit="10" d="M467.141,321.141c-4-16-15-44-17-56s-2-39,0-48
	s8-50,10-75s6-29,10-38s11-13,5-32s-1-29-3-43s-6-33-6-33"/>
<path fill="none" stroke="#000000" stroke-width="6" stroke-miterlimit="10" d="M395.141,357.141c0,0,5-49,0-81c-5-32-10-36-16-55
	s-12-35-8-41s24-17,26-36s-4-40,0-46s-9-14-14-17s-9-2-15-18s-10-21-8-39s2-24.141,2-24.141"/>
<path fill="none" stroke="#000000" stroke-width="6" stroke-miterlimit="10" d="M418.141,230.141c0-3-4-38,1-58s5-52,9-69
	c1.909-8.116,0.4-19.879-2.241-30.936c-2.895-12.104-7.146-23.361-9.759-28.064c-5-9-16-38-16-38v-11"/>
<path fill="none" stroke="#000000" stroke-width="6" stroke-miterlimit="10" d="M451.141,0c0,0-1,32.141-5,42.141
	s-22.75,31.5-19.75,31.5"/>
<path fill="none" stroke="#000000" stroke-width="6" stroke-miterlimit="10" d="M534.141,189.474c0,0-0.001-88.667-0.667-106
	s1.334-32,8.667-38s9.999-24.667,5.333-29.333S544.808,0,544.808,0"/>
<path fill="none" stroke="#000000" stroke-width="6" stroke-miterlimit="10" d="M441.474,597.472c0,0,5.333-8,0-28
	s-6.666-30-4.666-38s2.666-23.333,2.666-23.333"/>
<path fill="none" stroke="#000000" stroke-width="6" stroke-miterlimit="10" d="M274.807,595.281c0,0-4-22.478-0.667-38.478
	s-0.667-25.999-3.333-36.666s-11.333-19.334-11.333-28.667s-2-10.667-7.333-32.667s-2.667-23.999-7.333-40.666s-25.333-12.666-16-32
	s4.667-28.667,6-44.667s1.334-34.001,6.667-40.667c5.333-6.667,12-15.333,6.667-26s-17.333-45.333-18.667-53.333s-3.333-18-4-32.667
	s-10-23.333-7.333-37.333s6-33.333,11.333-38s17.333-12,17.333-12s12.666-5.664,10.999-24.331s-1.333-34.333,5-45.333
	S274.141,0,274.141,0"/>
<path fill="none" stroke="#000000" stroke-width="4" stroke-miterlimit="10" d="M315.475,382.805c0,0-12-28.667,0.666-50
	c12.668-21.333,10.668-47.333,4.668-67.333s-0.668-40-8.668-58s-13.334-17.333-14-41.333c-0.667-24,8.668-35.333,12-44
	c3.334-8.667,20.232-26.723,21.334-33.332c2.166-13,2.166-49,2.166-49"/>
<path fill="none" stroke="#000000" stroke-width="6" stroke-miterlimit="10" d="M415.141,476.475c0,0-3-35.002-3-60.336
	s0-46.667,8-58.667s12-28.667,12-28.667"/>
<path fill="none" stroke="#000000" stroke-width="6" stroke-miterlimit="10" d="M543.058,390.308
	c3.834-19.916,20.651-34.347,22.083-48.667c1.75-17.5-3-70.168-3-82.168s-7.333-27.333-3.333-43.333s4.666-56.667,3.333-67.333
	s8.667-51.333,8.667-56s1.334-32.664-1.333-44.664s-4.001-21.333,0.666-31.333s6-16.808,6-16.808"/>
<path fill="none" stroke="#000000" stroke-width="6" stroke-miterlimit="10" d="M83.141,595.281c0,0-10-40.142-10-77.142
	s-15-45-15-71s6-40,0-58s-14-50-14-50"/>
<path fill="none" stroke="#000000" stroke-width="4" stroke-miterlimit="10" d="M158.807,258.807
	c-1.333,13.333-2.667,34.667-0.667,56c2,21.333-8,46.666-8,57.333s-26,70.667-26,70.667s-12.5,14.833-14,25.833"/>
<path fill="none" stroke="#000000" stroke-width="4" stroke-miterlimit="10" d="M87.474,407.474c0,0,7.333-77.999-2-100.666
	s1.333-46.667,2-50.667c0,0,2.167-17,0.167-39.5s-3.5-46.5-3.5-46.5"/>
<path fill="none" stroke="#000000" stroke-width="6" stroke-miterlimit="10" d="M128.141,595.281c0,0,16.667-55.14,15.333-78.474
	s0.667-52.001,10.667-65.334s6-43.333,10-47.333s2.667-35.999,9.333-47.333s10.667-43.333,8.667-52.667
	c-2-9.333-5.333-29.333-4-51.333s-4.667-86-4.667-86s4-68.666,0-77.333s-4-46.667,1.333-62.667S178.141,0,178.141,0"/>
<path fill="none" stroke="#000000" stroke-width="6" stroke-miterlimit="10" d="M79.474,574.141c0,0,4.667-41.333,14.667-49.333
	s14-37.334,15.333-51.334s-4-36,2-58s20.667-68.667,20-78s8-41.333,8-41.333s5.333-50,1.333-60s6.667-46.667,10-52
	s-2-33.333,0.667-36.667s17.333-26.667,17.333-26.667s6-19.333,5.333-25.333"/>
<path fill="none" stroke="#000000" stroke-width="6" stroke-miterlimit="10" d="M42.807,595.281c0,0,6-24.474,0.667-51.141
	s-12.667-70-10.667-86s2.667-31.999,5.333-43.333s4-38,4-44s2-31.668,2-31.668"/>
<path fill="none" stroke="#000000" stroke-width="6" stroke-miterlimit="10" d="M44.141,339.14c0,0,7.5-29.165,5.5-46.499
	c-2-17.333-7.5-60.5-5.5-65.833s8-51.333,4.667-60.667s-19.333-50.667-19.333-54s-2.667-39.333-2.667-52s0.667-41.333,0.667-46.667
	S26.807,0,26.807,0"/>
<path fill="none" stroke="#000000" stroke-width="4" stroke-miterlimit="10" d="M68.141,314.141c0,0,4-48.667-0.667-72
	s-4.469-58.202-2.958-65.125"/>
<path fill="none" stroke="#000000" stroke-width="4" stroke-miterlimit="10" d="M49.891,176.891c0,0,30.25,3.917,34.25-6.75
	s0-42,5.333-54s10.667-28,10-33.333s-4-44-3.333-50.667S96.807,0,96.807,0"/>
<path fill="none" stroke="#000000" stroke-width="4" stroke-miterlimit="10" d="M24.807,336.808c0,0,13.333-28.667,7.333-52.667
	s-13.333-59.333-13.333-76s-2.666-65.333-5.333-72.667c-1.944-5.345-1.833-23.333-3.333-33.333c-0.799-5.326-7.046-6.202-5-65.5
	C5.474,26.975,2.807,0,2.807,0"/>
<path fill="none" stroke="#000000" stroke-width="4" stroke-miterlimit="10" d="M0,311.141c0,0,10.641,46,10.141,91s-12,65-12,65"/>
<path fill="none" stroke="#000000" stroke-width="4" stroke-miterlimit="10" d="M38.641,142.141c0,0,12.5-9.5,25.5-11s22.5,7,22.5,7
	"/>
<path fill="none" stroke="#000000" stroke-width="4" stroke-miterlimit="10" d="M69.641,1.141c0,0-0.5,34-2.5,47.5s-6.5,35-6,53.5
	s3,29,3,29"/>
<path fill="none" stroke="#000000" stroke-width="4" stroke-miterlimit="10" d="M86.141,150.641c0,0,42.5-1,44.5-6s0-33.5,5-39.5
	s18.5-25,22.5-30s13-29,13-29"/>
<path fill="none" stroke="#000000" stroke-width="4" stroke-miterlimit="10" d="M98.141,61.641c0,0,27,3.5,32-1s9.5-27.5,9.5-30.5
	s-4-30.141-4-30.141"/>
<path fill="none" stroke="#000000" stroke-width="4" stroke-miterlimit="10" d="M110.141,150.141c0,0-5.5,59.5,0,90.5s-5,83-6.5,93"
	/>
<path fill="none" stroke="#000000" stroke-width="4" stroke-miterlimit="10" d="M130.641,144.641c0,0-2.5,39-1,56.5
	s0.25,33.25-0.25,45.75s8.25,57.25,8.25,57.25"/>
<path fill="none" stroke="#000000" stroke-width="4" stroke-miterlimit="10" d="M226.807,117.474c0,0,3.333-58,1.333-65.333
	s-10-16-16.667-16s-14.667-9.333-14.667-18S197.474,0,197.474,0"/>
<path fill="none" stroke="#000000" stroke-width="4" stroke-miterlimit="10" d="M306.808,424.808c0,0-1.334-23.333-14-38
	s1.333-35.334-8-48.667s32.667-56.667,19.333-89.333c-13.333-32.667-32-37.333-31.333-61.333s2.667-48-1.333-60s2-52.667,6-70
	S282.141,0,282.141,0"/>
<path fill="none" stroke="#000000" stroke-width="4" stroke-miterlimit="10" d="M248.807,286.807c0,0,13.333,8,17.333,22.667
	s6.667,32,12.667,28s6-4,6-4"/>
<path fill="none" stroke="#000000" stroke-width="4" stroke-miterlimit="10" d="M184.141,595.281c0,0,2.5-31.641,8.5-46.641
	s17.5-39.5,19.5-47s12.5-53.5,11.5-60s1.5-46.5,1.5-46.5"/>
<path fill="none" stroke="#000000" stroke-width="4" stroke-miterlimit="10" d="M234.141,595.281c0,0-2.5-31.141,0.5-50.641
	s-2-27.5-5-37s-12-29.5-12-29.5"/>
<path fill="none" stroke="#000000" stroke-width="4" stroke-miterlimit="10" d="M462.141,411.141c0,0,12,16.5,13.5,40
	s-0.5,43.5-7.5,46.5s-14.5,4.5-14.5,4.5"/>
<path fill="none" stroke="#000000" stroke-width="4" stroke-miterlimit="10" d="M558.308,358.475c0,0,9.833-5.834,19.833,3.166
	s17.141,28.5,17.141,28.5"/>
<path fill="none" stroke="#000000" stroke-width="4" stroke-miterlimit="10" d="M595.281,595.281c0,0-22.141-13.641-28.141-39.641
	s-9.5-45.5-16-50s-11.5-18-11.5-18"/>
<path fill="none" stroke="#000000" stroke-width="4" stroke-miterlimit="10" d="M274.807,336.808c0,0-8.667,28.666-4,39.333
	s11.333,44.666,12,55.333s7.333,30.667,10,38.667s20,34,20,34"/>
<path fill="none" stroke="#000000" stroke-width="4" stroke-miterlimit="10" d="M318.141,492.641c0,0,1,13,13.5,26
	s26.5,21.5,26.5,21.5"/>
<path fill="none" stroke="#000000" stroke-width="4" stroke-miterlimit="10" d="M199.474,366.808c0,0,6.666,30,5.333,54
	s-2.667,82-8,90s-18.667,39.332-16,46.666s5.333,18,5.333,18"/>
</svg>
