<?xml version="1.0" encoding="utf-8"?>
<!-- Generator: Adobe Illustrator 16.0.0, SVG Export Plug-In . SVG Version: 6.00 Build 0)  -->
<!DOCTYPE svg PUBLIC "-//W3C//DTD SVG 1.1//EN" "http://www.w3.org/Graphics/SVG/1.1/DTD/svg11.dtd">
<svg version="1.1" id="Layer_4" xmlns="http://www.w3.org/2000/svg" xmlns:xlink="http://www.w3.org/1999/xlink" x="0px" y="0px"
	 width="595.281px" height="595.281px" viewBox="0 0 595.281 595.281" enable-background="new 0 0 595.281 595.281"
	 xml:space="preserve">
<path fill="none" stroke="#000000" stroke-width="4" stroke-miterlimit="10" d="M226.756,290.938c0,0-1.444-56.55,75.4-55.099
	c76.845,1.451,57.984,72.968,56.548,79.748c-3.307,15.604-18.849,65.245-69.597,50.748
	C238.357,351.836,226.756,290.938,226.756,290.938z"/>
<path fill="none" stroke="#000000" stroke-width="4" stroke-miterlimit="10" d="M284.757,238.741c0,0,17.399-85.548-91.347-150.796
	C84.664,22.697,62.916,22.7,41.166,42.998C19.417,63.297,67.26,209.74,104.96,232.94c37.7,23.2,121.795,57.999,121.795,57.999"/>
<path fill="none" stroke="#000000" stroke-width="4" stroke-miterlimit="10" d="M302.156,235.839c0,0,36.247-107.297,66.696-134.845
	c30.449-27.547,131.944-97.147,178.343-52.198c46.4,44.949-50.749,179.792-63.799,187.043s-69.598,52.2-121.795,46.399"/>
<path fill="none" stroke="#000000" stroke-width="4" stroke-miterlimit="10" d="M358.704,308.338c0,0,97.142,24.646,120.343,49.297
	s85.548,133.395,85.548,152.244c0,18.851-18.853,69.6-72.498,50.75c-53.647-18.851-111.647-44.947-134.846-78.298
	c-23.197-33.35-47.11-101.141-47.11-114.19"/>
<path fill="none" stroke="#000000" stroke-width="4" stroke-miterlimit="10" d="M229.657,303.988c0,0-85.543,31.897-123.244,63.797
	S12.166,528.727,38.265,549.027c26.098,20.302,150.796,7.25,207.344-78.297c56.547-85.546,37.198-105.257,37.198-105.257"/>
</svg>
