<?xml version="1.0" encoding="utf-8"?>
<!-- Generator: Adobe Illustrator 16.0.0, SVG Export Plug-In . SVG Version: 6.00 Build 0)  -->
<!DOCTYPE svg PUBLIC "-//W3C//DTD SVG 1.1//EN" "http://www.w3.org/Graphics/SVG/1.1/DTD/svg11.dtd">
<svg version="1.1" id="Layer_4" xmlns="http://www.w3.org/2000/svg" xmlns:xlink="http://www.w3.org/1999/xlink" x="0px" y="0px"
	 width="595.281px" height="595.281px" viewBox="0 0 595.281 595.281" enable-background="new 0 0 595.281 595.281"
	 xml:space="preserve">
<path fill="none" stroke="#000000" stroke-width="5" stroke-miterlimit="10" d="M163.455,63.5c0,0,70.753-53.995,128.474-52.133
	c57.721,1.861,138.715,56.788,138.715,56.788s108.923,55.858,106.13,125.681c-2.793,69.821-58.651,129.406-88.442,147.093
	c-29.792,17.688-12.104,27.93-21.413,37.239c-9.309,9.309-22.341,25.135-24.203,40.03c-1.862,14.894,1.862,26.068-8.379,38.17
	c-10.241,12.103-60.511,53.066-97.751,51.202c-37.241-1.862-82.86-37.239-95.892-63.307c-13.032-26.065-3.723-21.178-7.214-31.651
	c-2.905-8.711-25.368-35.38-27.231-46.549c-1.862-11.171-17.688-24.205-31.652-32.583c-13.964-8.379-73.726-57.725-72.615-143.369
	C62.911,118.312,163.455,63.5,163.455,63.5z"/>
<path fill="none" stroke="#000000" stroke-width="5" stroke-miterlimit="10" d="M369.663,477.315c0,0-20.943,51.201-11.635,74.477
	c9.309,23.276,32.116,33.515,33.979,33.515s-187.588-2.326-187.588-2.326c6.981-3.26,26.066-36.774,31.652-53.995
	c5.586-17.222-9.31-53.998-9.31-53.998"/>
<path fill="none" stroke="#000000" stroke-width="5" stroke-miterlimit="10" d="M267.723,446.129c0,0,4.659-9.313,30.258-6.983
	c25.601,2.329,30.723,9.312,30.723,9.312"/>
<path fill="none" stroke="#000000" stroke-width="4" stroke-miterlimit="10" d="M247.708,255.746c0,0,37.705,3.724,48.877,28.395
	l7.912-0.93c0,0,15.363-30.257,47.945-26.067"/>
<path fill="none" stroke="#000000" stroke-width="4" stroke-miterlimit="10" d="M287.272,271.107c0,0,4.658-3.725,10.708-3.725
	s13.965,5.586,13.965,5.586"/>
<path fill="none" stroke="#000000" stroke-width="4" stroke-miterlimit="10" d="M448.331,340.93c0,0,0,0,0-5.586
	s3.259-12.103,6.982-25.602c3.723-13.498-1.397-23.274-6.982-56.79c-5.586-33.515,26.533-72.15,26.533-72.15
	s-37.238,32.816-37.238,47.479c0,13.887,1.394,26.998,3.257,30.722c1.862,3.725,1.862,15.36,1.862,20.482
	c0,5.121-1.862,20.015-1.862,20.015"/>
<path fill="none" stroke="#000000" stroke-width="4" stroke-miterlimit="10" d="M440.418,346.515c0,0-1.396-3.258-3.259-5.12
	c-1.862-1.862,1.396-14.43,2.793-23.273c1.396-8.843,1.396-20.946-4.655-43.29c-6.053-22.343-36.772-26.067-36.772-26.067
	s23.738,2.792,26.997,4.654s13.037,10.707,13.501,12.104c0.464,1.396,4.188,6.517,4.188,6.517"/>
<path fill="none" stroke="#000000" stroke-width="4" stroke-miterlimit="10" d="M155.076,348.9c0,0-1.008-5.778-1.396-12.044
	c-0.385-6.268-1.621-2.984-6.29-17.797c-4.664-14.82-0.196-26.227,3.093-64.308c3.298-38.073-31.591-78.625-31.591-78.625
	s39.621,33.583,40.633,50.029c0.96,15.576,0.463,30.402-1.146,34.739c-1.611,4.338-0.815,17.392-0.458,23.134
	c0.354,5.742,3.245,22.29,3.245,22.29"/>
<path fill="none" stroke="#000000" stroke-width="4" stroke-miterlimit="10" d="M162.583,357.628c0,0,3.466-2.396,5.207-4.645
	c1.74-2.25-2.397-16.06-4.407-25.86c-2.01-9.799-2.842-23.373,1.694-48.96c4.53-25.585,35.099-32.427,35.099-32.427
	s-23.63,5.19-26.77,7.564c-3.145,2.369-12.342,13.138-12.715,14.743c-0.366,1.605-3.753,7.674-3.753,7.674"/>
<path fill="none" stroke="#000000" stroke-width="4" stroke-miterlimit="10" d="M204.302,286.933c0,0,19.899-11.87,47.828,11.171
	c27.929,23.042,37.006,34.562,25.485,46.083c-11.521,11.52-20.598,16.408-38.751,15.012c-18.154-1.396-53.764-22.692-53.066-43.639
	C186.497,294.613,204.302,286.933,204.302,286.933z"/>
<path fill="none" stroke="#000000" stroke-width="4" stroke-miterlimit="10" d="M394.107,284.29c0,0-20.432-10.931-47.26,13.381
	c-26.826,24.315-35.358,36.244-23.313,47.22c12.044,10.973,21.34,15.432,39.406,13.192c18.072-2.238,52.653-25.165,50.98-46.058
	C412.25,291.133,394.107,284.29,394.107,284.29z"/>
<path fill="none" stroke="#000000" stroke-width="4" stroke-miterlimit="10" d="M284.597,381.892c0,0,2.096,8.378-1.047,11.171
	c-3.142,2.793-8.029,6.284-8.029,6.284s8.729-5.935,23.391-3.142c14.663,2.793,16.059,4.189,16.059,4.189s-3.839-3.841-4.188-8.029
	c-0.35-4.19,0.697-8.029,1.745-10.124c1.048-2.096-2.443,3.84-6.284,5.934c-3.84,2.095-6.633,6.983-11.869,2.444
	c-5.237-4.538-10.124-10.124-10.124-10.124"/>
<path fill="none" stroke="#000000" stroke-width="4" stroke-miterlimit="10" d="M433.32,353.962c0,0-21.296,1.745-39.102,15.013
	c-17.805,13.267-26.184,13.614-25.485,25.834c0.699,12.219-1.396,23.74,2.793,27.929s5.585,5.936,5.585,5.936
	s-5.235-14.664,1.048-26.184c6.284-11.521,13.965-21.994,21.646-24.089c7.68-2.095,23.041-6.634,25.834-5.586
	s4.539,1.396,4.539,1.396"/>
<path fill="none" stroke="#000000" stroke-width="4" stroke-miterlimit="10" d="M166.878,352.417c0,0,21.179,2.863,38.262,17.048
	c17.081,14.183,25.427,14.975,24.091,27.139c-1.342,12.164,0.145,23.781-4.261,27.743c-4.404,3.966-5.888,5.635-5.888,5.635
	s5.997-14.368,0.33-26.205c-5.668-11.832-12.787-22.697-20.351-25.193c-7.561-2.495-22.659-7.835-25.501-6.936
	c-2.845,0.899-4.607,1.156-4.607,1.156"/>
</svg>
