<?xml version="1.0" encoding="utf-8"?>
<!-- Generator: Adobe Illustrator 16.0.0, SVG Export Plug-In . SVG Version: 6.00 Build 0)  -->
<!DOCTYPE svg PUBLIC "-//W3C//DTD SVG 1.1//EN" "http://www.w3.org/Graphics/SVG/1.1/DTD/svg11.dtd">
<svg version="1.1" id="Layer_4" xmlns="http://www.w3.org/2000/svg" xmlns:xlink="http://www.w3.org/1999/xlink" x="0px" y="0px"
	 width="595.281px" height="595.281px" viewBox="0 0 595.281 595.281" enable-background="new 0 0 595.281 595.281"
	 xml:space="preserve">
<path fill="none" stroke="#000000" stroke-width="4" stroke-miterlimit="10" d="M325.516,173.641c0,0,4.25,2.625,5.061,6.978
	c4.615,24.781,10.973,35.504,5.162,44.54c-5.81,9.036-51.64,36.792-79.396,43.893s-119.418,23.238-145.238,36.793
	c-25.819,13.556-31.63,26.468-21.301,41.313c10.328,14.845,69.069-10.328,84.561-19.365c15.492-9.038,77.46-36.794,89.079-23.238
	s-14.847,40.667-30.339,49.058c-15.492,8.391-123.937,53.898-148.143,78.104c-24.206,24.207-45.507,72.619-27.11,75.523
	c18.396,2.905,58.095,7.747,98.761-7.745c0,0,5.809-6.777,9.924-4.357c4.116,2.421,7.988,4.6,4.841,10.893
	c-3.147,6.294-9.198,12.345-3.873,20.092c5.325,7.746,9.44,7.987,11.377,5.325c1.936-2.663,2.905-18.639,6.536-24.207
	c3.63-5.566,10.889-6.349,10.889-6.349l7.75,4.413c-3.873,24.205,26.143,61.968,52.286,69.714
	c26.143,7.745,40.667-15.491,44.54-40.666s-5.81-74.557-6.778-107.477c-0.968-32.921,17.428-77.46,34.857-74.556
	c17.429,2.905,18.397,78.429,19.364,98.762c0.969,20.333,13.557,43.571,37.763,40.667c24.206-2.905,17.429-37.763,16.46-51.318
	c-0.969-13.555-24.206-83.269-30.984-92.951c-6.776-9.683-17.429-41.635-11.619-63.905s48.649-74.124,53.821-82.809
	c6.625-11.125,5.875-16,5.875-16"/>
<path fill="none" stroke="#000000" stroke-width="4" stroke-miterlimit="10" d="M279.266,111.266c0,0-31.316-8.108-48.098-4.881
	s-50.349,12.91-63.259,23.238s-39.375,33.566-45.831,41.313c-6.455,7.746-14.201,30.983-14.201,30.983s14.201-17.428,20.011-21.946
	c5.81-4.519,49.058-34.857,62.613-41.958c13.556-7.1,33.567-12.911,56.159-10.974s34.857-4.195,34.857-4.195
	s-1.153-3.606-2.025-9.441c-2.32-15.544-2.63-46.901,26.232-68.019c39.698-29.047,36.793-31.952,58.095-30.016
	c21.301,1.937,70.683,28.08,85.205,77.46c14.524,49.381,7.747,64.873,2.905,69.714c0,0,4.521,16.137-6.454,26.465
	c-10.974,10.328-10.974,10.328-10.974,10.328l0,0c0,0,19.365-9.681,38.084,5.165c18.721,14.845,23.886,11.619,26.468,56.803
	c2.58,45.185-5.811,66.486-1.293,85.206c4.518,18.721,7.747,44.538,9.683,45.185c0,0,5.81-45.185,5.81-69.714
	c0-24.53,13.556-49.703,13.556-69.067c0-19.365-2.582-37.44-26.466-58.096c-23.886-20.655-47.701-17.302-47.701-17.302"/>
<path fill="none" stroke="#000000" stroke-width="5" stroke-miterlimit="10" d="M102.641,210.641c0,0,28.313,21.617,45.742,31.784
	c17.428,10.167,38.246,20.333,51.801,24.69c13.556,4.357,42.119,5.81,44.54,4.357"/>
<path fill="none" stroke="#000000" stroke-width="3" stroke-miterlimit="10" d="M339.128,212.893c0,0-37.278,12.103-55.191,11.135
	s-45.023,2.42-67.293-3.873c-22.27-6.294-46.96-11.135-54.223-17.429"/>
<path fill="none" stroke="#000000" stroke-width="5" stroke-miterlimit="10" d="M281.391,121.641c0,0,39.824,0.236,50.959,0.236
	s10.65-2.905,37.278,7.262c26.626,10.167,40.666,11.135,52.285,16.46c11.619,5.326,30.016,16.945,30.016,16.945"/>
<path fill="none" stroke="#000000" stroke-width="5" stroke-miterlimit="10" d="M341.391,121.266c0,1.452-6.136,27.722-6.136,27.722
	s-5.326,17.913,1.937,18.397c7.262,0.484,6.293-4.357,24.206-6.294c17.912-1.936,23.237-4.841,34.856,7.262
	s10.168,8.714,16.944,1.937c6.778-6.778,5.647-20.042,8.067-24.399"/>
<path fill="none" stroke="#000000" stroke-width="3" stroke-miterlimit="10" d="M357.04,181.424c0,0-7.262,27.595-1.937,35.825
	c5.325,8.23,4.841,14.04,16.46,6.778s20.334-6.294,19.365-20.333c-0.968-14.04-2.904-17.913-2.904-17.913"/>
<path fill="none" stroke="#000000" stroke-width="3" stroke-miterlimit="10" d="M333.802,191.591c0,0-11.618,7.262-31.952,5.325
	c-20.333-1.936-20.817-4.841-20.817-4.841"/>
<path fill="none" stroke="#000000" stroke-width="3" stroke-miterlimit="10" d="M381.141,245.808c0,0-0.378,24.696,8.82,35.347
	c9.198,10.65,18.396,29.047,27.596,36.794c9.197,7.745,9.682,15.976,26.626,25.174s21.785,16.944,30.016,18.397"/>
<path fill="none" stroke="#000000" stroke-width="3" stroke-miterlimit="10" d="M423.366,289.384
	c5.809,5.325,9.682,16.46,18.881,20.817c9.197,4.357,9.197,6.778,18.88,6.778"/>
<path fill="none" stroke="#000000" stroke-width="5" stroke-miterlimit="10" d="M357.975,297.974c0,0,5.846,26.59,14.881,34.336
	c9.036,7.746,38.566,43.986,92.306,54.222c20.333,3.874,42.281,5.163,42.281,5.163"/>
<path fill="none" stroke="#000000" stroke-width="3" stroke-miterlimit="10" d="M265.541,359.099c0,0-14.04,1.452-15.008,5.325
	c-0.968,3.873-5.81,11.136,3.389,12.103c9.198,0.969,14.523,1.453,15.492-3.389C270.382,368.297,265.541,359.099,265.541,359.099z"
	/>
<path fill="none" stroke="#000000" stroke-width="3" stroke-miterlimit="10" d="M203.088,416.71c0,0-10.409-6.536-12.83-3.39
	c-2.42,3.146-6.536,8.23-2.42,13.313c4.115,5.083,6.536,8.472,12.587,3.873c6.052-4.599,6.535-3.389,6.052-7.746
	C205.993,418.404,203.088,416.71,203.088,416.71z"/>
<path fill="none" stroke="#000000" stroke-width="3" stroke-miterlimit="10" d="M255.858,408.721
	c-7.504,1.695-13.313,2.421-9.924,8.23c3.389,5.81,3.146,13.556,11.135,10.894c7.988-2.663,11.376-2.663,9.924-6.778
	c-1.452-4.115-0.968-4.356-4.599-7.987C258.763,409.447,255.858,408.721,255.858,408.721z"/>
<path fill="none" stroke="#000000" stroke-width="3" stroke-miterlimit="10" d="M252.953,456.165c-3.873,0-10.651,0.969-8.956,4.115
	c1.694,3.147,0,8.23,7.988,5.325c7.988-2.904,12.345-0.241,8.23-5.566C256.1,454.714,252.953,456.165,252.953,456.165z"/>
<path fill="none" stroke="#000000" stroke-width="3" stroke-miterlimit="10" d="M311.855,276.152
	c-0.453-0.195-0.894-0.38-1.321-0.552c-5.973-2.419-9.565-2.718-12.878,1.197c-3.552,4.196-8.07,7.101-3.229,11.619
	c4.841,4.518,4.841,7.744,10.651,1.613c5.81-6.131,7.425-5.81,9.038-7.423"/>
<path fill="none" stroke="#000000" stroke-width="3" stroke-miterlimit="10" d="M331.221,295.194
	c-4.196,0.645-8.069,2.582-5.809,6.778c2.259,4.196,3.549,8.391,8.39,3.873c4.842-4.518,7.102-2.907,5.165-6.133
	C337.03,296.485,331.221,295.194,331.221,295.194z"/>
<path fill="none" stroke="#000000" stroke-width="3" stroke-miterlimit="10" d="M327.671,325.854
	c-5.164-3.55-3.552-10.325-12.91-5.162c-9.359,5.162-14.526,6.13-10.006,12.264c4.52,6.132,2.26,14.202,10.975,10.006
	c8.714-4.196,5.485,3.226,8.714-4.196c3.228-7.423,3.55-9.36,4.841-10.328C330.576,327.47,327.671,325.854,327.671,325.854z"/>
<path fill="none" stroke="#000000" stroke-width="3" stroke-miterlimit="10" d="M352.199,255.819
	c-7.1-1.292-14.2-0.002-10.328,5.163c3.874,5.165,3.229,9.036,9.038,5.81c5.811-3.226,8.069-0.647,5.811-4.841
	C354.459,257.755,352.199,255.819,352.199,255.819z"/>
<path fill="none" stroke="#000000" stroke-width="5" stroke-miterlimit="10" d="M334.016,122.141c0,0-5.5,17.375-6.375,24
	s-5.25,17.875-0.875,21s5.375,9.125,12.75,6.875s9.875-4.625,16.375-6.5s16-0.75,23.25,1.75s10.375,5.875,14.75,8.125
	s3.25,3.25,11.5,4s11.25,1.25,13.375-2s4.375-7.125,6.25-11s5-19.25,5-19.25"/>
</svg>
