<?xml version="1.0" encoding="utf-8"?>
<!-- Generator: Adobe Illustrator 16.0.0, SVG Export Plug-In . SVG Version: 6.00 Build 0)  -->
<!DOCTYPE svg PUBLIC "-//W3C//DTD SVG 1.1//EN" "http://www.w3.org/Graphics/SVG/1.1/DTD/svg11.dtd">
<svg version="1.1" id="Layer_4" xmlns="http://www.w3.org/2000/svg" xmlns:xlink="http://www.w3.org/1999/xlink" x="0px" y="0px"
	 width="595.281px" height="595.281px" viewBox="0 0 595.281 595.281" enable-background="new 0 0 595.281 595.281"
	 xml:space="preserve">
<path fill="none" stroke="#000000" stroke-width="3" stroke-miterlimit="10" d="M325.95,508.772c0,0,115.461-77.812,124.663-158.968
	c9.202-81.155-5.021-129.68-39.323-153.107c0,0,5.228,62.54,2.719,102.071c-2.511,39.534-26.983,76.556-38.278,90.988
	c-11.296,14.432-37.649,36.396-51.455,56.475c-13.805,20.08-8.785,52.71-8.785,52.71L325.95,508.772z"/>
<path fill="none" stroke="#000000" stroke-width="3" stroke-miterlimit="10" d="M315.072,485.767c0,0-88.686-92.245-112.531-147.464
	c-23.845-55.221-43.297-106.047-27.609-208.958C190.619,26.436,210.071,17.65,210.071,17.65s-58.747,65.885-59.612,200.8
	c-0.628,97.89,22.8,128.218,37.022,154.155c11.752,21.434,117.342,138.886,117.342,138.886s6.063,21.548,6.483,38.28
	c0.42,16.73,0.838,28.445,0.838,28.445"/>
<path fill="none" stroke="#000000" stroke-width="3" stroke-miterlimit="10" d="M325.95,508.772c0,0,0.833,17.99,5.437,30.539
	c4.603,12.551,4.603,24.265,5.857,30.539c1.256,6.275,0.417,10.457,0.417,10.457"/>
<path fill="none" stroke="#000000" stroke-width="4" stroke-miterlimit="10" d="M286.625,453.134c0,0,23.428-43.089,31.793-53.965
	c8.367-10.876,7.95-10.878,15.479-20.08"/>
<path fill="none" stroke="#000000" stroke-width="4" stroke-miterlimit="10" d="M334.735,381.184c0,0,0.418,7.945,4.184,16.73
	c3.765,8.785,10.876,17.569,10.876,17.569"/>
<path fill="none" stroke="#000000" stroke-width="4" stroke-miterlimit="10" d="M259.391,422.141
	c3.765-0.42,24.726-4.983,32.674-10.003s10.037-5.857,15.896-12.969c5.858-7.111,24.305-20.403,24.305-20.403"/>
<path fill="none" stroke="#000000" stroke-width="5" stroke-miterlimit="10" d="M335.391,385.016c0,0,1.436-6.343,8.13-23.914
	c6.694-17.568,4.6-19.243,13.804-38.068c9.205-18.824,6.694-19.244,16.734-29.284c10.041-10.04,28.026-36.394,28.026-36.394
	s-12.128,0.836-20.496,8.785s-16.317,20.08-23.429,28.028c-7.11,7.949-12.134,12.969-17.57,25.1s-9.623,20.082-11.294,33.05
	c-1.672,12.966,0,24.677,1.254,26.771"/>
<path fill="none" stroke="#000000" stroke-width="5" stroke-miterlimit="10" d="M294.156,410.883c0,0,2.929-7.529,4.184-11.714
	c1.256-4.184,0.836-20.08,0.419-34.302c-0.416-14.222-1.674-18.825-3.348-24.683c-1.674-5.858-5.437-11.295-12.131-29.282
	c-6.694-17.987-11.294-13.805-19.243-21.753c-7.949-7.949-8.786-11.714-8.786-11.714c1.255,0.417,16.314,7.531,31.375,17.57
	c15.06,10.04,11.296,13.806,16.734,27.609c5.439,13.805,7.111,23.428,12.131,38.904s2.511,25.102,1.675,28.448"/>
<path fill="none" stroke="#000000" stroke-width="5" stroke-miterlimit="10" d="M273.24,297.098c0,1.255-8.369,20.496-2.929,29.701
	c5.439,9.203,6.274,21.754,10.04,33.885c3.766,12.131,6.694,56.056,6.694,56.056"/>
<path fill="none" stroke="#000000" stroke-width="3" stroke-miterlimit="10" d="M282.891,416.391c0,0-25.965-79.555-25.547-106.326
	c0.417-26.772,1.256-103.327,8.785-119.643c7.531-16.314,9.202-18.407,9.202-18.407"/>
<path fill="none" stroke="#000000" stroke-width="3" stroke-miterlimit="10" d="M333.898,333.493
	c1.672-5.859,20.919-49.361,22.591-61.495c1.671-12.134,4.182-22.592,5.854-32.214c1.675-9.62-2.509-43.087-2.509-43.087"/>
<path fill="none" stroke="#000000" stroke-width="3" stroke-miterlimit="10" d="M330.134,342.278c0,0,5.855-41.418,5.855-54.804
	s3.766-39.322,0-52.291c-3.765-12.969-8.365-22.172-8.365-22.172"/>
<path fill="none" stroke="#000000" stroke-width="3" stroke-miterlimit="10" d="M214.673,15.141c0,0-2.509,104.583,3.347,139.723
	c5.855,35.14,30.956,119.645,42.67,128.01"/>
<circle cx="273.89" cy="178.306" r="10"/>
<circle cx="327.891" cy="214.306" r="10.001"/>
<circle cx="358.558" cy="194.307" r="10"/>
</svg>
