<?xml version="1.0" encoding="utf-8"?>
<!-- Generator: Adobe Illustrator 16.0.0, SVG Export Plug-In . SVG Version: 6.00 Build 0)  -->
<!DOCTYPE svg PUBLIC "-//W3C//DTD SVG 1.1//EN" "http://www.w3.org/Graphics/SVG/1.1/DTD/svg11.dtd">
<svg version="1.1" id="Layer_3" xmlns="http://www.w3.org/2000/svg" xmlns:xlink="http://www.w3.org/1999/xlink" x="0px" y="0px"
	 width="595.281px" height="595.281px" viewBox="0 0 595.281 595.281" enable-background="new 0 0 595.281 595.281"
	 xml:space="preserve">
<path fill="none" stroke="#000000" stroke-width="4" stroke-miterlimit="10" d="M239.307,302.073c0,0,0-41.539,53.41-41.539
	c53.408,0,55.389,47.474,51.431,65.276c-3.958,17.804-59.342,57.367-83.079,33.629C237.332,335.703,239.307,302.073,239.307,302.073
	z"/>
<path fill="none" stroke="#000000" stroke-width="4" stroke-miterlimit="10" d="M324.369,268.448c0,0,37.581-59.343,35.605-102.862
	c-1.977-43.52-1.982-114.728-55.391-140.443c-53.408-25.716-81.098,110.772-81.098,138.467c0,27.695,37.904,103.281,37.904,103.281"
	/>
<path fill="none" stroke="#000000" stroke-width="4" stroke-miterlimit="10" d="M344.147,325.811c0,0,57.361,29.674,102.859,9.893
	c45.497-19.782,144.398-75.169,124.619-110.775c-19.778-35.606-37.58-27.692-49.449-27.692s-53.409-5.931-77.146,1.979
	c-10.524,3.506-33.392,2.142-55.384,14.833c-27.609,15.939-52.854,43.526-61.506,57.593"/>
<path fill="none" stroke="#000000" stroke-width="4" stroke-miterlimit="10" d="M254.149,271.411c0,0-16.817-52.417-85.062-64.285
	c-68.244-11.869-143.406-16.813-146.375,29.671c-2.966,46.483,72.196,91.982,95.933,98.903c23.738,6.923,110.78,5.935,126.603-2.966
	"/>
<path fill="none" stroke="#000000" stroke-width="4" stroke-miterlimit="10" d="M291.73,366.358c0,0,3.958,66.27,33.629,102.863
	c29.673,36.593,115.718,109.781,136.488,78.134c20.771-31.648,6.92-74.18,0.985-97.916c-5.935-23.738-21.756-49.451-52.417-79.122
	c-30.662-29.672-70.222-36.596-70.222-36.596"/>
<path fill="none" stroke="#000000" stroke-width="4" stroke-miterlimit="10" d="M212.609,338.668c0,0-41.545,23.732-70.225,66.265
	c-28.681,42.53-43.51,107.807-33.624,120.664c9.886,12.857,46.477,24.724,72.196,9.89c25.718-14.838,79.121-48.459,91.98-79.122
	c12.861-30.663,11.869-91.981,11.869-91.981"/>
</svg>
