<?xml version="1.0" encoding="utf-8"?>
<!-- Generator: Adobe Illustrator 16.0.0, SVG Export Plug-In . SVG Version: 6.00 Build 0)  -->
<!DOCTYPE svg PUBLIC "-//W3C//DTD SVG 1.1//EN" "http://www.w3.org/Graphics/SVG/1.1/DTD/svg11.dtd">
<svg version="1.1" id="Layer_2" xmlns="http://www.w3.org/2000/svg" xmlns:xlink="http://www.w3.org/1999/xlink" x="0px" y="0px"
	 width="595.281px" height="595.281px" viewBox="0 0 595.281 595.281" enable-background="new 0 0 595.281 595.281"
	 xml:space="preserve">
<path fill="none" stroke="#000000" stroke-width="5" stroke-miterlimit="10" d="M170.641,577.641c0,0-24.5-166.5-4-215.5
	s24-36,29.5-58.5s-5-30.5-5-30.5"/>
<path fill="none" stroke="#000000" stroke-width="5" stroke-miterlimit="10" d="M189.141,576.474c0,0-11-76.666-11-100.333
	s5.667-70.333,37-74.333s37.334-7.666,43.667-19s4.333-18.667,4.333-18.667"/>
<path fill="none" stroke="#000000" stroke-width="5" stroke-miterlimit="10" d="M193.474,385.811c0,0,30.667-22.333,33.333-48
	s-4.333-36.666-10-44c-5.667-7.333-25.667-19.667-25.667-19.667"/>
<line fill="none" stroke="#000000" stroke-width="5" stroke-miterlimit="10" x1="215.808" y1="363.144" x2="263.808" y2="366.144"/>
<path fill="none" stroke="#000000" stroke-width="5" stroke-miterlimit="10" d="M225.308,308.141c0,0,40.333-57.5,59.833-98
	s37-79.5,45.5-92s28.5-38,28.5-38"/>
<path fill="none" stroke="#000000" stroke-width="5" stroke-miterlimit="10" d="M259.141,329.141c0,0,96-75.5,110.5-95.5
	s41.5-52,50.5-77s20-48.5,35.5-73s29-50.5,29-50.5s4,1-6.5-0.5s-42-16-65-17s-56,30-82,61.5s-46,90-57,122
	s-57.333,94.67-57.333,94.67"/>
<path fill="none" stroke="#000000" stroke-miterlimit="10" d="M528.641,77.141"/>
<path fill="none" stroke="#000000" stroke-width="5" stroke-miterlimit="10" d="M254.891,365.724c0,0,18.584-14.249,31.917-4.916
	s27.666,36.999,35.333,37.333s15.334-15.999,25.334-15.666s23.334,12.333,34,13.333s21.666-0.667,28.666-8.667
	s14.001-13.999,12.334-31.666s2.332-15.334-5.334-24.667s-8.666-6.333-14.333-13.333s9.666-27.334-10.667-37s-50.333,2.667-60.333,4
	s-17,0.333-17,0.333"/>
<path fill="none" stroke="#000000" stroke-width="5" stroke-miterlimit="10" d="M287.141,307.475c0,0,27.666,8,40,19
	s24,27.666,24,27.666"/>
<path fill="none" stroke="#000000" stroke-width="5" stroke-miterlimit="10" d="M299.141,298.475c0,0,41-4.333,54,1
	s19.334,13.666,19.334,13.666"/>
<path fill="none" stroke="#000000" stroke-width="5" stroke-miterlimit="10" d="M290.141,304.141c0,0,36.334,4.334,51.667,10.667
	s22.667,9.001,33,18.667s16.667,19.333,16.667,19.333"/>
<path fill="none" stroke="#000000" stroke-width="3" stroke-miterlimit="10" d="M453.475,87.474c0,0,17-13,22-17.667
	s25.333-27,25.333-27"/>
<path fill="none" stroke="#000000" stroke-width="3" stroke-miterlimit="10" d="M436.808,117.808l30.333-25.333
	c0,0,32.668-26.667,37.334-28"/>
<path fill="none" stroke="#000000" stroke-width="3" stroke-miterlimit="10" d="M397.641,195.391l28.5-28c0,0,22.25-21,30.5-20.5"/>
<path fill="none" stroke="#000000" stroke-width="3" stroke-miterlimit="10" d="M370.891,232.141c0,0,22-17.75,32-23.25
	s30-19.25,33.75-18.5"/>
<circle cx="438.724" cy="198.14" r="9.167"/>
<circle cx="458.724" cy="153.89" r="9.167"/>
</svg>
