<?xml version="1.0" encoding="utf-8"?>
<!-- Generator: Adobe Illustrator 16.0.0, SVG Export Plug-In . SVG Version: 6.00 Build 0)  -->
<!DOCTYPE svg PUBLIC "-//W3C//DTD SVG 1.1//EN" "http://www.w3.org/Graphics/SVG/1.1/DTD/svg11.dtd">
<svg version="1.1" id="Layer_3" xmlns="http://www.w3.org/2000/svg" xmlns:xlink="http://www.w3.org/1999/xlink" x="0px" y="0px"
	 width="595.281px" height="595.281px" viewBox="0 0 595.281 595.281" enable-background="new 0 0 595.281 595.281"
	 xml:space="preserve">
<path fill="none" stroke="#000000" stroke-width="5" stroke-miterlimit="10" d="M498.787,416.055c0,0,23.266,17.295,23.859,29.819
	c0.594,12.525,7.754,38.174-12.525,54.277s-25.648,21.473-41.752,21.473s-30.422,1.19-39.961,2.98
	c-9.543,1.789-56.664,22.666-66.205,34.594c0,0,19.084-32.805,25.049-37.574c5.965-4.772,13.123-11.928,25.648-17.894
	s20.875-5.966,20.875-5.966s-39.959-0.594-41.748-0.594s-27.141-1.493-27.141-1.493s0-13.42,8.051-29.523
	c8.053-16.104,44.732-27.733,104.676-42.943c59.939-15.209,74.256-54.572,75.15-85.886c0.895-31.313,5.367-97.516-42.049-192.349
	C463.299,50.143,397.99,19.725,373.832,18.831c-24.154-0.895-53.377,20.875-53.377,20.875s-14.313-22.665-69.783-15.508
	c-55.468,7.157-106.763,54.276-153.285,115.708c-46.522,61.432-65.607,99.01-65.011,142.547
	c0.596,43.538,41.748,118.091,72.764,118.688"/>
<path fill="none" stroke="#000000" stroke-width="5" stroke-miterlimit="10" d="M387.252,521.624c0,0-30.486,5.204-47.187,13.854
	c-16.703,8.65-29.821,20.877-29.821,20.877s10.436-25.945,11.928-27.437c1.491-1.493,18.401-11.786,23.469-13.276"/>
<path fill="none" stroke="#000000" stroke-width="4" stroke-miterlimit="10" d="M394.475,515.141c0,0-59.477-0.834-75.285,3.041
	c-15.806,3.876-21.471,7.755-29.226,14.019c-7.755,6.261-8.048,9.239-12.823,13.118c-4.772,3.879-6.264,5.368-9.246,3.578
	c-2.981-1.789-7.157-5.07-7.157-5.07s-5.368-6.263-8.947-9.841s-8.946-13.419-18.788-13.419c-9.841,0-6.262-3.58-12.525,6.262
	c-6.261,9.841-21.471,33.102-46.522,29.523c-25.05-3.58-38.469-30.419-53.678-67.099c-15.209-36.682-17.894-90.359-11.63-140.46
	c6.262-50.101,57.257-43.838,87.676-18.787c30.418,25.049,56.317,102.635,56.317,102.635"/>
<path fill="none" stroke="#000000" stroke-width="3" stroke-miterlimit="10" d="M260.738,536.669c0,0-7.158-81.71-7.158-90.656
	c0-8.945-5.966-75.749,21.472-99.009c27.436-23.261,38.77-30.419,48.908-25.05c10.139,5.366,14.314,17.892,10.139,29.226
	c-4.177,11.334-22.066,59.043-28.031,69.185c-5.967,10.142-19.684,32.207-19.684,32.207"/>
<path fill="none" stroke="#000000" stroke-width="3" stroke-miterlimit="10" d="M335.889,493.132c0,0,4.177-35.188-6.561-48.312
	c-10.735-13.122-23.26-24.456-23.26-24.456"/>
<path fill="none" stroke="#000000" stroke-width="3" stroke-miterlimit="10" d="M252.983,431.102c0,0-11.928,11.931-17.296,26.245
	c-5.367,14.314-6.56,29.823-5.367,37.574c1.19,7.752,4.77,13.718,4.77,13.718"/>
<path fill="none" stroke="#000000" stroke-width="3" stroke-miterlimit="10" d="M307.258,57.137c0,0,2.986,82.906,0.6,107.956
	s-10.142,65.609-11.334,82.905c-1.191,17.295-8.349,51.295-6.56,60.836c1.79,9.54,1.193,21.472,1.193,21.472"/>
<path fill="none" stroke="#000000" stroke-width="3" stroke-miterlimit="10" d="M353.78,131.096c0,0,1.786,57.253-5.965,69.185
	c-7.75,11.931-16.104,62.027-19.084,75.15c-2.981,13.123-1.192,47.717-1.192,47.717"/>
<path fill="none" stroke="#000000" stroke-width="3" stroke-miterlimit="10" d="M231.511,106.642
	c-1.19,3.579-8.942,72.168-7.751,94.833c1.192,22.666,2.388,67.402,1.79,80.521c-0.597,13.119,2.982,66.204,2.982,67.993
	c0,1.788,1.79,31.609,1.79,31.609"/>
<path fill="none" stroke="#000000" stroke-width="3" stroke-miterlimit="10" d="M158.747,150.181c0,0,3.576,58.449,11.928,91.255
	c8.352,32.805,16.107,60.241,19.089,65.608c2.98,5.369,4.172,20.875,4.172,20.875"/>
<path fill="none" stroke="#000000" stroke-width="3" stroke-miterlimit="10" d="M81.808,226.526
	c1.193,2.383,11.93,41.748,19.682,48.905c7.753,7.157,27.437,39.962,27.437,39.962"/>
<path fill="none" stroke="#000000" stroke-width="3" stroke-miterlimit="10" d="M394.936,189.545c0,0-5.966,53.084-13.124,73.958
	c-7.156,20.875-35.786,101.393-35.786,101.393l-32.801,63.819"/>
<path fill="none" stroke="#000000" stroke-width="3" stroke-miterlimit="10" d="M461.736,205.648c0,0-7.754,47.714-20.28,73.362
	c-12.524,25.647-42.35,90.659-52.486,100.798c-10.138,10.138-52.514,70.642-55.496,71.832"/>
<path fill="none" stroke="#000000" stroke-width="5" stroke-miterlimit="10" d="M388.808,452.808c0,0,5.681,5.133,13.731,8.265
	c8.053,3.13,8.053,3.13,8.053,3.13l0,0c0,0-17.893,4.474-20.577,5.816c-2.684,1.341-15.209,5.367-15.656,8.051
	s-8.501,16.103-8.501,16.103"/>
<path fill="none" stroke="#000000" stroke-width="5" stroke-miterlimit="10" d="M522.974,448.808c0,0-0.104,0.483,14.211,1.08
	c14.313,0.599,29.523-2.685,29.523-2.685"/>
<path fill="none" stroke="#000000" stroke-width="5" stroke-miterlimit="10" d="M523.974,471.142c0,0,1.882-3.063,11.125-0.677
	c9.243,2.387,12.225,6.857,18.189,4.771c5.965-2.086,12.227-3.278,12.227-3.278"/>
</svg>
