<?xml version="1.0" encoding="utf-8"?>
<!-- Generator: Adobe Illustrator 16.0.0, SVG Export Plug-In . SVG Version: 6.00 Build 0)  -->
<!DOCTYPE svg PUBLIC "-//W3C//DTD SVG 1.1//EN" "http://www.w3.org/Graphics/SVG/1.1/DTD/svg11.dtd">
<svg version="1.1" xmlns="http://www.w3.org/2000/svg" xmlns:xlink="http://www.w3.org/1999/xlink" x="0px" y="0px"
	 width="595.281px" height="595.281px" viewBox="0 0 595.281 595.281" enable-background="new 0 0 595.281 595.281"
	 xml:space="preserve">
<g id="Layer_4">
</g>
<g id="Layer_2">
	<path fill="none" stroke="#000000" stroke-width="4" stroke-miterlimit="10" d="M245.729,282.606c0,0,10.243-57.801,57.345-54.619
		c47.102,3.182,49.15,44.545,46.079,59.392c-3.072,14.848-25.603,56.741-60.417,49.847
		C253.92,330.333,245.729,282.606,245.729,282.606z"/>
	<path fill="none" stroke="#000000" stroke-width="4" stroke-miterlimit="10" d="M307.681,230.108c0,0,6.913-58.862-7.679-90.68
		c-14.593-31.817-82.176-104.998-107.52-111.361c-25.344-6.364-49.152,12.727-49.152,32.613c0,19.886,6.143,102.612,25.343,125.679
		c19.201,23.067,85.248,73.18,85.248,73.18"/>
	<path fill="none" stroke="#000000" stroke-width="4" stroke-miterlimit="10" d="M300.002,139.428
		c0,0,48.383-99.429,102.144-104.202c53.76-4.772,53.76,8.75,53.76,22.273c0,13.522,7.68,115.338-41.473,148.746
		c-49.15,33.409-70.655,49.316-70.655,49.316"/>
	<path fill="none" stroke="#000000" stroke-width="4" stroke-miterlimit="10" d="M219.362,232.495c0,0-49.153-19.886-88.32-18.295
		c-39.169,1.591-113.665,44.544-119.04,58.862c-5.376,14.318,1.535,44.546,33.792,58.067c32.256,13.522,80.639,27.84,102.912,23.862
		c22.271-3.977,48.384-3.977,48.384-3.977"/>
	<path fill="none" stroke="#000000" stroke-width="4" stroke-miterlimit="10" d="M255.457,312.833c0,0-62.975,21.477-88.319,72.386
		c-25.345,50.908-27.647,108.976-22.273,130.451c5.377,21.477,31.489,46.136,59.138,27.046c27.646-19.091,89.855-77.954,96-123.294
		c6.144-45.34,3.839-83.521,3.839-83.521"/>
	<path fill="none" stroke="#000000" stroke-width="4" stroke-miterlimit="10" d="M389.141,222.516c0,0,50.688-13.522,79.104-4.773
		c28.417,8.75,97.536,34.204,105.985,54.09c8.446,19.887,6.911,48.521-13.824,55.681c-20.736,7.158-72.96,42.158-119.809,37.385
		c-46.849-4.771-103.68-47.727-103.68-47.727"/>
	<path fill="none" stroke="#000000" stroke-width="4" stroke-miterlimit="10" d="M294.127,441.502c0,0,36.096,52.498,61.439,71.589
		c25.345,19.091,62.977,44.545,76.801,24.659c13.824-19.887,15.36-38.181,8.448-73.181c-6.911-34.999-13.055-57.271-31.488-89.089
		c-18.433-31.817-39.937-36.59-39.937-36.59"/>
</g>
</svg>
