<?xml version="1.0" encoding="utf-8"?>
<!-- Generator: Adobe Illustrator 16.0.0, SVG Export Plug-In . SVG Version: 6.00 Build 0)  -->
<!DOCTYPE svg PUBLIC "-//W3C//DTD SVG 1.1//EN" "http://www.w3.org/Graphics/SVG/1.1/DTD/svg11.dtd">
<svg version="1.1" id="Layer_6" xmlns="http://www.w3.org/2000/svg" xmlns:xlink="http://www.w3.org/1999/xlink" x="0px" y="0px"
	 width="595.281px" height="595.281px" viewBox="0 0 595.281 595.281" enable-background="new 0 0 595.281 595.281"
	 xml:space="preserve">
<path fill="none" stroke="#000000" stroke-width="4" stroke-miterlimit="10" d="M230.807,268.808c0,0-32.666-30-39.333-55.333
	s1.333-114,19.333-136s36-32.667,49.333-32.667s24,4,31.333,2s16.667-16.667,29.333-18s47.334,15.333,64,30s36.667,22.667,42,48
	s0.666,59.333-4.667,78s-19.333,52.667-19.333,52.667"/>
<path fill="none" stroke="#000000" stroke-width="4" stroke-miterlimit="10" d="M418.141,201.474c0,0,32-9.333,54-4
	s41.999,20,53.333,31.333s38.666,30.667,44,34.667s14.666,12.667,14,22.667s-19.334,26.666-38,38s-83.333,53.334-119.333,56.667
	s-66-1.999-76-25.333s-14-37.334-14-37.334"/>
<path fill="none" stroke="#000000" stroke-width="4" stroke-miterlimit="10" d="M405.641,381.141c0,0,5.5,59.5,5.5,78
	s-4.5,36-13.5,50.5s-26.5,24.5-41.5,37.5s-16.5,15.5-23.5,18s-48-3-66.5-10s-66.5-26.5-71.5-53.5s-7.5-41.5-0.5-66
	s22.667-67.5,22.667-67.5c-6.667,18-35.333,23.334-56.667,23.334s-40-6.667-68-22s-32-43.334-52.667-54S8.141,300.141,8.807,282.808
	s18.667-4.667,43.333-21.333s42.667-30,54-34.667s30-15.333,44-17.333s41.333,0,41.333,0"/>
<path fill="none" stroke="#000000" stroke-width="3" stroke-miterlimit="10" d="M253.641,308.141c0,0-72.5,2-85,2s-84.5-6-84.5-6"/>
<path fill="none" stroke="#000000" stroke-width="3" stroke-miterlimit="10" d="M248.141,284.641c0,0-24.5,6-42,5s-51-12.5-64-13.5
	s-37.5,1-37.5,1"/>
<path fill="none" stroke="#000000" stroke-width="3" stroke-miterlimit="10" d="M231.641,321.141c0,0-23.5,18.5-42,22.5
	s-49.5,0-63.5-4"/>
<path fill="none" stroke="#000000" stroke-width="3" stroke-miterlimit="10" d="M375.641,273.641c0,0,30-6,56.5-13.5
	s57-25.5,57-25.5"/>
<path fill="none" stroke="#000000" stroke-width="3" stroke-miterlimit="10" d="M368.641,287.141c0,0,50.5,2,70.5-4s57-18.5,57-18.5
	"/>
<path fill="none" stroke="#000000" stroke-width="3" stroke-miterlimit="10" d="M365.141,307.641c0,0,85,2.5,112.5-1"/>
<path fill="none" stroke="#000000" stroke-width="3" stroke-miterlimit="10" d="M375.641,327.641c0,0,29.5,15,52.5,13.5
	s25-7.5,25-7.5"/>
<path fill="none" stroke="#000000" stroke-width="3" stroke-miterlimit="10" d="M503.141,288.641c0,0,34.5-1.5,42-4"/>
<path fill="none" stroke="#000000" stroke-width="3" stroke-miterlimit="10" d="M257.141,78.641c0,0-15.5,25-14.5,56
	s11.5,67,17.5,82.5s23,39.5,23,39.5"/>
<path fill="none" stroke="#000000" stroke-width="3" stroke-miterlimit="10" d="M336.641,102.641c0,0,7.5,15,6.5,30
	s-17.5,107-17,116.5"/>
<path fill="none" stroke="#000000" stroke-width="3" stroke-miterlimit="10" d="M367.141,108.641c0,0,6,17,4.5,31s-8.5,58.5-14,69
	s-13,38-13,46"/>
<path fill="none" stroke="#000000" stroke-width="3" stroke-miterlimit="10" d="M401.141,145.141c0,0,2.5,18-1.5,30
	s-33.5,80-34.5,86.5"/>
<path fill="none" stroke="#000000" stroke-width="3" stroke-miterlimit="10" d="M219.141,208.641c0,0,11.5,23.5,17.5,29
	s29,24.5,29,24.5"/>
<path fill="none" stroke="#000000" stroke-width="4" stroke-miterlimit="10" d="M285.641,296.641c0,0,15-18.5,27-17.5
	s23.5,17.5,23.5,19.5"/>
<path fill="none" stroke="#000000" stroke-width="3" stroke-miterlimit="10" d="M311.641,317.141c0,0,3.5,64,2,75s0,71,2.5,79"/>
<path fill="none" stroke="#000000" stroke-width="3" stroke-miterlimit="10" d="M291.641,336.141c0,0-33,74-32.5,94.5
	s-0.5,44,0,51.5"/>
<path fill="none" stroke="#000000" stroke-width="3" stroke-miterlimit="10" d="M274.141,342.141c0,0-31,58.5-35.5,84.5
	s-6,50.5-4,57"/>
<path fill="none" stroke="#000000" stroke-width="2" stroke-miterlimit="10" d="M303.641,304.641c0,0,11.5,48.5,34,80.5
	s51.5,62,63.5,73s36.5,32.5,36.5,32.5"/>
<path fill="none" stroke="#000000" stroke-width="2" stroke-miterlimit="10" d="M318.641,299.141c0,0,27,65.5,51,89.5
	s71.5,61.5,91,69"/>
<path fill="none" stroke="#000000" stroke-width="2" stroke-miterlimit="10" d="M284.474,315.975c0,0-44,75.5-57,95.5s-61,80-61,80"
	/>
<path fill="none" stroke="#000000" stroke-width="2" stroke-miterlimit="10" d="M273.974,314.475c0,0-41.5,66.5-49.5,79
	s-67,72-77,77"/>
<circle cx="138.222" cy="475.307" r="12.667"/>
<circle cx="170.222" cy="488.307" r="12.667"/>
<circle cx="466.557" cy="458.64" r="12.667"/>
<circle cx="438.224" cy="488.974" r="12.667"/>
<path fill="none" stroke="#000000" stroke-width="3" stroke-miterlimit="10" d="M303.141,78.474c0,0-2,72-2,86s5.334,84,5.334,84"/>
</svg>
