<?xml version="1.0" encoding="utf-8"?>
<!-- Generator: Adobe Illustrator 16.0.0, SVG Export Plug-In . SVG Version: 6.00 Build 0)  -->
<!DOCTYPE svg PUBLIC "-//W3C//DTD SVG 1.1//EN" "http://www.w3.org/Graphics/SVG/1.1/DTD/svg11.dtd">
<svg version="1.1" xmlns="http://www.w3.org/2000/svg" xmlns:xlink="http://www.w3.org/1999/xlink" x="0px" y="0px"
	 width="595.281px" height="595.281px" viewBox="0 0 595.281 595.281" enable-background="new 0 0 595.281 595.281"
	 xml:space="preserve">
<g id="Layer_2">
</g>
<g id="Layer_3">
	<path fill="none" stroke="#000000" stroke-width="5" stroke-miterlimit="10" d="M397.077,271.322c0,0-0.605-90.678-93.7-89.468
		c-93.094,1.21-85.236,93.094-85.236,93.094s29.622,23.575,64.079,22.367c34.458-1.208,37.481,6.047,62.871-3.021
		C370.479,285.226,397.077,271.322,397.077,271.322z"/>
	<path fill="none" stroke="#000000" stroke-width="3" stroke-miterlimit="10" d="M266.599,188.099c0,0-13.998-98.736,25.293-95.109
		c39.293,3.627,24.498,89.526,24.498,89.526"/>
	<path fill="none" stroke="#000000" stroke-width="3" stroke-miterlimit="10" d="M248.368,199.384c0,0-52.594-54.406-70.124-58.638
		c-17.532-4.231-36.273,4.836-26.6,24.786c9.673,19.949,39.292,47.758,43.525,50.778c4.233,3.022,30.227,15.113,30.227,15.113"/>
	<path fill="none" stroke="#000000" stroke-width="3" stroke-miterlimit="10" d="M316.677,120.192c0,0-1.813-47.151,18.135-46.547
		c19.949,0.604,35.666,16.321,32.646,34.457c-3.022,18.136-4.983,64.955-4.983,64.955"/>
	<path fill="none" stroke="#000000" stroke-width="3" stroke-miterlimit="10" d="M348.111,189.711l67.104-77.378
		c0,0,19.052-24.29,35.969-9.067c6.046,5.44,0.301,19.042,0.301,19.042"/>
	<path fill="none" stroke="#000000" stroke-width="3" stroke-miterlimit="10" d="M368.361,203.313l81.009-80.399
		c0,0,13.898-15.112,25.084-6.348c11.187,8.765,4.233,13.903,4.233,13.903"/>
	<path fill="none" stroke="#000000" stroke-width="3" stroke-miterlimit="10" d="M380.455,217.518
		c0,0,102.769-94.002,114.254-97.023c11.483-3.022,19.948-13.602,38.386,6.347c18.437,19.949-19.043,41.41-21.764,43.828
		c-2.72,2.418-74.655,64.381-74.655,64.381s-35.968,19.042-40.807,19.948"/>
	<path fill="none" stroke="#000000" stroke-width="3" stroke-miterlimit="10" d="M222.373,241.851c0,0-14.055-1.361-32.644-6.347
		c-18.589-4.988-61.661-21.763-71.635-27.204c-9.974-5.442-29.47-14.963-44.885-12.242c-15.415,2.721-25.389,3.174-26.75,5.441
		c-1.36,2.265,19.949,6.347,30.377,7.253s52.14,17.229,58.94,22.215c6.801,4.988,32.19,22.669,48.059,24.483
		c15.869,1.813,34.457,4.535,34.457,4.535"/>
	<path fill="none" stroke="#000000" stroke-width="3" stroke-miterlimit="10" d="M421.808,243.141
		c1.813-0.907,46.3-8.09,57.635-12.171c11.334-4.081,27.204-16.775,40.806-22.668c13.6-5.894,18.135-7.708,28.562-2.721
		c10.429,4.988,8.614,14.509,5.441,15.87c-3.174,1.36-24.61,15.816-24.61,15.816"/>
	<path fill="none" stroke="#000000" stroke-width="3" stroke-miterlimit="10" d="M395.308,255.641c0,0,73.707-2.909,83.228-6.535
		c9.521-3.627,24.029-4.988,37.178-7.709c13.148-2.72,24.029-11.334,39.897-9.067c15.869,2.267,24.483,9.521,18.59,15.869
		c-5.895,6.347-12.242,14.508-21.31,14.054c-9.068-0.454-49.872,4.081-58.033,4.534c-8.162,0.454-39.444,0.454-49.419,3.174
		c-9.974,2.721-29.471,3.173-35.818,3.173c-6.346,0-12.543-1.813-12.543-1.813"/>
	<path fill="none" stroke="#000000" stroke-width="3" stroke-miterlimit="10" d="M168.641,250.703c0,0-36.039-5.225-40.573-7.039
		c-4.534-1.813-47.152-12.695-58.034-13.602c-10.881-0.907-44.885-0.907-44.885-0.907s-10.881,6.802-4.081,10.428
		c6.8,3.627,20.856,10.428,34.004,11.334c13.148,0.907,43.525,8.616,53.953,12.695c10.429,4.081,66.195,17.229,76.169,15.415
		c9.975-1.813,32.946-4.081,32.946-4.081"/>
	<path fill="none" stroke="#000000" stroke-width="3" stroke-miterlimit="10" d="M396.641,271.453c0,0,33.835,13.922,50.611,13.922
		c16.774,0,36.725,0.907,50.325,1.814c13.602,0.907,38.538,6.348,43.073,10.428c4.532,4.08,9.066,4.535,9.521,9.522
		c0.452,4.986-3.628,12.693-16.323,9.521c-12.694-3.175-56.673-7.708-69.368-9.521c-12.694-1.813-51.231-2.722-67.1-10.429
		c-15.87-7.708-22.802-14.632-22.802-14.632"/>
	<path fill="none" stroke="#000000" stroke-width="3" stroke-miterlimit="10" d="M258.058,294.807c0,0-32.511,32.734-36.592,35.908
		c-4.082,3.174-13.602,12.242-10.882,19.496c2.721,7.253,17.229,21.762,30.376,18.134c13.148-3.626,38.539-24.029,43.073-32.189
		c4.533-8.16,2.719-31.283,2.268-34.911c-0.454-3.627-1.077-3.687-1.077-3.687"/>
	<path fill="none" stroke="#000000" stroke-width="3" stroke-miterlimit="10" d="M315.316,299.431c0,0,9.521,34.91,29.923,44.885
		c20.403,9.977,34.005,14.962,40.806,9.522c6.8-5.441,8.613-14.508,4.534-26.75c-4.081-12.241-21.311-24.483-23.122-25.391
		c-1.814-0.906-16.776-9.521-16.776-9.521"/>
	<path fill="none" stroke="#000000" stroke-width="3" stroke-miterlimit="10" d="M226.453,280.842c0,0-51.233,18.134-62.114,18.588
		c-10.881,0.454-43.072,9.067-51.232,11.335c-8.161,2.268-31.737,7.708-28.563,13.602c3.173,5.895,34.457,11.335,45.338,5.895
		c10.881-5.441,53.045-12.241,65.287-15.869c12.242-3.627,30.831-8.16,40.352-12.24c9.521-4.082,16.62-9.345,16.62-9.345"/>
	<path fill="none" stroke="#000000" stroke-width="3" stroke-miterlimit="10" d="M144.891,272.953c0,0-36.318-0.271-44.025-2.085
		c-7.708-1.813-37.178-5.895-44.433-5.895c-7.253,0-13.601-0.907-14.508,4.988c-0.907,5.894,19.496,19.042,32.644,16.321
		c13.148-2.719,41.258,3.627,52.139,4.081c10.881,0.454,48.966,1.813,55.766,0.454c6.802-1.36,32.584-5.76,32.584-5.76"/>
	<path fill="none" stroke="#000000" stroke-width="3" stroke-miterlimit="10" d="M231.44,265.427
		c0.907-3.174-1.361-24.937,7.255-33.55c8.614-8.614,13.147-10.881,13.147-10.881"/>
	<path fill="none" stroke="#000000" stroke-width="5" stroke-miterlimit="10" d="M283.429,339.026c0,0,10.275,22.367,11.485,49.568
		c1.21,27.204,9.068,105.186,9.673,106.999c0.604,1.814,0,34.458,0,34.458"/>
	<path fill="none" stroke="#000000" stroke-width="5" stroke-miterlimit="10" d="M327.558,328.146c0,0-7.855,37.477-8.461,62.264
		c-0.606,24.789-0.002,94.909,1.208,100.351c1.209,5.44,1.209,35.063,1.209,35.063"/>
	<path fill="none" stroke="#000000" stroke-width="3" stroke-miterlimit="10" d="M331.639,298.07c0,0,9.974,14.963,13.147,18.137
		s6.348,8.613,12.694,10.881"/>
	<path fill="none" stroke="#000000" stroke-width="3" stroke-miterlimit="10" d="M271.808,297.141c0,0-5.457,21.786-9.537,24.052
		c-4.081,2.268-20.403,21.311-20.403,21.311"/>
	<path fill="none" stroke="#000000" stroke-width="3" stroke-miterlimit="10" d="M225.093,207.394
		c-1.361-1.36-29.018-13.602-35.365-22.216c-6.348-8.615-12.694-21.309-12.694-21.309"/>
	<path fill="none" stroke="#000000" stroke-width="3" stroke-miterlimit="10" d="M285.847,133.038c0,0-4.081,22.669-4.081,28.11
		c0,5.44,2.792,22.076,2.792,22.076"/>
	<path fill="none" stroke="#000000" stroke-width="3" stroke-miterlimit="10" d="M337.079,116.717c0,0,1.813,28.563,1.813,35.817
		c0,7.254-6.801,20.402-7.707,22.216c-0.907,1.813-3.174,5.894-3.174,5.894"/>
	<path fill="none" stroke="#000000" stroke-width="3" stroke-miterlimit="10" d="M488.057,164.322c0,0-30.83,28.11-44.886,35.817
		c-14.055,7.708-29.923,19.495-35.364,21.763c-5.439,2.267-21.762,5.894-21.762,5.894"/>
	<path fill="none" stroke="#000000" stroke-width="3" stroke-miterlimit="10" d="M288.869,195.152
		c0.907,0,14.812,1.814,20.857,2.116c6.044,0.302,10.579-2.419,10.579-2.419"/>
	<path fill="none" stroke="#000000" stroke-width="3" stroke-miterlimit="10" d="M377.732,229.912
		c1.211,2.418,5.142,11.788,4.837,19.043c-0.304,7.253-1.813,19.041-1.813,19.041"/>
</g>
</svg>
