<?xml version="1.0" encoding="utf-8"?>
<!-- Generator: Adobe Illustrator 16.0.0, SVG Export Plug-In . SVG Version: 6.00 Build 0)  -->
<!DOCTYPE svg PUBLIC "-//W3C//DTD SVG 1.1//EN" "http://www.w3.org/Graphics/SVG/1.1/DTD/svg11.dtd">
<svg version="1.1" id="Layer_3" xmlns="http://www.w3.org/2000/svg" xmlns:xlink="http://www.w3.org/1999/xlink" x="0px" y="0px"
	 width="595.281px" height="595.281px" viewBox="0 0 595.281 595.281" enable-background="new 0 0 595.281 595.281"
	 xml:space="preserve">
<path fill="none" stroke="#000000" stroke-width="4" stroke-miterlimit="10" d="M351.141,589.641l-0.5-83c0,0,19-17,24.5-29.5
	s2-36.5,5.5-58.5s23-56,23-56s-13,7.5-21.5,19.5s-22,29-24.5,36.5s-6.5,43-5.5,48.5"/>
<path fill="none" stroke="#000000" stroke-width="4" stroke-miterlimit="10" d="M316.141,455.641c0,0,3-46.5-8-57.5
	s-49-14-54.5-12.5s-9.5,2-9.5,2s22,3,24,20.5s7.5,42.5,11.5,51.5s41,50.5,45,53.5l1,75"/>
<path fill="none" stroke="#000000" stroke-width="4" stroke-miterlimit="10" d="M310.641,402.641c0,0,8.5-34,14.5-41.5
	c0,0,12,6.5,16.5,14.5s17,28.5,17,40.5"/>
<path fill="none" stroke="#000000" stroke-width="3" stroke-miterlimit="10" d="M448.808,70.141c0,0,21.334,6,36.667,4
	s27.999-4.667,34.666-1.333s14,7.333,14,16s-3.333,9.333,0.667,13.333s17.334,0.667,12.667,14s-18.666,20-34,22
	s-36.667,4-54.667-5.333s-20.666-8-17.333-24s5.5-25.667,4.333-30S448.808,70.141,448.808,70.141z"/>
<path fill="none" stroke="#000000" stroke-width="3" stroke-miterlimit="10" d="M446.475,75.474c0,0-6.001-9.333-23.334-21.333
	s-20-5-30.333-6.667s-26.667-8-42.667-20s-25-20.333-25-20.333s-3.666,1-10.666,12.667s-13.334,20.667-22.334,24
	c-5.972,2.212-29,0-39.667,2c-9.226,1.73-35.667,13.333-41.667,16.333s-13.667,4-13,11.667s14.333,45,20.667,51"/>
<path fill="none" stroke="#000000" stroke-width="3" stroke-miterlimit="10" d="M194.808,76.141c0,0-33.334-2-40.667-1
	s-6.333,12.333-16.333,14.667s-16.667-12-27.667-8.667s-5.333,19-9.333,19s-16-5-23.333-2.333s-20,22-23,31s-6,28.334-3.667,36.667
	s15.333,6.333,20.667,5s25.333-16.334,33.667-12.667s20.333,7.333,26.333,3.333s13.333-16,22.667-15.333s14.333,4,23.333-3
	s11.166-12.203,22.333-11.667c20.833,1,27.083,19,43.333,32.667c8.48,7.132,22-1.333,31-0.333s33.667,10.333,40.667,16.667
	s7.666,11.333,13.333,12s20.666-30,30-33.667s25.667,0.333,32.667-2s49.333-26.833,52-31.5"/>
<path fill="none" stroke="#000000" stroke-width="3" stroke-miterlimit="10" d="M269.474,114.807c0,0,8.667-13.666,22.333-8.333
	s24.999,14.333,25.333,25.333s-1.333,38-1.333,38"/>
<path fill="none" stroke="#000000" stroke-width="3" stroke-miterlimit="10" d="M359.141,103.141c0,0-7.666-12.667-19.333-6.333
	s-13.666,12.333-16.333,22s-4.667,20.333-4.667,20.333"/>
<path fill="none" stroke="#000000" stroke-width="3" stroke-miterlimit="10" d="M109.141,158.807c0,0,24.667,16.667,33.333,28.667
	s34.666,59.333,41.333,78s23.667,42.333,34.333,52.333s32,28.332,39.333,39.666s14.667,26.334,14.667,26.334"/>
<path fill="none" stroke="#000000" stroke-width="3" stroke-miterlimit="10" d="M160.141,158.807c0,0,22,58.334,37.667,76.667
	s30.333,39,41.333,52s27,41.667,31,51.333s20.333,34.999,21.333,39.666"/>
<path fill="none" stroke="#000000" stroke-width="3" stroke-miterlimit="10" d="M191.141,169.474c0,0-9,18.333,14.667,43.333
	s40.667,41.667,51.333,58.333s23.333,42.666,26.333,56.333s18,47,18,47"/>
<path fill="none" stroke="#000000" stroke-width="3" stroke-miterlimit="10" d="M538.141,128.141c0,0-33.333,26.333-47.333,44.333
	s-38.334,56-46.667,76.333s-15.333,26-23.333,37.667s-30.333,24-38,40.333s-11,39-9,47.333s4,14,4,14"/>
<path fill="none" stroke="#000000" stroke-width="3" stroke-miterlimit="10" d="M470.474,160.474c0,0-33.332,40.333-42.666,52.333
	s-26.667,48-34.667,61.667s-12.334,16.667-21.667,41.667s-18.999,48-18.666,55"/>
<path fill="none" stroke="#000000" stroke-width="3" stroke-miterlimit="10" d="M328.141,192.141c0,0,4.667,58,4,74.333
	s-1.334,39.333-2.667,42.667"/>
</svg>
