<?xml version="1.0" encoding="utf-8"?>
<!-- Generator: Adobe Illustrator 16.0.0, SVG Export Plug-In . SVG Version: 6.00 Build 0)  -->
<!DOCTYPE svg PUBLIC "-//W3C//DTD SVG 1.1//EN" "http://www.w3.org/Graphics/SVG/1.1/DTD/svg11.dtd">
<svg version="1.1" id="Layer_3_1_" xmlns="http://www.w3.org/2000/svg" xmlns:xlink="http://www.w3.org/1999/xlink" x="0px" y="0px"
	 width="595.281px" height="595.281px" viewBox="0 0 595.281 595.281" enable-background="new 0 0 595.281 595.281"
	 xml:space="preserve">
<path fill="none" stroke="#000000" stroke-width="4" stroke-miterlimit="10" d="M249.346,332.739c0,0,9.599-33.598,31.197-35.997
	c21.599-2.399,90.396,3.999,83.195,49.596c-7.198,45.598-54.396,72.796-85.595,58.396
	C246.946,390.336,249.346,332.739,249.346,332.739z"/>
<path fill="none" stroke="#000000" stroke-width="4" stroke-miterlimit="10" d="M271.745,301.542c0,0-47.997-94.395-45.597-118.393
	S274.943,38.36,287.743,37.56c12.8-0.8,27.998-6.399,37.599,0c9.6,6.399,71.594,97.989,58.396,158.389
	c-13.199,60.4-45.597,111.192-45.597,111.192"/>
<path fill="none" stroke="#000000" stroke-width="4" stroke-miterlimit="10" d="M361.339,349.538c0,0,69.594-3.2,106.393,18.398
	c36.798,21.599,100.793,95.995,107.192,113.593c6.401,17.599,0.8,53.596-35.997,53.596c-36.796,0-145.591-10.398-186.388-75.194
	s-31.997-55.997-31.997-55.997"/>
<path fill="none" stroke="#000000" stroke-width="4" stroke-miterlimit="10" d="M250.146,350.338c0,0-86.393-0.8-121.591,19.999
	C93.356,391.135,27.762,462.329,25.362,477.529c-2.4,15.198-11.2,54.396,32.797,55.195c43.998,0.801,115.191-10.398,152.79-39.195
	c37.598-28.799,67.195-86.395,67.195-88.795"/>
</svg>
