<?xml version="1.0" encoding="utf-8"?>
<!-- Generator: Adobe Illustrator 16.0.0, SVG Export Plug-In . SVG Version: 6.00 Build 0)  -->
<!DOCTYPE svg PUBLIC "-//W3C//DTD SVG 1.1//EN" "http://www.w3.org/Graphics/SVG/1.1/DTD/svg11.dtd">
<svg version="1.1" id="Layer_3" xmlns="http://www.w3.org/2000/svg" xmlns:xlink="http://www.w3.org/1999/xlink" x="0px" y="0px"
	 width="595.281px" height="595.281px" viewBox="0 0 595.281 595.281" enable-background="new 0 0 595.281 595.281"
	 xml:space="preserve">
<path fill="none" stroke="#000000" stroke-width="4" stroke-miterlimit="10" d="M297.64,587.64h74.5l1-568.5l-93-1.5l-11,3.167
	l3.667,5.333c0,0-2.667,0.667-4,2s-6.333,7-6.333,7l3,4.667l-7.667,5l1,5l-5,4.333l0.667,6l-6.333,2.667l4.667,11l-7.667-0.167
	l2,8.75l-7.667-0.25l5.667,8.667l-12.333,4.667l5.583,9.167l-9.5,2.75l7.25,11.083l-10.667,5.667l5.417,8l-9.25,2.5l5.167,11.833
	l-9.667,4.667l4,6.667l-7,9.333l5,6.333l-8.333,3l6.667,5.333l-10,6l7.667,14.333l-7.667,3.667l4,5.333l-4.333,6.667l5,6l-7,4.667
	l5.667,6.667l-8,7.167l5.167,8.167l-3.333,1.667l4.333,5.5l-4.5,3.667l7,7.333l-7,3.667l7.333,6.333l-6.167,4.5l8,3l-6.5,6.167
	l6.5,4.333l-6,6l8.667,6.167l-6.667,3.667l8.167,4.333l-4.5,7l6.333,2.5l-6,7.5l8.333,7l-5.333,5.166l8,6l-4.667,8.167l5.833,3.834
	l-5.5,3.999l7.333,5.334l-4.5,7.833l6,2.667l-4,10.166l7.333,5.834l-4.333,6.667l5.333,7.499l-3.667,6.667l6.333,4.333l-5.833,8.334
	l7.5,5.333l-3.667,6l8.667,7.333l-5,6.167l6.667,2.5l-1.5,8.333l6,1.667l-3.167,10.5l7.833,1.167l-3.5,7.666l4.333,1l-0.5,8.167
	l5.5,1l-3.667,7.667l6.667,3.667l-3.5,7.333l6.667,2.167l-1.333,8l5.333,2.833l-1,8l7.667,3.167l-2.167,7.833l7.333,3.334v7
	l4.833-0.334l-2.167,6.334l7.167,5.5l-2.167,5.666c0,0,5.333,0.167,5.833,0.167s-2.833,5-2.833,5L297.64,587.64z"/>
</svg>
