<?xml version="1.0" encoding="utf-8"?>
<!-- Generator: Adobe Illustrator 16.0.0, SVG Export Plug-In . SVG Version: 6.00 Build 0)  -->
<!DOCTYPE svg PUBLIC "-//W3C//DTD SVG 1.1//EN" "http://www.w3.org/Graphics/SVG/1.1/DTD/svg11.dtd">
<svg version="1.1" id="Layer_4" xmlns="http://www.w3.org/2000/svg" xmlns:xlink="http://www.w3.org/1999/xlink" x="0px" y="0px"
	 width="595.281px" height="595.281px" viewBox="0 0 595.281 595.281" enable-background="new 0 0 595.281 595.281"
	 xml:space="preserve">
<path fill="none" stroke="#000000" stroke-width="4" stroke-miterlimit="10" d="M265.453,15.328L373.14,17.14l3.5,570.5l-95.5-3.5
	c0,0-6.5-13-16-25.5s-28.5-22.5-28.5-22.5s19-16,10.5-33s-29-27-29-27s13-22.5,6.5-35s-32-33.5-32-33.5s11.5-16.5,10.5-40
	s-20.5-32-20.5-32s16.167-20.5,15.833-39.167s-20.333-36.667-20.333-36.667s18.333-14,18.333-30.667s-12-28.667-12-28.667
	s20.667-13.083,20.917-30.083s-10.75-40.5-10.75-40.5s18.833-10.417,23.167-24.083s-2-41.667-2-41.667s16.667,4,33-15.667
	S266.64,13.64,266.64,13.64"/>
</svg>
