<?xml version="1.0" encoding="utf-8"?>
<!-- Generator: Adobe Illustrator 16.0.0, SVG Export Plug-In . SVG Version: 6.00 Build 0)  -->
<!DOCTYPE svg PUBLIC "-//W3C//DTD SVG 1.1//EN" "http://www.w3.org/Graphics/SVG/1.1/DTD/svg11.dtd">
<svg version="1.1" id="Layer_3" xmlns="http://www.w3.org/2000/svg" xmlns:xlink="http://www.w3.org/1999/xlink" x="0px" y="0px"
	 width="595.281px" height="595.281px" viewBox="0 0 595.281 595.281" enable-background="new 0 0 595.281 595.281"
	 xml:space="preserve">
<path fill="none" stroke="#000000" stroke-width="4" stroke-miterlimit="10" d="M72.14,580.14c0,0-3.333-132.666-36-169.333
	c0,0,38.667,61.999,60,57.333s53.333-37.333,56-57.333s3.333-120-32.667-174.667c0,0,38.667,64.001,58,69.334
	s47.333-1.334,54-35.334s17.333-125.333-10.667-174c0,0,30,72.667,35.333,77.333s44.666,32.667,68-4.667s50.666-79.333,64-152
	c0,0-16,103.333-10,116s4.667,56,32.667,58.667s104.666-30,130-60.667c0,0-84.666,68.667-97.333,113.333s-18,77.333,13.333,94.667
	s85.334,38,96.667,40c0,0-76.666-5.333-100,4s-39.237,21.217-41,48c-1.667,25.333-8.333,48.664,25,71.331
	s42.666,24.667,42.666,24.667s-48.666-14.665-76.333-10.998c-25.774,3.416-74.333,31.665-81,41.665s-16,24-16,24"/>
<path fill="none" stroke="#000000" stroke-width="4" stroke-miterlimit="10" d="M169.474,580.807c0,0,34-104.667,82.667-186
	s123.333-175.333,126-176"/>
<path fill="none" stroke="#000000" stroke-width="4" stroke-miterlimit="10" d="M78.14,504.14c0,0,25.5-3,15-25.5"/>
<path fill="none" stroke="#000000" stroke-width="4" stroke-miterlimit="10" d="M156.14,321.14c0,0,13.5,5,17-9.5"/>
<path fill="none" stroke="#000000" stroke-width="4" stroke-miterlimit="10" d="M250.14,207.14c0,0,21.5,1,21.5-8.5"/>
<path fill="none" stroke="#000000" stroke-width="4" stroke-miterlimit="10" d="M343.64,153.14c0,0,12.5,13.5,29,1.5"/>
<path fill="none" stroke="#000000" stroke-width="4" stroke-miterlimit="10" d="M431.14,200.14c0,0,10,9,5.5,20.5"/>
<path fill="none" stroke="#000000" stroke-width="4" stroke-miterlimit="10" d="M450.14,347.64c0,0-11,10.5-8,26"/>
<path fill="none" stroke="#000000" stroke-width="4" stroke-miterlimit="10" d="M414.14,489.64c0,0-14,0.5-13.5,19"/>
</svg>
