<?xml version="1.0" encoding="utf-8"?>
<!-- Generator: Adobe Illustrator 16.0.0, SVG Export Plug-In . SVG Version: 6.00 Build 0)  -->
<!DOCTYPE svg PUBLIC "-//W3C//DTD SVG 1.1//EN" "http://www.w3.org/Graphics/SVG/1.1/DTD/svg11.dtd">
<svg version="1.1" id="Layer_3" xmlns="http://www.w3.org/2000/svg" xmlns:xlink="http://www.w3.org/1999/xlink" x="0px" y="0px"
	 width="595.281px" height="595.281px" viewBox="0 0 595.281 595.281" enable-background="new 0 0 595.281 595.281"
	 xml:space="preserve">
<path fill="none" stroke="#000000" stroke-width="4" stroke-miterlimit="10" d="M272.14,584.14l135.334,0.667l2-569.333l-136.667-2
	c0,0-7.334,31.667-9,48s-4.666,19.666-8.333,23.333s-40,32.333-41.333,41s4.667,36,4,50.333s-33,60-33.333,77.333
	s17.833,43.667,17.333,58.167s-13.5,32-13,59s32,28,39,63.5s-3,54,3,68s32,21.5,38.5,37s4.75,13,5,19.5S272.14,584.14,272.14,584.14
	z"/>
</svg>
