<?xml version="1.0" encoding="utf-8"?>
<!-- Generator: Adobe Illustrator 16.0.0, SVG Export Plug-In . SVG Version: 6.00 Build 0)  -->
<!DOCTYPE svg PUBLIC "-//W3C//DTD SVG 1.1//EN" "http://www.w3.org/Graphics/SVG/1.1/DTD/svg11.dtd">
<svg version="1.1" id="Layer_3" xmlns="http://www.w3.org/2000/svg" xmlns:xlink="http://www.w3.org/1999/xlink" x="0px" y="0px"
	 width="595.281px" height="595.281px" viewBox="0 0 595.281 595.281" enable-background="new 0 0 595.281 595.281"
	 xml:space="preserve">
<path fill="none" stroke="#000000" stroke-width="4" stroke-miterlimit="10" d="M261.474,337.14c0,0-7.333,1.334-14.333,1
	s-48-11.666-48-11.666s-1.333,3-1.667,10.333s6.333,18,14.667,30.333s88.667,84.667,88.667,84.667
	c-2.666,1.667-24.667,0.333-48.667-2.667c-14.558-1.819-34.333-6.333-34.333-6.333s-1,6,0,12s9.667,16,31.333,37.666s49,37,49,37
	s-3.333,2.334-14.667,4.667s-34.667-4.333-34.667-4.333s4.333,11.666,22,29.666s41.583,27,41.583,27l62.5-1l6.25-566.5l-105-5
	c0,0-13.333,4.834-14.333,10.834s-4.333,21.333-2.333,34s7.333,43,10.333,45c0,0,1.334,2.333-5.333,4.667s-20.334-4-22.667-7
	s-13-19.667-25-17s-10,28.333-8.667,33.667s26.333,72.667,38.333,83.667s8,19,8,19c-1.333,1.333-11.667,4-18,3.333
	s-32.667-13-32.667-13c-9.667,15.333,9,43,11.333,49.667s45,74.667,45,74.667"/>
</svg>
