<?xml version="1.0" encoding="utf-8"?>
<!-- Generator: Adobe Illustrator 16.0.0, SVG Export Plug-In . SVG Version: 6.00 Build 0)  -->
<!DOCTYPE svg PUBLIC "-//W3C//DTD SVG 1.1//EN" "http://www.w3.org/Graphics/SVG/1.1/DTD/svg11.dtd">
<svg version="1.1" id="Layer_2" xmlns="http://www.w3.org/2000/svg" xmlns:xlink="http://www.w3.org/1999/xlink" x="0px" y="0px"
	 width="595.281px" height="595.281px" viewBox="0 0 595.281 595.281" enable-background="new 0 0 595.281 595.281"
	 xml:space="preserve">
<path fill="none" stroke="#000000" stroke-width="4" stroke-miterlimit="10" d="M246.64,582.64h167l-6.166-567.833L264.14,12.14
	c0,0,9.75,9.25,17.25,18s12.25,14.5,11.75,21.75s-2.25,11.25,0,15.25s5.75,9,4,11.75s-6.25,1.75-9,2s-4.25,5.25-3.25,7.75
	s-4.25,3.75-10-1.5s-18-16.25-25.25-16.5s-12,3.25-11.75,10.25s-1.25,5.25-4.25,5s-25.25-20.5-32-12.5s-9,13.25-5.5,18
	s4.75,12,2.25,14.75s-10,3-7.5,7.5s37.25,28.5,37.25,28.5s12.5,3.75,11.25,8.25s-23.75,1.75-23.25,7.75s32.5,23.5,34,23.75
	s22.75,9.25,27.25,13.25c0,0-17.5,0.75-18,4.25s14,16,16.25,17.5c0,0-7-3-11.25-1.5s-11.5,8-11.75,10c0,0-3.5-4.5-9.75-6.25
	s-15.5-6-20.75-0.75s-6.75,9.75-6.75,9.75s-2.25-1-8-1.25s-15.25-6.5-18.75-4.75s-10.5,7.75-8.25,11.5s4.5,11,9,15.75
	s6.917,14.25,6.917,14.25s-2.333-0.5-6-0.333s-9,6.167-8.833,10s3.333,8.667,5.667,12.833s18,13.75,16,15s-2.75,3.5-5.5,8
	s5.5,9.25,14.25,14.25s24.75,15.25,30.75,19.5s2,5,2,5c-2.75,0.5-3.75,5.75-2.75,7.75s50.75,27.25,50.75,27.25
	c-3.25-2-27.75-6.5-31.75-6.25s-6,3.25-14.75,2s-28-6.5-29.5-4.5s9.25,14.25,7.75,15.5s-23-6.25-27-6s-11.5-1.75-11.5-1.75
	s6.083,15.417,8.417,18.084s20.667,15.833,15.167,17.167s-11.667,9.333-11.667,9.333s29.583,24.166,28.083,25.166s-5.5,9.5-3.75,13
	s57.75,39,57.75,41.75s7.5,10,13.25,13.75s6.5,8.5,6.5,8.5s4.167,0.501,0.167,0.834s-13-4.667-24-12.333s-6-3.334-11.333-0.667
	s-9.667,8.667-9.667,8.667s-3.667-2.334-9-8s-10.667-9.334-10.667-9.334s-4,6.667-5.667,10.334s-12-4.334-16-9
	s-12.667-0.334-12.667-0.334c-0.667,2.333-2,6.667-1,11s6.667,11.334,9,25S246.64,582.64,246.64,582.64"/>
</svg>
