<?xml version="1.0" encoding="utf-8"?>
<!-- Generator: Adobe Illustrator 16.0.0, SVG Export Plug-In . SVG Version: 6.00 Build 0)  -->
<!DOCTYPE svg PUBLIC "-//W3C//DTD SVG 1.1//EN" "http://www.w3.org/Graphics/SVG/1.1/DTD/svg11.dtd">
<svg version="1.1" id="Layer_2" xmlns="http://www.w3.org/2000/svg" xmlns:xlink="http://www.w3.org/1999/xlink" x="0px" y="0px"
	 width="595.28px" height="595.28px" viewBox="0 0 595.28 595.28" enable-background="new 0 0 595.28 595.28" xml:space="preserve">
<line fill="none" stroke="#000000" stroke-width="4" stroke-miterlimit="10" x1="289.208" y1="173.333" x2="503.667" y2="20.667"/>
<line fill="none" stroke="#000000" stroke-width="4" stroke-miterlimit="10" x1="430.686" y1="72.621" x2="562.667" y2="61.333"/>
<line fill="none" stroke="#000000" stroke-width="4" stroke-miterlimit="10" x1="426.713" y1="75.448" x2="381.25" y2="20.667"/>
<line fill="none" stroke="#000000" stroke-width="4" stroke-miterlimit="10" x1="289.208" y1="17.25" x2="289.208" y2="593.738"/>
<g>
	<g>
		<path d="M381.25,33.167c16.122,0,16.122-25,0-25S365.128,33.167,381.25,33.167L381.25,33.167z"/>
	</g>
</g>
<g>
	<g>
		<path d="M503.667,33.167c16.122,0,16.122-25,0-25S487.545,33.167,503.667,33.167L503.667,33.167z"/>
	</g>
</g>
<g>
	<g>
		<path d="M562.667,73.833c16.122,0,16.122-25,0-25S546.545,73.833,562.667,73.833L562.667,73.833z"/>
	</g>
</g>
<line fill="none" stroke="#000000" stroke-width="4" stroke-miterlimit="10" x1="289.208" y1="173.333" x2="91.528" y2="32.61"/>
<line fill="none" stroke="#000000" stroke-width="4" stroke-miterlimit="10" x1="150.907" y1="74.88" x2="35.104" y2="66.793"/>
<line fill="none" stroke="#000000" stroke-width="4" stroke-miterlimit="10" x1="156.368" y1="78.768" x2="202.199" y2="23.528"/>
<g>
	<g>
		<path d="M202.199,36.028c16.122,0,16.122-25,0-25S186.078,36.028,202.199,36.028L202.199,36.028z"/>
	</g>
</g>
<g>
	<g>
		<path d="M91.528,45.11c16.122,0,16.122-25,0-25S75.406,45.11,91.528,45.11L91.528,45.11z"/>
	</g>
</g>
<g>
	<g>
		<path d="M35.104,79.293c16.122,0,16.122-25,0-25S18.982,79.293,35.104,79.293L35.104,79.293z"/>
	</g>
</g>
<g>
	<g>
		<path d="M289.208,29.75c16.122,0,16.122-25,0-25S273.087,29.75,289.208,29.75L289.208,29.75z"/>
	</g>
</g>
</svg>
