<?xml version="1.0" encoding="utf-8"?>
<!-- Generator: Adobe Illustrator 16.0.0, SVG Export Plug-In . SVG Version: 6.00 Build 0)  -->
<!DOCTYPE svg PUBLIC "-//W3C//DTD SVG 1.1//EN" "http://www.w3.org/Graphics/SVG/1.1/DTD/svg11.dtd">
<svg version="1.1" id="Layer_2" xmlns="http://www.w3.org/2000/svg" xmlns:xlink="http://www.w3.org/1999/xlink" x="0px" y="0px"
	 width="595.28px" height="595.28px" viewBox="0 0 595.28 595.28" enable-background="new 0 0 595.28 595.28" xml:space="preserve">
<line fill="none" stroke="#000000" stroke-width="7" stroke-miterlimit="10" x1="293.64" y1="13" x2="293.64" y2="584.999"/>
<path fill="none" stroke="#000000" stroke-width="9" stroke-miterlimit="10" d="M293.64,153.666"/>
<line fill="none" stroke="#000000" stroke-width="4" stroke-miterlimit="10" x1="321.986" y1="97" x2="321.986" y2="121.999"/>
<line fill="none" stroke="#000000" stroke-width="4" stroke-miterlimit="10" x1="330.172" y1="112.855" x2="357.667" y2="112.855"/>
<line fill="none" stroke="#000000" stroke-width="4" stroke-miterlimit="10" x1="310.736" y1="30.161" x2="317.667" y2="46.333"/>
<polyline fill="none" stroke="#000000" stroke-width="4" stroke-miterlimit="10" points="334.667,41.667 317.667,46.333 293.64,73 
	271,50 248.333,46.333 "/>
<line fill="none" stroke="#000000" stroke-width="4" stroke-miterlimit="10" x1="269.333" y1="21.667" x2="271" y2="50"/>
<polyline fill="none" stroke="#000000" stroke-width="4" stroke-miterlimit="10" points="235.333,77 239.333,109.499 
	293.64,153.666 321.986,121.999 350.333,90.333 "/>
<line fill="none" stroke="#000000" stroke-width="4" stroke-miterlimit="10" x1="217.333" y1="105.333" x2="239.333" y2="109.499"/>
<line fill="none" stroke="#000000" stroke-width="4" stroke-miterlimit="10" x1="275" y1="107.416" x2="278.792" y2="141.59"/>
<polyline fill="none" stroke="#000000" stroke-width="4" stroke-miterlimit="10" points="425,165.332 293.64,277.665 
	217.333,189.665 180.333,165.332 "/>
<line fill="none" stroke="#000000" stroke-width="4" stroke-miterlimit="10" x1="339" y1="190.332" x2="293.64" y2="268.999"/>
<line fill="none" stroke="#000000" stroke-width="4" stroke-miterlimit="10" x1="429.334" y1="203.332" x2="384.472" y2="199.99"/>
<line fill="none" stroke="#000000" stroke-width="4" stroke-miterlimit="10" x1="403.334" y1="153.666" x2="389.195" y2="195.95"/>
<polyline fill="none" stroke="#000000" stroke-width="4" stroke-miterlimit="10" points="377.667,165.332 362,180.332 
	357.667,222.912 "/>
<line fill="none" stroke="#000000" stroke-width="4" stroke-miterlimit="10" x1="353.334" y1="165.332" x2="362" y2="180.332"/>
<line fill="none" stroke="#000000" stroke-width="4" stroke-miterlimit="10" x1="317.667" y1="183.665" x2="321.986" y2="221.498"/>
<line fill="none" stroke="#000000" stroke-width="4" stroke-miterlimit="10" x1="248.333" y1="180.332" x2="260.876" y2="216.796"/>
<line fill="none" stroke="#000000" stroke-width="4" stroke-miterlimit="10" x1="235.333" y1="159.332" x2="216.21" y2="180.332"/>
<polyline fill="none" stroke="#000000" stroke-width="4" stroke-miterlimit="10" points="175,190.332 217.333,189.665 213,153.666 
	"/>
<polyline fill="none" stroke="#000000" stroke-width="4" stroke-miterlimit="10" points="180.333,216.796 221.667,229.665 
	256.323,234.63 269.333,183.665 "/>
<line fill="none" stroke="#000000" stroke-width="4" stroke-miterlimit="10" x1="180.333" y1="237.999" x2="221.667" y2="229.665"/>
<polyline fill="none" stroke="#000000" stroke-width="4" stroke-miterlimit="10" points="406.902,273.665 377.667,268.999 
	317.667,257.118 "/>
<line fill="none" stroke="#000000" stroke-width="4" stroke-miterlimit="10" x1="415.667" y1="243.331" x2="377.667" y2="268.999"/>
<polyline fill="none" stroke="#000000" stroke-width="4" stroke-miterlimit="10" points="383.667,310.319 367.667,351.319 
	345,422.652 293.64,459.319 139.333,333.486 "/>
<line fill="none" stroke="#000000" stroke-width="4" stroke-miterlimit="10" x1="345" y1="422.652" x2="482.334" y2="325.319"/>
<line fill="none" stroke="#000000" stroke-width="4" stroke-miterlimit="10" x1="429" y1="303.652" x2="441" y2="318.319"/>
<polyline fill="none" stroke="#000000" stroke-width="4" stroke-miterlimit="10" points="400,338.319 367.667,351.319 
	349.667,325.319 "/>
<polyline fill="none" stroke="#000000" stroke-width="4" stroke-miterlimit="10" points="487.334,363.319 434.436,359.267 
	441,318.319 462.334,303.652 "/>
<polyline fill="none" stroke="#000000" stroke-width="4" stroke-miterlimit="10" points="185,310.986 201,333.486 201,383.773 "/>
<line fill="none" stroke="#000000" stroke-width="4" stroke-miterlimit="10" x1="224.833" y1="307.319" x2="201" y2="333.486"/>
<polyline fill="none" stroke="#000000" stroke-width="4" stroke-miterlimit="10" points="221.667,338.319 245.333,351.319 
	257.504,429.852 "/>
<line fill="none" stroke="#000000" stroke-width="4" stroke-miterlimit="10" x1="248.667" y1="320.402" x2="245.333" y2="351.319"/>
<polyline fill="none" stroke="#000000" stroke-width="4" stroke-miterlimit="10" points="221.667,490.986 239.586,465.652 
	290.438,456.708 "/>
<line fill="none" stroke="#000000" stroke-width="4" stroke-miterlimit="10" x1="201" y1="470.986" x2="239.586" y2="466.652"/>
<polyline fill="none" stroke="#000000" stroke-width="4" stroke-miterlimit="10" points="161.333,459.319 207.333,434.319 
	281.122,458.347 "/>
<line fill="none" stroke="#000000" stroke-width="4" stroke-miterlimit="10" x1="151.333" y1="412.486" x2="204.571" y2="429.852"/>
<polyline fill="none" stroke="#000000" stroke-width="4" stroke-miterlimit="10" points="165.333,434.319 207.333,435.319 
	180.333,390.652 "/>
<line fill="none" stroke="#000000" stroke-width="4" stroke-miterlimit="10" x1="377.667" y1="399.5" x2="482.334" y2="390.652"/>
<line fill="none" stroke="#000000" stroke-width="4" stroke-miterlimit="10" x1="469.334" y1="421.169" x2="429" y2="395.076"/>
<polyline fill="none" stroke="#000000" stroke-width="4" stroke-miterlimit="10" points="441,435.319 396.667,459.319 
	293.64,460.319 "/>
<line fill="none" stroke="#000000" stroke-width="4" stroke-miterlimit="10" x1="441" y1="463.667" x2="396.667" y2="459.319"/>
<line fill="none" stroke="#000000" stroke-width="4" stroke-miterlimit="10" x1="425" y1="490.986" x2="390.667" y2="460.319"/>
<polyline points="293.64,73 306.75,77 306.75,90.333 "/>
<polyline points="293.64,73 276.896,77 276.896,90.333 "/>
<polyline points="293.64,153.666 312.386,159.332 312.386,169.832 303.013,169.832 "/>
<polyline points="294.588,151.249 271,156.915 271,167.415 282.794,167.415 "/>
<polyline points="241.954,232.571 230.75,243.331 230.75,256.165 239.333,256.165 250.752,233.832 "/>
<polyline points="293.64,277.665 273.874,303.652 264.75,303.652 264.75,277.665 282.998,265.392 "/>
<polyline points="321.986,257.118 328,265.392 324.993,280.75 316.32,265.392 "/>
<polygon points="293.64,273.665 312.386,303.652 319.826,284.522 303.774,268.999 "/>
<circle cx="350.333" cy="90.333" r="9.724"/>
<circle cx="321.986" cy="96.999" r="9.724"/>
<circle cx="357.667" cy="112.855" r="9.724"/>
<circle cx="403.334" cy="153.666" r="9.724"/>
<circle cx="425" cy="165.331" r="9.724"/>
<circle cx="429.334" cy="203.332" r="9.724"/>
<circle cx="377.667" cy="165.331" r="9.724"/>
<circle cx="353.333" cy="165.332" r="9.724"/>
<circle cx="339" cy="190.331" r="9.724"/>
<circle cx="317.667" cy="183.665" r="9.724"/>
<circle cx="269.333" cy="183.665" r="9.724"/>
<circle cx="248.333" cy="180.332" r="9.724"/>
<circle cx="211.943" cy="153.666" r="9.724"/>
<circle cx="180.333" cy="165.331" r="9.724"/>
<circle cx="175" cy="190.332" r="9.724"/>
<circle cx="180.333" cy="216.796" r="9.724"/>
<circle cx="180.333" cy="237.999" r="9.724"/>
<circle cx="415.667" cy="243.331" r="9.724"/>
<circle cx="406.902" cy="273.664" r="9.724"/>
<circle cx="400" cy="338.319" r="9.724"/>
<circle cx="460.885" cy="303.652" r="9.724"/>
<circle cx="429" cy="303.652" r="9.724"/>
<circle cx="482.334" cy="325.319" r="9.724"/>
<circle cx="487.334" cy="363.319" r="9.724"/>
<circle cx="482.334" cy="390.652" r="9.724"/>
<circle cx="469.334" cy="421.169" r="9.724"/>
<circle cx="441" cy="435.319" r="9.724"/>
<circle cx="441" cy="463.667" r="9.724"/>
<circle cx="425" cy="490.986" r="9.724"/>
<circle cx="383.667" cy="310.319" r="9.724"/>
<circle cx="349.667" cy="325.319" r="9.724"/>
<circle cx="248.084" cy="320.472" r="9.724"/>
<circle cx="221.667" cy="338.319" r="9.724"/>
<circle cx="224.833" cy="307.319" r="9.724"/>
<circle cx="185" cy="310.986" r="9.724"/>
<circle cx="139.333" cy="333.486" r="9.724"/>
<circle cx="180.333" cy="390.652" r="9.724"/>
<circle cx="151.333" cy="412.486" r="9.724"/>
<circle cx="165.333" cy="434.319" r="9.724"/>
<circle cx="161.333" cy="459.319" r="9.724"/>
<circle cx="201" cy="470.986" r="9.724"/>
<circle cx="221.667" cy="490.986" r="9.724"/>
<circle cx="235.333" cy="159.331" r="9.724"/>
<circle cx="334.667" cy="41.666" r="9.724"/>
<circle cx="310.736" cy="30.161" r="9.724"/>
<circle cx="269.333" cy="21.666" r="9.724"/>
<circle cx="248.333" cy="46.333" r="9.724"/>
<circle cx="235.333" cy="77" r="9.724"/>
<circle cx="217.333" cy="105.333" r="9.724"/>
<circle cx="275" cy="107.416" r="9.724"/>
<circle cx="293.64" cy="13" r="9.724"/>
</svg>
