<?xml version="1.0" encoding="utf-8"?>
<!-- Generator: Adobe Illustrator 16.0.0, SVG Export Plug-In . SVG Version: 6.00 Build 0)  -->
<!DOCTYPE svg PUBLIC "-//W3C//DTD SVG 1.1//EN" "http://www.w3.org/Graphics/SVG/1.1/DTD/svg11.dtd">
<svg version="1.1" id="Layer_2" xmlns="http://www.w3.org/2000/svg" xmlns:xlink="http://www.w3.org/1999/xlink" x="0px" y="0px"
	 width="595.28px" height="595.28px" viewBox="0 0 595.28 595.28" enable-background="new 0 0 595.28 595.28" xml:space="preserve">
<line fill="none" stroke="#000000" stroke-width="5" stroke-miterlimit="10" x1="297.64" y1="16.667" x2="297.64" y2="588"/>
<polyline fill="none" stroke="#000000" stroke-width="5" stroke-miterlimit="10" points="297.64,530 304.64,516.328 345,437.5 "/>
<line fill="none" stroke="#000000" stroke-width="5" stroke-miterlimit="10" x1="297.64" y1="400.5" x2="333.5" y2="342.5"/>
<line fill="none" stroke="#000000" stroke-width="5" stroke-miterlimit="10" x1="328" y1="234" x2="297.64" y2="286.5"/>
<line fill="none" stroke="#000000" stroke-width="5" stroke-miterlimit="10" x1="312.82" y1="136" x2="297.64" y2="168.5"/>
<line fill="none" stroke="#000000" stroke-width="5" stroke-miterlimit="10" x1="312.82" y1="71" x2="297.64" y2="96.5"/>
<line fill="none" stroke="#000000" stroke-width="5" stroke-miterlimit="10" x1="278.5" y1="40.5" x2="297.64" y2="58.5"/>
<line fill="none" stroke="#000000" stroke-width="5" stroke-miterlimit="10" x1="273" y1="96.5" x2="297.64" y2="136"/>
<line fill="none" stroke="#000000" stroke-width="5" stroke-miterlimit="10" x1="267.5" y1="199" x2="297.64" y2="250.5"/>
<line fill="none" stroke="#000000" stroke-width="5" stroke-miterlimit="10" x1="297.64" y1="342.5" x2="262.333" y2="297.64"/>
<line fill="none" stroke="#000000" stroke-width="5" stroke-miterlimit="10" x1="297.64" y1="471.999" x2="254" y2="410.666"/>
<circle cx="297.64" cy="16.667" r="10.575"/>
<circle cx="278.5" cy="40.5" r="10.575"/>
<circle cx="312.821" cy="71" r="10.575"/>
<circle cx="273" cy="96.5" r="10.575"/>
<circle cx="312.82" cy="136" r="10.574"/>
<circle cx="267.5" cy="199" r="10.574"/>
<circle cx="328" cy="234" r="10.574"/>
<circle cx="262.333" cy="297.641" r="10.574"/>
<circle cx="333.5" cy="342.5" r="10.574"/>
<circle cx="254" cy="410.666" r="10.574"/>
<circle cx="345" cy="437.5" r="10.574"/>
<polyline points="289.404,460.424 264.574,488.333 297.64,483.75 297.64,474.379 "/>
<polyline points="304.64,516.328 333.5,544.667 297.64,534.333 "/>
<polyline points="303.705,390.689 333.5,421.241 297.64,414.333 "/>
<polyline points="291.745,335.01 262.333,371.5 297.64,353.255 "/>
<polyline points="297.64,297.64 327.999,311.333 305.23,273.374 "/>
<path d="M297.64,255.333c0,0.333-35.306,10-35.306,10L287.983,234"/>
<polyline points="297.64,176.666 327.999,188.425 302.246,158.64 "/>
<polyline points="289.075,122.27 262.425,152.25 297.64,137.26 "/>
<polyline points="289.745,51.075 267.925,81.575 297.64,66.325 "/>
<polyline points="297.64,101.333 328,113.333 305.23,83.75 "/>
</svg>
