<?xml version="1.0" encoding="utf-8"?>
<!-- Generator: Adobe Illustrator 16.0.0, SVG Export Plug-In . SVG Version: 6.00 Build 0)  -->
<!DOCTYPE svg PUBLIC "-//W3C//DTD SVG 1.1//EN" "http://www.w3.org/Graphics/SVG/1.1/DTD/svg11.dtd">
<svg version="1.1" id="Layer_2" xmlns="http://www.w3.org/2000/svg" xmlns:xlink="http://www.w3.org/1999/xlink" x="0px" y="0px"
	 width="595.28px" height="595.28px" viewBox="0 0 595.28 595.28" enable-background="new 0 0 595.28 595.28" xml:space="preserve">
<line fill="none" stroke="#000000" stroke-width="5" stroke-miterlimit="10" x1="276" y1="16.333" x2="276" y2="595.28"/>
<line fill="none" stroke="#000000" stroke-width="5" stroke-miterlimit="10" x1="276" y1="158" x2="391.25" y2="16.333"/>
<line fill="none" stroke="#000000" stroke-width="5" stroke-miterlimit="10" x1="206.25" y1="16.333" x2="276" y2="99.75"/>
<line fill="none" stroke="#000000" stroke-width="5" stroke-miterlimit="10" x1="78.333" y1="16.333" x2="276" y2="247.667"/>
<line fill="none" stroke="#000000" stroke-width="5" stroke-miterlimit="10" x1="523" y1="16.333" x2="276" y2="314.333"/>
<g>
	<g>
		<path d="M78.333,31.333c19.346,0,19.346-30,0-30S58.987,31.333,78.333,31.333L78.333,31.333z"/>
	</g>
</g>
<g>
	<g>
		<path d="M206.25,31.333c19.346,0,19.346-30,0-30S186.904,31.333,206.25,31.333L206.25,31.333z"/>
	</g>
</g>
<g>
	<g>
		<path d="M276,31.333c19.346,0,19.346-30,0-30S256.654,31.333,276,31.333L276,31.333z"/>
	</g>
</g>
<g>
	<g>
		<path d="M391.25,31.333c19.346,0,19.346-30,0-30S371.904,31.333,391.25,31.333L391.25,31.333z"/>
	</g>
</g>
<g>
	<g>
		<path d="M523,31.333c19.346,0,19.346-30,0-30S503.654,31.333,523,31.333L523,31.333z"/>
	</g>
</g>
</svg>
