<?xml version="1.0" encoding="utf-8"?>
<!-- Generator: Adobe Illustrator 16.0.0, SVG Export Plug-In . SVG Version: 6.00 Build 0)  -->
<!DOCTYPE svg PUBLIC "-//W3C//DTD SVG 1.1//EN" "http://www.w3.org/Graphics/SVG/1.1/DTD/svg11.dtd">
<svg version="1.1" id="Layer_2" xmlns="http://www.w3.org/2000/svg" xmlns:xlink="http://www.w3.org/1999/xlink" x="0px" y="0px"
	 width="595.28px" height="595.28px" viewBox="0 0 595.28 595.28" enable-background="new 0 0 595.28 595.28" xml:space="preserve">
<g>
	<g>
		<path d="M280.667,3c0,123.584,0,247.168,0,370.752c0,65.75,0,131.499,0,197.248c0,6.448,10,6.448,10,0
			c0-120.362,0-240.725,0-361.087c0-68.971,0-137.942,0-206.913C290.667-3.449,280.667-3.449,280.667,3L280.667,3z"/>
	</g>
</g>
<g>
	<g>
		<path d="M283.899,47.899c-15.389,15.278-30.778,30.556-46.167,45.833c1.178,1.178,2.357,2.357,3.535,3.535
			c3.659-3.632,7.318-7.265,10.977-10.897c2.291-2.273-1.246-5.809-3.535-3.535c-3.659,3.632-7.318,7.264-10.977,10.897
			c-2.291,2.274,1.246,5.809,3.535,3.535c15.389-15.277,30.778-30.555,46.167-45.833C289.725,49.16,286.189,45.625,283.899,47.899
			L283.899,47.899z"/>
	</g>
</g>
<g>
	<g>
		<path d="M284.317,64.52c15.723,16.082,31.443,32.166,47.165,48.248c2.257,2.309,5.79-1.229,3.535-3.535
			c-15.722-16.083-31.442-32.167-47.165-48.248C285.596,58.676,282.063,62.214,284.317,64.52L284.317,64.52z"/>
	</g>
</g>
<g>
	<g>
		<path d="M239.5,110.5c19.346,0,19.346-30,0-30S220.154,110.5,239.5,110.5L239.5,110.5z"/>
	</g>
</g>
<g>
	<g>
		<path d="M333.25,126c19.346,0,19.346-30,0-30S313.904,126,333.25,126L333.25,126z"/>
	</g>
</g>
<g>
	<g>
		<path d="M285.667,47.205c-9.736-0.375-18.989,1.375-27.429,6.386c-2.769,1.644-0.256,5.967,2.523,4.317
			c7.727-4.587,16.006-6.046,24.905-5.704C288.893,52.329,288.88,47.329,285.667,47.205L285.667,47.205z"/>
	</g>
</g>
<g>
	<g>
		<path d="M313.281,67.662c-8.396-4.909-17.4-7.782-27.196-7.318c-3.21,0.152-3.225,5.153,0,5
			c8.965-0.424,16.988,2.142,24.672,6.635C313.547,73.61,316.063,69.288,313.281,67.662L313.281,67.662z"/>
	</g>
</g>
<g>
	<g>
		<path d="M283.61,98.055c-15.389,15.278-30.778,30.556-46.167,45.833c1.178,1.178,2.357,2.357,3.535,3.535
			c3.659-3.632,7.318-7.265,10.977-10.897c2.291-2.273-1.246-5.809-3.535-3.535c-3.659,3.632-7.318,7.264-10.977,10.897
			c-2.291,2.274,1.246,5.809,3.535,3.535c15.389-15.277,30.778-30.555,46.167-45.833C289.436,99.316,285.899,95.781,283.61,98.055
			L283.61,98.055z"/>
	</g>
</g>
<g>
	<g>
		<path d="M284.028,114.675c15.722,16.083,31.443,32.166,47.166,48.248c2.257,2.309,5.79-1.229,3.535-3.535
			c-15.722-16.083-31.443-32.166-47.166-48.248C285.306,108.832,281.773,112.369,284.028,114.675L284.028,114.675z"/>
	</g>
</g>
<g>
	<g>
		<path d="M239.21,160.656c19.346,0,19.346-30,0-30S219.864,160.656,239.21,160.656L239.21,160.656z"/>
	</g>
</g>
<g>
	<g>
		<path d="M332.961,176.156c19.346,0,19.346-30,0-30S313.615,176.156,332.961,176.156L332.961,176.156z"/>
	</g>
</g>
<g>
	<g>
		<path d="M285.377,97.361c-9.736-0.375-18.989,1.375-27.429,6.386c-2.769,1.644-0.256,5.967,2.523,4.317
			c7.727-4.587,16.006-6.046,24.905-5.704C288.603,102.485,288.591,97.484,285.377,97.361L285.377,97.361z"/>
	</g>
</g>
<g>
	<g>
		<path d="M312.992,117.818c-8.396-4.909-17.401-7.782-27.196-7.318c-3.21,0.152-3.225,5.153,0,5
			c8.965-0.424,16.988,2.142,24.673,6.635C313.258,123.766,315.773,119.444,312.992,117.818L312.992,117.818z"/>
	</g>
</g>
<g>
	<g>
		<path d="M283.61,149.055c-15.389,15.278-30.778,30.556-46.167,45.833c1.178,1.178,2.357,2.357,3.535,3.535
			c3.659-3.632,7.318-7.265,10.977-10.897c2.291-2.273-1.246-5.809-3.535-3.535c-3.659,3.632-7.318,7.264-10.977,10.897
			c-2.291,2.274,1.246,5.809,3.535,3.535c15.389-15.277,30.778-30.555,46.167-45.833
			C289.436,150.316,285.899,146.781,283.61,149.055L283.61,149.055z"/>
	</g>
</g>
<g>
	<g>
		<path d="M284.028,165.675c15.722,16.083,31.443,32.166,47.166,48.248c2.257,2.309,5.79-1.229,3.535-3.535
			c-15.722-16.083-31.443-32.166-47.166-48.248C285.306,159.832,281.773,163.369,284.028,165.675L284.028,165.675z"/>
	</g>
</g>
<g>
	<g>
		<path d="M239.21,211.656c19.346,0,19.346-30,0-30S219.864,211.656,239.21,211.656L239.21,211.656z"/>
	</g>
</g>
<g>
	<g>
		<path d="M332.961,227.156c19.346,0,19.346-30,0-30S313.615,227.156,332.961,227.156L332.961,227.156z"/>
	</g>
</g>
<g>
	<g>
		<path d="M285.377,148.361c-9.736-0.375-18.989,1.375-27.429,6.386c-2.769,1.644-0.256,5.967,2.523,4.317
			c7.727-4.587,16.006-6.046,24.905-5.704C288.603,153.485,288.591,148.484,285.377,148.361L285.377,148.361z"/>
	</g>
</g>
<g>
	<g>
		<path d="M312.992,168.818c-8.396-4.909-17.401-7.782-27.196-7.318c-3.21,0.152-3.225,5.153,0,5
			c8.965-0.424,16.988,2.142,24.673,6.635C313.258,174.766,315.773,170.444,312.992,168.818L312.992,168.818z"/>
	</g>
</g>
<g>
	<g>
		<path d="M283.609,191.055c-15.389,15.278-30.778,30.556-46.167,45.833c1.178,1.178,2.357,2.357,3.535,3.535
			c3.659-3.632,7.318-7.265,10.977-10.897c2.291-2.273-1.246-5.809-3.535-3.535c-3.659,3.632-7.318,7.264-10.977,10.897
			c-2.291,2.274,1.246,5.809,3.535,3.535c15.389-15.277,30.778-30.555,46.167-45.833
			C289.435,192.316,285.899,188.781,283.609,191.055L283.609,191.055z"/>
	</g>
</g>
<g>
	<g>
		<path d="M284.027,207.675c15.723,16.083,31.443,32.166,47.166,48.248c2.257,2.309,5.79-1.229,3.535-3.535
			c-15.723-16.083-31.443-32.166-47.166-48.248C285.306,201.832,281.772,205.37,284.027,207.675L284.027,207.675z"/>
	</g>
</g>
<g>
	<g>
		<path d="M239.21,253.656c19.346,0,19.346-30,0-30S219.864,253.656,239.21,253.656L239.21,253.656z"/>
	</g>
</g>
<g>
	<g>
		<path d="M332.961,269.156c19.346,0,19.346-30,0-30S313.615,269.156,332.961,269.156L332.961,269.156z"/>
	</g>
</g>
<g>
	<g>
		<path d="M285.377,190.361c-9.736-0.375-18.989,1.375-27.429,6.386c-2.769,1.644-0.256,5.967,2.523,4.317
			c7.727-4.587,16.006-6.046,24.905-5.704C288.603,195.485,288.59,190.484,285.377,190.361L285.377,190.361z"/>
	</g>
</g>
<g>
	<g>
		<path d="M312.992,210.818c-8.396-4.91-17.401-7.782-27.197-7.318c-3.21,0.152-3.225,5.153,0,5
			c8.965-0.424,16.989,2.142,24.673,6.635C313.258,216.766,315.773,212.444,312.992,210.818L312.992,210.818z"/>
	</g>
</g>
<g>
	<g>
		<path d="M283.609,236.934c-15.389,15.278-30.778,30.556-46.167,45.833c1.178,1.178,2.357,2.357,3.535,3.535
			c3.659-3.632,7.318-7.265,10.977-10.897c2.291-2.273-1.246-5.809-3.535-3.535c-3.659,3.632-7.318,7.264-10.977,10.897
			c-2.291,2.274,1.246,5.809,3.535,3.535c15.389-15.277,30.778-30.555,46.167-45.833
			C289.435,238.195,285.898,234.66,283.609,236.934L283.609,236.934z"/>
	</g>
</g>
<g>
	<g>
		<path d="M284.027,253.554c15.723,16.082,31.444,32.166,47.167,48.249c2.257,2.309,5.79-1.229,3.535-3.535
			c-15.722-16.083-31.443-32.167-47.167-48.249C285.305,247.71,281.772,251.249,284.027,253.554L284.027,253.554z"/>
	</g>
</g>
<g>
	<g>
		<path d="M239.209,299.535c19.346,0,19.346-30,0-30S219.863,299.535,239.209,299.535L239.209,299.535z"/>
	</g>
</g>
<g>
	<g>
		<path d="M332.961,315.035c19.346,0,19.346-30,0-30S313.615,315.035,332.961,315.035L332.961,315.035z"/>
	</g>
</g>
<g>
	<g>
		<path d="M285.376,236.24c-9.736-0.375-18.989,1.375-27.429,6.386c-2.769,1.644-0.256,5.967,2.523,4.317
			c7.727-4.587,16.006-6.046,24.905-5.704C288.602,241.364,288.59,236.363,285.376,236.24L285.376,236.24z"/>
	</g>
</g>
<g>
	<g>
		<path d="M312.992,256.697c-8.396-4.91-17.401-7.782-27.197-7.318c-3.21,0.152-3.225,5.153,0,5
			c8.965-0.424,16.989,2.142,24.674,6.635C313.258,262.645,315.773,258.323,312.992,256.697L312.992,256.697z"/>
	</g>
</g>
<g>
	<g>
		<path d="M283.609,277.721c-15.389,15.278-30.778,30.555-46.167,45.833c1.178,1.179,2.357,2.356,3.535,3.535
			c3.659-3.632,7.318-7.264,10.977-10.896c2.291-2.273-1.246-5.809-3.535-3.535c-3.659,3.632-7.318,7.264-10.977,10.896
			c-2.291,2.273,1.246,5.809,3.535,3.535c15.389-15.277,30.778-30.556,46.167-45.833
			C289.435,278.982,285.898,275.448,283.609,277.721L283.609,277.721z"/>
	</g>
</g>
<g>
	<g>
		<path d="M284.027,294.342c15.723,16.082,31.444,32.166,47.167,48.248c2.257,2.309,5.79-1.229,3.535-3.535
			c-15.723-16.082-31.443-32.166-47.167-48.248C285.305,288.498,281.772,292.036,284.027,294.342L284.027,294.342z"/>
	</g>
</g>
<g>
	<g>
		<path d="M239.209,340.322c19.346,0,19.346-30,0-30S219.863,340.322,239.209,340.322L239.209,340.322z"/>
	</g>
</g>
<g>
	<g>
		<path d="M332.961,355.822c19.346,0,19.346-30,0-30S313.615,355.822,332.961,355.822L332.961,355.822z"/>
	</g>
</g>
<g>
	<g>
		<path d="M285.376,277.027c-9.736-0.375-18.989,1.375-27.429,6.386c-2.769,1.644-0.256,5.967,2.523,4.317
			c7.727-4.587,16.006-6.046,24.905-5.704C288.602,282.151,288.59,277.151,285.376,277.027L285.376,277.027z"/>
	</g>
</g>
<g>
	<g>
		<path d="M312.992,297.484c-8.396-4.909-17.401-7.781-27.197-7.317c-3.21,0.152-3.225,5.153,0,5
			c8.965-0.424,16.989,2.142,24.674,6.634C313.258,303.432,315.773,299.11,312.992,297.484L312.992,297.484z"/>
	</g>
</g>
<g>
	<g>
		<path d="M283.608,323.6c-15.389,15.277-30.778,30.556-46.167,45.834c1.178,1.179,2.357,2.356,3.535,3.535
			c3.659-3.632,7.318-7.264,10.977-10.896c2.291-2.273-1.246-5.809-3.535-3.535c-3.659,3.632-7.318,7.264-10.977,10.896
			c-2.291,2.273,1.246,5.809,3.535,3.535c15.389-15.277,30.778-30.556,46.167-45.834C289.434,324.861,285.898,321.326,283.608,323.6
			L283.608,323.6z"/>
	</g>
</g>
<g>
	<g>
		<path d="M284.026,340.221c15.723,16.082,31.444,32.166,47.167,48.248c2.257,2.309,5.79-1.229,3.535-3.535
			c-15.723-16.082-31.443-32.166-47.167-48.248C285.305,334.377,281.771,337.915,284.026,340.221L284.026,340.221z"/>
	</g>
</g>
<g>
	<g>
		<path d="M239.209,386.201c19.346,0,19.346-30,0-30S219.863,386.201,239.209,386.201L239.209,386.201z"/>
	</g>
</g>
<g>
	<g>
		<path d="M332.961,401.701c19.346,0,19.346-30,0-30S313.615,401.701,332.961,401.701L332.961,401.701z"/>
	</g>
</g>
<g>
	<g>
		<path d="M285.376,322.906c-9.736-0.375-18.989,1.375-27.429,6.387c-2.769,1.644-0.256,5.967,2.523,4.316
			c7.727-4.588,16.006-6.046,24.905-5.703C288.602,328.03,288.589,323.03,285.376,322.906L285.376,322.906z"/>
	</g>
</g>
<g>
	<g>
		<path d="M312.992,343.363c-8.396-4.91-17.402-7.782-27.198-7.318c-3.21,0.152-3.225,5.152,0,5
			c8.965-0.425,16.99,2.142,24.674,6.635C313.258,349.312,315.773,344.989,312.992,343.363L312.992,343.363z"/>
	</g>
</g>
<g>
	<g>
		<path d="M283.19,369.479c-15.389,15.277-30.778,30.556-46.167,45.834c1.178,1.179,2.357,2.356,3.535,3.535
			c3.659-3.632,7.318-7.264,10.977-10.896c2.291-2.273-1.246-5.809-3.535-3.535c-3.659,3.632-7.318,7.264-10.977,10.896
			c-2.291,2.273,1.246,5.809,3.535,3.535c15.389-15.277,30.778-30.556,46.167-45.834C289.016,370.74,285.48,367.205,283.19,369.479
			L283.19,369.479z"/>
	</g>
</g>
<g>
	<g>
		<path d="M283.608,386.1c15.723,16.082,31.444,32.166,47.167,48.248c2.257,2.309,5.79-1.229,3.535-3.535
			c-15.723-16.082-31.443-32.166-47.167-48.248C284.887,380.256,281.354,383.794,283.608,386.1L283.608,386.1z"/>
	</g>
</g>
<g>
	<g>
		<path d="M238.791,432.08c19.346,0,19.346-30,0-30S219.445,432.08,238.791,432.08L238.791,432.08z"/>
	</g>
</g>
<g>
	<g>
		<path d="M332.543,447.58c19.346,0,19.346-30,0-30S313.197,447.58,332.543,447.58L332.543,447.58z"/>
	</g>
</g>
<g>
	<g>
		<path d="M284.958,368.785c-9.736-0.375-18.989,1.375-27.429,6.387c-2.769,1.644-0.256,5.967,2.523,4.316
			c7.727-4.588,16.006-6.046,24.905-5.703C288.184,373.909,288.171,368.909,284.958,368.785L284.958,368.785z"/>
	</g>
</g>
<g>
	<g>
		<path d="M312.574,389.242c-8.396-4.91-17.402-7.782-27.198-7.318c-3.21,0.152-3.225,5.152,0,5
			c8.965-0.425,16.99,2.142,24.674,6.635C312.84,395.19,315.355,390.868,312.574,389.242L312.574,389.242z"/>
	</g>
</g>
<g>
	<g>
		<path d="M283.608,415.357c-15.389,15.277-30.778,30.556-46.167,45.834c1.178,1.179,2.357,2.356,3.535,3.535
			c3.659-3.632,7.318-7.264,10.977-10.896c2.291-2.273-1.246-5.809-3.535-3.535c-3.659,3.632-7.318,7.264-10.977,10.896
			c-2.291,2.273,1.246,5.809,3.535,3.535c15.389-15.277,30.778-30.556,46.167-45.834
			C289.434,416.619,285.898,413.084,283.608,415.357L283.608,415.357z"/>
	</g>
</g>
<g>
	<g>
		<path d="M284.026,431.979c15.723,16.082,31.444,32.166,47.167,48.248c2.257,2.309,5.79-1.229,3.535-3.535
			c-15.723-16.082-31.443-32.166-47.167-48.248C285.305,426.135,281.771,429.673,284.026,431.979L284.026,431.979z"/>
	</g>
</g>
<g>
	<g>
		<path d="M239.209,477.959c19.346,0,19.346-30,0-30S219.863,477.959,239.209,477.959L239.209,477.959z"/>
	</g>
</g>
<g>
	<g>
		<path d="M332.961,493.459c19.346,0,19.346-30,0-30S313.615,493.459,332.961,493.459L332.961,493.459z"/>
	</g>
</g>
<g>
	<g>
		<path d="M285.376,414.664c-9.736-0.375-18.989,1.375-27.429,6.387c-2.769,1.644-0.256,5.967,2.523,4.316
			c7.727-4.588,16.006-6.046,24.905-5.703C288.602,419.788,288.589,414.788,285.376,414.664L285.376,414.664z"/>
	</g>
</g>
<g>
	<g>
		<path d="M312.992,435.121c-8.396-4.91-17.402-7.782-27.198-7.318c-3.21,0.152-3.225,5.152,0,5
			c8.965-0.425,16.99,2.142,24.674,6.635C313.258,441.069,315.773,436.747,312.992,435.121L312.992,435.121z"/>
	</g>
</g>
<g>
	<g>
		<path d="M283.608,461.236c-15.389,15.277-30.778,30.556-46.167,45.834c1.178,1.179,2.357,2.356,3.535,3.535
			c3.659-3.632,7.318-7.264,10.977-10.896c2.291-2.273-1.246-5.809-3.535-3.535c-3.659,3.632-7.318,7.264-10.977,10.896
			c-2.291,2.273,1.246,5.809,3.535,3.535c15.389-15.277,30.778-30.556,46.167-45.834
			C289.434,462.498,285.898,458.963,283.608,461.236L283.608,461.236z"/>
	</g>
</g>
<g>
	<g>
		<path d="M284.026,477.857c15.723,16.082,31.444,32.166,47.167,48.248c2.257,2.309,5.79-1.229,3.535-3.535
			c-15.723-16.082-31.443-32.166-47.167-48.248C285.305,472.014,281.771,475.552,284.026,477.857L284.026,477.857z"/>
	</g>
</g>
<g>
	<g>
		<path d="M239.209,523.838c19.346,0,19.346-30,0-30S219.863,523.838,239.209,523.838L239.209,523.838z"/>
	</g>
</g>
<g>
	<g>
		<path d="M332.961,539.338c19.346,0,19.346-30,0-30S313.615,539.338,332.961,539.338L332.961,539.338z"/>
	</g>
</g>
<g>
	<g>
		<path d="M285.376,460.543c-9.736-0.375-18.989,1.375-27.429,6.387c-2.769,1.644-0.256,5.967,2.523,4.316
			c7.727-4.588,16.006-6.046,24.905-5.703C288.602,465.667,288.589,460.667,285.376,460.543L285.376,460.543z"/>
	</g>
</g>
<g>
	<g>
		<path d="M312.992,481c-8.396-4.91-17.402-7.782-27.198-7.318c-3.21,0.152-3.225,5.152,0,5c8.965-0.425,16.99,2.142,24.674,6.635
			C313.258,486.948,315.773,482.626,312.992,481L312.992,481z"/>
	</g>
</g>
<g>
	<g>
		<path d="M283.608,513.721c-15.389,15.277-30.778,30.556-46.167,45.834c1.178,1.179,2.357,2.356,3.535,3.535
			c3.659-3.632,7.318-7.264,10.977-10.896c2.291-2.273-1.246-5.809-3.535-3.535c-3.659,3.632-7.318,7.264-10.977,10.896
			c-2.291,2.273,1.246,5.809,3.535,3.535c15.389-15.277,30.778-30.556,46.167-45.834
			C289.434,514.982,285.898,511.447,283.608,513.721L283.608,513.721z"/>
	</g>
</g>
<g>
	<g>
		<path d="M284.026,530.342c15.723,16.082,31.444,32.166,47.167,48.248c2.257,2.309,5.79-1.229,3.535-3.535
			c-15.723-16.082-31.443-32.166-47.167-48.248C285.305,524.498,281.771,528.036,284.026,530.342L284.026,530.342z"/>
	</g>
</g>
<g>
	<g>
		<path d="M239.209,576.322c19.346,0,19.346-30,0-30S219.863,576.322,239.209,576.322L239.209,576.322z"/>
	</g>
</g>
<g>
	<g>
		<path d="M332.961,591.822c19.346,0,19.346-30,0-30S313.615,591.822,332.961,591.822L332.961,591.822z"/>
	</g>
</g>
<g>
	<g>
		<path d="M285.376,513.027c-9.736-0.375-18.989,1.375-27.429,6.387c-2.769,1.644-0.256,5.967,2.523,4.316
			c7.727-4.588,16.006-6.046,24.905-5.703C288.602,518.151,288.589,513.151,285.376,513.027L285.376,513.027z"/>
	</g>
</g>
<g>
	<g>
		<path d="M312.992,533.484c-8.396-4.91-17.402-7.782-27.198-7.318c-3.21,0.152-3.225,5.152,0,5
			c8.965-0.425,16.99,2.142,24.674,6.635C313.258,539.433,315.773,535.11,312.992,533.484L312.992,533.484z"/>
	</g>
</g>
</svg>
