<?xml version="1.0" encoding="utf-8"?>
<!-- Generator: Adobe Illustrator 16.0.0, SVG Export Plug-In . SVG Version: 6.00 Build 0)  -->
<!DOCTYPE svg PUBLIC "-//W3C//DTD SVG 1.1//EN" "http://www.w3.org/Graphics/SVG/1.1/DTD/svg11.dtd">
<svg version="1.1" xmlns="http://www.w3.org/2000/svg" xmlns:xlink="http://www.w3.org/1999/xlink" x="0px" y="0px"
	 width="595.281px" height="595.281px" viewBox="0 0 595.281 595.281" enable-background="new 0 0 595.281 595.281"
	 xml:space="preserve">
<g id="Layer_2" display="none">
	
		<image display="inline" overflow="visible" width="29" height="125" xlink:href="../gonb-vagy-fejecske-viragzat.png"  transform="matrix(4.7573 0 0 4.7573 239.855 0.6226)">
	</image>
</g>
<g id="Layer_4">
	<path fill="none" stroke="#000000" stroke-width="5" stroke-miterlimit="10" d="M302.144,586.491l-4.504-299.745l-6.833-71.982
		c0.395-10.119-4.18-47.333-8.636-72.666c-3.106-17.659-14.967-70.105-11.197-92.33c2.743-16.168,7.756-24.75,35.031-25.042
		c23.496-0.251,28.676,6.169,32.495,18.556c6.708,21.756-2.531,59.208-8.189,91.851c-5.084,29.329-10.59,61.542-11.579,99.808
		l-2.591,51.806l0.24,300.062"/>
	<polyline points="332.382,140.405 346.466,142.133 350.115,140.044 357.201,135.984 361.291,128.745 361.65,119.607 
		357.169,126.207 350.423,127.959 347.193,122.319 339.264,122.442 333.189,125.921 330.075,129.771 328.903,135.924 	"/>
	<polyline points="338.198,117.836 352.268,116 355.281,113.068 361.132,107.37 363.287,99.339 361.359,90.401 358.665,97.909 
		352.569,101.287 348.035,96.629 340.385,98.725 335.371,103.607 333.313,108.112 333.71,114.363 	"/>
	<polyline points="345.201,92.435 358.053,86.421 360.035,82.714 363.885,75.51 363.505,67.205 358.958,59.271 358.667,67.242 
		353.879,72.309 348.148,69.245 341.494,73.559 338.194,79.732 337.598,84.648 339.873,90.485 	"/>
	<polyline points="347.536,63.655 359.681,56.318 361.261,52.422 364.329,44.852 363.074,36.633 357.715,29.224 358.266,37.181 
		354.042,42.725 348.018,40.283 341.856,45.276 339.227,51.763 339.154,56.715 342.032,62.279 	"/>
	<polyline points="342.228,40.079 350.971,33.761 351.924,30.712 353.776,24.785 352.311,18.638 347.789,13.359 348.704,19.353 
		345.849,23.817 341.133,22.343 336.778,26.51 335.192,31.589 335.446,35.345 337.973,39.38 	"/>
	<polyline points="327.607,160.286 340.56,166.081 344.662,165.158 352.628,163.362 358.667,157.645 361.698,149.018 
		355.475,154.008 348.511,153.698 347.083,147.357 339.468,145.142 332.639,146.68 328.531,149.443 325.6,154.979 	"/>
	<polyline points="327.384,29.719 336.127,23.402 337.081,20.353 338.932,14.426 337.467,8.278 332.945,3 333.86,8.994 
		331.005,13.458 326.29,11.984 321.934,16.151 320.348,21.23 320.602,24.985 323.129,29.021 	"/>
	<polyline points="282.298,136.119 280.982,129.995 277.779,126.219 271.624,122.884 263.694,122.947 260.597,128.662 
		253.812,127.068 249.177,120.576 249.751,129.702 254.01,136.844 261.189,140.736 264.886,142.739 278.925,140.68 	"/>
	<polyline points="276.986,114.676 277.236,108.417 275.074,103.963 269.945,99.198 262.249,97.284 257.825,102.047 251.651,98.813 
		248.782,91.371 247.064,100.352 249.408,108.331 255.392,113.888 258.472,116.748 272.581,118.254 	"/>
	<polyline points="270.264,90.95 272.401,85.062 271.69,80.16 268.245,74.066 261.492,69.91 255.834,73.108 250.929,68.155 
		250.45,60.193 246.091,68.231 245.906,76.543 249.925,83.654 251.994,87.313 264.983,93.024 	"/>
	<polyline points="267.442,62.801 270.189,57.171 270,52.223 267.219,45.8 260.941,40.953 254.976,43.535 250.622,38.093 
		250.987,30.125 245.804,37.658 244.743,45.903 247.987,53.4 249.658,57.257 261.973,64.307 	"/>
	<polyline points="270.961,39.813 273.394,35.72 273.56,31.959 271.854,26.919 267.402,22.856 262.722,24.44 259.764,20.045 
		260.537,14.031 256.14,19.414 254.821,25.595 256.811,31.477 257.835,34.502 266.724,40.612 	"/>
	<polyline points="286.048,155.043 282.987,149.578 278.816,146.912 271.953,145.534 264.392,147.929 263.113,154.3 
		256.159,154.775 249.82,149.932 253.053,158.486 259.224,164.059 267.231,165.667 271.353,166.494 284.166,160.396 	"/>
	<polyline points="285.558,29.108 287.99,25.015 288.155,21.254 286.45,16.214 281.998,12.151 277.318,13.735 274.359,9.34 
		275.133,3.326 270.737,8.708 269.416,14.889 271.407,20.771 272.432,23.797 281.321,29.907 	"/>
</g>
</svg>
