<?xml version="1.0" encoding="utf-8"?>
<!-- Generator: Adobe Illustrator 16.0.0, SVG Export Plug-In . SVG Version: 6.00 Build 0)  -->
<!DOCTYPE svg PUBLIC "-//W3C//DTD SVG 1.1//EN" "http://www.w3.org/Graphics/SVG/1.1/DTD/svg11.dtd">
<svg version="1.1" xmlns="http://www.w3.org/2000/svg" xmlns:xlink="http://www.w3.org/1999/xlink" x="0px" y="0px"
	 width="595.281px" height="595.281px" viewBox="0 0 595.281 595.281" enable-background="new 0 0 595.281 595.281"
	 xml:space="preserve">
<g id="Layer_1" display="none">
	<g id="Layer_3">
		<path display="inline" fill="none" enable-background="new    " d="z"/>
	</g>
	<g id="Layer_2">
		
			<line display="inline" fill="none" stroke="#000000" stroke-width="7" stroke-miterlimit="10" x1="293.64" y1="13" x2="293.64" y2="585"/>
		<path display="inline" fill="none" stroke="#000000" stroke-width="9" stroke-miterlimit="10" d="M293.64,153.666"/>
		
			<line display="inline" fill="none" stroke="#000000" stroke-width="4" stroke-miterlimit="10" x1="321.986" y1="97" x2="321.986" y2="121.999"/>
		
			<line display="inline" fill="none" stroke="#000000" stroke-width="4" stroke-miterlimit="10" x1="330.171" y1="112.855" x2="357.667" y2="112.855"/>
		
			<line display="inline" fill="none" stroke="#000000" stroke-width="4" stroke-miterlimit="10" x1="310.736" y1="30.161" x2="317.667" y2="46.333"/>
		<polyline display="inline" fill="none" stroke="#000000" stroke-width="4" stroke-miterlimit="10" points="334.667,41.667 
			317.667,46.333 293.64,73 271,50 248.333,46.333 		"/>
		
			<line display="inline" fill="none" stroke="#000000" stroke-width="4" stroke-miterlimit="10" x1="269.333" y1="21.667" x2="271" y2="50"/>
		<polyline display="inline" fill="none" stroke="#000000" stroke-width="4" stroke-miterlimit="10" points="235.333,77 
			239.333,109.499 293.64,153.666 321.986,121.999 350.333,90.333 		"/>
		
			<line display="inline" fill="none" stroke="#000000" stroke-width="4" stroke-miterlimit="10" x1="217.333" y1="105.333" x2="239.333" y2="109.499"/>
		
			<line display="inline" fill="none" stroke="#000000" stroke-width="4" stroke-miterlimit="10" x1="275" y1="107.416" x2="278.792" y2="141.59"/>
		<polyline display="inline" fill="none" stroke="#000000" stroke-width="4" stroke-miterlimit="10" points="425,165.332 
			293.64,277.665 217.333,189.665 180.333,165.332 		"/>
		
			<line display="inline" fill="none" stroke="#000000" stroke-width="4" stroke-miterlimit="10" x1="339" y1="190.332" x2="293.64" y2="268.999"/>
		
			<line display="inline" fill="none" stroke="#000000" stroke-width="4" stroke-miterlimit="10" x1="429.333" y1="203.332" x2="384.473" y2="199.99"/>
		
			<line display="inline" fill="none" stroke="#000000" stroke-width="4" stroke-miterlimit="10" x1="403.333" y1="153.666" x2="389.195" y2="195.95"/>
		<polyline display="inline" fill="none" stroke="#000000" stroke-width="4" stroke-miterlimit="10" points="377.667,165.332 
			362,180.332 357.667,222.912 		"/>
		
			<line display="inline" fill="none" stroke="#000000" stroke-width="4" stroke-miterlimit="10" x1="353.333" y1="165.332" x2="362" y2="180.332"/>
		
			<line display="inline" fill="none" stroke="#000000" stroke-width="4" stroke-miterlimit="10" x1="317.667" y1="183.665" x2="321.986" y2="221.498"/>
		
			<line display="inline" fill="none" stroke="#000000" stroke-width="4" stroke-miterlimit="10" x1="248.333" y1="180.332" x2="260.876" y2="216.796"/>
		
			<line display="inline" fill="none" stroke="#000000" stroke-width="4" stroke-miterlimit="10" x1="235.333" y1="159.332" x2="216.21" y2="180.332"/>
		<polyline display="inline" fill="none" stroke="#000000" stroke-width="4" stroke-miterlimit="10" points="175,190.332 
			217.333,189.665 213,153.666 		"/>
		<polyline display="inline" fill="none" stroke="#000000" stroke-width="4" stroke-miterlimit="10" points="180.333,216.796 
			221.667,229.665 256.323,234.63 269.333,183.665 		"/>
		
			<line display="inline" fill="none" stroke="#000000" stroke-width="4" stroke-miterlimit="10" x1="180.333" y1="237.999" x2="221.667" y2="229.665"/>
		<polyline display="inline" fill="none" stroke="#000000" stroke-width="4" stroke-miterlimit="10" points="406.902,273.665 
			377.667,268.999 317.667,257.118 		"/>
		
			<line display="inline" fill="none" stroke="#000000" stroke-width="4" stroke-miterlimit="10" x1="415.667" y1="243.331" x2="377.667" y2="268.999"/>
		<polyline display="inline" fill="none" stroke="#000000" stroke-width="4" stroke-miterlimit="10" points="383.667,310.32 
			367.667,351.32 345,422.652 293.64,459.32 139.333,333.486 		"/>
		
			<line display="inline" fill="none" stroke="#000000" stroke-width="4" stroke-miterlimit="10" x1="345" y1="422.652" x2="482.333" y2="325.32"/>
		
			<line display="inline" fill="none" stroke="#000000" stroke-width="4" stroke-miterlimit="10" x1="429" y1="303.652" x2="441" y2="318.32"/>
		<polyline display="inline" fill="none" stroke="#000000" stroke-width="4" stroke-miterlimit="10" points="400,338.32 
			367.667,351.32 349.667,325.32 		"/>
		<polyline display="inline" fill="none" stroke="#000000" stroke-width="4" stroke-miterlimit="10" points="487.333,363.32 
			434.435,359.267 441,318.32 462.333,303.652 		"/>
		<polyline display="inline" fill="none" stroke="#000000" stroke-width="4" stroke-miterlimit="10" points="185,310.986 
			201,333.486 201,383.773 		"/>
		
			<line display="inline" fill="none" stroke="#000000" stroke-width="4" stroke-miterlimit="10" x1="224.833" y1="307.32" x2="201" y2="333.486"/>
		<polyline display="inline" fill="none" stroke="#000000" stroke-width="4" stroke-miterlimit="10" points="221.667,338.32 
			245.333,351.32 257.504,429.851 		"/>
		
			<line display="inline" fill="none" stroke="#000000" stroke-width="4" stroke-miterlimit="10" x1="248.667" y1="320.402" x2="245.333" y2="351.32"/>
		<polyline display="inline" fill="none" stroke="#000000" stroke-width="4" stroke-miterlimit="10" points="221.667,490.986 
			239.586,465.652 290.438,456.708 		"/>
		
			<line display="inline" fill="none" stroke="#000000" stroke-width="4" stroke-miterlimit="10" x1="201" y1="470.986" x2="239.586" y2="466.652"/>
		<polyline display="inline" fill="none" stroke="#000000" stroke-width="4" stroke-miterlimit="10" points="161.333,459.32 
			207.333,434.32 281.122,458.347 		"/>
		
			<line display="inline" fill="none" stroke="#000000" stroke-width="4" stroke-miterlimit="10" x1="151.333" y1="412.486" x2="204.571" y2="429.851"/>
		<polyline display="inline" fill="none" stroke="#000000" stroke-width="4" stroke-miterlimit="10" points="165.333,434.32 
			207.333,435.32 180.333,390.652 		"/>
		
			<line display="inline" fill="none" stroke="#000000" stroke-width="4" stroke-miterlimit="10" x1="377.667" y1="399.5" x2="482.333" y2="390.652"/>
		
			<line display="inline" fill="none" stroke="#000000" stroke-width="4" stroke-miterlimit="10" x1="469.333" y1="421.169" x2="429" y2="395.076"/>
		<polyline display="inline" fill="none" stroke="#000000" stroke-width="4" stroke-miterlimit="10" points="441,435.32 
			396.667,459.32 293.64,460.32 		"/>
		
			<line display="inline" fill="none" stroke="#000000" stroke-width="4" stroke-miterlimit="10" x1="441" y1="463.667" x2="396.667" y2="459.32"/>
		
			<line display="inline" fill="none" stroke="#000000" stroke-width="4" stroke-miterlimit="10" x1="425" y1="490.986" x2="390.667" y2="460.32"/>
		<polyline display="inline" points="293.64,73 306.75,77 306.75,90.333 		"/>
		<polyline display="inline" points="293.64,73 276.896,77 276.896,90.333 		"/>
		<polyline display="inline" points="293.64,153.666 312.386,159.332 312.386,169.832 303.014,169.832 		"/>
		<polyline display="inline" points="294.588,151.249 271,156.915 271,167.415 282.794,167.415 		"/>
		<polyline display="inline" points="241.954,232.571 230.75,243.331 230.75,256.165 239.333,256.165 250.752,233.832 		"/>
		<polyline display="inline" points="293.64,277.665 273.874,303.652 264.75,303.652 264.75,277.665 282.998,265.392 		"/>
		<polyline display="inline" points="321.986,257.118 328,265.392 324.994,280.75 316.32,265.392 		"/>
		<polygon display="inline" points="293.64,273.665 312.386,303.652 319.826,284.522 303.773,268.999 		"/>
		<circle display="inline" cx="350.333" cy="90.333" r="9.724"/>
		<circle display="inline" cx="321.986" cy="96.999" r="9.724"/>
		<circle display="inline" cx="357.667" cy="112.855" r="9.724"/>
		<circle display="inline" cx="403.333" cy="153.666" r="9.724"/>
		<circle display="inline" cx="425" cy="165.331" r="9.724"/>
		<circle display="inline" cx="429.333" cy="203.332" r="9.724"/>
		<circle display="inline" cx="377.667" cy="165.331" r="9.724"/>
		<circle display="inline" cx="353.333" cy="165.332" r="9.724"/>
		<circle display="inline" cx="339" cy="190.331" r="9.724"/>
		<circle display="inline" cx="317.667" cy="183.665" r="9.724"/>
		<circle display="inline" cx="269.333" cy="183.665" r="9.724"/>
		<circle display="inline" cx="248.333" cy="180.332" r="9.724"/>
		<circle display="inline" cx="211.943" cy="153.666" r="9.724"/>
		<circle display="inline" cx="180.333" cy="165.331" r="9.724"/>
		<circle display="inline" cx="175" cy="190.332" r="9.724"/>
		<circle display="inline" cx="180.333" cy="216.796" r="9.724"/>
		<circle display="inline" cx="180.333" cy="237.999" r="9.724"/>
		<circle display="inline" cx="415.667" cy="243.331" r="9.724"/>
		<circle display="inline" cx="406.902" cy="273.664" r="9.724"/>
		<circle display="inline" cx="400" cy="338.319" r="9.724"/>
		<circle display="inline" cx="460.884" cy="303.652" r="9.724"/>
		<circle display="inline" cx="429" cy="303.652" r="9.724"/>
		<circle display="inline" cx="482.333" cy="325.319" r="9.724"/>
		<circle display="inline" cx="487.333" cy="363.319" r="9.724"/>
		<circle display="inline" cx="482.333" cy="390.652" r="9.725"/>
		<circle display="inline" cx="469.333" cy="421.168" r="9.724"/>
		<circle display="inline" cx="441" cy="435.319" r="9.724"/>
		<circle display="inline" cx="441" cy="463.667" r="9.724"/>
		<circle display="inline" cx="425" cy="490.986" r="9.725"/>
		<circle display="inline" cx="383.667" cy="310.319" r="9.724"/>
		<circle display="inline" cx="349.667" cy="325.319" r="9.724"/>
		<circle display="inline" cx="248.084" cy="320.472" r="9.725"/>
		<circle display="inline" cx="221.667" cy="338.319" r="9.724"/>
		<circle display="inline" cx="224.833" cy="307.319" r="9.724"/>
		<circle display="inline" cx="185" cy="310.986" r="9.725"/>
		<circle display="inline" cx="139.333" cy="333.486" r="9.725"/>
		<circle display="inline" cx="180.333" cy="390.652" r="9.725"/>
		<circle display="inline" cx="151.333" cy="412.486" r="9.725"/>
		<circle display="inline" cx="165.333" cy="434.319" r="9.724"/>
		<circle display="inline" cx="161.333" cy="459.319" r="9.724"/>
		<circle display="inline" cx="201" cy="470.986" r="9.725"/>
		<circle display="inline" cx="221.667" cy="490.986" r="9.725"/>
		<circle display="inline" cx="235.333" cy="159.331" r="9.724"/>
		<circle display="inline" cx="334.667" cy="41.666" r="9.724"/>
		<circle display="inline" cx="310.736" cy="30.161" r="9.724"/>
		<circle display="inline" cx="269.333" cy="21.666" r="9.724"/>
		<circle display="inline" cx="248.333" cy="46.333" r="9.724"/>
		<circle display="inline" cx="235.333" cy="77" r="9.724"/>
		<circle display="inline" cx="217.333" cy="105.333" r="9.724"/>
		<circle display="inline" cx="275" cy="107.416" r="9.724"/>
		<circle display="inline" cx="293.64" cy="13" r="9.724"/>
	</g>
	<g id="Layer_4" display="inline">
		<polyline points="69.424,175.971 99.088,189.609 101.073,198.515 75.709,204.169 59.76,189.029 		"/>
		<polygon points="67.603,176.841 92.792,152.02 72.502,148.921 60.844,167.965 		"/>
		<circle cx="571.751" cy="188.807" r="9.724"/>
		<circle cx="579.475" cy="144.807" r="9.724"/>
		<circle cx="552.304" cy="115.473" r="9.724"/>
		<circle cx="469.807" cy="124.473" r="9.724"/>
		<circle cx="302.195" cy="252.474" r="9.724"/>
		<circle cx="457.083" cy="52.14" r="9.724"/>
		<circle cx="429.199" cy="32.182" r="9.724"/>
		<circle cx="396.809" cy="53.14" r="9.724"/>
		<circle cx="134.084" cy="137.083" r="9.724"/>
		<circle cx="209.475" cy="53.14" r="9.724"/>
		<circle cx="171.475" cy="38.906" r="9.724"/>
		<circle cx="135.084" cy="61.864" r="9.724"/>
		<circle cx="31.475" cy="134.197" r="9.724"/>
		<circle cx="21.751" cy="179.083" r="9.724"/>
		<circle cx="31.475" cy="218.14" r="9.724"/>
		<polyline points="171.759,169.252 174.599,201.778 167.844,207.913 150.374,188.676 155.629,167.322 		"/>
		<polygon points="169.07,166.292 203.107,175.886 195.753,156.724 173.435,156.025 		"/>
		<polyline points="438.531,168.883 406.688,176.102 399.697,170.24 416.391,150.325 438.259,152.641 		"/>
		<polygon points="441.1,165.817 436.204,200.84 454.193,190.959 451.863,168.752 		"/>
		<polyline points="175.645,89.88 155.689,115.723 146.566,115.655 146.756,89.67 165.092,77.53 		"/>
		<polygon points="175.673,85.88 194.2,116.002 201.779,96.928 185.84,81.29 		"/>
		<polyline points="431.735,82.199 411.779,108.042 402.657,107.974 402.846,81.988 421.182,69.848 		"/>
		<polygon points="430.651,77.919 449.177,108.042 456.756,88.967 440.817,73.329 		"/>
		<polyline points="529.583,154.53 500.43,139.828 498.77,130.857 524.321,126.124 539.712,141.83 		"/>
		<polygon points="533.516,153.801 507.446,177.694 527.61,181.525 539.949,162.915 		"/>
		<polyline fill="none" stroke="#000000" stroke-width="4" stroke-miterlimit="10" points="571.75,188.807 532.486,153.825 
			439.509,166.713 303.307,328.819 		"/>
		<polyline fill="none" stroke="#000000" stroke-width="4" stroke-miterlimit="10" points="552.303,116.002 532.486,153.825 
			579.474,144.807 		"/>
		
			<line fill="none" stroke="#000000" stroke-width="4" stroke-miterlimit="10" x1="439.509" y1="166.713" x2="469.806" y2="124.473"/>
		<polyline fill="none" stroke="#000000" stroke-width="4" stroke-miterlimit="10" points="396.809,53.14 430.514,77.53 
			457.083,53.14 		"/>
		<polyline fill="none" stroke="#000000" stroke-width="4" stroke-miterlimit="10" points="429.198,32.182 430.514,77.53 
			439.509,166.713 		"/>
		<polyline fill="none" stroke="#000000" stroke-width="4" stroke-miterlimit="10" points="135.083,61.864 175.673,85.88 
			206.639,52.14 		"/>
		<polyline fill="none" stroke="#000000" stroke-width="4" stroke-miterlimit="10" points="171.474,38.906 175.673,85.88 
			169.07,166.292 		"/>
		<polyline fill="none" stroke="#000000" stroke-width="4" stroke-miterlimit="10" points="31.474,134.197 67.025,176.545 
			28.639,218.14 		"/>
		<polyline fill="none" stroke="#000000" stroke-width="4" stroke-miterlimit="10" points="18.916,179.083 67.025,176.545 
			169.07,166.292 305.779,325.876 302.195,252.474 		"/>
		
			<line fill="none" stroke="#000000" stroke-width="7" stroke-miterlimit="10" x1="305.779" y1="325.876" x2="305.779" y2="573.733"/>
		<polyline points="307.088,328.805 287.646,355.036 278.524,355.148 278.202,329.164 296.295,316.665 		"/>
		<polygon points="307.04,324.806 326.156,354.557 333.357,335.337 317.114,320.015 		"/>
		<line fill="none" stroke="#000000" stroke-width="4" stroke-miterlimit="10" x1="134.083" y1="135.901" x2="169.07" y2="165.11"/>
	</g>
</g>
<g id="Layer_2_1_" display="none">
</g>
<g id="Layer_3_1_">
	<circle cx="303.196" cy="8.725" r="7.724"/>
	<polygon points="301.329,41.772 319.854,71.895 327.434,52.82 311.495,37.182 	"/>
	<circle cx="319.382" cy="34.833" r="7.724"/>
	<circle cx="287.473" cy="68.225" r="7.724"/>
	<circle cx="287.473" cy="146.475" r="7.724"/>
	<circle cx="319.382" cy="104.046" r="7.724"/>
	<circle cx="319.024" cy="164.725" r="7.724"/>
	<circle cx="285.473" cy="239.026" r="7.724"/>
	<circle cx="318.024" cy="276.975" r="7.724"/>
	<circle cx="286.473" cy="329.225" r="7.725"/>
	<circle cx="319.248" cy="381.059" r="7.725"/>
	<circle cx="282.749" cy="448.473" r="7.725"/>
	<circle cx="315.753" cy="496.225" r="7.725"/>
	<line fill="none" stroke="#000000" stroke-width="4" stroke-miterlimit="10" x1="303.195" y1="8.725" x2="300.196" y2="595.28"/>
	<polygon points="292.573,68.794 277.883,85.609 286.903,104.046 303.062,72.589 	"/>
	<polygon points="302.532,107.139 315.352,140.097 326.23,122.692 313.356,104.448 	"/>
	<polygon points="292.573,148.099 277.883,164.913 286.903,183.351 303.062,151.894 	"/>
	<polygon points="301.329,170.584 319.854,200.707 327.434,181.632 311.495,165.994 	"/>
	<polygon points="292.111,239.403 277.421,256.217 286.441,274.655 302.6,243.198 	"/>
	<polygon points="300.867,282.564 319.393,312.688 326.972,293.612 311.033,277.975 	"/>
	<polygon points="292.573,330.146 277.883,346.96 286.903,365.397 303.062,333.94 	"/>
	<polygon points="300.867,387.814 319.393,417.938 326.972,398.862 311.033,383.225 	"/>
	<polygon points="290.695,449.473 276.004,466.287 285.025,484.725 301.184,453.268 	"/>
	<polygon points="300.867,500.814 319.393,530.938 326.972,511.862 311.033,496.225 	"/>
</g>
</svg>
