<?xml version="1.0" encoding="utf-8"?>
<!-- Generator: Adobe Illustrator 16.0.0, SVG Export Plug-In . SVG Version: 6.00 Build 0)  -->
<!DOCTYPE svg PUBLIC "-//W3C//DTD SVG 1.1//EN" "http://www.w3.org/Graphics/SVG/1.1/DTD/svg11.dtd">
<svg version="1.1" id="Layer_2" xmlns="http://www.w3.org/2000/svg" xmlns:xlink="http://www.w3.org/1999/xlink" x="0px" y="0px"
	 width="595.28px" height="595.28px" viewBox="0 0 595.28 595.28" enable-background="new 0 0 595.28 595.28" xml:space="preserve">
<path fill="none" stroke="#000000" stroke-width="4" stroke-miterlimit="10" d="M306,286"/>
<polyline fill="none" stroke="#000000" stroke-width="5" stroke-miterlimit="10" points="150,58.334 306,286 91.667,92.667 "/>
<polyline fill="none" stroke="#000000" stroke-width="5" stroke-miterlimit="10" points="198.833,31 306,286 266.667,12.334 "/>
<polyline fill="none" stroke="#000000" stroke-width="5" stroke-miterlimit="10" points="399.667,25 306,286 341.667,12.334 "/>
<polyline fill="none" stroke="#000000" stroke-width="5" stroke-miterlimit="10" points="449.667,58.334 306,286 505.334,100 "/>
<circle cx="91.667" cy="91.25" r="9.167"/>
<circle cx="150" cy="58.334" r="9.167"/>
<circle cx="198.833" cy="31" r="9.167"/>
<circle cx="266.667" cy="12.334" r="9.167"/>
<circle cx="341.667" cy="12.334" r="9.167"/>
<circle cx="399.667" cy="25" r="9.167"/>
<circle cx="449.667" cy="58.334" r="9.167"/>
<circle cx="505.334" cy="100" r="9.167"/>
<polyline fill="none" stroke="#000000" stroke-width="5" stroke-miterlimit="10" points="252.417,313.333 306,286 306,590 "/>
<polyline fill="none" stroke="#000000" stroke-width="5" stroke-miterlimit="10" points="273,319 306,286 279.208,344.667 "/>
<polyline fill="none" stroke="#000000" stroke-width="5" stroke-miterlimit="10" points="359.667,297.64 306,286 344,315.334 "/>
<polyline fill="none" stroke="#000000" stroke-width="5" stroke-miterlimit="10" points="317.5,331.333 306,286 329,323.333 "/>
</svg>
