<?xml version="1.0" encoding="utf-8"?>
<!-- Generator: Adobe Illustrator 16.0.0, SVG Export Plug-In . SVG Version: 6.00 Build 0)  -->
<!DOCTYPE svg PUBLIC "-//W3C//DTD SVG 1.1//EN" "http://www.w3.org/Graphics/SVG/1.1/DTD/svg11.dtd">
<svg version="1.1" id="Layer_2" xmlns="http://www.w3.org/2000/svg" xmlns:xlink="http://www.w3.org/1999/xlink" x="0px" y="0px"
	 width="595.28px" height="595.28px" viewBox="0 0 595.28 595.28" enable-background="new 0 0 595.28 595.28" xml:space="preserve">
<line fill="none" stroke="#000000" stroke-width="5" stroke-miterlimit="10" x1="256.5" y1="24" x2="289.947" y2="73.483"/>
<line fill="none" stroke="#000000" stroke-width="5" stroke-miterlimit="10" x1="290.431" y1="86.041" x2="238.5" y2="40.5"/>
<line fill="none" stroke="#000000" stroke-width="5" stroke-miterlimit="10" x1="322" y1="24" x2="290.431" y2="78.5"/>
<line fill="none" stroke="#000000" stroke-width="5" stroke-miterlimit="10" x1="340.5" y1="40.5" x2="290.625" y2="91.072"/>
<line fill="none" stroke="#000000" stroke-width="7" stroke-miterlimit="10" x1="387.635" y1="108.323" x2="297.06" y2="257.979"/>
<polyline fill="none" stroke="#000000" stroke-width="7" stroke-miterlimit="10" points="289.553,14.333 289.553,63.271 
	309.667,584.999 "/>
<polyline fill="none" stroke="#000000" stroke-width="5" stroke-miterlimit="10" points="385.773,43.333 385.773,111.398 
	420,55.667 "/>
<line fill="none" stroke="#000000" stroke-width="5" stroke-miterlimit="10" x1="442.667" y1="78.5" x2="387.662" y2="108.323"/>
<polyline fill="none" stroke="#000000" stroke-width="5" stroke-miterlimit="10" points="449.333,103.333 381.865,117.857 
	362.667,48.741 "/>
<line fill="none" stroke="#000000" stroke-width="7" stroke-miterlimit="10" x1="475.334" y1="155.333" x2="309.667" y2="237.147"/>
<polyline fill="none" stroke="#000000" stroke-width="5" stroke-miterlimit="10" points="535.334,177 469.984,157.976 
	483.334,91.072 "/>
<line fill="none" stroke="#000000" stroke-width="5" stroke-miterlimit="10" x1="507.667" y1="93.412" x2="475.334" y2="159.533"/>
<polyline fill="none" stroke="#000000" stroke-width="5" stroke-miterlimit="10" points="539.334,152.264 478.889,152.264 
	530.667,117.857 "/>
<line fill="none" stroke="#000000" stroke-width="7" stroke-miterlimit="10" x1="211.333" y1="117.857" x2="297.06" y2="257.979"/>
<polyline fill="none" stroke="#000000" stroke-width="5" stroke-miterlimit="10" points="206.667,51.25 213.607,121.574 232,63.271 
	"/>
<line fill="none" stroke="#000000" stroke-width="5" stroke-miterlimit="10" x1="153.333" y1="91.072" x2="213.241" y2="117.857"/>
<polyline fill="none" stroke="#000000" stroke-width="5" stroke-miterlimit="10" points="147,111.398 213.607,121.574 176,65.786 
	"/>
<line fill="none" stroke="#000000" stroke-width="7" stroke-miterlimit="10" x1="119" y1="168" x2="290.431" y2="247.144"/>
<path fill="none" stroke="#000000" stroke-width="7" stroke-miterlimit="10" d="M115.333,104.465"/>
<polyline fill="none" stroke="#000000" stroke-width="5" stroke-miterlimit="10" points="65.667,135.061 122.932,169.815 
	115.333,104.465 "/>
<polyline fill="none" stroke="#000000" stroke-width="5" stroke-miterlimit="10" points="53.333,168 122.932,169.815 
	90.333,111.398 "/>
<line fill="none" stroke="#000000" stroke-width="5" stroke-miterlimit="10" x1="59.667" y1="192" x2="122.932" y2="169.815"/>
<circle cx="115.333" cy="104.465" r="10.313"/>
<circle cx="91.299" cy="111.398" r="10.313"/>
<circle cx="65.667" cy="135.061" r="10.313"/>
<circle cx="53.333" cy="168" r="10.313"/>
<circle cx="59.667" cy="192" r="10.313"/>
<circle cx="147" cy="111.398" r="10.313"/>
<circle cx="173.959" cy="65.786" r="10.313"/>
<circle cx="153.334" cy="91.072" r="10.313"/>
<circle cx="206.667" cy="51.25" r="10.313"/>
<circle cx="232" cy="63.271" r="10.313"/>
<circle cx="238.5" cy="40.5" r="10.313"/>
<circle cx="256.5" cy="24" r="10.313"/>
<circle cx="289.553" cy="13.687" r="10.313"/>
<circle cx="322" cy="24" r="10.313"/>
<circle cx="340.5" cy="40.5" r="10.313"/>
<circle cx="362.667" cy="48.741" r="10.313"/>
<circle cx="385.773" cy="43.333" r="10.313"/>
<circle cx="420" cy="55.667" r="10.313"/>
<circle cx="442.667" cy="77.366" r="10.313"/>
<circle cx="449.333" cy="101.385" r="10.313"/>
<circle cx="485.646" cy="93.412" r="10.313"/>
<circle cx="507.667" cy="94.152" r="10.313"/>
<circle cx="528.292" cy="117.857" r="10.313"/>
<circle cx="538.604" cy="152.264" r="10.313"/>
<circle cx="535.334" cy="177" r="10.313"/>
<polyline points="125.646,171.068 119,187.918 134.25,202.313 "/>
<path d="M150.5,163"/>
<polyline points="128.744,172.499 147,157.687 160.667,160 160.667,165.093 "/>
<polyline points="212.183,119.461 241.75,119.461 249.375,133.375 234.875,133.375 "/>
<polyline points="208.494,120.792 201,146.5 211.333,155.333 211.333,121.574 "/>
<polyline points="298.291,83.299 315.563,93.412 311.688,108.323 301.667,111.398 295.221,86.412 "/>
<polyline points="285.062,81.333 266.813,95.167 271.833,111.398 287.305,83.299 "/>
<polyline points="380.462,120.174 396.086,128.17 388.273,147.167 375.461,128.438 "/>
<polyline points="379.001,107.544 356.834,111.398 352.354,126.473 366.213,117.008 380.071,111.398 "/>
<polyline points="471.771,149.021 449.333,145.333 439.02,155.333 471.509,150.333 "/>
<polyline points="466.83,159.533 475.334,173.333 459.646,190.833 452.979,181.5 464.156,162.577 "/>
<polyline points="282.079,243.288 265.75,249.75 254.196,283 273.25,268 268.138,294 297.471,268.644 294.146,253.216 "/>
<polyline points="305.95,243.288 325.5,243.288 349.75,276.75 324,268.644 320.75,289 299.61,253.764 "/>
</svg>
