<?xml version="1.0" encoding="utf-8"?>
<!-- Generator: Adobe Illustrator 16.0.0, SVG Export Plug-In . SVG Version: 6.00 Build 0)  -->
<!DOCTYPE svg PUBLIC "-//W3C//DTD SVG 1.1//EN" "http://www.w3.org/Graphics/SVG/1.1/DTD/svg11.dtd">
<svg version="1.1" id="Layer_2" xmlns="http://www.w3.org/2000/svg" xmlns:xlink="http://www.w3.org/1999/xlink" x="0px" y="0px"
	 width="595.28px" height="595.28px" viewBox="0 0 595.28 595.28" enable-background="new 0 0 595.28 595.28" xml:space="preserve">
<g>
	<g>
		<path d="M294.5,589c2.532-20.398,2.32-41.179,2.006-61.695c-0.232-15.199-0.764-30.399-1.577-45.579
			c-1.044-19.484-2.159-38.964-3.239-58.446c-1.382-24.941-2.765-49.883-4.147-74.825c-0.57-10.29-2.563-20.577-3.269-30.896
			c-1.011-14.759-1.123-29.564-1.094-44.351c0.058-28.981,0.374-57.894-3.647-86.669c-1.628-11.657-4.462-23.069-6.435-34.662
			c-1.719-10.095-2.944-20.271-3.854-30.469c-1.942-21.779-2.661-44.37,1.509-65.938c1.872-9.683,5.24-18.22,10.833-26.343
			c6.079-8.829,15.431-18.277,26.31-11.272c10.558,6.798,17.082,20.862,19.612,32.676c2.804,13.091,1.479,26.972-0.196,40.118
			c-3.607,28.326-8.786,56.453-12.452,84.778c-3.25,25.11-4.171,50.27-4.859,75.549c-1.205,44.268-1.981,88.548-2.669,132.827
			c-0.779,50.121-0.536,99.974,1.337,150.091c0.686,18.344,1.147,36.883,3.498,55.107c0.406,3.151,5.411,3.191,5,0
			c-4.328-33.559-4.094-68.011-4.872-101.787c-0.398-17.252-0.917-34.519-0.696-51.776c0.443-34.786,0.983-69.571,1.627-104.354
			c0.423-22.813,0.896-45.626,1.471-68.437c0.603-23.971,0.966-47.981,3.379-71.854c2.932-29.006,7.75-57.919,12.284-86.711
			c3.792-24.079,7.873-51.283-5.074-73.413c-4.847-8.283-12.084-17.975-21.981-20.229c-9.258-2.109-17.192,5.089-22.605,11.615
			c-13.009,15.682-16.339,35.198-17.495,54.999c-1.266,21.678,0.462,43.563,3.38,65.044c1.236,9.098,2.92,18.086,4.837,27.062
			c3.292,15.408,5.08,31.085,6.013,46.801c1.723,29.012,0.167,58.101,1.121,87.134c0.56,17.039,3.348,33.793,4.288,50.759
			c2.543,45.897,5.508,91.79,7.566,137.713c1.445,32.23,3.075,65.335-0.909,97.434C289.104,592.194,294.108,592.156,294.5,589
			L294.5,589z"/>
	</g>
</g>
<path d="M273.941,169.033l-5.816,7.717l-5.875,2.875h-6.625l-6.25-3.875l-7-1.421l7.5-3.079c0,0,4.25-0.309,5.375-2.217
	s2.908-5.658,2.908-5.658v-5.625l2.467-4.875l4.711-2.125l5.273,1.315"/>
<polyline points="268.339,136.427 265.336,140.625 259.75,145.375 254.5,147.25 249.25,147.25 242.375,142.875 233.5,136.427 
	239.25,134.75 246.125,131.5 248.625,126.75 250.92,123.375 256.875,123.375 261.875,126 267.649,130.554 "/>
<polyline points="265.729,106.519 260.75,114.125 255.125,117.625 248.625,119.125 243.125,117.125 240.625,112.822 233.5,111.625 
	239,108.875 244.625,104.5 247.25,99.5 250.92,96.75 257.125,96.75 261.5,98.5 265.336,101.75 "/>
<path d="M265.336,80.875L261,85.125l-6,5.5l-7.625,1.75l-7.375-3.5l-6.5-4.375l-4.914-5l4.914-1.875h9l4.461-5.125l3.959-3.75
	c0,0,6.08,0,6.455,0s4.75,2,4.75,2l3.211,4.5"/>
<path d="M267.212,61.459l-4.337,2.791l-7.625,2.375h-8.289l-5.211-3.5L237.875,59l-2.375-7.875v-9.25l4.875,3.625l2.321,2.693
	c0,0,4.265,1.432,5.429,1.057s2.34-1.5,2.795-1.875s5.455-1.875,5.455-1.875l6.125,1.25l6.291,5.913"/>
<polyline points="274.167,36.461 268.791,40.25 262.125,41.875 257,41.875 252.146,36.461 249.614,30 246.961,23.375 242.375,19.5 
	249.614,19.5 256.5,23.625 260.875,20.875 265.729,17.75 270.75,19.25 274.167,22 276.125,25.625 278.096,29.813 "/>
<polyline points="283.064,23.097 276.875,23.097 273.875,19.375 269.875,12.603 267.375,4.25 268.791,1.375 272.125,6.625 
	275.22,9.125 280.375,9.25 286.25,8.375 289.25,9 290.75,12.236 292.077,14.98 "/>
<polyline points="313.099,18.928 321.125,18.928 328.5,17.75 331.535,15 333.125,8.125 331.535,1.375 329.125,5.5 327.625,8.75 
	323.111,10.151 320.5,7.125 317.875,6 313.099,5.375 309.125,7.375 307.625,10.151 307.625,14.744 "/>
<path d="M322.334,30.667l6.791,5.083c0,0,6,1.375,6.375,1.5s7.875,0,7.875,0l6.75-4.75l4-4.125l1.75-5.278V14.5l-2.5,4.428
	l-3.625,6.975h-5L339.104,21l-2.854-2.072h-4.715l-4.91,2.572l-2.75,4.403l-3.5,1.817"/>
<polyline points="330.667,54.25 338.125,57.375 342.25,58.75 348.875,56.5 355.875,52 359.75,47.375 362,37.306 358.75,41.875 
	355.875,45.625 350.625,45.5 346.334,41.875 338.125,40.75 333.125,41.875 328.935,45.702 "/>
<polyline points="331.304,75.281 338.125,80.563 347.75,82.125 355.875,78.703 362,75.281 364.875,66.625 362,68.75 355.875,70.75 
	350.25,66.625 345.467,63.75 341.375,63.75 331.535,66.625 "/>
<polyline points="328.935,96.951 331.304,103.375 334.375,106.375 340.25,107.938 348.09,109.25 355.125,107.938 359.75,105 
	364.875,96.951 359,99.625 353.875,99.25 350.875,96.75 348.09,89.25 345.467,87.5 339.5,87.5 335.625,89.5 329.582,92.375 "/>
<polyline points="324.899,123.375 326.875,132.5 331.535,137 340,137 348.875,135.313 355.75,130.188 357.875,124.875 
	354.625,125.875 346.904,128.875 343.25,125.5 341.387,119.125 338.125,116.5 332.875,116.5 325.333,120.333 "/>
<path d="M320.838,150.75l2.912,11.917L328.5,171l8.833,1.75l9.084-1.583l6.75-4.667l3.75-7.583l-5.167,1.958l-6-0.375l-4.363-2.5
	v-3.375c0,0,1.863-6.875,1.613-7.375s-5.644-4.875-5.644-4.875h-8.773l-6.897,2.715"/>
</svg>
