<?xml version="1.0" encoding="utf-8"?>
<!-- Generator: Adobe Illustrator 16.0.0, SVG Export Plug-In . SVG Version: 6.00 Build 0)  -->
<!DOCTYPE svg PUBLIC "-//W3C//DTD SVG 1.1//EN" "http://www.w3.org/Graphics/SVG/1.1/DTD/svg11.dtd">
<svg version="1.1" id="Layer_2" xmlns="http://www.w3.org/2000/svg" xmlns:xlink="http://www.w3.org/1999/xlink" x="0px" y="0px"
	 width="595.28px" height="595.28px" viewBox="0 0 595.28 595.28" enable-background="new 0 0 595.28 595.28" xml:space="preserve">
<line fill="none" stroke="#000000" stroke-width="6" stroke-miterlimit="10" x1="299.641" y1="31.667" x2="299.64" y2="588.667"/>
<circle cx="282.306" cy="488.668" r="15.334"/>
<circle cx="282.306" cy="424.418" r="15.334"/>
<circle cx="282.306" cy="359.751" r="15.334"/>
<circle cx="282.306" cy="288.75" r="15.334"/>
<circle cx="282.306" cy="222.084" r="15.334"/>
<circle cx="282.306" cy="157.084" r="15.334"/>
<circle cx="280.306" cy="97.435" r="11.153"/>
<circle cx="316.459" cy="75.128" r="11.153"/>
<circle cx="287.465" cy="48.294" r="7.16"/>
<circle cx="305.305" cy="31.667" r="7.16"/>
<polyline points="297.64,512 272.13,510.437 258,504.001 247.999,488.668 233.333,450.333 233.333,494.75 245.5,515.5 
	265.486,528.5 297.64,533.667 "/>
<polyline points="297.64,446.417 272.13,444.854 258,438.418 247.999,423.085 233.333,384.75 233.333,429.167 245.5,449.917 
	265.486,462.917 297.64,468.084 "/>
<polyline points="299.125,383.751 273.616,382.188 259.486,375.752 249.485,360.419 234.818,322.084 234.818,366.501 
	246.986,387.251 266.972,400.251 299.125,405.418 "/>
<polyline points="299.125,315.641 273.616,314.077 259.486,307.642 249.485,292.309 234.818,253.974 234.818,298.391 
	246.986,319.141 266.972,332.141 299.125,337.308 "/>
<polyline points="299.125,248.307 273.616,246.744 259.486,240.308 249.485,224.975 234.819,186.64 234.819,231.057 
	246.986,251.807 266.973,264.807 299.125,269.974 "/>
<polyline points="299.126,181.641 273.617,180.077 259.487,173.642 249.486,158.309 234.82,119.974 234.82,164.391 246.987,185.141 
	266.974,198.141 299.126,203.308 "/>
<path d="M301.125,459.155c0,8.469,6.865,15.333,15.334,15.333c8.468,0,15.333-6.864,15.333-15.333
	c0-8.47-6.865-15.334-15.333-15.334C307.99,443.821,301.125,450.686,301.125,459.155L301.125,459.155z"/>
<path d="M301.126,394.905c0,8.469,6.864,15.333,15.333,15.333c8.468,0,15.334-6.864,15.334-15.333
	c0-8.47-6.865-15.334-15.333-15.334C307.991,379.571,301.126,386.436,301.126,394.905L301.126,394.905z"/>
<path d="M301.126,330.238c0,8.469,6.865,15.333,15.334,15.333c8.468,0,15.333-6.864,15.333-15.333
	c0-8.47-6.865-15.334-15.333-15.334C307.991,314.904,301.126,321.769,301.126,330.238L301.126,330.238z"/>
<path d="M301.127,259.238c0,8.469,6.865,15.333,15.334,15.333c8.468,0,15.333-6.864,15.333-15.333
	c0-8.47-6.865-15.334-15.333-15.334C307.992,243.904,301.127,250.768,301.127,259.238L301.127,259.238z"/>
<path d="M301.128,192.571c0,8.469,6.864,15.333,15.333,15.333c8.468,0,15.334-6.864,15.334-15.333
	c0-8.47-6.865-15.334-15.333-15.334C307.993,177.237,301.128,184.102,301.128,192.571L301.128,192.571z"/>
<path d="M301.128,127.571c0,8.469,6.865,15.333,15.334,15.333c8.468,0,15.333-6.864,15.333-15.333
	c0-8.47-6.865-15.334-15.333-15.334C307.993,112.237,301.128,119.102,301.128,127.571L301.128,127.571z"/>
<polygon points="301.125,482.487 326.635,480.924 340.765,474.488 350.766,459.156 365.433,420.821 365.433,465.238 
	353.265,485.988 333.278,498.987 301.124,504.154 "/>
<polygon points="301.125,416.904 326.635,415.341 340.765,408.905 350.767,393.573 365.434,355.238 365.434,399.655 
	353.265,420.405 333.278,433.404 301.125,438.571 "/>
<polygon points="299.641,354.238 325.15,352.675 339.279,346.239 349.281,330.906 363.948,292.572 363.947,336.989 351.779,357.739 
	331.793,370.738 299.641,375.905 "/>
<polygon points="299.642,286.128 325.151,284.564 339.28,278.129 349.282,262.796 363.948,224.461 363.948,268.878 351.78,289.628 
	331.794,302.629 299.641,307.795 "/>
<polygon points="299.642,218.794 325.15,217.231 339.28,210.796 349.282,195.463 363.949,157.128 363.949,201.545 351.78,222.295 
	331.794,235.295 299.642,240.461 "/>
<polygon points="299.642,152.128 325.15,150.564 339.28,144.129 349.281,128.796 363.948,90.461 363.947,134.878 351.78,155.628 
	331.794,168.628 299.642,173.795 "/>
<polyline points="299.642,119.974 276.333,119.974 255.667,108.588 252,86.281 261.667,64.669 252,72.002 241.667,90.461 
	241.667,112.237 266.972,132.128 299.642,138.002 "/>
<path d="M299.642,90.461h16.819l15.334-4.18L337,64.669l-5.207-16.375c0,0,8.207,8.944,9.207,7.16s7.333,13.924,7.333,13.924
	l-4,16.903L338,101.335l-14.013,7.252h-24.346"/>
<polyline points="299.64,61.833 282.306,61.667 270.654,55.454 270.654,41.134 277,27.333 270.654,27.333 263,41.134 263,63.975 
	275,71.669 287.465,78.441 299.127,78.441 "/>
<polyline points="299.64,55.454 310.5,50 314.834,41.134 316.461,32.167 311.5,20.334 305.306,10.167 313.334,15.167 
	320.834,27.333 323.987,38.334 321.5,48.294 316.459,57.667 305.306,64.669 299.64,67.167 "/>
<path d="M299.64,31.667l-5.015-2c0,0-5.125-5.333-4.958-6.333s0.584-7.333,1.792-8.167s7.668-8.5,7.668-8.5l-7.668,2.167
	L285.5,19.167v12.5l5.959,5.667l8.183,3.8"/>
</svg>
