<?xml version="1.0" encoding="utf-8"?>
<!-- Generator: Adobe Illustrator 16.0.0, SVG Export Plug-In . SVG Version: 6.00 Build 0)  -->
<!DOCTYPE svg PUBLIC "-//W3C//DTD SVG 1.1//EN" "http://www.w3.org/Graphics/SVG/1.1/DTD/svg11.dtd">
<svg version="1.1" id="Layer_2" xmlns="http://www.w3.org/2000/svg" xmlns:xlink="http://www.w3.org/1999/xlink" x="0px" y="0px"
	 width="595.28px" height="595.28px" viewBox="0 0 595.28 595.28" enable-background="new 0 0 595.28 595.28" xml:space="preserve">
<polyline fill="none" stroke="#000000" stroke-width="6" stroke-miterlimit="10" points="288,21 288,428.5 288,595.28 "/>
<line fill="none" stroke="#000000" stroke-width="5" stroke-miterlimit="10" x1="211.5" y1="332.5" x2="288" y2="428.5"/>
<line fill="none" stroke="#000000" stroke-width="5" stroke-miterlimit="10" x1="368" y1="397" x2="288" y2="483.5"/>
<line fill="none" stroke="#000000" stroke-width="5" stroke-miterlimit="10" x1="368" y1="274.5" x2="288" y2="362.5"/>
<line fill="none" stroke="#000000" stroke-width="5" stroke-miterlimit="10" x1="222.5" y1="232.5" x2="288" y2="318.5"/>
<line fill="none" stroke="#000000" stroke-width="5" stroke-miterlimit="10" x1="356" y1="179.5" x2="288" y2="248"/>
<line fill="none" stroke="#000000" stroke-width="5" stroke-miterlimit="10" x1="240" y1="151.5" x2="288" y2="213.75"/>
<line fill="none" stroke="#000000" stroke-width="5" stroke-miterlimit="10" x1="328" y1="104.5" x2="288" y2="146.5"/>
<line fill="none" stroke="#000000" stroke-width="5" stroke-miterlimit="10" x1="249.75" y1="76.5" x2="288" y2="117"/>
<line fill="none" stroke="#000000" stroke-width="5" stroke-miterlimit="10" x1="328" y1="27.5" x2="288" y2="64.5"/>
<circle cx="317.167" cy="356.167" r="15.5"/>
<circle cx="360.167" cy="308.141" r="15.5"/>
<circle cx="383.5" cy="274.5" r="15.5"/>
<circle cx="314.141" cy="432.5" r="15.5"/>
<circle cx="317.167" cy="476.5" r="15.5"/>
<circle cx="380.833" cy="399.334" r="14.333"/>
<circle cx="249.75" cy="407.002" r="14.333"/>
<circle cx="263" cy="371.667" r="14.333"/>
<circle cx="224.5" cy="373.334" r="14.333"/>
<circle cx="231.061" cy="332.501" r="14.333"/>
<circle cx="263" cy="308.141" r="14.333"/>
<circle cx="231.061" cy="269.141" r="14.333"/>
<circle cx="265.083" cy="263.158" r="14.333"/>
<circle cx="231.061" cy="223.491" r="14.333"/>
<circle cx="314.141" cy="243.583" r="14.333"/>
<circle cx="313.14" cy="203.25" r="14.333"/>
<circle cx="246.395" cy="96.75" r="14.333"/>
<circle cx="269.875" cy="118" r="14.333"/>
<circle cx="255.062" cy="64.5" r="14.333"/>
<circle cx="334.667" cy="41.834" r="14.333"/>
<circle cx="334.667" cy="117" r="14.333"/>
<circle cx="327.473" cy="93.167" r="14.333"/>
<circle cx="301.807" cy="34.334" r="14.333"/>
<circle cx="269.875" cy="169.833" r="14.333"/>
<circle cx="321" cy="310.807" r="9.667"/>
<circle cx="340.333" cy="179.5" r="9.667"/>
<circle cx="245.395" cy="146.5" r="9.667"/>
<circle cx="310" cy="59.167" r="9.667"/>
<circle cx="274.75" cy="91.167" r="9.667"/>
<circle cx="323.667" cy="20" r="9.667"/>
<circle cx="357.167" cy="269.5" r="9.667"/>
<circle cx="356" cy="389.668" r="14.333"/>
<circle cx="354.667" cy="433.5" r="14.333"/>
<circle cx="201.228" cy="325.168" r="15.5"/>
<circle cx="313.141" cy="141" r="15.5"/>
<circle cx="368" cy="182.625" r="15.5"/>
<circle cx="344.667" cy="213.75" r="15.5"/>
</svg>
