<?xml version="1.0" encoding="utf-8"?>
<!-- Generator: Adobe Illustrator 16.0.0, SVG Export Plug-In . SVG Version: 6.00 Build 0)  -->
<!DOCTYPE svg PUBLIC "-//W3C//DTD SVG 1.1//EN" "http://www.w3.org/Graphics/SVG/1.1/DTD/svg11.dtd">
<svg version="1.1" id="Layer_2" xmlns="http://www.w3.org/2000/svg" xmlns:xlink="http://www.w3.org/1999/xlink" x="0px" y="0px"
	 width="595.28px" height="595.28px" viewBox="0 0 595.28 595.28" enable-background="new 0 0 595.28 595.28" xml:space="preserve">
<path fill="#FFFFFF" stroke="#000000" stroke-width="5" stroke-miterlimit="10" d="M293.25,591c0,0,2.083-57.001-9.917-97.667
	s-22-141.333-18-204.667c4-63.333,3.41-84,15.705-154s20.934-114,21.294-124.667"/>
<path fill="#FFFFFF" stroke="#000000" stroke-width="5" stroke-miterlimit="10" d="M313,591c0,0-1.396-77.001,13.667-117.667
	S343.216,352,338.194,288.666c-5.021-63.333-4.281-84-19.714-154c-15.434-70-15.695-114-16.147-124.667"/>
<path d="M280.298,481.599l-4.465,9.235l-11.396,2.334l-11.771-3.834l-6.5-7.735h9.667l0.792-4.823l4.374-6.774
	c0,0,5.577-3.569,5.844-3.736s4.989,0.069,4.989,0.069l6.405,5.621"/>
<polyline points="271.132,425.925 263.232,432.668 253,432.668 240.667,429.297 233.5,420.501 242,424.001 248.333,424.168 
	250.667,420.501 252.316,413.834 255,408.834 261.333,408.834 269.505,411.448 "/>
<polyline points="265.925,367.496 259.333,374.834 250.167,377.001 242.5,377.001 236.667,372.248 229,363.168 237.333,367.501 
	241,368.168 244.5,365.834 244.833,360.001 247.462,355.334 252.316,351.668 257.833,351.668 264.438,358.001 "/>
<polyline points="264.461,325.334 259.167,330.001 254.333,333.001 242,333.001 236.833,331.001 232.167,325.334 229,317.668 
	234.667,322.168 241,325.334 245,321.834 244.167,314.001 246.73,309.501 253.333,309.501 260,311.834 264.461,314.695 "/>
<polyline points="265.925,279.084 261,282.667 251.667,286.834 244.5,286.834 236.5,282.959 229,271.001 239.167,275.501 
	244.5,274.501 246.73,271.001 246.73,262.834 251,260.667 259.167,260.667 262.667,264.001 265.925,268.001 "/>
<polyline points="268.669,232.802 264.438,238.334 254.833,242.834 247.462,242.834 239.167,240.001 229,232.802 229,229.001 
	237.333,232.334 244.667,235.918 248.835,231.001 247.462,224.667 251.5,217.667 261.605,217.15 264.438,220.001 269.176,225.501 
	"/>
<polyline points="271.988,195.081 267.875,202.125 262.25,203.875 254.625,203.875 246.125,201.625 236,195.081 233.125,188.875 
	240.75,193 247.625,193.5 249.088,188.875 249.088,184.5 252.557,181.625 258.75,179.75 264.438,179.75 270.5,182.25 
	273.053,186.257 "/>
<polyline points="277.246,157.224 271,162.625 264.438,166.375 258.125,166.375 248.75,161.8 238.75,152.25 244.5,154.5 
	251.625,155.375 255.75,152.25 255.375,145.375 257.998,140.875 266.25,138.375 273.053,141.375 278.682,148.426 "/>
<polyline points="283.961,118.118 276.625,123.625 266.375,123.625 258.716,120.872 249.375,111 258.716,114 264.438,112.875 
	264.438,107.375 266.668,102.125 271.5,100.5 278.682,102 282,104.375 285.039,112.063 "/>
<polyline points="290.195,83.308 285.039,87.625 278.5,90.375 270.5,88.75 262.875,83.308 259.125,78.625 264.438,80.25 
	267.207,78.625 268.75,73.5 272.5,69.625 279.125,69.625 285.039,69.625 287.375,73.875 290.791,80 "/>
<polyline points="294.901,57.152 289.375,61.125 280.625,61.125 269.875,61.125 261.5,54.125 259.125,49.75 264.438,52.125 
	271.125,53.625 274.958,50.875 274.958,45.625 277.013,42.25 285.039,42.25 290.791,44.25 296.206,49.831 "/>
<polyline points="299.51,30.751 293.375,33.5 283.385,33.5 277.666,30.751 270.5,23.625 274.958,25.25 280,23.625 281.5,17.125 
	285.039,14.875 292.375,14.875 296.206,17.625 299.51,24.188 "/>
<polyline points="327.365,471.393 331.167,479.687 336.333,483.334 344.167,479.687 353.5,474.501 359.167,466.205 351.333,470.001 
	345.167,468.667 345.5,462.167 343.266,455.167 337.5,455.167 331.134,458.621 "/>
<polyline points="337.544,420.751 340.786,425.501 347,427.501 353.5,427.501 361.5,420.751 365.833,413.167 359.167,417.001 
	351.688,420.334 350,414.834 351.688,408.834 351.688,404.667 343.266,402.501 339.021,404.669 "/>
<polyline points="340.636,369.689 345.334,375.168 351.688,377.001 360.167,377.001 367.375,371.125 371.453,361.168 
	365.833,364.334 359.75,365.625 357.042,360.906 358.25,354.25 354.301,350.867 348.875,347.875 340.786,349.668 "/>
<polyline points="340.12,321.309 346,328.833 356.045,328.833 363.833,325.07 371.453,313.167 365.833,317.333 356.045,319.667 
	351.688,316.5 355.787,311 355.787,304.167 351.688,300.5 340.12,300.5 "/>
<polyline points="337.207,275.831 344,279.667 352.667,279.667 360.834,275.831 369.167,264.667 362,268.667 355.787,268.667 
	355.787,260.167 351,255.833 345.334,255.833 335.948,258.54 "/>
<polyline points="333.504,226.97 340.786,233.5 350.333,233.5 358.667,230.235 365.333,221.667 365.333,215.167 360,219.833 
	354.833,219.833 352.558,211 346.5,207.833 338.5,207.833 332.09,212.805 "/>
<polyline points="328.521,186.357 336.333,191.813 351.5,190.667 359.833,183.333 365.333,175.167 357.167,179 351.142,179.95 
	348.711,175.167 346.927,168.833 338.833,166.375 328.521,166.375 325.824,170.668 "/>
<path d="M321.56,149.003l8.107,3.372h11.119l8.714-3.372l9.334-12.336l-9.5,4.5l-6-0.833l-0.5-5.5l-5-5.667c0,0-8.167-0.333-8.667,0
	s-5.333,4.333-5.333,4.333l-4.038,7.197"/>
<polyline points="313.831,112.063 321.56,118.333 330.833,120.167 339.314,116.114 348.833,108.833 348.833,100.5 339.314,107 
	334.667,100.5 329.749,93.833 321.56,93.833 315.667,97.667 311.717,100.5 "/>
<polyline points="308.434,80 319.796,88.5 324,88.5 332.167,88.5 339.314,84.25 344.167,76.5 337,80 330.275,78.167 330.275,71.667 
	323.334,67.833 316.334,67.833 311.717,69.625 307.641,74.382 "/>
<polyline points="305.283,54.952 309.334,59.333 315.667,63.333 325.904,63.333 333.167,59.143 339.314,51.688 340.786,47.833 
	332.5,51.688 325.904,49.667 323.035,43.833 313.334,43.833 304.684,48.982 "/>
<polyline points="303.168,29.5 309.833,33.5 319.796,33.5 325.904,31.5 333.333,24.188 333.333,19.667 325.904,24.188 
	321.56,23.041 319.796,16.667 316.5,14.875 309.333,12.833 302.501,14.875 "/>
</svg>
