<?xml version="1.0" encoding="utf-8"?>
<!-- Generator: Adobe Illustrator 16.0.0, SVG Export Plug-In . SVG Version: 6.00 Build 0)  -->
<!DOCTYPE svg PUBLIC "-//W3C//DTD SVG 1.1//EN" "http://www.w3.org/Graphics/SVG/1.1/DTD/svg11.dtd">
<svg version="1.1" id="Layer_2" xmlns="http://www.w3.org/2000/svg" xmlns:xlink="http://www.w3.org/1999/xlink" x="0px" y="0px"
	 width="595.28px" height="595.28px" viewBox="0 0 595.28 595.28" enable-background="new 0 0 595.28 595.28" xml:space="preserve">
<line fill="#FFFFFF" stroke="#000000" stroke-width="6" stroke-miterlimit="10" x1="216.5" y1="377" x2="343" y2="588.5"/>
<line fill="#FFFFFF" stroke="#000000" stroke-width="6" stroke-miterlimit="10" x1="376.5" y1="297.642" x2="279.75" y2="482.75"/>
<line fill="#FFFFFF" stroke="#000000" stroke-width="5" stroke-miterlimit="10" x1="247" y1="233.5" x2="330.768" y2="385.14"/>
<line fill="#FFFFFF" stroke="#000000" stroke-width="5" stroke-miterlimit="10" x1="364" y1="160" x2="279.75" y2="292.786"/>
<line fill="#FFFFFF" stroke="#000000" stroke-width="5" stroke-miterlimit="10" x1="328.125" y1="216.542" x2="268" y2="132.5"/>
<line fill="#FFFFFF" stroke="#000000" stroke-width="4" stroke-miterlimit="10" x1="337" y1="83.5" x2="294.142" y2="169.041"/>
<line fill="#FFFFFF" stroke="#000000" stroke-width="4" stroke-miterlimit="10" x1="268" y1="49.5" x2="315.57" y2="126.271"/>
<line fill="#FFFFFF" stroke="#000000" stroke-width="4" stroke-miterlimit="10" x1="304.903" y1="18.315" x2="291.785" y2="87.885"/>
<circle cx="216.5" cy="377" r="11.696"/>
<circle cx="376.5" cy="297.642" r="11.696"/>
<circle cx="247" cy="233.5" r="11.696"/>
<circle cx="364" cy="160" r="11.696"/>
<circle cx="268" cy="132.5" r="11.696"/>
<circle cx="337" cy="83.5" r="11.696"/>
<circle cx="268" cy="49.5" r="11.696"/>
<circle cx="304.903" cy="18.315" r="11.696"/>
<polyline points="281.82,71.804 268,71.804 256.304,87.885 269.062,83.5 286.803,79.845 "/>
<polyline points="286.803,126.271 294.142,114.333 308.174,114.333 312.183,120.804 "/>
<polyline points="299.492,158.361 312.183,152.333 321.875,152.333 330.768,169.041 297.64,162.059 "/>
<polyline points="325.304,212.599 310.256,204.667 302.977,204.667 291.785,219.25 "/>
<polyline points="284.09,285.945 299.492,275.75 315.57,275.75 330.768,290.25 281.359,290.25 "/>
<polyline points="324.704,374.163 311.25,365.304 297.64,365.304 285.5,381.25 328.125,380.355 "/>
<polyline points="285.5,471.749 302.25,461.75 317.25,461.75 330.768,475.5 283.54,475.5 "/>
</svg>
