<?xml version="1.0" encoding="utf-8"?>
<!-- Generator: Adobe Illustrator 16.0.0, SVG Export Plug-In . SVG Version: 6.00 Build 0)  -->
<!DOCTYPE svg PUBLIC "-//W3C//DTD SVG 1.1//EN" "http://www.w3.org/Graphics/SVG/1.1/DTD/svg11.dtd">
<svg version="1.1" id="Layer_4" xmlns="http://www.w3.org/2000/svg" xmlns:xlink="http://www.w3.org/1999/xlink" x="0px" y="0px"
	 width="595.281px" height="595.281px" viewBox="0 0 595.281 595.281" enable-background="new 0 0 595.281 595.281"
	 xml:space="preserve">
<path fill="none" stroke="#000000" stroke-width="5" stroke-miterlimit="10" d="M302.332,591.679l-4.691-312.222l-1.463-69.875
	c0.395-10.119-6.308-35.333-26.037-53.441c-24.479-22.468-64.282-38.927-79.706-60.141c-18.214-25.051,7.642-42.648,14.374-46.46
	c5.96-3.375,15.466-13.333,80.231-14.026s77.746,4.095,101.079,9.318s33.356,20.905,33.356,20.905
	c1.333,3.224,6.001,25.83-19.999,46.97s-33.524,21.016-54.335,41.184c-13.649,13.228-27.687,17.426-28.676,55.691l-0.324,69.875
	l0.25,312.222"/>
<polyline points="410.83,56.405 424.865,54.313 427.824,51.327 433.57,45.523 435.58,37.455 433.489,28.553 430.931,36.109 
	424.897,39.597 420.279,35.023 412.67,37.257 407.744,42.231 405.769,46.772 406.281,53.015 "/>
<polyline points="391.12,46.165 404.627,41.821 407.062,38.394 411.79,31.733 412.46,23.446 408.952,15.002 407.656,22.873 
	402.269,27.294 396.969,23.532 389.824,26.972 385.772,32.68 384.561,37.481 386.08,43.559 "/>
<polyline points="367.515,40.479 380.368,34.465 382.349,30.758 386.2,23.555 385.82,15.249 381.273,7.315 380.981,15.287 
	376.194,20.353 370.462,17.289 363.808,21.603 360.508,27.776 359.913,32.693 362.187,38.529 "/>
<polyline points="344.003,37.369 356.149,30.032 357.729,26.137 360.796,18.566 359.542,10.348 354.183,2.938 354.734,10.896 
	350.509,16.439 344.486,13.998 338.324,18.99 335.695,25.478 335.622,30.429 338.5,35.993 "/>
<polyline points="322.408,36.151 333.909,27.84 335.164,23.828 337.598,16.031 335.671,7.943 329.722,1 330.925,8.885 
	327.17,14.757 320.967,12.819 315.236,18.301 313.15,24.982 313.484,29.923 316.809,35.232 "/>
<polyline points="303.362,36.585 307.603,31.976 308.837,27.18 308.011,20.229 303.381,13.789 296.928,14.558 294.313,8.097 
	296.94,0.566 289.819,6.302 286.443,13.9 287.407,22.011 287.906,26.185 297.69,36.462 "/>
<polyline points="276.695,36.585 280.937,31.976 282.171,27.18 281.345,20.229 276.715,13.789 270.262,14.558 267.646,8.097 
	270.273,0.566 263.153,6.302 259.777,13.9 260.741,22.011 261.24,26.185 271.023,36.462 "/>
<polyline points="248.028,36.585 252.271,31.976 253.505,27.18 252.679,20.229 248.048,13.789 241.595,14.558 238.979,8.097 
	241.606,0.566 234.486,6.302 231.11,13.9 232.074,22.011 232.573,26.185 242.356,36.462 "/>
<polyline points="220.695,41.906 224.937,37.297 226.171,32.501 225.345,25.55 220.714,19.11 214.261,19.879 211.646,13.418 
	214.273,5.888 207.153,11.623 203.777,19.221 204.741,27.332 205.24,31.506 215.023,41.784 "/>
<polyline points="198.3,53.456 202.542,48.847 203.777,44.051 202.951,37.1 198.32,30.66 191.867,31.429 189.251,24.968 
	191.878,17.438 184.758,23.173 181.382,30.771 182.346,38.882 182.845,43.056 192.628,53.333 "/>
<polyline points="186.687,69.128 188.098,63.025 186.802,58.246 182.649,52.61 175.441,49.299 170.21,53.156 164.745,48.832 
	163.308,40.986 159.951,49.49 160.77,57.764 165.616,64.34 168.112,67.722 181.695,71.824 "/>
<polyline points="422.688,74.261 436.804,75.706 440.411,73.544 447.414,69.342 451.356,62.021 451.531,52.878 447.185,59.567 
	440.475,61.455 437.132,55.881 429.207,56.163 423.204,59.764 420.167,63.675 419.12,69.851 "/>
<path d="M417.324,90.412c0,0,9.397-1.813,12.231-2.98s15-6,19.667-10.833s-2.521,13.459-11.354,17.793s-12.578,4.374-14.778,4.874
	s-11.997,0-11.997,0"/>
<path d="M402.732,109.906c0,0,5.367,3.436,16.388,0s13.854-4.769,19.854-7.436s-8.083,12.003-15.167,13.333
	c-1.192,0.224-8.334,2.167-14.667,2.333s-13.04-2.723-13.04-2.723"/>
<path d="M384.561,124.083c0,0,11.246,2.554,17.246,2.721s8.413,1.446,16.29-1.36s13.215-5.473,13.215-5.473s-8.713,8-12.192,9.667
	s-12.312,3.5-16.646,4.167s-19.666,0.167-21.5,0s-5.043-3.82-5.043-3.82"/>
<path d="M364.852,137.41c0,0,4.703,2.557,11.079,3.391s8.21,1.333,17.043,0s8.833-1.333,8.833-1.333s-2.914,3.5-5.707,5
	s-18.545,3.333-20.169,3.333s-15.791,0-15.791,0l-5.08-2.891"/>
<path d="M188.263,89.014c0,0-9.481-1.306-12.374-2.318c-2.893-1.014-15.301-5.186-20.221-9.762
	c-4.92-4.575,3.241,13.305,12.294,17.157s12.795,3.691,15.02,4.072c2.224,0.381,11.979-0.645,11.979-0.645"/>
<path d="M203.881,107.696c0,0-5.175,3.719-16.364,0.881c-11.189-2.839-14.091-4.018-20.225-6.358
	c-6.135-2.34,8.716,11.552,15.861,12.499c1.203,0.16,8.438,1.716,14.771,1.542c6.333-0.174,12.875-3.42,12.875-3.42"/>
<path d="M222.788,120.875c0,0-11.093,3.154-17.075,3.644c-5.983,0.489-8.324,1.896-16.34-0.482
	c-8.017-2.379-13.49-4.755-13.49-4.755s9.13,7.521,12.695,8.997c3.564,1.478,12.481,2.833,16.845,3.267
	c4.364,0.433,19.646-0.892,21.469-1.156s4.831-4.085,4.831-4.085"/>
<path d="M243.184,133.125c0,0-4.559,2.806-10.881,3.98c-6.322,1.175-8.126,1.773-17.019,0.916c-8.891-0.856-8.891-0.856-8.891-0.856
	s3.098,3.338,5.967,4.686c2.869,1.349,18.697,2.332,20.319,2.245s15.768-0.849,15.768-0.849l4.918-3.159"/>
</svg>
