<?xml version="1.0" encoding="utf-8"?>
<!-- Generator: Adobe Illustrator 16.0.0, SVG Export Plug-In . SVG Version: 6.00 Build 0)  -->
<!DOCTYPE svg PUBLIC "-//W3C//DTD SVG 1.1//EN" "http://www.w3.org/Graphics/SVG/1.1/DTD/svg11.dtd">
<svg version="1.1" id="Layer_2" xmlns="http://www.w3.org/2000/svg" xmlns:xlink="http://www.w3.org/1999/xlink" x="0px" y="0px"
	 width="628.618px" height="595.28px" viewBox="0 0 628.618 595.28" enable-background="new 0 0 628.618 595.28"
	 xml:space="preserve">
<line fill="#FFFFFF" stroke="#000000" stroke-width="7" stroke-miterlimit="10" x1="318.003" y1="248.333" x2="318.003" y2="595.28"/>
<path fill="#FFFFFF" stroke="#000000" stroke-width="7" stroke-miterlimit="10" d="M134.67,126.333"/>
<path fill="none" stroke="#000000" stroke-width="7" stroke-miterlimit="10" d="M134.67,126.333"/>
<polyline fill="none" stroke="#000000" stroke-width="7" stroke-miterlimit="10" points="134.67,126.333 318.003,326.334 
	498.003,109.667 "/>
<line fill="none" stroke="#000000" stroke-width="5" stroke-miterlimit="10" x1="170.672" y1="165.609" x2="178.67" y2="21.667"/>
<line fill="none" stroke="#000000" stroke-width="5" stroke-miterlimit="10" x1="14.336" y1="171" x2="162.827" y2="157.05"/>
<line fill="none" stroke="#000000" stroke-width="5" stroke-miterlimit="10" x1="25.836" y1="126.333" x2="71.723" y2="165.609"/>
<path fill="none" stroke="#000000" stroke-width="5" stroke-miterlimit="10" d="M25.836,212c0.5-3,35-46.391,35-46.391"/>
<line fill="none" stroke="#000000" stroke-width="5" stroke-miterlimit="10" x1="175.855" y1="72.328" x2="134.67" y2="45"/>
<path fill="none" stroke="#000000" stroke-width="5" stroke-miterlimit="10" d="M215.836,34"/>
<line fill="none" stroke="#000000" stroke-width="5" stroke-miterlimit="10" x1="175.855" y1="68.001" x2="215.836" y2="34"/>
<line fill="none" stroke="#000000" stroke-width="5" stroke-miterlimit="10" x1="416.336" y1="34" x2="454.061" y2="68.001"/>
<line fill="none" stroke="#000000" stroke-width="5" stroke-miterlimit="10" x1="482.336" y1="34" x2="454.988" y2="76.005"/>
<polyline fill="none" stroke="#000000" stroke-width="5" stroke-miterlimit="10" points="613.836,133.5 458.639,157.05 451.336,15 
	"/>
<line fill="none" stroke="#000000" stroke-width="5" stroke-miterlimit="10" x1="557.125" y1="142.105" x2="585.336" y2="100"/>
<circle cx="25.837" cy="212" r="12.333"/>
<circle cx="25.837" cy="126.333" r="12.333"/>
<circle cx="14.336" cy="171" r="12.333"/>
<circle cx="134.67" cy="126.333" r="12.333"/>
<circle cx="134.67" cy="45" r="12.333"/>
<circle cx="178.67" cy="20.334" r="12.333"/>
<circle cx="215.836" cy="34" r="12.333"/>
<circle cx="416.337" cy="34" r="12.333"/>
<circle cx="454.062" cy="15" r="12.333"/>
<circle cx="482.337" cy="34" r="12.333"/>
<circle cx="498.003" cy="109.667" r="12.333"/>
<circle cx="585.337" cy="100" r="12.333"/>
<circle cx="613.837" cy="133.5" r="12.333"/>
<circle cx="604.867" cy="172.816" r="12.333"/>
<circle cx="318.003" cy="248.333" r="12.333"/>
<line fill="none" stroke="#000000" stroke-width="5" stroke-miterlimit="10" x1="604.867" y1="172.816" x2="571.231" y2="139.965"/>
<polyline points="170.672,149.5 194.336,145.971 208.586,164.025 171.031,159.15 "/>
<polyline points="166.023,160.537 150.086,171 170.672,199.25 172.862,167.998 "/>
<polyline points="63.612,158.667 71.723,141.5 83.086,138.667 96.086,138.667 69.873,164.025 "/>
<polyline points="63.612,166.371 71.723,188.805 96.086,193.25 88.582,183.333 74.586,165.609 "/>
<polyline points="170.672,68.889 150.086,78.333 150.086,101.667 175.855,78 "/>
<polyline points="180.391,64.144 201.503,77.5 201.503,96 175.855,78 "/>
<polyline points="446.344,61.046 428.67,73.5 428.67,92.25 451.336,65.545 "/>
<polyline points="466.395,58.485 482.336,68.001 482.336,87.667 462.586,76.648 460.199,68.001 "/>
<polyline points="458.639,157.05 447.836,145.833 435.199,145.833 419.586,160.483 455.787,160.483 "/>
<polyline points="562.89,133.5 549.086,117 528.836,121.053 545.864,137.5 553.704,142.625 "/>
<polyline points="562.89,141.231 560.336,164.75 548.836,172.816 528.836,172.816 548.836,149.25 548.742,143.378 "/>
<polyline points="460.199,155.172 471.268,171.167 471.268,185.149 454.988,197.333 453.875,162.784 "/>
<polyline points="318.003,329.25 305.67,326.334 292.336,342.5 295.586,358.5 318.003,334.25 "/>
<polyline points="318.003,325.167 332.898,322.251 349.003,338.417 345.078,354.417 318.003,330.167 "/>
</svg>
