<?xml version="1.0" encoding="utf-8"?>
<!-- Generator: Adobe Illustrator 16.0.0, SVG Export Plug-In . SVG Version: 6.00 Build 0)  -->
<!DOCTYPE svg PUBLIC "-//W3C//DTD SVG 1.1//EN" "http://www.w3.org/Graphics/SVG/1.1/DTD/svg11.dtd">
<svg version="1.1" id="Layer_4" xmlns="http://www.w3.org/2000/svg" xmlns:xlink="http://www.w3.org/1999/xlink" x="0px" y="0px"
	 width="595.281px" height="595.281px" viewBox="0 0 595.281 595.281" enable-background="new 0 0 595.281 595.281"
	 xml:space="preserve">
<path fill="none" stroke="#000000" stroke-width="4" stroke-miterlimit="10" d="M325.475,537.475c0,0-7.666-12.001-16-59.334
	s-5.834-131.5-3.334-162.5s12.167-198.333,16.667-225.833s9.068-51.504,8.333-60.333c-1-12-7.5-14.833-23-1.333s-24.5,72-25.5,80
	s-1.5,269-1.5,269l4.667,139.333c0,0-1.667,3.668,5.667,9.334s12.667,7.334,11,13s-5.334,11.666-3.667,18.333s13.333,1.001,17-3.333
	S325.475,537.475,325.475,537.475z"/>
<path fill="none" stroke="#000000" stroke-width="3" stroke-miterlimit="10" d="M314.141,39.474c0,0-20,62.667-23.333,128.667
	s3.333,235.333,3.333,235.333s10.668,103.333,17.334,128"/>
</svg>
