<?xml version="1.0" encoding="utf-8"?>
<!-- Generator: Adobe Illustrator 16.0.0, SVG Export Plug-In . SVG Version: 6.00 Build 0)  -->
<!DOCTYPE svg PUBLIC "-//W3C//DTD SVG 1.1//EN" "http://www.w3.org/Graphics/SVG/1.1/DTD/svg11.dtd">
<svg version="1.1" id="Layer_4" xmlns="http://www.w3.org/2000/svg" xmlns:xlink="http://www.w3.org/1999/xlink" x="0px" y="0px"
	 width="595.281px" height="595.281px" viewBox="0 0 595.281 595.281" enable-background="new 0 0 595.281 595.281"
	 xml:space="preserve">
<path fill="none" stroke="#000000" stroke-width="3" stroke-miterlimit="10" d="M324.016,495.266c0,0,75.792,53.541,111.125,47.208
	s73.333-43.334,76-81s0.5-113.333-22.5-164.833s-108.75-123.612-119.75-132.75c-47.25-39.25-57.775-42.574-77.417-103.917
	c-23-71.833-37.5-23.333-44.167,15.5c-0.527,3.069-1.167,20.167-27.667,46.667s-84.5,84.5-103,110.5s-50,130.5-27,206
	s36.167,78.166,70.5,92.833s93.667,8.667,111-0.333s41.375-37.5,41.375-37.5"/>
<path fill="none" stroke="#000000" stroke-width="3" stroke-miterlimit="10" d="M172.641,211.391c0,0,15.5,15.75,30.25,38
	s15.25,38.875,15.25,38.875"/>
<path fill="none" stroke="#000000" stroke-width="3" stroke-miterlimit="10" d="M128.141,281.891c0,0,18.5,18.75,44.5,14.75
	s36.75-9.5,41-9.25s27,10,31.5,12s43.75,8.75,45.25,8.25"/>
<path fill="none" stroke="#000000" stroke-width="3" stroke-miterlimit="10" d="M155.891,257.391c0,0,13,8.5,17.25,13.75
	s6.5,24.5,6.5,24.5"/>
<path fill="none" stroke="#000000" stroke-width="3" stroke-miterlimit="10" d="M195.891,197.141c0,0,3.25,19.5,2,30.25
	s-2,12.5-2,12.5"/>
<path fill="none" stroke="#000000" stroke-width="3" stroke-miterlimit="10" d="M272.641,85.141c0,0-3.5,95.5,1.5,131
	s22.5,115.5,26.5,148.5s9.167,63.501,11.5,114.167s0.667,82.666,0.667,82.666s-0.542,5.667,4.208,6.542s9.25,3.375,11.625,3
	s2.5-3.541,2.5-3.541c-1.333-27.807-11-109.007-14.667-151.007s-7.666-66.66-23-123.994s-21-172-21-172"/>
<path fill="none" stroke="#000000" stroke-width="3" stroke-miterlimit="10" d="M454.474,136.474"/>
<path fill="none" stroke="#000000" stroke-width="3" stroke-miterlimit="10" d="M149.474,324.141c0,0,12.333,17,14.667,28
	s18,27.666,30,33s53.667,10,64.333,11s46,1.334,46,1.334"/>
<path fill="none" stroke="#000000" stroke-width="3" stroke-miterlimit="10" d="M133.474,429.141c0,0,14.667,37.668,42,45.334
	s81.667,6,86.667-2.667s21.667-42.001,25.333-46.667s17.333-19.333,17.333-19.333"/>
<path fill="none" stroke="#000000" stroke-width="3" stroke-miterlimit="10" d="M449.475,465.808c0,0-18.333,6.667-44-5
	s-55.333-34.333-63-40.333s-27.667-22.334-27.667-22.334"/>
<path fill="none" stroke="#000000" stroke-width="3" stroke-miterlimit="10" d="M436.808,286.141c0,0-11.333,35-21.333,50.667
	s-49.334,29.333-51.667,30.333s-49,29-49,29"/>
<path fill="none" stroke="#000000" stroke-width="3" stroke-miterlimit="10" d="M457.475,313.141c0,0-12.666-3.332-19-0.666
	s-15,7.333-15,7.333"/>
<path fill="none" stroke="#000000" stroke-width="3" stroke-miterlimit="10" d="M438.808,347.475c0,0-4.667-6.001-12-7.334
	s-13.667,0-13.667,0"/>
<path fill="none" stroke="#000000" stroke-width="3" stroke-miterlimit="10" d="M119.141,352.808c0,0,10,5.999,22,6.333
	s23-5.333,23-5.333"/>
<path fill="none" stroke="#000000" stroke-width="3" stroke-miterlimit="10" d="M144.808,382.141c0,0,10.667,9.334,21.667,8.667
	s23.333-7.667,23.333-7.667"/>
<path fill="none" stroke="#000000" stroke-width="3" stroke-miterlimit="10" d="M178.808,433.141c0,0,12.666,24.333,17.333,30
	s16.333,16.667,16.333,16.667"/>
<path fill="none" stroke="#000000" stroke-width="3" stroke-miterlimit="10" d="M231.474,505.475c0,0,13.667-9,17-12.667
	s11.667-20,11.667-20"/>
<path fill="none" stroke="#000000" stroke-width="3" stroke-miterlimit="10" d="M362.474,434.808c0,0,1,24,7.667,34.333
	s17.334,23.999,18.667,24.333"/>
<path fill="none" stroke="#000000" stroke-width="3" stroke-miterlimit="10" d="M460.474,390.141c0,0-21.666,24.999-34.666,33.333
	s-39,26.667-39,26.667"/>
<path fill="none" stroke="#000000" stroke-width="3" stroke-miterlimit="10" d="M437.141,488.808c0,0-9.999-3.334-14.333-11.334
	s0-10.666,0-10.666"/>
<path fill="none" stroke="#000000" stroke-width="3" stroke-miterlimit="10" d="M229.807,165.141c0,0,19.667,27.667,25,33.333
	s19.667,14,19.667,14"/>
<path fill="none" stroke="#000000" stroke-width="3" stroke-miterlimit="10" d="M307.474,138.474c0,0-1.334,18,0,28.333
	s1.667,12,1.667,12"/>
<path fill="none" stroke="#000000" stroke-width="3" stroke-miterlimit="10" d="M321.808,161.141c0,0-17.001,23.667-23.667,30.333
	c-6.667,6.667-17.667,17-17.667,17"/>
<path fill="none" stroke="#000000" stroke-width="3" stroke-miterlimit="10" d="M389.141,208.808c0,0-7.999,9.667-7.333,23.667
	s1.333,22.667,1.333,22.667s-20,28.25-26.5,34.5s-30,16.25-35.5,17.25s-24.25,0.75-24.25,0.75"/>
<path fill="none" stroke="#000000" stroke-width="3" stroke-miterlimit="10" d="M413.474,250.474c0.334,1.333-12.667,7.667-17,8.333
	s-13.333-3.667-13.333-3.667"/>
<path fill="none" stroke="#000000" stroke-width="3" stroke-miterlimit="10" d="M384.141,288.474c0,0-5.333,3-13,4
	s-14.333-1.667-14.333-1.667"/>
<path fill="none" stroke="#000000" stroke-width="3" stroke-miterlimit="10" d="M467.391,414.391c0,0-0.5,1.25-13.75,3
	s-18.75-0.5-18.75-0.5"/>
</svg>
