<?xml version="1.0" encoding="utf-8"?>
<!-- Generator: Adobe Illustrator 16.0.0, SVG Export Plug-In . SVG Version: 6.00 Build 0)  -->
<!DOCTYPE svg PUBLIC "-//W3C//DTD SVG 1.1//EN" "http://www.w3.org/Graphics/SVG/1.1/DTD/svg11.dtd">
<svg version="1.1" id="Layer_3" xmlns="http://www.w3.org/2000/svg" xmlns:xlink="http://www.w3.org/1999/xlink" x="0px" y="0px"
	 width="595.281px" height="595.281px" viewBox="0 0 595.281 595.281" enable-background="new 0 0 595.281 595.281"
	 xml:space="preserve">
<path fill="none" stroke="#000000" stroke-width="4" stroke-miterlimit="10" d="M269.141,576.808c0,0,13-4.999,13.667-18.666
	s-0.333-30.334-0.333-30.334s-4-3.999-10.333,1.334s-11.333,12.666-18.667,1.333s-0.334-16.334-3.667-23.667s-43.666-43-45.333-52
	s10.666-25.999,24.333-22.666s22,10.666,28.333,10.333s12.333-8.667,13-13.667s-4.25-57.667,0-65.417s17.5-20.75,9-27.75
	s-21.75,14-40.25,11.5s-17.75-16.666-23.75-22.666s-26.33-8.065-51.333-35.5c-12-13.167,15.5-17,28.5-18.333
	s22.167-5.833,37.167-6.5s27-10,24.333-29s-8-35-28.333-48.667s-47.667-34.667-51.667-46.667s-5-22.667-10.667-25.333"/>
<path fill="none" stroke="#000000" stroke-width="4" stroke-miterlimit="10" d="M355.141,565.141c0,0-19.5-19-19.25-45.5
	s10.25-44,13.5-49.5s7.25-12.25,14.75,0.5s15,28.5,22.5,26.5s11.75-11.5,12.75-21.75s-5.5-28.75,7-39.75s28.75-16.5,34.75-18
	s9.5-10.5-5-11.75s-77.75-1.5-87-8s-22.75-37.25-16.75-65s13.25-20.5,16.5-18.25s37.25,24.25,42.25,26.5c0,0-0.25-21,2-32.5
	s5-51,20-60.5s24.5-16,32.25-16c0,0-8.75-8.5-22.25-9.5s-49.75,8.5-60.75,13s-26.5,8.25-33.5,2.5s-18.5-36.5-6.75-49.5
	s29-31.75,28.5-54s8.25-40.25,11.75-45.75c3.247-5.103,3.051-13.862,2.207-18.296c-0.065-0.346-0.135-0.665-0.207-0.954
	c-1-4-10.5-0.75-17.25,2s-34,29-42.5,30.75s-15.25,1-15.25,1s0.5-24.5-1.75-30.5s-19.5-42.5-24.25-47.5c0,0-17,7.5-18.75,19.25
	s-7.25,50-7,57s0.5,12.25,0.5,12.25s-9.25-6.25-14.5-5s-14.25,6.75-22.25,5.75s-40-0.5-40-0.5"/>
<path fill="none" stroke="#000000" stroke-width="4" stroke-miterlimit="10" d="M267.141,70.641c0,0,35.5,157,36,194s8,206,8,216
	s1.5,96,1.5,96"/>
<path fill="none" stroke="#000000" stroke-width="4" stroke-miterlimit="10" d="M303.641,577.141c0,0-7-257.5-9-274.5
	s-8.5-150.5-14-172.5"/>
<path fill="none" stroke="#000000" stroke-width="4" stroke-miterlimit="10" d="M340.641,100.141c0,0-9,25.5-19,37s-33,31.5-33,31.5
	"/>
<path fill="none" stroke="#000000" stroke-width="4" stroke-miterlimit="10" d="M204.641,132.141c0,0,33,9,44.5,16.5
	s37.167,32.333,37.167,32.333"/>
<path fill="none" stroke="#000000" stroke-width="4" stroke-miterlimit="10" d="M196.141,286.641c0,0,35-3.5,60,6s37.5,15,37.5,15"
	/>
<path fill="none" stroke="#000000" stroke-width="4" stroke-miterlimit="10" d="M359.641,270.141c0,0-29,12.5-33.5,15.5
	s-23,19.5-23,19.5"/>
<path fill="none" stroke="#000000" stroke-width="4" stroke-miterlimit="10" d="M250.641,472.641c0,0,46.167,2.251,50.167,15.251"/>
<path fill="none" stroke="#000000" stroke-width="4" stroke-miterlimit="10" d="M413.641,413.141c0,0-17,13.5-24.5,16
	s-24.5-3.5-39.5,1.5s-38.75,42.084-38.75,42.084"/>
</svg>
