<?xml version="1.0" encoding="utf-8"?>
<!-- Generator: Adobe Illustrator 16.0.0, SVG Export Plug-In . SVG Version: 6.00 Build 0)  -->
<!DOCTYPE svg PUBLIC "-//W3C//DTD SVG 1.1//EN" "http://www.w3.org/Graphics/SVG/1.1/DTD/svg11.dtd">
<svg version="1.1" id="Layer_4" xmlns="http://www.w3.org/2000/svg" xmlns:xlink="http://www.w3.org/1999/xlink" x="0px" y="0px"
	 width="595.281px" height="595.281px" viewBox="0 0 595.281 595.281" enable-background="new 0 0 595.281 595.281"
	 xml:space="preserve">
<path fill="none" stroke="#000000" stroke-width="4" stroke-miterlimit="10" d="M306.808,516.808c0,0,22.334-13.667,25-25.667
	s5.666-113.666,4.333-135.666s-7-235.334-7-235.334s-5.5-26.5-19.5-57s-15.5-32.5-19.5-35.5s-11,9-15.5,15.5s-16,26-16,37.5
	s-1.167,352.833-1.167,352.833s2,32.668,9.333,47.334s22,30.667,23.333,31.667c0,0,1.333,11.001-1,16.667s-2.667,21.333,1,24.333
	s18,3.667,22-2s1.668-12.667-0.666-15.834s-5.168-5.667-5.334-10.167S306.808,516.808,306.808,516.808z"/>
<path fill="none" stroke="#000000" stroke-width="3" stroke-miterlimit="10" d="M287.474,48.141c0,0,11.334,304,14,322
	s4,93.333,4,93.333l2.166,52.917"/>
<path fill="none" stroke="#000000" stroke-width="3" stroke-miterlimit="10" d="M288.516,532.016c0,0,8.375-10.125,6.625-22.125
	s-2.5-149-1.75-151.25s0.083-110.167,0.083-110.167l-2-95.667"/>
</svg>
