<?xml version="1.0" encoding="utf-8"?>
<!-- Generator: Adobe Illustrator 16.0.0, SVG Export Plug-In . SVG Version: 6.00 Build 0)  -->
<!DOCTYPE svg PUBLIC "-//W3C//DTD SVG 1.1//EN" "http://www.w3.org/Graphics/SVG/1.1/DTD/svg11.dtd">
<svg version="1.1" id="Layer_4" xmlns="http://www.w3.org/2000/svg" xmlns:xlink="http://www.w3.org/1999/xlink" x="0px" y="0px"
	 width="595.281px" height="595.281px" viewBox="0 0 595.281 595.281" enable-background="new 0 0 595.281 595.281"
	 xml:space="preserve">
<path fill="none" stroke="#000000" stroke-width="3" stroke-miterlimit="10" d="M321.475,500.14c0,0,58.667-37.334,72-88
	s46.667-181.333,42-214.667s-21.334-69.333-32.667-93.333s-23.334-58-54.667-75.333s-106.666-4-127.333,13.333
	s-66,119.333-63.333,180.667s77.333,224.667,89.333,240s52.001,40.666,60.667,41.333"/>
<path fill="none" stroke="#000000" stroke-width="3" stroke-miterlimit="10" d="M306.808,560.807c3.333-23.333-6-221.333-7.333-244
	s-18-114-20-138.667s-3.333-128.667-3.333-128.667s6.667,100.667,9.333,128s19.333,94,19.333,101.333s11.333,130.667,11.333,130.667
	s7.999,142.667,7.333,152.667s-1.5,9.333-3,9.5s-10.332,2.5-12.166-1.5S306.808,560.807,306.808,560.807z"/>
<path fill="none" stroke="#000000" stroke-width="3" stroke-miterlimit="10" d="M362.141,419.474c0,0-13.666,22.668-22.333,29.334
	s-20.667,10.666-20.667,10.666"/>
<path fill="none" stroke="#000000" stroke-width="3" stroke-miterlimit="10" d="M362.141,372.474c0,0-16.667,22.667-20,27.667
	s-24.333,18.667-24.333,18.667"/>
<path fill="none" stroke="#000000" stroke-width="3" stroke-miterlimit="10" d="M402.141,272.476c0,0-6.666,38.667-29.333,64
	s-57.667,55.667-57.667,55.667"/>
<path fill="none" stroke="#000000" stroke-width="3" stroke-miterlimit="10" d="M370.808,256.141c0,0-17.667,25.667-29,37.667
	s-33.333,28-33.333,28"/>
<path fill="none" stroke="#000000" stroke-width="3" stroke-miterlimit="10" d="M387.475,187.474c0,0-11.666,31.333-36,58
	s-46.667,44-45.667,43.667"/>
<path fill="none" stroke="#000000" stroke-width="3" stroke-miterlimit="10" d="M352.808,174.808c0,0-13.666,24.667-23.333,36
	s-34,22-34,22"/>
<path fill="none" stroke="#000000" stroke-width="3" stroke-miterlimit="10" d="M364.475,110.808c0,0-3.001,29-21.334,50.667
	s-52.333,44.667-52.333,44.667"/>
<path fill="none" stroke="#000000" stroke-width="3" stroke-miterlimit="10" d="M322.475,54.475c0,0-0.667,27-8.667,49
	s-30,41.667-30,41.667"/>
<line fill="none" stroke="#000000" stroke-width="3" stroke-miterlimit="10" x1="304.475" y1="76.475" x2="279.474" y2="96.475"/>
<path fill="none" stroke="#000000" stroke-width="3" stroke-miterlimit="10" d="M244.808,79.475c0,0,5.333,14,11.667,20
	s20.667,10,20.667,10"/>
<path fill="none" stroke="#000000" stroke-width="3" stroke-miterlimit="10" d="M213.474,97.142c0,0,12,39.333,29.667,56
	s35,22.667,35,22.667"/>
<path fill="none" stroke="#000000" stroke-width="3" stroke-miterlimit="10" d="M239.474,177.809c0,0,10.667,17.667,26.333,21.667
	s16.333,2.333,16.333,2.333"/>
<path fill="none" stroke="#000000" stroke-width="3" stroke-miterlimit="10" d="M196.891,198.391c0,0,23.5,26,47.25,40
	s46.5,19.5,46.5,19.5"/>
<path fill="none" stroke="#000000" stroke-width="3" stroke-miterlimit="10" d="M248.391,263.141c0,0,7.5,12.5,21.25,18.75
	s25.5,4.25,25.5,4.25"/>
<path fill="none" stroke="#000000" stroke-width="3" stroke-miterlimit="10" d="M196.474,268.808c0,0,17.333,32.333,52.667,56.333
	s51.667,28.334,51.667,28.334"/>
<path fill="none" stroke="#000000" stroke-width="3" stroke-miterlimit="10" d="M267.807,359.808c0,0,7,9.667,21.333,16.667
	s12.333,4.333,12.333,4.333"/>
<path fill="none" stroke="#000000" stroke-width="3" stroke-miterlimit="10" d="M221.807,373.808c0,0,19.333,32.001,41.333,48.667
	s40.667,17.333,40.667,17.333"/>
<path fill="none" stroke="#000000" stroke-width="3" stroke-miterlimit="10" d="M266.141,444.891c0,0,5.25,11,17.25,19.75
	s22,10.5,22,10.5"/>
</svg>
