<?xml version="1.0" encoding="utf-8"?>
<!-- Generator: Adobe Illustrator 16.0.0, SVG Export Plug-In . SVG Version: 6.00 Build 0)  -->
<!DOCTYPE svg PUBLIC "-//W3C//DTD SVG 1.1//EN" "http://www.w3.org/Graphics/SVG/1.1/DTD/svg11.dtd">
<svg version="1.1" id="Layer_4" xmlns="http://www.w3.org/2000/svg" xmlns:xlink="http://www.w3.org/1999/xlink" x="0px" y="0px"
	 width="595.281px" height="595.281px" viewBox="0 0 595.281 595.281" enable-background="new 0 0 595.281 595.281"
	 xml:space="preserve">
<path fill="none" stroke="#000000" stroke-width="4" stroke-miterlimit="10" d="M309.641,521.016c0,0,27.834,11.124,53.167-3.542
	s102.667-81.999,106-140.666s-5.333-173.334-62-256s-80.001-98.667-110.667-96.667c-30.667,2-100.667,54-124,85.333
	s-49.333,119.333-48.667,148.667s-4,183.334,47.333,224.667s120.833,36.874,126.833,36.208"/>
<path fill="none" stroke="#000000" stroke-width="4" stroke-miterlimit="10" d="M294.724,570.975c0,0-5.916-1.834,12.75-46.501
	c18.666-44.667,14.666-102.333,11.999-237s-42-228.667-42-228.667s18.667,66,21.333,94.667s7.333,63.667,7.333,63.667
	s4.667,93.331,4.667,102.998s-2.668,144.668-6.334,159.335s-6.667,49-16.667,67.334s-5.333,23.334-5.333,23.334"/>
<path fill="none" stroke="#000000" stroke-width="4" stroke-miterlimit="10" d="M282.391,569.828c0,0,1,4.313,5.313,4.188
	s6.375,1,7.375-1.125s0.125-2.75,0.125-2.75"/>
<path fill="none" stroke="#000000" stroke-width="4" stroke-miterlimit="10" d="M320.808,457.474c0,0,38.333-26.333,57.333-48.333
	s45.666-55.333,47.333-78"/>
<path fill="none" stroke="#000000" stroke-width="4" stroke-miterlimit="10" d="M437.474,377.808c0,0-17,11.666-29.333,14.333
	s-17,1-17,1"/>
<path fill="none" stroke="#000000" stroke-width="4" stroke-miterlimit="10" d="M409.141,431.808c0,0-20.333,12.332-42.333,12.666
	s-26-2-26-2"/>
<path fill="none" stroke="#000000" stroke-width="4" stroke-miterlimit="10" d="M157.641,339.641c0,0,30.25,60.5,64.5,80.25
	s60.5,32.25,61.25,32.25s23.75,5.5,23.75,5.5"/>
<path fill="none" stroke="#000000" stroke-width="4" stroke-miterlimit="10" d="M161.641,409.391c0,0,11.25,8.5,27,5.75
	s18.75-6.25,18.75-6.25"/>
<path fill="none" stroke="#000000" stroke-width="4" stroke-miterlimit="10" d="M214.141,471.641c0,0,25.25-2.25,33.25-10
	s17.5-18.5,17.5-18.5"/>
<path fill="none" stroke="#000000" stroke-width="4" stroke-miterlimit="10" d="M408.474,196.474c0,0-16.334,52-33,74
	s-37.999,57.666-39.666,59s-14.334,12.334-14.334,12.334"/>
<path fill="none" stroke="#000000" stroke-width="4" stroke-miterlimit="10" d="M433.141,219.807c0,0-7.001,12-12.667,18.667
	s-24.333,15-26.333,16.333s-10.333,2.333-10.333,2.333"/>
<path fill="none" stroke="#000000" stroke-width="4" stroke-miterlimit="10" d="M163.474,241.141c0,0,36,45.334,65,62.667
	s52.667,31,59.667,33s21.333,4.666,21.333,4.666"/>
<path fill="none" stroke="#000000" stroke-width="4" stroke-miterlimit="10" d="M150.474,273.474c0,0,12.333,8.333,27.333,10.333
	s22.333-1.667,22.333-1.667"/>
<path fill="none" stroke="#000000" stroke-width="4" stroke-miterlimit="10" d="M368.891,108.891c0,0-9.5,43.25-12.5,50.25
	s-22.5,40.5-22.75,41.75s-18,23.25-18,23.25"/>
<path fill="none" stroke="#000000" stroke-width="4" stroke-miterlimit="10" d="M381.891,143.141c0,0-4.5,9.25-8,11.25
	s-17.5,4.75-17.5,4.75"/>
<path fill="none" stroke="#000000" stroke-width="4" stroke-miterlimit="10" d="M203.391,133.641c0,0,22.25,40.5,43.25,55.25
	s36.25,23.5,37,23.5s22.375,9.75,22.375,9.75"/>
<path fill="none" stroke="#000000" stroke-width="4" stroke-miterlimit="10" d="M181.891,158.391c0,0,10,7,24.75,8.25s18,0.5,18,0.5
	"/>
<path fill="none" stroke="#000000" stroke-width="4" stroke-miterlimit="10" d="M315.141,62.141c0,0,2.5,22.25,1,34.5s-15,39-15,39"
	/>
<path fill="none" stroke="#000000" stroke-width="4" stroke-miterlimit="10" d="M333.141,78.891c0,0-6.5,12.75-10.25,16.5
	s-7.75,5.5-7.75,5.5"/>
<path fill="none" stroke="#000000" stroke-width="4" stroke-miterlimit="10" d="M233.391,77.141c0,0,14,18,27.5,22.75
	s28.75,8.75,28.75,8.75"/>
</svg>
