<?xml version="1.0" encoding="utf-8"?>
<!-- Generator: Adobe Illustrator 16.0.0, SVG Export Plug-In . SVG Version: 6.00 Build 0)  -->
<!DOCTYPE svg PUBLIC "-//W3C//DTD SVG 1.1//EN" "http://www.w3.org/Graphics/SVG/1.1/DTD/svg11.dtd">
<svg version="1.1" id="Layer_3" xmlns="http://www.w3.org/2000/svg" xmlns:xlink="http://www.w3.org/1999/xlink" x="0px" y="0px"
	 width="595.281px" height="595.281px" viewBox="0 0 595.281 595.281" enable-background="new 0 0 595.281 595.281"
	 xml:space="preserve">
<path fill="none" stroke="#000000" stroke-width="3" stroke-miterlimit="10" d="M246.141,515.475c0,0,98.667,4,154.667-84.667
	s41.333-201.333,32-263.333s-75.333-134-101.333-145.333c0,0-42,33.333-54,40s-64,62.667-73.333,73.333s-58.667,163.334-58,200
	s12.667,108.666,40,139.333s48,37.333,48,37.333"/>
<path fill="none" stroke="#000000" stroke-width="3" stroke-miterlimit="10" d="M330.141,54.141c0,0-0.666,64.667-3.333,105.333
	c-1.446,22.059-9.037,75.079-22.333,131.333c-11.215,47.452-27.544,96.706-37,136.666c-20.667,87.333-68.667,132.667-68.667,132.667
	s-2.667,1.75-0.667,5.75s5.75,6.75,10.5,6s6.833-5.084,6.833-5.084s36.667-41.334,67.333-156
	c11.428-42.73,23.148-83.4,30.667-120.333c12.656-62.175,17.333-113.712,17.333-146.334c0-52-2-76.667-2-76.667"/>
<path fill="none" stroke="#000000" stroke-width="3" stroke-miterlimit="10" d="M360.141,386.808c0,0-24.332,26.667-48.666,41.667
	s-40.334,24-40.334,24"/>
<path fill="none" stroke="#000000" stroke-width="3" stroke-miterlimit="10" d="M385.475,389.808c0,0-26.334,15-35.667,18
	s-12.333,1.333-12.333,1.333"/>
<path fill="none" stroke="#000000" stroke-width="3" stroke-miterlimit="10" d="M178.141,390.141c0,0,20.667,21,28.667,23.667
	s17.666,17.333,20.333,22s25,35.667,25,35.667"/>
<path fill="none" stroke="#000000" stroke-width="3" stroke-miterlimit="10" d="M209.474,390.808c0,0,8,15.333,9.333,22s2,16,2,16"
	/>
<path fill="none" stroke="#000000" stroke-width="3" stroke-miterlimit="10" d="M211.141,293.808c0,0,10.667,41.667,26.333,67.667
	s34.333,44,34.333,44"/>
<path fill="none" stroke="#000000" stroke-width="3" stroke-miterlimit="10" d="M223.807,263.141c0,0-5,26.334-0.667,50.667
	s6,31.667,6,31.667"/>
<path fill="none" stroke="#000000" stroke-width="3" stroke-miterlimit="10" d="M416.474,289.141c0,0-46.333,35.666-54.333,41
	s-38.999,34-42.333,36.667s-30,15.667-30,15.667"/>
<path fill="none" stroke="#000000" stroke-width="3" stroke-miterlimit="10" d="M389.141,291.808c0,0-12.667,13.333-14.667,18
	s-14,21-14,21"/>
<path fill="none" stroke="#000000" stroke-width="3" stroke-miterlimit="10" d="M393.141,185.808c0,0-15.334,28-30.667,44.667
	s-45.499,42.833-45.499,42.833"/>
<path fill="none" stroke="#000000" stroke-width="3" stroke-miterlimit="10" d="M233.474,167.808c0,0,5.667,31,26.667,68
	s41.667,65.667,41.667,65.667"/>
<path fill="none" stroke="#000000" stroke-width="3" stroke-miterlimit="10" d="M281.807,86.141c0,0,5,33.667,21,55.333
	s23.666,29.333,23.666,29.333"/>
<polyline fill="none" stroke="#000000" stroke-width="3" stroke-miterlimit="10" points="374.808,121.141 350.141,150.807 
	330.474,170.141 "/>
<path fill="none" stroke="#000000" stroke-width="3" stroke-miterlimit="10" d="M307.474,62.474c0,0,4.667,16,11.667,22
	s10.333,10,10.333,10"/>
<path fill="none" stroke="#000000" stroke-width="3" stroke-miterlimit="10" d="M299.474,94.474c0,0-2.333,21-2.667,23.333
	s-3.667,9.667-3.667,9.667"/>
<line fill="none" stroke="#000000" stroke-width="3" stroke-miterlimit="10" x1="250.474" y1="149.474" x2="249.807" y2="215.807"/>
<path fill="none" stroke="#000000" stroke-width="3" stroke-miterlimit="10" d="M418.474,202.807c0,0-13.666,13.333-22.666,18
	s-25.667,2-25.667,2"/>
<path fill="none" stroke="#000000" stroke-width="3" stroke-miterlimit="10" d="M393.474,133.141c0,0-9.667,7-18,9.667
	s-17.333,0-17.333,0"/>
</svg>
