<?xml version="1.0" encoding="utf-8"?>
<!-- Generator: Adobe Illustrator 16.0.0, SVG Export Plug-In . SVG Version: 6.00 Build 0)  -->
<!DOCTYPE svg PUBLIC "-//W3C//DTD SVG 1.1//EN" "http://www.w3.org/Graphics/SVG/1.1/DTD/svg11.dtd">
<svg version="1.1" id="Layer_4" xmlns="http://www.w3.org/2000/svg" xmlns:xlink="http://www.w3.org/1999/xlink" x="0px" y="0px"
	 width="595.281px" height="595.281px" viewBox="0 0 595.281 595.281" enable-background="new 0 0 595.281 595.281"
	 xml:space="preserve">
<path fill="none" stroke="#000000" stroke-width="3" stroke-miterlimit="10" d="M278.807,577.475c0,0,10.333-111.333,10-130
	s-7.333-83.001-8.667-87.667s-7-38.167-19.5-55.167s-32.5-33-40-67s-7.5-151.5-0.167-169.167s28.667-55.667,81.333-54.333
	s70.667,26,78,51.333s10.334,120.333,5.667,136.667s-53,105.667-53,105.667s-20.834,42.833-23.334,56.833s-5.5,55-3.5,61.5
	s3.834,99.001,4.167,105.667s0.666,43.667,0.666,43.667s0.833,3.834-2,5.167s-24.333,2.5-24.333,2.5s-2.833,2.334-4-1
	S278.807,577.475,278.807,577.475z"/>
<path fill="none" stroke="#000000" stroke-width="4" stroke-miterlimit="10" d="M304.641,44.641c0,0-7.5,100-7.5,108
	s-2.5,95.5-2,102s-2.5,103-1.5,104.5"/>
<path fill="none" stroke="#000000" stroke-width="3" stroke-miterlimit="10" d="M268.808,55.807c0,0,10.667,21.334,15,25.667
	s16.333,12.667,16.333,12.667"/>
<path fill="none" stroke="#000000" stroke-width="3" stroke-miterlimit="10" d="M337.808,65.141c0,0-7.667,11.333-12.667,15.333
	s-22,13.333-22,13.333"/>
<path fill="none" stroke="#000000" stroke-width="3" stroke-miterlimit="10" d="M246.474,91.807c0,1,23.333,38.333,28.333,41.333
	s22.333,18.333,22.333,18.333"/>
<path fill="none" stroke="#000000" stroke-width="3" stroke-miterlimit="10" d="M356.141,99.474c0,0-23.666,26.666-28.333,31.333
	s-28.333,20.333-28.333,20.333"/>
<path fill="none" stroke="#000000" stroke-width="3" stroke-miterlimit="10" d="M235.141,165.891c0,0,12.5,28,28.5,40.5
	s31,24.75,31,24.75"/>
<path fill="none" stroke="#000000" stroke-width="3" stroke-miterlimit="10" d="M357.391,157.141c0,0-9.75,23-18.5,34.25
	s-42.5,40-42.5,40"/>
<path fill="none" stroke="#000000" stroke-width="3" stroke-miterlimit="10" d="M244.141,225.891c0,0,7.75,22,21.75,33
	s28.25,22,28.25,22"/>
<path fill="none" stroke="#000000" stroke-width="3" stroke-miterlimit="10" d="M359.641,204.641c0,0-21,34.5-28.25,42.75
	s-35.5,34.75-35.5,34.75"/>
</svg>
