<?xml version="1.0" encoding="utf-8"?>
<!-- Generator: Adobe Illustrator 16.0.0, SVG Export Plug-In . SVG Version: 6.00 Build 0)  -->
<!DOCTYPE svg PUBLIC "-//W3C//DTD SVG 1.1//EN" "http://www.w3.org/Graphics/SVG/1.1/DTD/svg11.dtd">
<svg version="1.1" id="Layer_3" xmlns="http://www.w3.org/2000/svg" xmlns:xlink="http://www.w3.org/1999/xlink" x="0px" y="0px"
	 width="595.281px" height="595.281px" viewBox="0 0 595.281 595.281" enable-background="new 0 0 595.281 595.281"
	 xml:space="preserve">
<path fill="none" stroke="#000000" stroke-width="3" stroke-miterlimit="10" d="M292.641,120.891c0,0,8.666-18.667-5.667-36.667
	s-34.667-45.667-83.667-53.333s-123.333,4-123.333,4s17.334,25.667,21.667,31.667s68.667,75.667,95,81.333s55.333-0.333,67-6.333
	S292.641,120.891,292.641,120.891z"/>
<path fill="none" stroke="#000000" stroke-width="3" stroke-miterlimit="10" d="M298.745,119.87c0,0,42.999-73,74.666-86.333
	s90.666-11,109-7.333s31.334-1.333,31.334-1.333s-8.001,18.667-14.334,24s-59.666,78.334-97.666,88.667s-52.334,2.333-62.334,0
	s-16.666-9-27.666-11.333s-14.334-6-14.334-6"/>
<path fill="none" stroke="#000000" stroke-width="3" stroke-miterlimit="10" d="M283.474,263.807c0,0-44.667-46.667-76.333-53
	s-60.667,2-72,5.667s-62.333,35.333-73,36.667s-28.333,0-28.333,0s18.667,23.333,35,34.667s62.667,36.333,109,37.333
	s68-13,80.667-21S283.474,263.807,283.474,263.807z"/>
<path fill="none" stroke="#000000" stroke-width="3" stroke-miterlimit="10" d="M305.141,259.474c0,0,27.999-43.667,56.333-56.333
	s83.333-8.666,100-5.333c15.548,3.109,68.516,3.028,77.994,2.192c0.682-0.061,1.139-0.125,1.34-0.192c3-1-12,17-21.667,24.667
	s-77.001,69-110.667,75.333s-70.666,3-85.333-10S305.141,259.474,305.141,259.474z"/>
<path fill="none" stroke="#000000" stroke-width="3" stroke-miterlimit="10" d="M303.141,411.141c-0.667-1-34.333-41.666-56-47.666
	s-54.667,4.666-65,10.666s-53.333,38.666-66.667,46s-57,27.001-60.667,26.334c0,0,42.667,21.667,49.667,25s53,27,87.667,22.333
	s69.667-19.666,84.333-37.333S303.141,411.141,303.141,411.141z"/>
<path fill="none" stroke="#000000" stroke-width="3" stroke-miterlimit="10" d="M314.891,405.475c0,0-0.334-14.001,20.333-37.334
	s33-44.667,70.667-43s95.999,7.668,118.333,4.334s39.667-7.334,39.667-7.334s-37.001,27.668-48.667,40.334s-64.666,63-88.333,72
	s-60.001,12.333-76.667,1.333S314.891,405.475,314.891,405.475z"/>
<path fill="none" stroke="#000000" stroke-width="3" stroke-miterlimit="10" d="M81.807,449.808c0,0,88.333-9,136-23
	s75-17.667,78.333-17s7,1.333,7,1.333"/>
<path fill="none" stroke="#000000" stroke-width="3" stroke-miterlimit="10" d="M555.225,326.141c0,0-130.333,48-142,51
	s-70.333,18.667-73,20.667s-25.334,7.667-25.334,7.667"/>
<path fill="none" stroke="#000000" stroke-width="3" stroke-miterlimit="10" d="M538.891,203.891c0,0-66.25,28.75-100.75,35
	s-69,14-79,15.25s-23.25,8.75-33,8.75s-21-3.417-21-3.417l-5.666-1.333"/>
<path fill="none" stroke="#000000" stroke-width="3" stroke-miterlimit="10" d="M37.141,255.474c0,0,21.667,15.333,69.667,16.667
	s110.333-3.333,127.667-4.667s49-3.667,49-3.667l7.833-0.667"/>
<path fill="none" stroke="#000000" stroke-width="3" stroke-miterlimit="10" d="M512.078,25.953c0,0-88.75,45-104.75,50.5
	s-54.75,18.25-61.75,23s-39.25,19-42.25,21.25s-3,2.25-3,2.25"/>
<path fill="none" stroke="#000000" stroke-width="3" stroke-miterlimit="10" d="M81.307,34.641c0,0,43.75,27,70.25,33.75
	s74.75,29.5,79,31s60.5,22.5,61.25,22.5"/>
<path fill="none" stroke="#000000" stroke-width="3" stroke-miterlimit="10" d="M182.057,47.141c0,0,16.25,18.5,20,23.5
	s10.75,21.25,10.75,21.25"/>
<path fill="none" stroke="#000000" stroke-width="3" stroke-miterlimit="10" d="M129.057,81.641c0,0,11.25,3.5,19.5,2.75
	s25.5-8.5,25.5-8.5"/>
<path fill="none" stroke="#000000" stroke-width="3" stroke-miterlimit="10" d="M225.307,50.391c0,0,31.75,21.75,39.25,37
	s10,28.5,10,28.5"/>
<path fill="none" stroke="#000000" stroke-width="3" stroke-miterlimit="10" d="M186.807,125.141c0,0,19.25,4.25,40.5-2
	s25.25-15.5,25.25-15.5"/>
<path fill="none" stroke="#000000" stroke-width="3" stroke-miterlimit="10" d="M439.828,23.953c0,0-28.25,21.25-30.75,25.25
	s-18.5,33.25-18.5,33.25"/>
<path fill="none" stroke="#000000" stroke-width="3" stroke-miterlimit="10" d="M471.078,74.703c0,0-21.5,3.75-33.75,3
	s-20.5-5-20.5-5"/>
<path fill="none" stroke="#000000" stroke-width="3" stroke-miterlimit="10" d="M411.078,118.703c0,0-21.25,6-47.75,2
	s-34.5-12.25-34.5-12.25"/>
<path fill="none" stroke="#000000" stroke-width="3" stroke-miterlimit="10" d="M364.578,51.703c0,0-10.25,13.75-17.75,28
	s-10,24.75-10,24.75"/>
<path fill="none" stroke="#000000" stroke-width="3" stroke-miterlimit="10" d="M376.391,208.141c0,0-13.75,4-26.25,22.25
	s-15,31-15,31"/>
<path fill="none" stroke="#000000" stroke-width="3" stroke-miterlimit="10" d="M442.141,204.141c0,0-21.5,9.25-29.25,18.25
	s-18.5,24.75-18.5,24.75"/>
<path fill="none" stroke="#000000" stroke-width="3" stroke-miterlimit="10" d="M413.141,286.391c0,0-21,1.25-37.5-6.75
	s-26.25-22.75-26.25-22.75"/>
<path fill="none" stroke="#000000" stroke-width="3" stroke-miterlimit="10" d="M466.391,257.891c0,0-16.75,0.25-28.5-3.75
	s-19-11.5-19-11.5"/>
<path fill="none" stroke="#000000" stroke-width="3" stroke-miterlimit="10" d="M195.141,222.141c0,0,24.75,5,36.25,17
	s17.75,27.25,17.75,27.25"/>
<path fill="none" stroke="#000000" stroke-width="3" stroke-miterlimit="10" d="M127.141,243.891c0,0,19.75-3,35.5,5.5
	s19,22.25,19,22.25"/>
<path fill="none" stroke="#000000" stroke-width="3" stroke-miterlimit="10" d="M105.891,292.141c0,0,26.75,3.25,35-3.25
	s15-17.25,15-17.25"/>
<path fill="none" stroke="#000000" stroke-width="3" stroke-miterlimit="10" d="M175.891,312.391c0,0,28-2.25,41.75-21
	s12.25-24,12.25-24"/>
<path fill="none" stroke="#000000" stroke-width="3" stroke-miterlimit="10" d="M144.808,415.475c0,0,25.667-8.001,41,0.666
	s18,14.334,18,14.334"/>
<path fill="none" stroke="#000000" stroke-width="3" stroke-miterlimit="10" d="M156.474,471.141c0,0,21.333-5.667,31.667-16
	s14.333-24.666,14.333-24.666"/>
<path fill="none" stroke="#000000" stroke-width="3" stroke-miterlimit="10" d="M206.141,383.808c0,0,31.667-8.001,51.333,6.333
	s23,21.334,23,21.334"/>
<path fill="none" stroke="#000000" stroke-width="3" stroke-miterlimit="10" d="M212.808,481.141c0,0,26.667-5.667,38-30
	s9-34.666,9-34.666"/>
<path fill="none" stroke="#000000" stroke-width="3" stroke-miterlimit="10" d="M396.391,337.141c0,0-18.25,2.5-34,23.25
	s-22.166,37.417-22.166,37.417"/>
<path fill="none" stroke="#000000" stroke-width="3" stroke-miterlimit="10" d="M450.141,342.391c0,0-17.5,6-24.75,13
	s-16.25,23.5-16.25,23.5"/>
<path fill="none" stroke="#000000" stroke-width="3" stroke-miterlimit="10" d="M427.641,420.641c0,0-18,7.25-42.25-5.5
	s-29-23.25-29-23.25"/>
<path fill="none" stroke="#000000" stroke-width="3" stroke-miterlimit="10" d="M469.141,382.641c0,0-9.75,4.5-24,1.75
	s-18.25-11.5-18.25-11.5"/>
<path fill="none" stroke="#000000" stroke-width="4" stroke-miterlimit="10" d="M292.641,121.391c0,0-2.5,120.75-1,143.5
	s11.167,139.25,17.5,164.25s23.833,109.667,40.333,141.334"/>
<path fill="none" stroke="#000000" stroke-width="4" stroke-miterlimit="10" d="M349.308,570.141c0,0-0.001,5.666,5.083,5.833
	s8.584,1.25,9.417-1s-0.917-4.083-0.917-4.083c-26.375-36.375-45.083-144.083-55.083-219.417s-11.542-188.958-11.792-211.083
	s3.375-33,3.375-33"/>
</svg>
