<?xml version="1.0" encoding="utf-8"?>
<!-- Generator: Adobe Illustrator 16.0.0, SVG Export Plug-In . SVG Version: 6.00 Build 0)  -->
<!DOCTYPE svg PUBLIC "-//W3C//DTD SVG 1.1//EN" "http://www.w3.org/Graphics/SVG/1.1/DTD/svg11.dtd">
<svg version="1.1" id="Layer_3" xmlns="http://www.w3.org/2000/svg" xmlns:xlink="http://www.w3.org/1999/xlink" x="0px" y="0px"
	 width="595.281px" height="595.281px" viewBox="0 0 595.281 595.281" enable-background="new 0 0 595.281 595.281"
	 xml:space="preserve">
<path fill="none" stroke="#000000" stroke-width="3" stroke-miterlimit="10" d="M321.475,569.475c0,0,9.334-122.001,14-151.334
	s17.333-250.667,3.333-306s-27.333-67-27.333-67s-7.667-10.667-14.667,1.667c-6.722,11.843-27.5,58.833-28.167,79.833
	s12.167,239.501,18.167,289.501s18.667,136.666,18.667,151.999c0,0-0.332,3.335,1.001,3.501s11.666,1,12.916,0.583
	S321.475,569.475,321.475,569.475z"/>
<path fill="none" stroke="#000000" stroke-width="3" stroke-miterlimit="10" d="M318.808,557.475l-3.478-136.659l-3.189-125.341
	l-5.333-180.667c0,0-9.334,125.334-6.667,192.667s5.333,180,5.333,180l2.917,67.416"/>
<line fill="none" stroke="#000000" stroke-width="3" stroke-miterlimit="10" x1="328.308" y1="404.308" x2="315.33" y2="420.815"/>
<line fill="none" stroke="#000000" stroke-width="3" stroke-miterlimit="10" x1="289.474" y1="407.141" x2="303.975" y2="420.474"/>
<line fill="none" stroke="#000000" stroke-width="3" stroke-miterlimit="10" x1="329.141" y1="258.141" x2="312.141" y2="286.641"/>
<line fill="none" stroke="#000000" stroke-width="3" stroke-miterlimit="10" x1="282.141" y1="262.641" x2="299.308" y2="286.474"/>
<line fill="none" stroke="#000000" stroke-width="3" stroke-miterlimit="10" x1="332.975" y1="151.974" x2="309.475" y2="188.974"/>
<line fill="none" stroke="#000000" stroke-width="3" stroke-miterlimit="10" x1="278.308" y1="151.974" x2="301.641" y2="190.808"/>
</svg>
