<?xml version="1.0" encoding="utf-8"?>
<!-- Generator: Adobe Illustrator 16.0.0, SVG Export Plug-In . SVG Version: 6.00 Build 0)  -->
<!DOCTYPE svg PUBLIC "-//W3C//DTD SVG 1.1//EN" "http://www.w3.org/Graphics/SVG/1.1/DTD/svg11.dtd">
<svg version="1.1" id="Layer_3" xmlns="http://www.w3.org/2000/svg" xmlns:xlink="http://www.w3.org/1999/xlink" x="0px" y="0px"
	 width="595.281px" height="595.281px" viewBox="0 0 595.281 595.281" enable-background="new 0 0 595.281 595.281"
	 xml:space="preserve">
<path fill="none" stroke="#000000" stroke-width="4" stroke-miterlimit="10" d="M309.475,576.141c0,0,0-57.333,0-76
	s14.666-47.333,19.333-64.666s8-119.334,6-147.334s-12.667-70-14-82.667s-13.333-90.667-18-107.333s-4-78.667-4-78.667
	s-4,2.667-5.333,5.333s-11.333,38.666-12.667,55.333s-12.667,88-16,105.333s-4.667,106-4.667,130s11.333,105.999,13.333,120.666
	s13.333,61.333,14.667,82s-2,59.334-2,59.334s-2.125,3.791,4.5,4.791s12.875,2.25,14.875-0.125S309.475,576.141,309.475,576.141z"/>
<path fill="none" stroke="#000000" stroke-width="3" stroke-miterlimit="10" d="M292.808,102.808c0,0-6.667,118.666-5.333,159.333
	s2,171.334,2,171.334l5.333,80l1.333,62.416"/>
<path fill="none" stroke="#000000" stroke-width="3" stroke-miterlimit="10" d="M292.141,140.808c0,0,2.667,70.667,4,80
	s1.333,110.001,1.333,114.667s5.333,130,5.333,134s-1.334,88.666-1.334,88.666"/>
<path fill="none" stroke="#000000" stroke-width="3" stroke-miterlimit="10" d="M274.891,184.391c0.5,0.75,14,15.75,14,15.75"/>
<path fill="none" stroke="#000000" stroke-width="3" stroke-miterlimit="10" d="M302.641,178.141c-1.5,1.75-7.75,11.5-7.75,11.5"/>
<line fill="none" stroke="#000000" stroke-width="3" stroke-miterlimit="10" x1="267.641" y1="236.391" x2="286.891" y2="260.641"/>
<line fill="none" stroke="#000000" stroke-width="3" stroke-miterlimit="10" x1="314.891" y1="233.891" x2="297.141" y2="263.391"/>
<path fill="none" stroke="#000000" stroke-width="3" stroke-miterlimit="10" d="M265.641,309.641c-0.25,1.5,9,17.75,10.75,20.5
	s11.25,13.5,11.25,13.5"/>
<polyline fill="none" stroke="#000000" stroke-width="3" stroke-miterlimit="10" points="320.141,310.641 308.891,336.641 
	298.391,348.891 "/>
</svg>
