<?xml version="1.0" encoding="utf-8"?>
<!-- Generator: Adobe Illustrator 16.0.0, SVG Export Plug-In . SVG Version: 6.00 Build 0)  -->
<!DOCTYPE svg PUBLIC "-//W3C//DTD SVG 1.1//EN" "http://www.w3.org/Graphics/SVG/1.1/DTD/svg11.dtd">
<svg version="1.1" id="Layer_4" xmlns="http://www.w3.org/2000/svg" xmlns:xlink="http://www.w3.org/1999/xlink" x="0px" y="0px"
	 width="595.281px" height="595.281px" viewBox="0 0 595.281 595.281" enable-background="new 0 0 595.281 595.281"
	 xml:space="preserve">
<path fill="none" stroke="#000000" stroke-width="4" stroke-miterlimit="10" d="M261.474,580.807
	c5.333-4,25.333-88.667,28.667-102.667s4-98.667,4-106.667s4-288.666,4-288.666l-12,137.333c0,0-10,152.667-10,160.667
	s-3.333,92.666-2.667,102.666s-32.667,85.334-32.667,85.334s0.333,4.209,1.958,6.209s6.125,7,9.75,6.875
	S261.474,580.807,261.474,580.807z"/>
<path fill="none" stroke="#000000" stroke-width="4" stroke-miterlimit="10" d="M296.807,149.141c0,0,20-16.667,21-19.333"/>
<path fill="none" stroke="#000000" stroke-width="4" stroke-miterlimit="10" d="M296.807,207.474c0,0,15-17.667,23-24
	s15.333-8.667,15.333-8.667"/>
<path fill="none" stroke="#000000" stroke-width="4" stroke-miterlimit="10" d="M258.474,174.474c0,0,9.333,17,13,20.333
	s16.333,9.667,16.333,9.667"/>
<path fill="none" stroke="#000000" stroke-width="4" stroke-miterlimit="10" d="M295.808,314.808c0,0,31.334-32,39.667-38
	s41-33.333,44-34.333"/>
<path fill="none" stroke="#000000" stroke-width="4" stroke-miterlimit="10" d="M369.475,230.474c-0.334,1-12,15.333-12.667,19.333
	s-2.333,10.667-2.333,10.667"/>
<path fill="none" stroke="#000000" stroke-width="4" stroke-miterlimit="10" d="M334.141,277.807c0,0,10.334,7,24.334,9.667
	s33,1,33,1"/>
<path fill="none" stroke="#000000" stroke-width="4" stroke-miterlimit="10" d="M294.808,392.141c0,0,25.333-11.666,39-16.333
	c3.808-1.3,9.374-2.936,15.538-4.742c15.966-4.681,35.947-10.504,39.795-14.592c5.334-5.666,21.668-24.667,22.334-28"/>
<path fill="none" stroke="#000000" stroke-width="4" stroke-miterlimit="10" d="M346.475,373.474c0,0,21.667,13,35,17.667
	s30.666,8.333,34.333,8.333"/>
<path fill="none" stroke="#000000" stroke-width="4" stroke-miterlimit="10" d="M458.141,353.474c0,0-15.666-1.999-29.666-2.666
	s-39.334,5.666-39.334,5.666"/>
<path fill="none" stroke="#000000" stroke-width="4" stroke-miterlimit="10" d="M276.474,384.141c0,0-27-15.001-58.333-22.667
	s-58-7.333-63.667-7.333s-35.667-6.666-39.667-9.333"/>
<path fill="none" stroke="#000000" stroke-width="4" stroke-miterlimit="10" d="M123.807,367.474c0,0,10.667-4.667,22.333-6
	s33.667-7,33.667-7"/>
<path fill="none" stroke="#000000" stroke-width="4" stroke-miterlimit="10" d="M203.474,380.474c0,0,5.667-7.332,13-10.666
	s22-0.667,22-0.667"/>
<path fill="none" stroke="#000000" stroke-width="4" stroke-miterlimit="10" d="M206.641,241.391c0,0,26.5,12,31.75,17.5
	s23,19.75,26.75,22.25s17,6.75,17,6.75"/>
<path fill="none" stroke="#000000" stroke-width="4" stroke-miterlimit="10" d="M241.641,221.891c0,0,0,19.25,4.5,26.5
	s12.5,20.5,12.75,23s2,7,2,7"/>
<path fill="none" stroke="#000000" stroke-width="4" stroke-miterlimit="10" d="M195.141,258.391c0,0,12.75-3,21-0.75
	s23,2.75,23,2.75"/>
<path fill="none" stroke="#000000" stroke-width="4" stroke-miterlimit="10" d="M272.141,469.474c0,0-32-13.333-54-15.333
	s-128-28.666-152.667-25.333s-18.667-22-8-38.667s114-148,135.333-181.333s82-146.667,86-156.667s18-36,18-36s88,120,98,138
	s89.332,140,96.666,150.667s50,87.333,52.667,97.333s2.666,16.667-14.667,22.667s-130.666,31.333-139.333,30s-97.75,14.5-97.75,14.5
	"/>
</svg>
