<?xml version="1.0" encoding="utf-8"?>
<!-- Generator: Adobe Illustrator 16.0.0, SVG Export Plug-In . SVG Version: 6.00 Build 0)  -->
<!DOCTYPE svg PUBLIC "-//W3C//DTD SVG 1.1//EN" "http://www.w3.org/Graphics/SVG/1.1/DTD/svg11.dtd">
<svg version="1.1" id="Layer_3" xmlns="http://www.w3.org/2000/svg" xmlns:xlink="http://www.w3.org/1999/xlink" x="0px" y="0px"
	 width="595.281px" height="595.281px" viewBox="0 0 595.281 595.281" enable-background="new 0 0 595.281 595.281"
	 xml:space="preserve">
<path fill="none" stroke="#000000" stroke-width="4" stroke-miterlimit="10" d="M302.808,577.475
	c-0.667-10.666-3.333-49.334-3.333-49.334s-8.667-137.333-8.667-150.667S280.141,65.141,280.141,65.141l2,199
	c0,0,5.333,211.334,5.333,224s4.667,86.667,4.667,86.667s0.75,1.583,3.75,2.458S302.808,577.475,302.808,577.475z"/>
<path fill="none" stroke="#000000" stroke-width="4" stroke-miterlimit="10" d="M283.141,173.641c0,0,32.5-37,42-54.5
	s11.5-36,11.5-36"/>
<path fill="none" stroke="#000000" stroke-width="4" stroke-miterlimit="10" d="M316.141,72.641c0,0-1.5,30.5-0.5,36s4,20,4,20"/>
<path fill="none" stroke="#000000" stroke-width="4" stroke-miterlimit="10" d="M226.641,101.141c0,0,15,38.5,19.5,48.5
	s21.5,33,24,35s12.5,11,12.5,11"/>
<path fill="none" stroke="#000000" stroke-width="4" stroke-miterlimit="10" d="M239.641,77.141c0,0,4,17,3.5,26s-1.5,37-1.5,37"/>
<path fill="none" stroke="#000000" stroke-width="4" stroke-miterlimit="10" d="M201.641,180.641c0,0,26.5,46,35.5,54
	s44.5,42.5,44.5,42.5"/>
<path fill="none" stroke="#000000" stroke-width="4" stroke-miterlimit="10" d="M212.141,148.641c0,0,2.5,19.5,2.5,24.5
	s-2.5,25.5-2.5,25.5"/>
<path fill="none" stroke="#000000" stroke-width="4" stroke-miterlimit="10" d="M287.641,261.141c0,0,62-57,74-84.5"/>
<path fill="none" stroke="#000000" stroke-width="4" stroke-miterlimit="10" d="M349.641,147.641c0,0-5,14-6,20s2,33,2,33"/>
<path fill="none" stroke="#000000" stroke-width="4" stroke-miterlimit="10" d="M290.141,356.141c0,0,78.5-62.5,101.5-110"/>
<path fill="none" stroke="#000000" stroke-width="4" stroke-miterlimit="10" d="M376.641,228.641c0,0-5,31.5-6,36.5s-0.5,15-0.5,15"
	/>
<path fill="none" stroke="#000000" stroke-width="4" stroke-miterlimit="10" d="M190.141,282.141c0,0,30,45.5,54.5,62.5
	s39.5,25,39.5,25"/>
<path fill="none" stroke="#000000" stroke-width="4" stroke-miterlimit="10" d="M195.141,242.641c0,0,15,27,17,40.5
	s0.5,31.5,0.5,31.5"/>
<path fill="none" stroke="#000000" stroke-width="4" stroke-miterlimit="10" d="M199.141,373.141c0,0,26.5,36,43.5,48.5s43,27,43,27
	"/>
<path fill="none" stroke="#000000" stroke-width="4" stroke-miterlimit="10" d="M381.141,354.641c0,0-22.5,30.5-37,44s-50,35-50,35"
	/>
<path fill="none" stroke="#000000" stroke-width="4" stroke-miterlimit="10" d="M361.891,339.141c0,0,1.5,13-3.5,24.5
	s-13.5,33.75-13.5,33.75"/>
<path fill="none" stroke="#000000" stroke-width="4" stroke-miterlimit="10" d="M210.391,345.641c0,0,7.25,8,7.75,21
	s-2.75,26.25-2.75,26.25"/>
<path fill="none" stroke="#000000" stroke-width="4" stroke-miterlimit="10" d="M287.641,514.641l-6.5-5l-12-2.5l-9.25-7l-15.5,2.75
	l-6.25-16.25l-8.25,0.75l-8.25-5l2.75-6.5l-8.5-8.5l-7.75-1l-4-16.25l-11.25-5.25l-2.5-7.75l-7.5-3l5.5-16.25l-7.75-3.75
	l-10.75-15.25l1.75-6l-5-2l2.75-15.25l-7.25-11.75l-5-4.25l10-14.75l-9.25-14.25l4.25-12.75l3.5-4.75l-8.5-8.75l0.75-16.5l5.75,0.5
	l-4-13l-7.25-3l7.5-18.25l-6.75-6.5l6.25-14.25c0,0-1.25-14.75-2-15s6.25-10.75,6.25-10.75l-6-9.75l9-16l-5-6.5l6.5-5.5v-13.75
	l7.5-4l-1.75-15.5l10.5-8l-4-5.75l2-10.75l5.25,2l2-16.25l7.75-6l1.25-14.75l7-2l0.75-10l10.5-1.5l-1-10.25l8.5-0.25l1-15.5
	l13.25-2.25c0,0,4.25-6.75,4.25-7.5s6.5,1.75,6.5,1.75l5.5-14.25l10,6.75l6.25-8.75l4.5,2.75l4-2.5c2.5,1,26.5,6.5,33.5,12
	s8.5,6.5,15.5,5.5s7.5,0,14,6.5s7,9.5,12,13.5s15,7,12.5,12s1.5,7,1.5,7s5,3,6.5,7s8.5,22,10,23.5s10.5,8,10.5,8s-4,8.5-2.5,10
	s6,9.5,6,9.5l-1,11.5l8,18l6.5,9l-1,10.5l6,9l-2,12l7,13l-2.5,10.5l6.5,11l-4,17l5.5,12.5l-1,11.5l-4.5,7.5l4.5,5.5l0.5,17l-8,4.5
	l7.5,14l-2.5,8l-1.5,11l5.5,11l-5,11l-3,14l1,8l-8,6l-0.5,11l3,8.5l-10,8.5l1,12l-10.5,7.5l0.5,11l-13.5,4l-7,13.5l-5,0.5l-3.5,9.5
	l-7.5,2.5l-8,15.5l-10.5-2.5l-9.5,9.5l-12.5,1l-3.5,9l-8.5-6l-9,7.5"/>
</svg>
