<?xml version="1.0" encoding="utf-8"?>
<!-- Generator: Adobe Illustrator 16.0.0, SVG Export Plug-In . SVG Version: 6.00 Build 0)  -->
<!DOCTYPE svg PUBLIC "-//W3C//DTD SVG 1.1//EN" "http://www.w3.org/Graphics/SVG/1.1/DTD/svg11.dtd">
<svg version="1.1" id="Layer_3" xmlns="http://www.w3.org/2000/svg" xmlns:xlink="http://www.w3.org/1999/xlink" x="0px" y="0px"
	 width="595.281px" height="595.281px" viewBox="0 0 595.281 595.281" enable-background="new 0 0 595.281 595.281"
	 xml:space="preserve">
<path fill="none" stroke="#000000" stroke-width="4" stroke-miterlimit="10" d="M283.141,570.641c0,0-9.5-36-3.5-78s21-94,21-94
	s6-13.5,14.5,0.5s39,46,49,50s65.5,4,96.5-9.5s42-15.5,45.5-20s8.5-16-6-33s-24.5-33.5-36-38.5s-80.5-0.5-86.5-2s-26.5-8.5-7-24.5
	s110.5-55,120.5-71s28.334-81.166,22.667-91.833s-14.001-8.667-19.667-6.333s-52,30.667-67,41.667s-51.999,77.333-59.666,85.333
	s-14,10.333-17,9.667s-10.668-12-2.334-29.667s43.334-101.667,44.667-114s1.833-63.333-10.167-88.833s-12-39-25-34
	s-48.5,35-56.5,69.5s-5.5,110.5-5,123.5s3.5,34.5,1.5,44s-12,24.5-18,26.5s-15-8-15.5-24s-1.5-46.5-6.5-66s-45.5-72.5-56-75.5
	s-29,4-33.5,28s-6.5,64,1,81.5s23.5,43.5,31,52s38.5,39.5,42.5,44s16.5,20.001-6.833,25.667s-47.334,13.667-52.667,17
	s-61,42.833-83.5,68.333s-34.5,47.5-12.5,51s55.5-1,68-5s51-33.5,62-45.5s37-44.5,46.5-47.5s18-3,14.5,11.5s-11,44-12,52.5
	s0.5,96.5,5.5,111.5s5,15,5,15s0.75,3.583,3.167,1.917s5.833-4.25,5.833-4.25s1.667-1.582,0.417-3.416
	S283.141,570.641,283.141,570.641z"/>
<path fill="none" stroke="#000000" stroke-width="3" stroke-miterlimit="10" d="M124.474,449.141c0,0,29.667-2.667,54.667-23.667
	s50-43.333,59-48.333s19.667-17.667,35-14s19.333,7,20,8s24.334,10.001,37.667,15.667s49.667,17.333,62.667,19.333
	s33.333,7.333,41.333,5.333s23.667-4.666,23.667-4.666"/>
<path fill="none" stroke="#000000" stroke-width="3" stroke-miterlimit="10" d="M474.474,206.141c0,0-41.332,48.333-48.666,54.667
	s-53.666,49-59,53s-34.666,22-39,25.333s-35.667,30.667-35.667,30.667"/>
<path fill="none" stroke="#000000" stroke-width="3" stroke-miterlimit="10" d="M193.808,148.807c0,0,1,31,12.333,58
	s35.667,74.333,37.333,76s22.667,46.667,23.667,46.667s12.667,17.334,14.667,21.334s7,18.666,7,18.666"/>
<path fill="none" stroke="#000000" stroke-width="3" stroke-miterlimit="10" d="M347.141,74.641c0,0-1,44.5-6,62s-16.5,70-17.5,73.5
	s-12.5,78-13.5,79.5s-15,76-15,76"/>
</svg>
