<?xml version="1.0" encoding="utf-8"?>
<!-- Generator: Adobe Illustrator 16.0.0, SVG Export Plug-In . SVG Version: 6.00 Build 0)  -->
<!DOCTYPE svg PUBLIC "-//W3C//DTD SVG 1.1//EN" "http://www.w3.org/Graphics/SVG/1.1/DTD/svg11.dtd">
<svg version="1.1" id="Layer_3" xmlns="http://www.w3.org/2000/svg" xmlns:xlink="http://www.w3.org/1999/xlink" x="0px" y="0px"
	 width="595.281px" height="595.281px" viewBox="0 0 595.281 595.281" enable-background="new 0 0 595.281 595.281"
	 xml:space="preserve">
<path fill="none" stroke="#000000" stroke-width="4" stroke-miterlimit="10" d="M294.391,150.057
	c0.25,17-10.25,100.083-11.583,118.083s-11.333,162.667-14,180s10.667,120,10.667,120s0.917,3,1.792,3.625s9.125,3.125,10.375,2.875
	s9.167-1.167,9.167-1.167c-0.666-15.334-21.333-95.333-21.333-121.333s12-140,16-172.667c4-32.667-4-198-4-198"/>
<path fill="none" stroke="#000000" stroke-width="4" stroke-miterlimit="10" d="M280.141,453.475c0,0,28.666-5.335,42-0.001
	s34,31.334,64.667,35.667s64.667,0,67-1c0,0,8.666-31,5.333-44s-23.332-35.333-28.666-39s-0.666-16.334,11-18.667
	s43.667-30.666,46-40.333s-2.667-39.667,15.666-59s13.667-30.667,11.667-35s-16-13.333-32.667-15s-34.999,3.333-49.333,0
	s-41.334,6.333-42.667-38.667s-25.333-51.667-29.333-53.667s-26-17.333-25-40.333s-0.333-27.333-16.333-48s-27-34.333-31.667-35
	s-25.334,11.333-29.667,20.667s-27,41.333-30,55.667s-7.333,35.667-23.667,46s-27.333,16-26.667,45.667s0.583,21.167,0.583,21.167
	s-4.25,18.5-40.75,15s-31,1.25-42.5,2.25s-25.5,10.25-20.5,29.75s10.167,60.833,48.5,78.5s34.667,14,41,17.667
	s23.667,17.667-0.333,29.667s-56.667,20.334-34,42s41.334,31.666,63.667,35.666s46,5.667,55.333,1.667s19.208-10.167,19.208-10.167"
	/>
<path fill="none" stroke="#000000" stroke-width="4" stroke-miterlimit="10" d="M296.474,248.807c0,0,56.333-41,62.333-64"/>
<path fill="none" stroke="#000000" stroke-width="4" stroke-miterlimit="10" d="M332.475,179.474c0,0-6.334,22-6.334,26
	s0.833,17.917,0.833,17.917"/>
<path fill="none" stroke="#000000" stroke-width="4" stroke-miterlimit="10" d="M284.141,249.474c0,0-65-47-72.333-66.667"/>
<path fill="none" stroke="#000000" stroke-width="4" stroke-miterlimit="10" d="M231.808,156.474c0,0-1,23,1,29
	s9.5,27.417,9.167,29.75"/>
<path fill="none" stroke="#000000" stroke-width="4" stroke-miterlimit="10" d="M115.141,258.807c0,0,40.667,13.667,58.333,25.333
	s53,45.666,64,53.333s38.667,18.334,38.667,18.334"/>
<path fill="none" stroke="#000000" stroke-width="4" stroke-miterlimit="10" d="M203.141,250.474c0,0,14.667,31,15.333,44
	s-1,27.667-1,27.667"/>
<path fill="none" stroke="#000000" stroke-width="4" stroke-miterlimit="10" d="M124.808,294.474c0,0,25.333-1,31.667-2.667
	s23.333-3.333,23.333-3.333"/>
<path fill="none" stroke="#000000" stroke-width="4" stroke-miterlimit="10" d="M470.391,266.891c0,0-43,34-46.5,40
	s-27.5,24.5-46.5,26.75s-41,8.75-49.5,10.25s-40.75,16.25-40.75,16.25"/>
<path fill="none" stroke="#000000" stroke-width="4" stroke-miterlimit="10" d="M386.391,279.391c0,0-15.75,12.75-18.25,25
	s-0.5,30.75-0.5,30.75"/>
<path fill="none" stroke="#000000" stroke-width="4" stroke-miterlimit="10" d="M460.891,310.891c0,0-12.75,2.75-21.75,1.75
	s-16.75-3.5-16.75-3.5"/>
<path fill="none" stroke="#000000" stroke-width="4" stroke-miterlimit="10" d="M418.141,439.391c0,0-26.852-23.73-57.383-35.67
	c-2.929-1.146-5.892-2.183-8.867-3.08c-34-10.25-42.25-6.75-46.75-6.25s-21.75,0-21.75,0"/>
<path fill="none" stroke="#000000" stroke-width="4" stroke-miterlimit="10" d="M383.391,450.391c0,0-3.75-23-12.5-31.25
	s-19-18.5-19-18.5"/>
<path fill="none" stroke="#000000" stroke-width="4" stroke-miterlimit="10" d="M273.391,394.641c0,0-27-5.25-36-9s-25,2-29.75,5.25
	s-32.5,28.25-39.75,29.25"/>
<path fill="none" stroke="#000000" stroke-width="4" stroke-miterlimit="10" d="M197.141,419.391c0,0,8.25-21.25,18.5-25.75
	s15.5-9.25,15.5-9.25"/>
</svg>
