<?xml version="1.0" encoding="utf-8"?>
<!-- Generator: Adobe Illustrator 16.0.0, SVG Export Plug-In . SVG Version: 6.00 Build 0)  -->
<!DOCTYPE svg PUBLIC "-//W3C//DTD SVG 1.1//EN" "http://www.w3.org/Graphics/SVG/1.1/DTD/svg11.dtd">
<svg version="1.1" id="Layer_4" xmlns="http://www.w3.org/2000/svg" xmlns:xlink="http://www.w3.org/1999/xlink" x="0px" y="0px"
	 width="595.281px" height="595.281px" viewBox="0 0 595.281 595.281" enable-background="new 0 0 595.281 595.281"
	 xml:space="preserve">
<path fill="none" stroke="#000000" stroke-width="4" stroke-miterlimit="10" d="M303.141,470.891c0,0,44.25,55.75,63.5,69.75
	s57.75,33.5,65.5,31.5s7-10,5.75-15.75s-23.25-46.5-30.75-53.25s-21.5-20-31.5-24.5s-38.5-16.5-39-20.25c0,0-0.75-2.25,1.25-3.5
	s10.75-0.75,16,2.75s105.5,59.5,131.75,53.5s72.5-34,81.25-42.5s11.5-11.25,11.5-11.25s-9.5,6.25-24.5,2.25s-51.25-26.5-62.25-31.5
	s-41.5-8-50-8.5s-39.75-0.5-48.5,3.25s-51.75,9-58.25,10s-9.25-1.5-9.25-1.5s12-10.25,23.5-15.75s126-59,147-102s38-118,33.75-162.5
	c0,0-76.75,34-100.75,59.5s-47,28.833-69,95.833s-19.999,68.668-22.333,72.501s-14.667,30.166-19.167,33.833
	c0,0-3.333-21.334,0.167-32.5s30.602-66.293,37-93.167c6.667-28,17.333-69.333,16.667-111.333
	c-0.51-32.136-20.334-96.167-25.334-109.167s-18-46-18-46s-28.5,35-38,49s-39.333,55.167-44.667,91.833
	c-1.976,13.586-1.667,61.833,4.667,86c4.878,18.613,18.75,65.667,19,67.667s20.5,55.25,19,85.75c0,0-21-14.75-25.75-49.5
	s-38.25-129.25-67.25-157.25s-112.5-94.5-115-95c0,0-4,145.5,23,193s76.5,75,85,81.5s69.5,46.5,76.75,52s13,10.25,13,10.25
	s-8.25-0.5-11-0.75s-17.75-5-24.25-10s-48-33-54.25-36.5s-36.5-22.25-66-23.5s-53.75,16.25-70.25,22.75s-33,27.25-33,27.25
	c3.667,3.667,79,42.667,92.667,45.667s95-5,109.667-4.334s35-1.666,35-1.666s-43.667,17.333-64,25.333s-35.667,34-43,44
	s2.333,16.333,15.667,18s41-3.667,61.333-14s60.667-49.333,60.667-49.333s1.667,65.167,1.5,67.5s0.833,1.999,4.5,2.666
	s8.667-0.832,9.167-3.166s-0.333-60.5,0.5-64.167s0.5-8,0.5-8"/>
<path fill="none" stroke="#000000" stroke-width="3" stroke-miterlimit="10" d="M83.807,408.808c0,0,64.667,4.667,86.667,9
	s41.333,10.333,55.667,12.333s34.667,3,34.667,3"/>
<path fill="none" stroke="#000000" stroke-width="3" stroke-miterlimit="10" d="M69.641,423.266l18.75-14.25
	c0,0-12.75-9.75-16.625-10.625"/>
<path fill="none" stroke="#000000" stroke-width="3" stroke-miterlimit="10" d="M91.016,389.391c0,0,20.25,12.25,21.625,15.75
	s1.625,6.5,1.625,6.5s-12.25,12.75-16.75,13.75"/>
<path fill="none" stroke="#000000" stroke-width="3" stroke-miterlimit="10" d="M112.016,381.016c0,0,25.375,17,28,22.125
	s2.75,10.375,2.75,10.375"/>
<path fill="none" stroke="#000000" stroke-width="3" stroke-miterlimit="10" d="M135.766,414.141c0,0-5.5,8.5-9.375,11.125
	s-9.125,5.5-9.125,5.5"/>
<path fill="none" stroke="#000000" stroke-width="3" stroke-miterlimit="10" d="M142.266,380.141c0,0,23,18.5,26.125,22.125
	s7.5,16.125,7.5,16.125"/>
<path fill="none" stroke="#000000" stroke-width="3" stroke-miterlimit="10" d="M168.141,418.141c0,0-5.75,7.375-9.5,10.5
	s-14.25,7.125-14.25,7.125"/>
<path fill="none" stroke="#000000" stroke-width="3" stroke-miterlimit="10" d="M176.766,393.516c0,0,12.875,12.125,14.75,17
	s1,11.875,1,11.875"/>
<path fill="none" stroke="#000000" stroke-width="3" stroke-miterlimit="10" d="M198.516,424.516c0,0-8.375,11-11.375,12.75
	s-15,7.375-15,7.375"/>
<path fill="none" stroke="#000000" stroke-width="3" stroke-miterlimit="10" d="M200.016,403.641
	c2.375,1.375,17.875,14.625,18.875,16.125s4.875,10.125,4.875,10.125"/>
<path fill="none" stroke="#000000" stroke-width="3" stroke-miterlimit="10" d="M219.391,429.391c0,0-5.75,6.5-9.125,9
	s-19.25,11.125-20,11.25"/>
<path fill="none" stroke="#000000" stroke-width="3" stroke-miterlimit="10" d="M202.808,501.642
	c10.5-10.5,96.167-56.334,96.167-56.334s17.416,20.833,21.166,24.833s66.5,60,68.5,63s9.75,6.75,9.75,6.75"/>
<path fill="none" stroke="#000000" stroke-width="3" stroke-miterlimit="10" d="M214.474,495.308c0,0-1,16.501-0.167,19.834"/>
<path fill="none" stroke="#000000" stroke-width="3" stroke-miterlimit="10" d="M236.641,481.975c0,0-0.333,10.999-0.167,12.833"/>
<line fill="none" stroke="#000000" stroke-width="3" stroke-miterlimit="10" x1="250.807" y1="473.142" x2="250.307" y2="490.142"/>
<path fill="none" stroke="#000000" stroke-width="3" stroke-miterlimit="10" d="M234.474,479.808c0,0-14.667-1-19.5,1.167"/>
<path fill="none" stroke="#000000" stroke-width="3" stroke-miterlimit="10" d="M298.975,445.308l38.416,3.583c0,0,61.5-0.5,93-0.5
	s65,9,65,9s7.585,5.084,9.251,6.417s11.5,4,14,4.833"/>
<path fill="none" stroke="#000000" stroke-width="3" stroke-miterlimit="10" d="M319.474,118.808c0,0-11.332,102.667-10.666,114.667
	s-2.667,104-2.667,104l-4.667,90.666l-1.333,16.5"/>
<path fill="none" stroke="#000000" stroke-width="3" stroke-miterlimit="10" d="M115.641,173.891c0,0,7,19.75,7.5,23.75
	s1,15.75,1,15.75"/>
<path fill="none" stroke="#000000" stroke-width="3" stroke-miterlimit="10" d="M139.391,191.641c0,0,2.75,19,2,26s-3,17.75-3,17.75
	"/>
<path fill="none" stroke="#000000" stroke-width="3" stroke-miterlimit="10" d="M100.391,219.141c0,0,14.5,8.75,17.5,9.75
	s15.25,0.25,15.25,0.25"/>
<path fill="none" stroke="#000000" stroke-width="3" stroke-miterlimit="10" d="M117.141,252.641c0,0,13.75,9.5,19.5,10.25
	s15.75-0.25,15.75-0.25"/>
<path fill="none" stroke="#000000" stroke-width="3" stroke-miterlimit="10" d="M156.141,201.141c0,0,0.75,34-0.75,43
	s-5.25,14-5.25,14"/>
<path fill="none" stroke="#000000" stroke-width="3" stroke-miterlimit="10" d="M126.641,277.641c0,0,13.25,4.75,22,5.5
	s16.5-1.5,16.5-1.5"/>
<path fill="none" stroke="#000000" stroke-width="3" stroke-miterlimit="10" d="M169.641,232.391c0,0,2.25,28.25,1.75,35.75
	s-3.75,18-3.75,18"/>
<path fill="none" stroke="#000000" stroke-width="3" stroke-miterlimit="10" d="M138.141,299.641c0,0,19.25,7,27.5,8.25
	s15.25-2,15.25-2"/>
<path fill="none" stroke="#000000" stroke-width="3" stroke-miterlimit="10" d="M192.141,237.391c0,0-0.75,29-2.25,35.75
	s-11.25,28.75-11.25,28.75"/>
<path fill="none" stroke="#000000" stroke-width="3" stroke-miterlimit="10" d="M160.474,321.808c0,0,20.333,7.999,28.833,7.833
	s11.833-2,11.833-2"/>
<path fill="none" stroke="#000000" stroke-width="3" stroke-miterlimit="10" d="M204.974,271.974c0,0-0.833,20.667-1.5,25.833
	s-8.833,21.833-8.833,21.833"/>
<path fill="none" stroke="#000000" stroke-width="3" stroke-miterlimit="10" d="M177.141,344.475c0,0,15,6.666,21.5,6.333
	s19.333-1.833,19.333-1.833"/>
<path fill="none" stroke="#000000" stroke-width="3" stroke-miterlimit="10" d="M222.474,292.141c0,0,0.167,18.834-0.667,25.334
	s-8.167,24.333-8.167,24.333"/>
<path fill="none" stroke="#000000" stroke-width="3" stroke-miterlimit="10" d="M208.474,370.306c0,0,13.167,6.834,18.667,6.667
	s12.167-3.667,12.167-3.667"/>
<path fill="none" stroke="#000000" stroke-width="3" stroke-miterlimit="10" d="M240.974,313.14c0,0,0.167,23.666-0.667,30.166
	s-5.333,24-5.333,24"/>
<path fill="none" stroke="#000000" stroke-width="3" stroke-miterlimit="10" d="M253.807,346.142c0,0,2.667,18.666,2,25.333
	s-3.167,17.167-3.167,17.167"/>
<path fill="none" stroke="#000000" stroke-width="3" stroke-miterlimit="10" d="M333.975,483.308c0,0,9.499-0.833,15.666-0.5
	s8.834,1,8.834,1"/>
<path fill="none" stroke="#000000" stroke-width="3" stroke-miterlimit="10" d="M352.475,499.308c0,0,14.999-1.668,20.666-1.334
	s10.167,2.667,10.167,2.667"/>
<path fill="none" stroke="#000000" stroke-width="3" stroke-miterlimit="10" d="M372.808,517.641c0,0,10.667-2.167,16.5-2.167
	s11.833,2.167,11.833,2.167"/>
<path fill="none" stroke="#000000" stroke-width="3" stroke-miterlimit="10" d="M383.808,526.808c0,0,0.167,9.833,1.167,11.833
	s5.666,9.833,5.666,9.833"/>
<path fill="none" stroke="#000000" stroke-width="3" stroke-miterlimit="10" d="M357.975,504.808c0,0-1.334,8,0.166,11.333
	s6.334,12.833,6.334,12.833"/>
<path fill="none" stroke="#000000" stroke-width="3" stroke-miterlimit="10" d="M339.808,487.974c0,0-1.167,8.667-0.667,12.167
	s3.167,6.667,3.167,6.667"/>
<path fill="none" stroke="#000000" stroke-width="3" stroke-miterlimit="10" d="M395.475,448.974c0,0,5.666,9.834,7.166,10.834
	s5.667,6.833,5.667,6.833"/>
<path fill="none" stroke="#000000" stroke-width="3" stroke-miterlimit="10" d="M375.308,448.641c0,0,6.499-9.499,9.833-12.833
	s9-7.5,9-7.5"/>
<path fill="none" stroke="#000000" stroke-width="3" stroke-miterlimit="10" d="M404.808,447.974c0,0,3.333-8.833,5.5-10.833
	s8.333-7.5,8.333-7.5"/>
<path fill="none" stroke="#000000" stroke-width="3" stroke-miterlimit="10" d="M426.808,448.808c0,0,4.5-7.5,7.5-10.167
	s10.167-6.667,10.167-6.667"/>
<path fill="none" stroke="#000000" stroke-width="3" stroke-miterlimit="10" d="M417.308,448.474c0,0,5.333,17.166,6.833,19.5
	s10.667,14.667,10.667,14.667"/>
<path fill="none" stroke="#000000" stroke-width="3" stroke-miterlimit="10" d="M462.641,449.641c0,0,4.5-5,7.667-7
	s11.333-7.167,11.333-7.167"/>
<path fill="none" stroke="#000000" stroke-width="3" stroke-miterlimit="10" d="M441.308,449.141c0,0,5.167,14.667,7.5,20.167
	s2.333,5.5,2.333,5.5l6.5,6.333"/>
<path fill="none" stroke="#000000" stroke-width="3" stroke-miterlimit="10" d="M468.808,452.308c0,0,4.333,16.832,6,20.666
	s8.333,12.834,8.333,12.834"/>
<path fill="none" stroke="#000000" stroke-width="3" stroke-miterlimit="10" d="M512.642,452.474c0,0-5.333,1.667-8.5,4.167
	s-3.834,3.833-3.834,3.833"/>
<path fill="none" stroke="#000000" stroke-width="3" stroke-miterlimit="10" d="M353.141,389.475c0,0,9.333,0.834,10.833,1.167
	s11-2.834,11-2.834"/>
<path fill="none" stroke="#000000" stroke-width="3" stroke-miterlimit="10" d="M363.808,376.475c0,0,21.666,1.333,26.166,0.833
	s16.167-3.166,16.167-3.166"/>
<path fill="none" stroke="#000000" stroke-width="3" stroke-miterlimit="10" d="M383.974,355.308c0,0,11.834-0.5,17.834-0.333
	s16.833-1.833,16.833-1.833"/>
<path fill="none" stroke="#000000" stroke-width="3" stroke-miterlimit="10" d="M407.142,330.808c0,0,21.5,3.5,23.333,4
	s11.5,3.666,11.5,3.666"/>
<path fill="none" stroke="#000000" stroke-width="3" stroke-miterlimit="10" d="M420.141,316.891c0,0,24.75-3,26.75-3.25
	s10.5-2,11.5-2.5"/>
<path fill="none" stroke="#000000" stroke-width="3" stroke-miterlimit="10" d="M436.141,299.641c0,0,25-1.75,26.75-2
	s19.5-3.75,19.5-3.75"/>
<path fill="none" stroke="#000000" stroke-width="3" stroke-miterlimit="10" d="M451.891,278.391c0,0,18-2.5,23.25-3.75
	s19-4.75,19-4.75"/>
<path fill="none" stroke="#000000" stroke-width="3" stroke-miterlimit="10" d="M463.142,258.141c0,0,15.5-4.5,19.5-7.333
	s15.666-8.667,15.666-8.667"/>
<path fill="none" stroke="#000000" stroke-width="3" stroke-miterlimit="10" d="M361.808,378.975c0,0-2.167-16.834-1.667-25.167
	s2-13.667,2-13.667"/>
<path fill="none" stroke="#000000" stroke-width="3" stroke-miterlimit="10" d="M375.308,364.308c0,0-1.834-27.333-1.167-32.833
	s6.833-22.834,6.833-22.834"/>
<path fill="none" stroke="#000000" stroke-width="3" stroke-miterlimit="10" d="M394.141,343.808c0,0-2.5-38.667-1.5-46.833"/>
<path fill="none" stroke="#000000" stroke-width="3" stroke-miterlimit="10" d="M407.974,329.81c0,0-2.334-36.5-2.5-45.833"/>
<path fill="none" stroke="#000000" stroke-width="3" stroke-miterlimit="10" d="M424.975,310.141c0,0-6.333-30.167-6.333-34.167
	s2.833-14,2.833-14"/>
<path fill="none" stroke="#000000" stroke-width="3" stroke-miterlimit="10" d="M440.142,294.308l-7.667-28
	c0,0-3.834-13.833-2.667-22"/>
<path fill="none" stroke="#000000" stroke-width="3" stroke-miterlimit="10" d="M457.642,268.474c0,0-8.834-11.5-12.334-19.833
	s-0.333-24.5-0.333-24.5"/>
<path fill="none" stroke="#000000" stroke-width="3" stroke-miterlimit="10" d="M470.016,248.016c0,0-4-21-5.75-27
	s-5.625-16.25-5.625-16.25"/>
<path fill="none" stroke="#000000" stroke-width="3" stroke-miterlimit="10" d="M488.641,208.641c-1.25,1.5-5,8.75-6.375,10.625
	s-4.875,10.375-5.75,11.375s-2.375,9.5-2.375,9.5s-26,46.5-37.5,58.5s-67,72-67,72s-50,54.5-55,58s-14.5,16-14.5,16l-12.5-17.5
	l-33-36c0,0-67-79-74.5-86.5s-60.5-98-60.5-98"/>
<path fill="none" stroke="#000000" stroke-width="3" stroke-miterlimit="10" d="M507.516,222.766c0,0-29,12.75-31.375,12.625"/>
<path fill="none" stroke="#000000" stroke-width="3" stroke-miterlimit="10" d="M103.016,195.266c0,0,2.75,5.125,4.875,7.375
	s11.875,4.5,11.875,4.5"/>
<path fill="none" stroke="#000000" stroke-width="3" stroke-miterlimit="10" d="M298.474,93.641c0,0,10.668,18.667,15.334,22.667
	s5.333,5,5.333,5s17.666-10.833,21.833-17.333"/>
<path fill="none" stroke="#000000" stroke-width="3" stroke-miterlimit="10" d="M293.641,119.807c0,0,16.833,24.667,17.5,25.833
	s4.333,7.167,4.333,7.167"/>
<path fill="none" stroke="#000000" stroke-width="3" stroke-miterlimit="10" d="M342.141,146.807c0,0-14.833,11.834-15.833,12.667
	s-11.667,4-11.667,4"/>
<path fill="none" stroke="#000000" stroke-width="3" stroke-miterlimit="10" d="M271.974,151.974c0,0,35.167,40.833,39.333,42.833"
	/>
<path fill="none" stroke="#000000" stroke-width="3" stroke-miterlimit="10" d="M344.808,169.307c0,0-29.834,27-32.834,27.833"/>
<path fill="none" stroke="#000000" stroke-width="3" stroke-miterlimit="10" d="M268.141,173.807c0,0,33.501,50.667,41.334,55.333"
	/>
<path fill="none" stroke="#000000" stroke-width="3" stroke-miterlimit="10" d="M336.475,212.141c0,0-22.834,23.167-26.834,25.333"
	/>
<path fill="none" stroke="#000000" stroke-width="3" stroke-miterlimit="10" d="M258.641,208.016c0,0,45.875,55,49.5,57.625"/>
<path fill="none" stroke="#000000" stroke-width="3" stroke-miterlimit="10" d="M348.266,239.016c0,0-36.625,34.5-39.875,36.875"/>
<path fill="none" stroke="#000000" stroke-width="3" stroke-miterlimit="10" d="M255.974,235.974c0,0,48.833,57.833,52.333,60"/>
<path fill="none" stroke="#000000" stroke-width="3" stroke-miterlimit="10" d="M338.808,289.308c0,0-30.5,26.167-32.167,27.167"/>
<path fill="none" stroke="#000000" stroke-width="3" stroke-miterlimit="10" d="M276.974,289.641c0,0,27.333,32.334,29.167,33.834"
	/>
<path fill="none" stroke="#000000" stroke-width="3" stroke-miterlimit="10" d="M284.974,322.641l21,25.5
	c1.834-1,29.833-24.5,29.833-24.5"/>
<line fill="none" stroke="#000000" stroke-width="3" stroke-miterlimit="10" x1="322.266" y1="69.391" x2="321.141" y2="119.766"/>
</svg>
