<?xml version="1.0" encoding="utf-8"?>
<!-- Generator: Adobe Illustrator 16.0.0, SVG Export Plug-In . SVG Version: 6.00 Build 0)  -->
<!DOCTYPE svg PUBLIC "-//W3C//DTD SVG 1.1//EN" "http://www.w3.org/Graphics/SVG/1.1/DTD/svg11.dtd">
<svg version="1.1" id="Layer_3" xmlns="http://www.w3.org/2000/svg" xmlns:xlink="http://www.w3.org/1999/xlink" x="0px" y="0px"
	 width="595.281px" height="595.281px" viewBox="0 0 595.281 595.281" enable-background="new 0 0 595.281 595.281"
	 xml:space="preserve">
<path fill="none" stroke="#000000" stroke-width="4" stroke-miterlimit="10" d="M327.141,366.641c0,0,19,3.5,9,30.5s-48,51-11.5,94
	s143-22.5,154.5-32s80-87.5,74-217.5s-57.5-181.5-176.5-205.5s-138.5-7.5-164.5,2s-153.5,121-163,179s-2.5,102,13.5,141.5
	s38.48,82.645,75.75,102.75c38,20.5,79.75,9.75,96.75,3.25s61-27,66-70S327.141,366.641,327.141,366.641z"/>
<path fill="none" stroke="#000000" stroke-width="4" stroke-miterlimit="10" d="M276.474,441.474c0,0-7.333,25.666-9.333,44
	s-0.333,49.334,6,62.334s7.667,13,7.667,13s14.458,2.333,13.583-2.417s-9.5-12.875-12.375-26.75s-4.625-53.25,4.875-76
	s3.75-32.25,3.75-32.25"/>
<path fill="none" stroke="#000000" stroke-width="3" stroke-miterlimit="10" d="M153.141,410.641c0,0,2.5-69,39.5-83.5
	s60.5,1.5,74,7s33,9.5,33,9.5s36.5-22,68.5-13s39.5,12,49.5,31s23,45,21,60"/>
<path fill="none" stroke="#000000" stroke-width="3" stroke-miterlimit="10" d="M108.141,225.141c0,0,54.5-5,84.5,10.5
	s52.5,28,62.5,40s35,39,39,48s5.5,20,5.5,20"/>
<path fill="none" stroke="#000000" stroke-width="3" stroke-miterlimit="10" d="M200.141,84.641c0,0,23,33.5,45.5,94
	s55.833,163,55.833,163"/>
<path fill="none" stroke="#000000" stroke-width="3" stroke-miterlimit="10" d="M474.641,142.641c0,0-43,23-53.5,41
	s-31.5,55.5-39,69s-79.5,88.5-79.5,88.5s3-17,4-27s8-27.5,12-35.5s19.5-72,20-93s-4.5-34.5-5.5-51s0-61.5,0-61.5"/>
<path fill="none" stroke="#000000" stroke-width="3" stroke-miterlimit="10" d="M185.474,421.141c0,0-13-18-12.667-46
	s10-42.667,10-42.667"/>
<path fill="none" stroke="#000000" stroke-width="3" stroke-miterlimit="10" d="M120.474,340.474c0,0,7-5.333,24-4.333
	s28.333,6.333,28.333,6.333"/>
<path fill="none" stroke="#000000" stroke-width="3" stroke-miterlimit="10" d="M107.808,288.474c0,0,45.667-11,55.667-21.333
	s29.167-31.5,29.167-31.5"/>
<path fill="none" stroke="#000000" stroke-width="3" stroke-miterlimit="10" d="M125.808,166.141c0,0,23.666,21.333,26.333,29.333
	s6,31,6,31"/>
<path fill="none" stroke="#000000" stroke-width="3" stroke-miterlimit="10" d="M161.808,129.807c0,0,18.666,15.667,39.333,14
	s28.667-5,28.667-5s16-13,16.333-58"/>
<path fill="none" stroke="#000000" stroke-width="3" stroke-miterlimit="10" d="M396.141,94.807c0,0-9.666,25-25.333,36.333
	s-35.667,20-35.667,20"/>
<path fill="none" stroke="#000000" stroke-width="3" stroke-miterlimit="10" d="M400.808,135.141c0,0-10.333,4-18.333,1.333
	s-10-6.333-10-6.333"/>
<path fill="none" stroke="#000000" stroke-width="3" stroke-miterlimit="10" d="M458.808,122.141c0,0-14.667,12.334-17,21.667
	s-1.333,21.333-1.333,21.333"/>
<path fill="none" stroke="#000000" stroke-width="3" stroke-miterlimit="10" d="M481.474,317.141c0,0-2.666-12.334-23.333-16.667
	s-44.333-2.332-53.333-1.666s-41.668,11.666-51.334,16.666s-49,25-49,25"/>
<path fill="none" stroke="#000000" stroke-width="3" stroke-miterlimit="10" d="M496.141,210.807c0,0-32.334,39.333-36.667,43.333
	s-49.666,45.333-49.666,45.333"/>
<path fill="none" stroke="#000000" stroke-width="3" stroke-miterlimit="10" d="M515.808,262.807c0,0-6-5.333-20-8.333
	s-37.667,1.333-37.667,1.333"/>
<path fill="none" stroke="#000000" stroke-width="3" stroke-miterlimit="10" d="M398.141,438.808c0,0,14.333-27.001,17-39.667
	s3.667-35.666,3.667-35.666"/>
<path fill="none" stroke="#000000" stroke-width="3" stroke-miterlimit="10" d="M367.141,377.808c0,0,8.333-10.999,8-24.333
	s-4.333-22-4.333-22"/>
</svg>
