<?xml version="1.0" encoding="utf-8"?>
<!-- Generator: Adobe Illustrator 16.0.0, SVG Export Plug-In . SVG Version: 6.00 Build 0)  -->
<!DOCTYPE svg PUBLIC "-//W3C//DTD SVG 1.1//EN" "http://www.w3.org/Graphics/SVG/1.1/DTD/svg11.dtd">
<svg version="1.1" id="Layer_4" xmlns="http://www.w3.org/2000/svg" xmlns:xlink="http://www.w3.org/1999/xlink" x="0px" y="0px"
	 width="595.281px" height="595.281px" viewBox="0 0 595.281 595.281" enable-background="new 0 0 595.281 595.281"
	 xml:space="preserve">
<path fill="none" stroke="#000000" stroke-width="4" stroke-miterlimit="10" d="M440.141,21.474c0,0-56.001,34.667-80.667,69.333
	s-49.333,88.667-62.667,107.333c-13.333,18.667-75.333,100.666-80.667,115.333s-67.333,166.001-67.333,264.667
	c0,0,1.167,3.499,2.833,4.333s28.333-2.834,32.333-3.5s17.167-0.666,18.667-1.833s2.167-4.334,2.167-4.334"/>
<path fill="none" stroke="#000000" stroke-width="4" stroke-miterlimit="10" d="M204.807,572.807c0,0,1.333-44.667,28-78
	s51.333-56.667,62-74s51.333-121.333,62.667-140.667s42.001-66.667,47.334-79.333s36-155.583,35-179.083"/>
</svg>
