<?xml version="1.0" encoding="utf-8"?>
<!-- Generator: Adobe Illustrator 16.0.0, SVG Export Plug-In . SVG Version: 6.00 Build 0)  -->
<!DOCTYPE svg PUBLIC "-//W3C//DTD SVG 1.1//EN" "http://www.w3.org/Graphics/SVG/1.1/DTD/svg11.dtd">
<svg version="1.1" id="Layer_4" xmlns="http://www.w3.org/2000/svg" xmlns:xlink="http://www.w3.org/1999/xlink" x="0px" y="0px"
	 width="595.281px" height="595.281px" viewBox="0 0 595.281 595.281" enable-background="new 0 0 595.281 595.281"
	 xml:space="preserve">
<path fill="#303BC3" d="M114.93,228.594c0,0-13.719,21.957-6.402,40.25c7.316,18.293,5.485,22.871,15.549,24.698
	c10.063,1.828,21.038,10.061,21.954,15.549c0.917,5.489-2.058,6.746-24.926,5.832s-66.55-7.66-74.782-1.257
	c-8.234,6.402,0,10.063,0,27.442s-11.894,18.297-4.575,32.018c7.318,13.722,18.298,16.467,66.779,20.124
	c48.48,3.657,45.739-6.405,63.119,0.914c5.669,2.388,17.362,2.992,22.661,5.977c10.944,6.164-7.205,14.548,10.667,15.166
	c26.526,0.916,165.403,7.673,194.674,2.185c29.274-5.489,74.783-11.89,85.76-29.271c10.978-17.382,3.202-25.612,7.777-30.187
	c4.575-4.575,43.45-0.918,57.174-21.041c13.723-20.124,25.61-45.739-21.957-35.675c-47.569,10.063-102.683,18.065-110.915,12.576
	c-8.234-5.488,13.035-13.723,15.093-14.407c2.603-0.867,81.1-16.515,83.015-35.676c1.372-13.722,2.745-28.815-5.487-29.501
	c-8.233-0.686-58.316,22.641-62.433,20.582c-4.118-2.058,18.522-22.64,28.129-26.07c9.604-3.431,17.837-5.489,19.209-13.036
	c1.373-7.546,4.117-25.384-4.803-29.501c-8.918-4.116-34.989-9.604-46.653-2.058c-11.661,7.546-25.384,13.035-27.441,5.488
	c-2.059-7.546,0-26.071-8.232-32.246c-8.234-6.174-16.467-11.663-28.816-15.78c-12.35-4.116-62.431,2.745-73.408,5.489
	c-10.977,2.745-43.224,2.059-54.887,4.802c-11.663,2.745-1.371,18.524-6.174,26.072c-4.803,7.547-50.771,5.488-65.863,9.604
	c-15.094,4.116,6.86,35.676-13.035,35.676c-19.897,0-32.246-2.744-39.792,0C118.359,226.077,114.93,228.594,114.93,228.594z"/>
</svg>
