<?xml version="1.0" encoding="utf-8"?>
<!-- Generator: Adobe Illustrator 16.0.0, SVG Export Plug-In . SVG Version: 6.00 Build 0)  -->
<!DOCTYPE svg PUBLIC "-//W3C//DTD SVG 1.1//EN" "http://www.w3.org/Graphics/SVG/1.1/DTD/svg11.dtd">
<svg version="1.1" id="Layer_3" xmlns="http://www.w3.org/2000/svg" xmlns:xlink="http://www.w3.org/1999/xlink" x="0px" y="0px"
	 width="595.281px" height="595.281px" viewBox="0 0 595.281 595.281" enable-background="new 0 0 595.281 595.281"
	 xml:space="preserve">
<path fill="none" stroke="#000000" stroke-width="5" stroke-miterlimit="10" d="M190.807,94.141c0,0,38-43.333,64-45.333
	s112.667,0.667,149.333,34s57.999,66,61.333,127.333s-24.667,180.667-32,198s-19.333,65.999-35.333,79.333
	s-47.334,41.334-88.667,47.334s-58,6.666-84.667-12.667s-82-71.943-82-214.666C142.808,136.808,190.807,94.141,190.807,94.141z"/>
<path fill="none" stroke="#000000" stroke-width="3" stroke-miterlimit="10" d="M417.475,113.474c0,0,11.332,71.333,6.666,142.667
	s-20,148-33.333,182s-28,66-28,66"/>
<path fill="none" stroke="#000000" stroke-width="3" stroke-miterlimit="10" d="M353.475,81.474c0,0,15.333,40,11.333,80
	s-29.999,221.333-29.333,231.333s-16.667,109.334-14.667,118.667"/>
<path fill="none" stroke="#000000" stroke-width="3" stroke-miterlimit="10" d="M346.808,169.474c0,0-16.666,149.333-17.333,179.333
	s-16,137.999-20,145.333s-19.334,29.334-19.334,29.334"/>
<path fill="none" stroke="#000000" stroke-width="3" stroke-miterlimit="10" d="M253.474,108.808c0,0-22.667,118.667-25.333,148
	s-12.666,163.333-5.333,195.333s12.666,61.334,39.333,78.667"/>
<path fill="none" stroke="#000000" stroke-width="3" stroke-miterlimit="10" d="M299.474,536.308c0,0,1.5,11.499-1.667,19.166
	s-8.5,9-13.167,9.5s-7.333-4.166-7.5-7.166s-3.333-19-3.333-19"/>
<path fill="none" stroke="#000000" stroke-width="4" stroke-miterlimit="10" d="M258.641,48.474c0,0,26.166-16.5,38.167-18
	s37.333,3.5,46.833,5.5s11.499-0.667,21.833,2.333s34.833,27,39,33.667s2.5,14.5,2.5,14.5"/>
</svg>
