<?xml version="1.0" encoding="utf-8"?>
<!-- Generator: Adobe Illustrator 16.0.0, SVG Export Plug-In . SVG Version: 6.00 Build 0)  -->
<!DOCTYPE svg PUBLIC "-//W3C//DTD SVG 1.1//EN" "http://www.w3.org/Graphics/SVG/1.1/DTD/svg11.dtd">
<svg version="1.1" id="Layer_4" xmlns="http://www.w3.org/2000/svg" xmlns:xlink="http://www.w3.org/1999/xlink" x="0px" y="0px"
	 width="595.281px" height="595.281px" viewBox="0 0 595.281 595.281" enable-background="new 0 0 595.281 595.281"
	 xml:space="preserve">
<path fill="none" stroke="#000000" stroke-width="4" stroke-miterlimit="10" d="M226.141,223.474c0,0,0.667,32-4.667,44
	s-23.333,47.333-25.333,61.333s-3.571,99.602-5.333,116c-2.167,20.166-24.667,74.333-54,98.667
	c-25.49,21.146-66.667,36.667-61.333-26s53.333-124,62.667-186.667s19.333-102,26-111.333s22.667-24,22.667-24"/>
<path fill="none" stroke="#000000" stroke-width="4" stroke-miterlimit="10" d="M284.808,171.474c0,0-3,21.333-16,34.333
	s-32.333,16.333-44.333,10.333"/>
<path fill="none" stroke="#000000" stroke-width="4" stroke-miterlimit="10" d="M189.474,268.808c0,0,26-7.333,27.667-25.333
	s3-28.667-3.667-36.667"/>
<path fill="none" stroke="#000000" stroke-width="4" stroke-miterlimit="10" d="M463.141,154.808c0,0-28.666-32.667-67.666-31.333"
	/>
<path fill="none" stroke="#000000" stroke-width="4" stroke-miterlimit="10" d="M208.141,185.141c0,0,17.334-33.333,53.667-20.333"
	/>
<path fill="none" stroke="#000000" stroke-width="4" stroke-miterlimit="10" d="M276.641,156.641c0,0,68-19.5,82.5-28.5
	s60-29,86-40.5s42.5-17.5,66-17s27.5,6,27.5,6"/>
<path fill="none" stroke="#000000" stroke-width="4" stroke-miterlimit="10" d="M134.474,388.808c0,0,14.667,34.334,48,45"/>
<path fill="none" stroke="#000000" stroke-width="4" stroke-miterlimit="10" d="M153.474,509.808c0,0-47.334-40.666-34.667-117"/>
<path fill="none" stroke="#000000" stroke-width="4" stroke-miterlimit="10" d="M110.141,559.474c0,0-17.418-17.862-19.333-45
	c-2-28.333,11-47.666,11-83"/>
<path fill="none" stroke="#000000" stroke-width="4" stroke-miterlimit="10" d="M128.141,368.391c0,0,32.25-75,32.25-91.25"/>
<path fill="none" stroke="#000000" stroke-width="4" stroke-miterlimit="10" d="M186.391,195.516c0,0,1.125-1.25,0.25-2.75
	s-8.125-6.5-5.5-9.625s6.25-1.75,10.625,1s5.042,0.667,5.042,0.667s16.667-22,28-26s49.999-10.667,65.333-16
	s142.666-54.667,192-90.667s59.334-1.333,57.334,20.667s-33.334,70.667-83.334,101.333s-65.167,16.167-65.167,16.167
	s-3.499-13.5-12.166-11.5s-8.667,19.333-8.667,19.333s-6.667-2-24,1.333s-46,8.666-52.667,13.333s-44,17.334-60,8.667
	s-32.667-26-32.667-26"/>
</svg>
