<?xml version="1.0" encoding="utf-8"?>
<!-- Generator: Adobe Illustrator 16.0.0, SVG Export Plug-In . SVG Version: 6.00 Build 0)  -->
<!DOCTYPE svg PUBLIC "-//W3C//DTD SVG 1.1//EN" "http://www.w3.org/Graphics/SVG/1.1/DTD/svg11.dtd">
<svg version="1.1" id="Layer_2" xmlns="http://www.w3.org/2000/svg" xmlns:xlink="http://www.w3.org/1999/xlink" x="0px" y="0px"
	 width="595.281px" height="595.281px" viewBox="0 0 595.281 595.281" enable-background="new 0 0 595.281 595.281"
	 xml:space="preserve">
<path fill="none" stroke="#000000" stroke-width="3" stroke-miterlimit="10" d="M372.141,122.141c2.333-2.333,7-10.667,4.667-13.667
	s-9-5.333-15-5s-28.667-11.667-34.334-10s-13,15.333-12.333,21s-6,20-6,20s-4-9.667-5-14.333s-4-13-4-17.667s-1-12-6.333-11
	c-5.333,1-6.667,7-11,9s-14-3-18-0.333s-9,13-11.333,16.333s-6.667,11.333-11,9.667s-6.333-7-10-7.333s-13,3.666-19.667,4.333
	s-15.333,5-18.333,7.667s-9,16.667-5.333,22s16.333,4.333,20.667,11s1.667,15.333,1.667,15.333"/>
<path fill="none" stroke="#000000" stroke-width="3" stroke-miterlimit="10" d="M325.474,113.808c0,0,30.334-5,33.334-0.333
	s9.333,9,13.333,10.333s25.667,4.333,26,13.667s-22,23-24,24.333s-8.333,3.667-8.333,3.667"/>
<path fill="none" stroke="#000000" stroke-width="3" stroke-miterlimit="10" d="M262.474,194.141c0,0,1.667-17-6.333-22.333
	s-14.333,2.666-22,6.333s-17.333,6.667-23,3.667s-13.333-8.667-27-10.667s-20-2-22.667,2.667s-6,14.333-5.333,23.667
	s1.333,11,7.333,11.333"/>
<path fill="none" stroke="#000000" stroke-width="3" stroke-miterlimit="10" d="M258.641,188.141c0,0-18.333-0.833-25.667,3.167
	s-11.167-0.166-12.167,3.667s-3.333,6.667,2.5,9.5s9,4.5,9,4.5s-8.166-0.5-10.833,0.167s-23.834,8.167-26.167,9.833
	s-30.833,15.5-36.833,22.833"/>
<path fill="none" stroke="#000000" stroke-width="3" stroke-miterlimit="10" d="M215.974,183.974c0,0-4.334,3-10.667,3.5
	s-16.667,0.5-19.667,2.5s-22.833,22-26,31.333s-2.667,27.833-2.167,32.333s-8,19.167-11.333,22s-6.667,7.5-6.667,7.5
	s13.833-2.667,17.833,5.5s1,13.167-0.167,15.167s-3,5.499-1,9.333s6.333,9.166,8.333,9s21,3.166,34.667-0.5s29.667-9,36.5-4
	s-6.167,13.166,3,12.5c8.191-0.596,18.511-1.99,21.804-2.755c0.393-0.092,0.686-0.174,0.863-0.245
	c1.667-0.666-6.667,7.833-12.667,9.5s-13.667,3.166-17.167,0.5s-9-7.666-14.333-6.666s-13.5,1-18,5.833s-8.667,14.166-8.833,18.333
	s-0.167,6.167-0.167,6.167"/>
<path fill="none" stroke="#000000" stroke-width="3" stroke-miterlimit="10" d="M191.141,399.641c0,0-7.75,14.75-3.75,21.25
	s8.5,4.25,8.5,4.25s6.75,0.25,7.25,9.25s3,20.25,9.25,24s8.75-1.25,14.75-7.5s12.5-12.75,18.5-13s14,0.75,14,0.75"/>
<path fill="none" stroke="#000000" stroke-width="3" stroke-miterlimit="10" d="M218.141,375.391c0,0,12-2.5,17,0.5s8.5,13,12.25,11
	s3.75-3.5,8.25-8.75s9.5-11.75,10.25-12"/>
<path fill="none" stroke="#000000" stroke-width="3" stroke-miterlimit="10" d="M218.641,404.641c0,0,6.25-6.25,14.75-4.75
	s9.75,4.5,19.5-3.75s16-16.25,21.5-19.25s11.5,0.75,14.75-1.75s1.25-7.25,6.25-9.25"/>
<path fill="none" stroke="#000000" stroke-width="3" stroke-miterlimit="10" d="M278.391,363.141c0,0,15.75,0,17,1.25
	s16.5,4.5,21.75,1s12.5-12.5,16-15s8-6.583,8-6.583s0-2.333-2.333-5.333s-11.333-3.334-15.333-1s-7.667,9.333-13.667,9
	s-50,2.333-55.333,4.333s-21.667,4.333-29,9.667s-4,12.666-11.667,23s-18.167,15.916-18.167,15.916s-3,0.5-10.5,0.5
	s-11.5-22.916-10-27.916s6.167-9.834,12.5-11.167s10.667-4.5,16.5-13.167s3.333-14.333,3.333-14.333"/>
<path fill="none" stroke="#000000" stroke-width="3" stroke-miterlimit="10" d="M235.641,317.641c0,0,11.5-9.5,16-12s15,0,19-2.75
	s8.75-8.75,14.25-8.5s11-5.5,13-10.25s2.5-5.5,6.25-6.5s63.25,1,66.75-1s13.25-6.75,17.75-7.75s5,1,10-2.75s8.5-9.75,12.5-8
	s6.75,5.25,14,5s10.5-5.75,16-2.25s15.75,2,15.75,2"/>
<path fill="none" stroke="#000000" stroke-width="3" stroke-miterlimit="10" d="M294.891,294.141c0,0-0.5,3.5,11.5,2.25
	s26-8.75,29.75-7.25"/>
<path fill="none" stroke="#000000" stroke-width="3" stroke-miterlimit="10" d="M269.641,312.391c0,0,16.75-5,19-8"/>
<path fill="none" stroke="#000000" stroke-width="3" stroke-miterlimit="10" d="M290.391,311.641c0,0,10.75,2.25,21.75-1.75
	s29.588-12.387,36.167-13.917c7.166-1.667,25.083-4.083,30.333,1.667s11.25,10.25,18.75,12s15.25,3.5,22,8.75s8.5,8.25,15.5,13.5
	s7.75,9.25,14.25,8.75s15.25-2.75,15.25-2.75"/>
<path fill="none" stroke="#000000" stroke-width="3" stroke-miterlimit="10" d="M196.141,225.141c0,0,21.334,4.333,30.667,2
	s26.667-13,40.667-13.667s21.667,8.333,30.667,10s23.001,8.333,32.334,7s14.666,1.667,23.333-5s20.333-18.333,28-26.667
	s11.999-17.667,18.333-23s6.666-1,14-1.667c4.674-0.425,7.587-0.85,9.086-1.102c0.853-0.144,1.247-0.231,1.247-0.231
	s7.334-6.333,0-11.333s-34.333,1-42.666,2.667s-30.334,1.333-38.667-0.333s-25-6.667-32.667-7s-19,12.667-27.667,21.667
	s-29.667,22-29.667,22s36.667,0.667,45.667-3.333s18-7.167,25-6.167s13.166,1.666,18.333,0.333s13.167-9.166,19.167-8.833
	s13.167,0.167,14.667,0.5c0,0-9,12.5-14,15s-18.334,11.166-25.667,10.333c0,0,0.333-4.333,2.333-8s13.667-8.667,15.667-10.5
	s8.5-5.167,8.5-5.167"/>
<path fill="none" stroke="#000000" stroke-width="3" stroke-miterlimit="10" d="M423.227,173.039c0,0-1.42,4.435,2.914,8.102
	s14.667,1.667,14.667,1.667s-3.667,3.333-2.417,8.583s1.75,8.5,4.75,8.5c0,0-2,3.5-1.75,6.25s-2.75,3.25-2.75,3.25
	s-8.25-0.75-12-0.25s-15,2.25-15.5,7.25s2.75,7.75,11,8.25s13.5-2.25,16,1s7.5,8.25,0.25,12.5s-13.5,2.75-11,5.75s2,4.5,13.25,6.75
	s14.5,0.25,15.75,5.5s-0.5,8.75,3.5,11.5s10.25,3.25,10.25,5.25s-3.75,5.25-7.75,6.25s-9.5-3.75-4.25,6.25s5.75,9,5.25,10
	s-3.75-0.75-8.25,4.25s-11.75,7.5-5.75,14.75s17,8.25,16,16.75s-5.25,11.5-4.5,15s8.25,13.75,9.5,18.5s1.75,10.5-2.25,11
	s-15.5-7-19.5-6.25s-10,1.75-4.5,8.5s14,15.5,16,21s9.75,8,6.75,12.75s-9-2.25-12.5,0.5s-5.25-2.25-4.25,10.75s2.25,20-3,16.75
	s-10-11.5-9.75-3.75s4.75,35-0.25,36.75c-2.837,0.992-5.835,1.422-7.943,2.613c-1.608,0.907-2.699,2.258-2.807,4.637
	c-0.25,5.5,0.75,16-4.25,19s-7,1.25-8.5,7.25s-3.5,7.75-8,13.75s-4.75,6.25-4,11.25s3,5-4.75,3.75s-1-4.5-12.5-3.25
	s-3.75,2.25-13.25,5.5s-15.25,4.75-16,5.5s1.75,4.5-5.75,5.75s-7.25-6.25-10.5-9s-7.25-1.25-18.25,2.25s-13.25-8.5-17-12
	s-15.75-9.25-14.5-14.75s5-10.75,2.5-13s-6.5-1.25-10.75,2.75s-12.75,6.75-17.25,8.5s-9.75,6.5-13.75-0.75s-1.75-21-8-18.5
	s-5.75,11.75-8.75,5s-13.75-24.5-3.5-34s10-8.25,16-11.75s9.5-6.25,13-10.75s6.5-8.25,12.5-14.25s6.5-11.5,17.75-15
	s28.25-3.75,37.75,0s9.5-2.75,14,2.75s2.25,10,14.5,6.75s14.75-5,19,0s0.25,5.5,7.25,13s6.5,8.5,9,7.25"/>
<path fill="none" stroke="#000000" stroke-width="3" stroke-miterlimit="10" d="M426.141,473.891c-9-3-17.5-15.75-23.25-16
	s-19.75-2.75-23.5,0.5s-5,5.5-12-1s-9-11.5-12.5-6.75s-13.25,18.25-19.5,14s-5.25-7.75-13.5-13s-17.25-8.25-24.75-7.5
	s-14.5-3-14.5-3"/>
<path fill="none" stroke="#000000" stroke-width="3" stroke-miterlimit="10" d="M254.474,472.808c0,0,2.833,7.834,7.667,8.667
	s16.333-2.834,20.167-7.667s4-7.332,8-5.666s14.5,7.834,20.833,5.5s11.667-8.668,13.667-10.834s3.5-5.5,3.5-5.5"/>
<path fill="none" stroke="#000000" stroke-width="3" stroke-miterlimit="10" d="M352.641,480.642c0,0-6.167,1.334-5.167,7
	s15.333,14.499,25,11.166s8.667-7.666,17.667-5.666s7.501,5.334,11.667,0.5s4.833-8.667,4.833-8.667"/>
<path fill="none" stroke="#000000" stroke-width="3" stroke-miterlimit="10" d="M283.141,473.308c0,0,4.333,5.667,3.5,9.167
	s-4.167,7.834-0.167,11.667s8,7.333,11.667,5.833s7.999-0.501,6.833-5.167s-3.167-6.333-7.167-5.833c-4,0.5-9.833,4.167-9.833,4.167
	"/>
<path fill="none" stroke="#000000" stroke-width="3" stroke-miterlimit="10" d="M319.308,527.642c5.166-3.834,8-11.834,13.833-7.667
	s8.501,11.333,14.167,14.333s7,3,11.833,0s7.5-4.499,11-5.166s3.833,0,3.5-5.5s-0.333-11.166-2.5-12.5s-3.499-4.834-3.333-5.667"/>
<path fill="none" stroke="#000000" stroke-width="3" stroke-miterlimit="10" d="M289.641,432.641c0,0-3-2.75,5-4.75s6.75,0,12.25-3"
	/>
<path fill="none" stroke="#000000" stroke-width="3" stroke-miterlimit="10" d="M332.891,433.891c-0.75,1.25,1.5,0.75-6.25,7
	s-8.25,9.5-8.25,9.5"/>
<path fill="none" stroke="#000000" stroke-width="3" stroke-miterlimit="10" d="M287.891,453.141c0,0,0.5,1.25-2.25,4.75
	s-5.25,6-4.75,9.75s1.417,6.167,1.417,6.167"/>
<path fill="none" stroke="#000000" stroke-width="3" stroke-miterlimit="10" d="M350.808,402.974c0,0,8.667-3.667,21-4.5
	s22.166-0.166,24.166,0.834s9,3.499,10.667,5.666s4.999,3.334,3.333,9.334s-5.499,10.999-0.166,12.666s8.833-1.834,15.333,1
	s5.666,1.001,8.333,4.834s4,7.166,4,7.166"/>
<path fill="none" stroke="#000000" stroke-width="3" stroke-miterlimit="10" d="M364.308,372.974c0,0,6.666,10.334,16.666,10.834
	s12.333-1.666,15-5s4.834-11.166,10.334-11"/>
<path fill="none" stroke="#000000" stroke-width="3" stroke-miterlimit="10" d="M407.141,377.141c0,0,10.667,6.833,10,9.333
	s-1.999,5.334-7.333,6.834s-9.334,7.166-9.334,7.166"/>
<path fill="none" stroke="#000000" stroke-width="3" stroke-miterlimit="10" d="M395.308,399.641c0,0-1.333,3,0,6.5
	s3,1.999,4.333,5.333s6.999,2.501,3.833,9.334s-6,8.166-2,10.333s7.333,5.499,11.5,0.833s5.167-5,5.167-5"/>
<path fill="none" stroke="#000000" stroke-width="3" stroke-miterlimit="10" d="M314.641,383.308c0,0,21.334-10.666,32.834-21.833
	s14.666-10.166,22.833-10.5s16.334,1.666,22.667-1.667s13.832-4.833,20.166-6.333s23.167-0.667,27.167-0.667s8.833-3,8.833-3"/>
<path fill="none" stroke="#000000" stroke-width="3" stroke-miterlimit="10" d="M355.641,341.641c0,0,7.167-5.834,17.167-4.5
	s13.833,3.667,18,6.667s5.333,4.834,11,8.667s25.5,13.833,31,14.333s15,2.5,15,2.5"/>
<path fill="none" stroke="#000000" stroke-width="3" stroke-miterlimit="10" d="M411.474,283.807c0,0-0.999,13.167,16.334,12.167
	s22.833-1,26.333-0.333s5.333,1.333,5.333,1.333"/>
<path fill="none" stroke="#000000" stroke-width="3" stroke-miterlimit="10" d="M370.308,276.808c0,0,11.166,4.166,21.833,0.833
	s9.333-3.833,14.5-4.333s9.834-3.667,12.167-5.5s4-4.5,4-4.5"/>
<path fill="none" stroke="#000000" stroke-width="3" stroke-miterlimit="10" d="M359.308,260.308c0,0,19.999,1.833,30.833-2
	s10.501-5.834,14.834-4.167s9.166,5.333,9.166,5.333"/>
<path fill="none" stroke="#000000" stroke-width="3" stroke-miterlimit="10" d="M403.808,252.974c0,0-0.167-4,6.333-6.667
	s11.001-3.5,12.334-3.333s4,0.5,4,0.5"/>
<path fill="none" stroke="#000000" stroke-width="3" stroke-miterlimit="10" d="M354.641,225.308c0,0-5.667,4.833-10.5,8
	s-24,10.833-28.833,18.667s-2.833,6.833-2.833,6.833s19.834-3.667,22.5-7.333s28.5-2.333,35.833-1.167s19.334-0.834,23.667-3.667"/>
<path fill="none" stroke="#000000" stroke-width="3" stroke-miterlimit="10" d="M398.308,284.307c0,0-7.167,1-12,6.167
	s-7.667,7.167-7.667,7.167"/>
<path fill="none" stroke="#000000" stroke-width="3" stroke-miterlimit="10" d="M403.308,298.474c0,0-8.334,1.668-11.667,0.834
	s-9.166,1.166-9.166,1.166"/>
<path fill="none" stroke="#000000" stroke-width="3" stroke-miterlimit="10" d="M287.641,246.808c0,0-15,4.833-19.5,9.5
	s-24,15.5-30,16.5s-9.167,0.333-10.5,2.333s-6.5,8.167,0.833,9.833s14.667-0.167,19.333-2.833s18.5-12.5,26.333-12.833
	s10.5,0,11,0.5"/>
<path fill="none" stroke="#000000" stroke-width="3" stroke-miterlimit="10" d="M192.308,251.308c0,0,4,22.667,11.5,17.667
	s6-10.167,11.833-11.5s30.333-1.5,34.5-1.667s17.5,2,17.5,2"/>
<path fill="none" stroke="#000000" stroke-width="3" stroke-miterlimit="10" d="M184.474,265.474c0,0-7.167-2.5-12.167,0.5
	s-8.833,8.333-8.833,8.333"/>
<path fill="none" stroke="#000000" stroke-width="3" stroke-miterlimit="10" d="M215.641,276.474c0,0-12.167,6.667-17.167,10.833
	s-22.167,17.5-22.833,18"/>
<path fill="none" stroke="#000000" stroke-width="3" stroke-miterlimit="10" d="M194.641,278.308c0,0-15.667-2.833-21-1
	s-13.333,5.333-13.333,5.333"/>
<path fill="none" stroke="#000000" stroke-width="3" stroke-miterlimit="10" d="M159.141,295.141c0,0,6.833-1.333,10.5-6
	s5.5-6.833,5.5-6.833"/>
<path fill="none" stroke="#000000" stroke-width="3" stroke-miterlimit="10" d="M376.391,204.641c0,0,14-1.875,21.625-1.125
	s23,1.25,23,1.25"/>
<path fill="none" stroke="#000000" stroke-width="3" stroke-miterlimit="10" d="M368.516,213.016c0,0,3.125,1.25,14.625,0.875
	s16.125-0.5,21.375-1.75"/>
<path fill="none" stroke="#000000" stroke-width="3" stroke-miterlimit="10" d="M365.141,216.766
	c0.375,0.25,11.625,5.875,28.875,5.25"/>
<path fill="none" stroke="#000000" stroke-width="3" stroke-miterlimit="10" d="M412.891,222.141c0,0-11.125,9.875-28.25,9.625
	s-15-10-15.125-10.75"/>
<path fill="none" stroke="#000000" stroke-width="3" stroke-miterlimit="10" d="M285.974,231.308c0,0,6.833,8.5,13.333,8.167
	s13.999-1.333,17.166-2.833s8.167-6.333,8.167-6.333"/>
<path fill="none" stroke="#000000" stroke-width="3" stroke-miterlimit="10" d="M296.141,222.141c0,0,10.166-1.333,16.333-1
	s18.334,0.833,19.834,2s6.5,7,6.5,7"/>
<path fill="none" stroke="#000000" stroke-width="3" stroke-miterlimit="10" d="M179.641,227.807c0,0,5.333,5.167,15.333,6.833
	s18.667,1.667,21.833,0"/>
<path fill="none" stroke="#000000" stroke-width="3" stroke-miterlimit="10" d="M251.641,139.474c0,0,9.833-7.833,19.5-6.333
	s16.167,3.334,17.833,6.167"/>
<path fill="none" stroke="#000000" stroke-width="3" stroke-miterlimit="10" d="M204.307,148.141c0,0-0.833-4.833,6.5-4.833
	s9.167-0.667,12.333-3.667"/>
<path fill="none" stroke="#000000" stroke-width="3" stroke-miterlimit="10" d="M256.307,126.308c3.5-1,12.833-4.334,19-10.167
	s11-5.167,15.333-4.5s11.833,5.5,11.833,5.5"/>
<path fill="none" stroke="#000000" stroke-width="3" stroke-miterlimit="10" d="M295.307,126.308c0.5-1.667-0.333-10.333-1.5-11.833
	s-5-2.667-5-2.667"/>
<path fill="none" stroke="#000000" stroke-width="3" stroke-miterlimit="10" d="M192.141,36.141c0,0,27.25,38,34.5,53
	s10,31.25,10,31.25"/>
<path fill="none" stroke="#000000" stroke-width="3" stroke-miterlimit="10" d="M222.641,26.641c0,0,26.5,39.25,31.5,51.25
	s8,23.5,8,23.5"/>
</svg>
