<?xml version="1.0" encoding="utf-8"?>
<!-- Generator: Adobe Illustrator 16.0.0, SVG Export Plug-In . SVG Version: 6.00 Build 0)  -->
<!DOCTYPE svg PUBLIC "-//W3C//DTD SVG 1.1//EN" "http://www.w3.org/Graphics/SVG/1.1/DTD/svg11.dtd">
<svg version="1.1" xmlns="http://www.w3.org/2000/svg" xmlns:xlink="http://www.w3.org/1999/xlink" x="0px" y="0px"
	 width="595.281px" height="595.281px" viewBox="0 0 595.281 595.281" enable-background="new 0 0 595.281 595.281"
	 xml:space="preserve">
<g id="Layer_3" display="none">
	<path display="inline" fill="none" stroke="#000000" stroke-width="4" stroke-miterlimit="10" d="M329.478,231.662
		c0,0,33.325-84.832,12.725-121.189c-21.749-38.38-86.045-65.442-138.157-43.021C141.404,94.4,27.714,173.491,38.622,324.371
		c7.916,109.5,55.747,138.761,83.621,145.428c27.874,6.666,94.528-13.329,126.038-64.229c0,0-33.329,66.652,10.301,107.857
		c43.629,41.205,86.649,29.693,124.825,13.332c38.173-16.36,152.094-58.777,170.876-212.688
		c17.966-147.207-60.594-164.818-82.408-173.302C450.061,132.287,377.954,134.708,329.478,231.662z"/>
	<path display="inline" fill="none" stroke="#000000" stroke-width="4" stroke-miterlimit="10" d="M335.385,273.717
		c0,0-18.181,13.939-15.15,32.722c3.03,18.784,7.878,35.147,17.573,36.357c9.694,1.21,13.935-26.058,9.694-32.116
		c-4.241-6.059-10.3-12.119-10.3-21.208C337.202,280.383,335.385,273.717,335.385,273.717z"/>
	<path display="inline" fill="none" stroke="#000000" stroke-width="4" stroke-miterlimit="10" d="M293.574,263.417
		c0,0-16.967,39.99-37.569,42.415c-20.604,2.425-17.574-23.024-9.696-27.872C254.186,273.111,276.607,256.146,293.574,263.417z"/>
	<path display="inline" fill="none" stroke="#000000" stroke-width="4" stroke-miterlimit="10" d="M314.781,262.205
		c0,0-39.993,47.266-39.993,75.139C274.788,337.344,318.417,288.865,314.781,262.205z"/>
	<path display="inline" fill="none" stroke="#000000" stroke-width="4" stroke-miterlimit="10" d="M353.716,173.491
		c0,0,39.991-55.747,58.169-64.23c18.179-8.484,18.784,8.483,16.967,12.119c-1.817,3.636-23.026,11.513-39.993,25.45
		c-16.965,13.937-32.721,27.874-32.721,27.874"/>
	<path display="inline" fill="none" stroke="#000000" stroke-width="4" stroke-miterlimit="10" d="M142.807,475.404
		c0,0,16.398,14.393,53.966,33.177c37.57,18.783,111.495,32.113,111.495,32.113"/>
	<path display="inline" fill="none" stroke="#000000" stroke-width="4" stroke-miterlimit="10" d="M337.96,101.383
		c0,0,24.842,17.572,41.81,21.208"/>
	<path display="inline" fill="none" stroke="#000000" stroke-width="4" stroke-miterlimit="10" d="M211.922,455.257
		c0,0-17.27,12.421-24.238,14.238c0,0,17.875,2.426,24.238-3.938c0,0-8.786,14.845-5.756,26.056c0,0,15.453-11.512,17.573-18.178
		c0,0,0,18.179,5.453,22.117"/>
</g>
<g id="Layer_2">
	
		<image overflow="visible" width="366" height="354" xlink:href="14A9164F.jpg"  transform="matrix(1.2865 0 0 1.2865 47.1519 57.73)">
	</image>
</g>
<g id="Layer_4">
	<path fill="none" stroke="#000000" stroke-miterlimit="10" d="M456.474,109.474c0,0-66,82-78,95.333s-73.999,65.333-104,81.333
		c-30,16-98.667,48.001-161.333,20.334s-49.5-26.834-49.5-26.834s69.5-6,120.5-31.5c22.738-11.369,77.196-36.668,112.5-60.5
		c43.88-29.621,83.031-63.85,95.5-70.5c22.5-12,49-11.5,49-11.5"/>
	<path fill="none" stroke="#000000" stroke-miterlimit="10" d="M458.141,109.808c0,0-24.333,55.333-41.333,87
		s-58.667,77.666-79.667,99.333s-66.667,62-72.667,64s-36,14-37.333,16.667c0,0,22.333-6,38.333-5s51-3.001,71.333-15.667
		s93-81,101-94.667s30.999-74,32.666-94s0.667-47,0.667-47"/>
	<path fill="none" stroke="#000000" stroke-miterlimit="10" d="M433.475,92.641c0,0,2.834,7.667,11.5,8.667s20.667-6,24-9.833
		s11.334-9.5,14-9.833s21.167-11.5,22-12s7.5,3,6.833,4.833s-6.5,1.333-10,2.833s-9.334,1-12.667,4.333s2,3.667,0.667,10.167
		s-9.499,16.5-12.333,20s-1.668,8.5,0.666,11.333c0,0-17.334-5.5-19.5-15c0,0-5.834,3-13.5-0.333s-11.833-6.667-11.833-8.833
		S433.475,92.641,433.475,92.641z"/>
	<path fill="none" stroke="#000000" stroke-miterlimit="10" d="M181.641,259.641c-22.913,7.767-18.75,22.75-14.75,31.25
		s14,27.5,34.25,17s17.75-25.5,12.5-36.25S196.391,254.641,181.641,259.641z"/>
	<path fill="none" stroke="#000000" stroke-miterlimit="10" d="M240.641,235.641c-15.25,8.75-21,24.5-8.75,38s28.25,8.5,35.75,3.5
		s17.25-22,4.75-36.75S240.641,235.641,240.641,235.641z"/>
	<path fill="none" stroke="#000000" stroke-miterlimit="10" d="M293.141,199.641c-22.873,13.185-9.25,36.25-6.75,39.25
		s18.25,22,36.75,4.25s2.25-39.5,2.25-39.5S314.391,187.391,293.141,199.641z"/>
	<path fill="none" stroke="#000000" stroke-miterlimit="10" d="M339.391,165.641c-19.425,12.668-5,30.25-2.75,32.5s23,18,38.5,2
		s-3.25-32.25-3.25-32.25S356.641,154.391,339.391,165.641z"/>
	<path fill="none" stroke="#000000" stroke-miterlimit="10" d="M404.641,137.641c-9.613-13.572-23.5-2.75-25.5-0.5
		s-11.75,22.25,1.25,28s21.5,2,26.25-4S408.891,143.641,404.641,137.641z"/>
	<path fill="none" stroke="#000000" stroke-miterlimit="10" d="M181.641,262.474c0,0-16.333,11.833-11.667,23.667
		s16.167,21.167,30,17.167"/>
	<path fill="none" stroke="#000000" stroke-miterlimit="10" d="M243.974,238.141c0,0-20.333,11.5-11.833,27.833
		s29.5,13.833,36.667,7.167"/>
	<path fill="none" stroke="#000000" stroke-miterlimit="10" d="M298.975,200.974c0,0-23.168,13.333-11.834,33.333
		s27.668,11,30.334,9"/>
	<path fill="none" stroke="#000000" stroke-miterlimit="10" d="M341.141,168.474c0,0-15.666,12.667-0.333,28
		s19.667,5.333,22.667,4.667"/>
</g>
</svg>
