<?xml version="1.0" encoding="utf-8"?>
<!-- Generator: Adobe Illustrator 16.0.0, SVG Export Plug-In . SVG Version: 6.00 Build 0)  -->
<!DOCTYPE svg PUBLIC "-//W3C//DTD SVG 1.1//EN" "http://www.w3.org/Graphics/SVG/1.1/DTD/svg11.dtd">
<svg version="1.1" id="Layer_4" xmlns="http://www.w3.org/2000/svg" xmlns:xlink="http://www.w3.org/1999/xlink" x="0px" y="0px"
	 width="595.281px" height="595.281px" viewBox="0 0 595.281 595.281" enable-background="new 0 0 595.281 595.281"
	 xml:space="preserve">
<path fill="none" stroke="#000000" stroke-width="3" stroke-miterlimit="10" d="M491.661,141.061c0,0-75.245,93.487-88.926,108.688
	c-13.682,15.2-84.364,74.484-118.567,92.726c-34.202,18.24-112.488,54.725-183.932,23.183
	c-71.444-31.543-56.434-30.593-56.434-30.593s79.235-6.841,137.379-35.913c25.923-12.961,88.009-41.805,128.258-68.974
	c50.026-33.771,94.662-72.794,108.877-80.375c25.651-13.681,55.863-13.111,55.863-13.111"/>
<path fill="none" stroke="#000000" stroke-width="3" stroke-miterlimit="10" d="M493.562,141.441c0,0-27.741,63.084-47.123,99.187
	c-19.382,36.102-66.885,88.545-90.826,113.247c-23.941,24.703-76.005,70.686-82.845,72.965c-6.84,2.28-41.042,15.961-42.563,19.001
	c0,0,25.462-6.84,43.703-5.699c18.242,1.14,58.144-3.422,81.325-17.861c23.182-14.441,106.027-92.347,115.147-107.928
	c9.121-15.58,35.342-84.365,37.242-107.167c1.9-22.802,0.76-53.583,0.76-53.583"/>
<path fill="none" stroke="#000000" stroke-width="4" stroke-miterlimit="10" d="M465.44,121.869c0,0,3.23,8.741,13.111,9.881
	c9.88,1.14,23.562-6.84,27.361-11.21c3.8-4.371,12.921-10.832,15.961-11.211c3.039-0.379,24.132-13.111,25.081-13.681
	c0.95-0.569,8.551,3.421,7.791,5.511c-0.76,2.09-7.41,1.52-11.401,3.23c-3.989,1.71-10.641,1.14-14.44,4.94
	c-3.801,3.801,2.279,4.181,0.76,11.591c-1.521,7.41-10.83,18.811-14.061,22.801c-3.23,3.991-1.901,9.69,0.759,12.921
	c0,0-19.761-6.271-22.23-17.101c0,0-6.651,3.42-15.392-0.38c-8.739-3.8-13.49-7.601-13.49-10.071
	C465.25,126.62,465.44,121.869,465.44,121.869z"/>
<path fill="none" stroke="#000000" stroke-width="3" stroke-miterlimit="10" d="M178.331,312.262
	c-26.123,8.855-21.376,25.937-16.816,35.627c4.561,9.69,15.961,31.353,39.047,19.382c23.087-11.971,20.236-29.072,14.251-41.328
	C208.828,313.687,195.147,306.561,178.331,312.262z"/>
<path fill="none" stroke="#000000" stroke-width="3" stroke-miterlimit="10" d="M245.595,284.899
	c-17.386,9.976-23.941,27.933-9.976,43.323s32.207,9.69,40.758,3.99c8.55-5.7,19.667-25.082,5.416-41.898
	C267.542,273.499,245.595,284.899,245.595,284.899z"/>
<path fill="none" stroke="#000000" stroke-width="3" stroke-miterlimit="10" d="M305.449,243.857
	c-26.077,15.032-10.545,41.328-7.696,44.748c2.85,3.42,20.806,25.082,41.898,4.845c21.091-20.236,2.565-45.033,2.565-45.033
	S329.676,229.891,305.449,243.857z"/>
<path fill="none" stroke="#000000" stroke-width="3" stroke-miterlimit="10" d="M358.178,205.095
	c-22.146,14.443-5.7,34.487-3.135,37.052c2.564,2.565,26.222,20.521,43.892,2.28c17.672-18.241-3.705-36.768-3.705-36.768
	S377.844,192.269,358.178,205.095z"/>
<path fill="none" stroke="#000000" stroke-width="3" stroke-miterlimit="10" d="M432.567,173.173
	c-10.959-15.474-26.791-3.136-29.071-0.57c-2.281,2.565-13.396,25.367,1.424,31.922c14.821,6.555,24.512,2.28,29.928-4.56
	C440.263,193.124,437.412,180.013,432.567,173.173z"/>
<path fill="none" stroke="#000000" stroke-width="2" stroke-miterlimit="10" d="M178.331,315.492c0,0-18.621,13.49-13.301,26.981
	c5.321,13.491,18.432,24.132,34.203,19.572"/>
<path fill="none" stroke="#000000" stroke-width="2" stroke-miterlimit="10" d="M249.396,287.75c0,0-23.182,13.11-13.491,31.732
	c9.69,18.622,33.633,15.771,41.803,8.17"/>
<path fill="none" stroke="#000000" stroke-width="2" stroke-miterlimit="10" d="M312.101,245.377c0,0-26.414,15.201-13.491,38.002
	c12.921,22.802,31.543,12.541,34.582,10.261"/>
<path fill="none" stroke="#000000" stroke-width="2" stroke-miterlimit="10" d="M360.173,208.325c0,0-17.86,14.441-0.379,31.922
	c0,0,14.726,11.971,29.071,6.271"/>
<path fill="none" stroke="#000000" stroke-width="2" stroke-miterlimit="10" d="M475.7,139.16c0,0-51.682,14.061-79.425,35.723
	c-27.742,21.662-119.329,92.727-158.471,109.828c-39.143,17.102-123.508,59.663-194.002,50.354"/>
<path fill="none" stroke="#000000" stroke-width="3" stroke-miterlimit="10" d="M169.21,445.65c0,0-25.082-20.521-45.033-1.141
	c-19.951,19.382-5.13,33.633,0.57,37.338c5.7,3.705,34.487,17.671,43.893-6.271S173.485,449.641,169.21,445.65z"/>
<path fill="none" stroke="#000000" stroke-width="3" stroke-miterlimit="10" d="M95.675,387.792
	c-21.91-1.522-29.642,15.961-30.212,29.642c-0.57,13.681,16.246,25.366,32.207,24.227c15.961-1.14,29.072-9.69,27.647-27.361
	C123.892,396.627,116.197,389.217,95.675,387.792z"/>
<path fill="none" stroke="#000000" stroke-width="3" stroke-miterlimit="10" d="M156.669,439.38c0,0-4.561-21.092,9.406-29.072
	c13.966-7.98,41.898-17.102,51.588,11.972c9.69,29.071-17.671,37.052-17.671,37.052s-17.102,7.41-25.937-1.425"/>
<path fill="none" stroke="#000000" stroke-width="2" stroke-miterlimit="10" d="M88.455,391.877c0,0-23.942,12.353-16.151,32.492
	c7.791,20.141,30.972,12.923,36.862,9.121c5.89-3.801,11.4-10.83,11.591-14.821"/>
<path fill="none" stroke="#000000" stroke-width="2" stroke-miterlimit="10" d="M140.423,441.66c0,0-24.227,7.98-19.381,26.222
	c4.845,18.241,35.057,15.961,36.482,14.536"/>
</svg>
