<?xml version="1.0" encoding="utf-8"?>
<!-- Generator: Adobe Illustrator 16.0.0, SVG Export Plug-In . SVG Version: 6.00 Build 0)  -->
<!DOCTYPE svg PUBLIC "-//W3C//DTD SVG 1.1//EN" "http://www.w3.org/Graphics/SVG/1.1/DTD/svg11.dtd">
<svg version="1.1" id="Layer_4" xmlns="http://www.w3.org/2000/svg" xmlns:xlink="http://www.w3.org/1999/xlink" x="0px" y="0px"
	 width="595.281px" height="595.281px" viewBox="0 0 595.281 595.281" enable-background="new 0 0 595.281 595.281"
	 xml:space="preserve">
<path fill="none" stroke="#000000" stroke-width="4" stroke-miterlimit="10" d="M279.474,125.307c0,0-38.943,5.21-74.083,26.333
	c-34.437,20.699-72.491,63.538-75.5,96.25c-6.038,65.631,12.813,240.855,69.059,284.632c49.191,38.285,93.307,35.099,134.524,5.618
	c42.953-30.722,68.667-60,97.96-125.795c15.461-34.728,45.763-111.264,31.457-169.205"/>
<path fill="none" stroke="#000000" stroke-width="3" stroke-miterlimit="10" d="M236.861,43.948c0,0,37.199,77.972,42.206,81.548
	c5.007,3.576,34.336,7.868,34.336,7.868s-55.796-90.848-61.52-94.425C246.16,35.363,236.861,43.948,236.861,43.948z"/>
<path fill="none" stroke="#000000" stroke-width="3" stroke-miterlimit="10" d="M269.052,131.218c0,0-55.797,2.145-58.657,29.328
	c-2.861,27.184,7.87,73.681,16.453,85.126c0,0,32.905-2.146,55.08-28.614c22.176-26.468,38.631-52.22,33.621-65.096
	C310.541,139.086,269.052,131.218,269.052,131.218z"/>
<path fill="none" stroke="#000000" stroke-width="3" stroke-miterlimit="10" d="M313.391,147.891c0,0,15.033,24.816,31.486,40.554
	c16.453,15.738,33.619,47.929,40.774,65.812c0,0,21.46-50.789,8.585-67.958c-12.877-17.168-28.613-32.905-28.613-32.905
	s32.906,16.453,40.059,19.314c7.153,2.86,47.925,75.825,65.811,73.679c0,0,15.738-47.928-2.861-68.672
	c-18.599-20.744-67.955-32.906-88.701-30.044c-20.745,2.862-66.526-14.306-66.526-14.306"/>
<path fill="none" stroke="#000000" stroke-width="3" stroke-miterlimit="10" d="M193.141,159.891c0,0-25.667,24.978-23.521,50.729
	c0,0,28.612-7.153,40.774-26.467"/>
<path fill="none" stroke="#000000" stroke-width="4" stroke-miterlimit="10" d="M179.993,247.997
	c-1.073,8.584-7.511,11.803-2.146,16.631"/>
<path fill="none" stroke="#000000" stroke-width="4" stroke-miterlimit="10" d="M278.709,285.015
	c-1.072,8.584-7.511,11.804-2.146,16.632"/>
<path fill="none" stroke="#000000" stroke-width="4" stroke-miterlimit="10" d="M257.249,317.206
	c-1.072,8.584-7.511,11.802-2.146,16.631"/>
<path fill="none" stroke="#000000" stroke-width="4" stroke-miterlimit="10" d="M240.081,273.749
	c-1.072,8.583-7.511,11.803-2.146,16.631"/>
<path fill="none" stroke="#000000" stroke-width="4" stroke-miterlimit="10" d="M235.244,337.593
	c-1.61,8.584-11.268,11.803-3.219,16.631"/>
<path fill="none" stroke="#000000" stroke-width="4" stroke-miterlimit="10" d="M264.76,384.269
	c-1.073,8.584-7.511,11.803-2.146,16.631"/>
<path fill="none" stroke="#000000" stroke-width="4" stroke-miterlimit="10" d="M298.023,315.06
	c-1.073,8.584-7.512,11.803-2.146,16.632"/>
<path fill="none" stroke="#000000" stroke-width="4" stroke-miterlimit="10" d="M263.15,257.654
	c-1.072,8.584-7.511,11.803-2.146,16.631"/>
<path fill="none" stroke="#000000" stroke-width="4" stroke-miterlimit="10" d="M180.529,351.542
	c-1.073,8.584-7.51,11.803-2.146,16.631"/>
<path fill="none" stroke="#000000" stroke-width="4" stroke-miterlimit="10" d="M162.288,381.049
	c-1.073,8.584-7.511,11.804-2.146,16.632"/>
<path fill="none" stroke="#000000" stroke-width="4" stroke-miterlimit="10" d="M162.288,316.133
	c-1.073,8.584-7.511,11.803-2.146,16.631"/>
<path fill="none" stroke="#000000" stroke-width="4" stroke-miterlimit="10" d="M201.452,282.869
	c-1.073,8.584-7.51,11.803-2.146,16.631"/>
<path fill="none" stroke="#000000" stroke-width="4" stroke-miterlimit="10" d="M178.92,290.38
	c-1.073,8.584-7.511,11.803-2.146,16.631"/>
<path fill="none" stroke="#000000" stroke-width="4" stroke-miterlimit="10" d="M233.643,392.315
	c-1.072,8.584-7.511,11.803-2.146,16.632"/>
<path fill="none" stroke="#000000" stroke-width="4" stroke-miterlimit="10" d="M147.803,278.578
	c-1.073,8.584-7.511,11.803-2.146,16.631"/>
<path fill="none" stroke="#000000" stroke-width="4" stroke-miterlimit="10" d="M217.012,420.214
	c-1.073,8.584-7.511,11.804-2.147,16.632"/>
<path fill="none" stroke="#000000" stroke-width="4" stroke-miterlimit="10" d="M195.551,392.853
	c-1.073,8.584-7.511,11.803-2.146,16.631"/>
<path fill="none" stroke="#000000" stroke-width="4" stroke-miterlimit="10" d="M176.774,421.286
	c-1.073,8.585-7.511,11.805-2.146,16.633"/>
<path fill="none" stroke="#000000" stroke-width="4" stroke-miterlimit="10" d="M197.161,451.867
	c-1.073,8.584-7.511,11.804-2.146,16.633"/>
<path fill="none" stroke="#000000" stroke-width="4" stroke-miterlimit="10" d="M289.976,236.194
	c-1.072,8.584-7.511,11.803-2.146,16.631"/>
<path fill="none" stroke="#000000" stroke-width="4" stroke-miterlimit="10" d="M206.282,222.245
	c-1.074,8.584-7.511,11.803-2.147,16.631"/>
<path fill="none" stroke="#000000" stroke-width="4" stroke-miterlimit="10" d="M207.355,252.825
	c-1.073,8.585-7.511,11.803-2.147,16.632"/>
<path fill="none" stroke="#000000" stroke-width="4" stroke-miterlimit="10" d="M157.996,245.314
	c-1.073,8.584-7.511,11.803-2.146,16.631"/>
<path fill="none" stroke="#000000" stroke-width="4" stroke-miterlimit="10" d="M179.993,216.879
	c-1.073,8.584-7.511,11.804-2.146,16.632"/>
<path fill="none" stroke="#000000" stroke-width="4" stroke-miterlimit="10" d="M306.071,267.311
	c-1.074,8.584-7.511,11.803-2.146,16.631"/>
<path fill="none" stroke="#000000" stroke-width="4" stroke-miterlimit="10" d="M333.433,252.289
	c-1.073,8.584-7.512,11.803-2.146,16.631"/>
<path fill="none" stroke="#000000" stroke-width="4" stroke-miterlimit="10" d="M288.903,364.954
	c-1.073,8.585-7.512,11.803-2.147,16.632"/>
<path fill="none" stroke="#000000" stroke-width="4" stroke-miterlimit="10" d="M315.729,220.098
	c-1.074,8.584-7.512,11.803-2.147,16.632"/>
<path fill="none" stroke="#000000" stroke-width="4" stroke-miterlimit="10" d="M247.056,419.678
	c-1.073,8.584-7.512,11.803-2.146,16.631"/>
<path fill="none" stroke="#000000" stroke-width="4" stroke-miterlimit="10" d="M228.277,456.695
	c-1.073,8.585-7.51,11.805-2.146,16.633"/>
<path fill="none" stroke="#000000" stroke-width="4" stroke-miterlimit="10" d="M207.355,488.35
	c-1.073,8.584-7.511,11.804-2.147,16.632"/>
</svg>
