<?xml version="1.0" encoding="utf-8"?>
<!-- Generator: Adobe Illustrator 16.0.0, SVG Export Plug-In . SVG Version: 6.00 Build 0)  -->
<!DOCTYPE svg PUBLIC "-//W3C//DTD SVG 1.1//EN" "http://www.w3.org/Graphics/SVG/1.1/DTD/svg11.dtd">
<svg version="1.1" id="Layer_3" xmlns="http://www.w3.org/2000/svg" xmlns:xlink="http://www.w3.org/1999/xlink" x="0px" y="0px"
	 width="595.281px" height="595.281px" viewBox="0 0 595.281 595.281" enable-background="new 0 0 595.281 595.281"
	 xml:space="preserve">
<path fill="none" stroke="#000000" stroke-width="4" stroke-miterlimit="10" d="M290.171,163.479c0,0,88.525,24.922,85.087,101.414
	c-3.441,76.493-48.134,147.826-80.793,159.86c0,0-78.208-16.33-78.208-103.994C216.256,233.093,290.171,163.479,290.171,163.479z"/>
<path fill="none" stroke="#000000" stroke-width="3" stroke-miterlimit="10" d="M302.201,175.509c0,0,72.197,47.271,57.585,110.87
	c-14.611,63.6-30.941,95.397-61.881,125.479"/>
<path fill="none" stroke="#000000" stroke-width="4" stroke-miterlimit="10" d="M290.989,147.295c0,0,33.139-70.899,80.917-77.064
	c47.781-6.165,131.782,0.77,158.752,94.018c26.972,93.247,30.822,197.283-26.203,282.052
	c-57.025,84.769-118.673,112.512-161.061,116.365c-42.388,3.854-81.688-6.935-107.12-11.559c-25.43-4.624-37.757,1.54-59.336-13.102
	c-21.58-14.641-137.946-90.163-121.762-231.96c16.183-141.797,50.092-168.771,70.128-190.348
	c20.037-21.577,58.566-27.742,87.85-26.202C242.441,91.039,286.366,122.635,290.989,147.295z"/>
<path fill="none" stroke="#000000" stroke-width="4" stroke-miterlimit="10" d="M252.458,21.682c0,0,10.789,1.54,10.789,11.559
	c0,10.019,23.123,53.559,24.663,72.825c1.539,19.266,0.769,24.66,0.769,24.66s-10.789-15.026-17.338-19.265
	c0,0-13.869-42.386-21.577-45.854c-7.708-3.468-18.879,0.771-19.651-4.624c-0.771-5.396-7.319-32.366,4.624-36.22
	C246.679,20.91,252.458,21.682,252.458,21.682z"/>
<path fill="none" stroke="#000000" stroke-width="3" stroke-miterlimit="10" d="M342.891,81.891c0,0-25.699,18.396-53.057,17.625"/>
</svg>
