<?xml version="1.0" encoding="utf-8"?>
<!-- Generator: Adobe Illustrator 16.0.0, SVG Export Plug-In . SVG Version: 6.00 Build 0)  -->
<!DOCTYPE svg PUBLIC "-//W3C//DTD SVG 1.1//EN" "http://www.w3.org/Graphics/SVG/1.1/DTD/svg11.dtd">
<svg version="1.1" id="Layer_2" xmlns="http://www.w3.org/2000/svg" xmlns:xlink="http://www.w3.org/1999/xlink" x="0px" y="0px"
	 width="595.281px" height="595.281px" viewBox="0 0 595.281 595.281" enable-background="new 0 0 595.281 595.281"
	 xml:space="preserve">
<path fill="none" stroke="#000000" stroke-width="4" stroke-miterlimit="10" d="M88.807,47.141c-82,69.5-73.5,149-19.5,213.5
	s147,41.5,180,19s88-98,51.5-178.5c-36.5-80.5-123.75-78-134.75-78s-45.75,6.75-51.25,9.25S88.807,47.141,88.807,47.141z"/>
<path fill="none" stroke="#000000" stroke-width="4" stroke-miterlimit="10" d="M86.807,145.141c0,0-14,26-11,57
	s17,80.334,35.333,90.334"/>
<path fill="none" stroke="#000000" stroke-width="4" stroke-miterlimit="10" d="M147.141,141.141c0,0,35.332,69.666,42.666,85
	s28.667,66.666,28.667,66.666"/>
<path fill="none" stroke="#000000" stroke-width="4" stroke-miterlimit="10" d="M172.141,105.807c0,0,55.332,39.667,77.666,76
	s29,68.333,29,68.333"/>
<path fill="none" stroke="#000000" stroke-width="4" stroke-miterlimit="10" d="M174.807,62.891c0,0,48.25-6.5,79.75,12
	s55.5,58.75,55.5,58.75"/>
<path fill="none" stroke="#000000" stroke-width="4" stroke-miterlimit="10" d="M117.307,62.808c-3-2.667-0.833-5.667-7.833-4.5
	s-11.167,0.666-9.167,4.333s3.167,10.667,1.5,12.333s-9.667,7.833-10.667,11.833s-2.5,11.167,0.833,14s20.5,7.667,27.5,7.5
	s34.667,0.667,37.667-2.833s6.166-12.333,7-16.5c0.832-4.167,2.999-11.667-1.168-15c-4.166-3.333-12.999-2.167-16.332-4.5
	c-3.334-2.333-5.334-4.833-7.834-8.5s-5.5-6.167-8.167-3.5c-2.667,2.667-3.334,7-5.667,8.167S117.307,62.808,117.307,62.808z"/>
<path fill="none" stroke="#000000" stroke-width="4" stroke-miterlimit="10" d="M116.474,64.141c-2.667,2.667-4.5,10.5-5.167,15.833
	s-1,11.333,4.333,15.333s10.167,5.5,14.667,2.167s5.667-5.667,10.834-7.833c5.166-2.167,9,0,6.166-5s-5-5.5-5-8.833
	s3.166-8.667,3.166-8.667"/>
<path fill="none" stroke="#000000" stroke-width="4" stroke-miterlimit="10" d="M122.557,65.391c0,0-2,7.25,2.25,12s8,4.75,11.25,2
	s6.75-5.75,6.75-5.75"/>
<path fill="none" stroke="#000000" stroke-width="4" stroke-miterlimit="10" d="M187.14,314.807c-82,69.5-73.5,149-19.5,213.5
	c54,64.5,150.834,35.001,183.834,12.501s77.5-91.167,41-171.667c-36.5-80.5-117.085-78.333-128.085-78.333s-45.75,6.75-51.25,9.25
	C207.64,302.557,187.14,314.807,187.14,314.807z"/>
<path fill="none" stroke="#000000" stroke-width="4" stroke-miterlimit="10" d="M512.141,109.474
	c-40.25-30.583-67.014-26.334-75-26.334c-10.396,0-43.237,6.203-48.435,8.5c-5.198,2.297-24.573,13.555-24.573,13.555
	c-77.496,63.866-69.463,136.923-18.429,196.195c51.034,59.271,138.926,38.136,170.114,17.459
	c31.188-20.676,81.067-80.481,46.572-154.457c-2.196-4.708-3.697-7.64-6.25-11.75"/>
<path fill="none" stroke="#000000" stroke-width="4" stroke-miterlimit="10" d="M394.891,486.141c0,0,73.5-26,95-65.25
	s21.25-97.25,21.25-97.25"/>
<path fill="none" stroke="#000000" stroke-width="4" stroke-miterlimit="10" d="M506.891,371.391c0,0,3-3.25,6.5-2.5
	s11.25,5.75,9.5,9.25s-5.25,10.5-5.5,16.25s-1,15.25-2.5,18s-16.75,13-19,16.75s-9.25,12-9.75,12.75s-10.75-2.5-10.75-2.5"/>
<path fill="none" stroke="#000000" stroke-width="4" stroke-miterlimit="10" d="M441.808,116.807c0,0-40.334,8.333-72.667,37.333
	s-46.334,63-46,78.333"/>
<path fill="none" stroke="#000000" stroke-width="4" stroke-miterlimit="10" d="M515.808,163.474c0,0-45,55-54,63.667
	s-45.666,37-55.333,40.333"/>
<path fill="none" stroke="#000000" stroke-width="4" stroke-miterlimit="10" d="M546.475,174.807c0,0,1.667,35.333-1,51.333
	s-19.668,47.667-27.334,57.333s-34.332,32.667-49.666,38.333"/>
<path fill="none" stroke="#000000" stroke-width="4" stroke-miterlimit="10" d="M523.808,106.141c0,0-5.334-2.333-11.667,3.333
	s-12.333,7.667-9.333,13s15.333,13.333,18,15.667s5.999,18.667,17.333,18.333s11.667,0,15.667-2.333s7.667-4.333,7.667-4.333
	s3.166,1.583,1.166-4.417s-2.5-7.417-7.5-12.75s-4.333-4.833-9-10.5s-4.5-9-10.5-11S523.808,106.141,523.808,106.141z"/>
<path fill="none" stroke="#000000" stroke-width="4" stroke-miterlimit="10" d="M218.474,512.141c4-2.333,6.333,0.999,15.667-4.667
	s9.333-9.333,14.667-11.333s10.667,0.666,16.667,4.333s10,5,13.333,9s3.667,6,3.333,12.667s-1.333,11.999-2,15.333
	s-0.667,5.666-8.667,5s-9.333,0.001-12.333,2.334s-17-6.334-21-11.334s-12.333-10.999-18.667-12.666s-6.333-1.334-6.333-4.334
	S218.474,512.141,218.474,512.141z"/>
<path fill="none" stroke="#000000" stroke-width="4" stroke-miterlimit="10" d="M126.141,430.474c0,0,13.333,47.333,47,65
	s53.333,14.334,53.333,14.334"/>
<path fill="none" stroke="#000000" stroke-width="4" stroke-miterlimit="10" d="M405.391,444.641c0,0-8.916,18.501-41.583,43.167
	s-82.667,26.666-82.667,26.666"/>
<path fill="none" stroke="#000000" stroke-width="4" stroke-miterlimit="10" d="M238.474,520.141c0,0,2.667-5.333,10-6
	s7.333,4.333,12.667,5.5s19.167-7.833,19.167-7.833"/>
<path fill="none" stroke="#000000" stroke-width="4" stroke-miterlimit="10" d="M270.641,307.641c-1,2.5-12.5,152.5-11,167
	s0,10,0,10"/>
<path fill="none" stroke="#000000" stroke-width="4" stroke-miterlimit="10" d="M176.641,334.141c0,0,13,60,17.5,73.5
	s26,53.5,26,53.5"/>
<path fill="none" stroke="#000000" stroke-width="4" stroke-miterlimit="10" d="M299.141,214.641c-0.5,1-1.25,21.25,8.25,37.5
	s31.25,57.25,32.25,58"/>
<path fill="none" stroke="#000000" stroke-width="4" stroke-miterlimit="10" d="M306.141,250.391c0,0-9.25,4.5-15.5,13
	s-7.5,20.25-7.25,22.75"/>
<path fill="none" stroke="#000000" stroke-width="4" stroke-miterlimit="10" d="M527.391,135.391c0,0,15.5,9.75,19.5,4.25
	s3.5-8.5,2.75-10.5"/>
<path fill="none" stroke="#000000" stroke-width="4" stroke-miterlimit="10" d="M238.641,285.891c0,0,15.75-1.5,29.5-0.25
	s30,2.75,38,6.25s30.25,15,30.25,15"/>
<path fill="none" stroke="#000000" stroke-width="4" stroke-miterlimit="10" d="M182.141,301.641c0,0-2.375,6.5-2,9.5
	s3.25,7.625,3.25,7.625"/>
</svg>
