<?xml version="1.0" encoding="utf-8"?>
<!-- Generator: Adobe Illustrator 16.0.0, SVG Export Plug-In . SVG Version: 6.00 Build 0)  -->
<!DOCTYPE svg PUBLIC "-//W3C//DTD SVG 1.1//EN" "http://www.w3.org/Graphics/SVG/1.1/DTD/svg11.dtd">
<svg version="1.1" id="Layer_4" xmlns="http://www.w3.org/2000/svg" xmlns:xlink="http://www.w3.org/1999/xlink" x="0px" y="0px"
	 width="595.281px" height="595.281px" viewBox="0 0 595.281 595.281" enable-background="new 0 0 595.281 595.281"
	 xml:space="preserve">
<path fill="none" stroke="#000000" stroke-width="4" stroke-miterlimit="10" d="M110.808,454.141c0,0-12.667,2.667-28.667-38
	s-0.667-102,32.667-158s144.667-102,163.333-113.333s41.334-49.333,52-64s27.334-24.667,50.667-28s68.667,14,68.667,14"/>
<path fill="none" stroke="#000000" stroke-width="3" stroke-miterlimit="10" d="M346.641,176.141c0,0-16.5,3.5-39,22.5
	s-90,85-100,98.5s-51.5,47.5-75.5,102c0,0,8.5,12.5,4,22.5s-10.5,8.5-9.5,20.5s6.5,18,6.5,18"/>
<path fill="none" stroke="#000000" stroke-width="3" stroke-miterlimit="10" d="M339.641,260.141c0,0-91,131-95.5,145
	s-28,56-25,81.5s14,37,19,38"/>
<path fill="none" stroke="#000000" stroke-width="3" stroke-miterlimit="10" d="M298.641,291.141c0,0-43,49-54.5,78s-36,78-48,95
	s-22.5,29.5-34,26.5"/>
<path fill="none" stroke="#000000" stroke-width="3" stroke-miterlimit="10" d="M408.141,328.641c0,0,0,53-29.5,101.5
	s-67,88-75,95.5s-11.5,19.5-29.5,15s-11.5-10-11.5-10"/>
<path fill="none" stroke="#000000" stroke-width="3" stroke-miterlimit="10" d="M419.141,309.141c0,0,6,39.5-16.5,91
	s-55.5,110.5-87,133"/>
<path fill="none" stroke="#000000" stroke-width="3" stroke-miterlimit="10" d="M473.141,307.141c0,0,4.5,62.5,1,84s-16,73-46,105.5
	s-35,34-40.5,39.5s-24.5,17.5-24.5,17.5"/>
<path fill="none" stroke="#000000" stroke-width="3" stroke-miterlimit="10" d="M295.141,188.474c0,0,16.667-18,19-27.667
	s1-12.667,1-12.667"/>
<path fill="none" stroke="#000000" stroke-width="4" stroke-miterlimit="10" d="M358.141,175.141c0,0,7.001,3.333,3.667,11.333
	s-14,20-14,20"/>
<path fill="none" stroke="#000000" stroke-width="3" stroke-miterlimit="10" d="M367.474,222.474c0,0,20.667-23,34.667-23.333
	s21.333,15.667,21.333,15.667"/>
<path fill="none" stroke="#000000" stroke-width="3" stroke-miterlimit="10" d="M460.808,244.474c0,0-11.668-19.333-21.334-7.333
	s-13,44.333-13,44.333"/>
<path fill="none" stroke="#000000" stroke-width="3" stroke-miterlimit="10" d="M463.474,215.141c0,0,12-29,20.667-36.333"/>
<path fill="none" stroke="#000000" stroke-width="3" stroke-miterlimit="10" d="M443.474,209.141c0,0,13-22,18.667-28.333"/>
<path fill="none" stroke="#000000" stroke-width="3" stroke-miterlimit="10" d="M436.808,197.474c0,0,8.667-20,15-25.333"/>
<path fill="none" stroke="#000000" stroke-width="3" stroke-miterlimit="10" d="M478.474,241.141c0,0-6.666-15.667-5.333-19.333"/>
<path fill="none" stroke="#000000" stroke-width="3" stroke-miterlimit="10" d="M313.808,116.807c0,0,30.333-30,36.333-32.333
	s11.999-5.334,13.333-15.667s7.667-13,10.667-14"/>
<path fill="none" stroke="#000000" stroke-width="4" stroke-miterlimit="10" d="M447.141,66.807c0,0-51.334,8-54.667,5.667
	s-26.667,10.667-26,14.667s10.333,6,11,13s-4.332,18.667,3.334,21.333s26.667-14.667,33-20.333s27-17.667,27-17.667
	s48.001,46.667,50.667,56.667s8,50.667-2.667,94s-6.667,121.333-6.667,148s-9.334,76.001-48,119.334s-74.666,60-105.333,59.333
	s-102.667-20.666-115.333-39.333c0,0-18.667,3.999-28-3.334s-26.667-22.667-37.333-30s-34-12-37.333-22s2.666-41.333,10-61.333
	s47.333-93.667,78-117"/>
<path fill="none" stroke="#000000" stroke-width="3" stroke-miterlimit="10" d="M438.474,117.474c0,0-5.667,0-5,13.667
	s-15.332,11.333-20.666,16s-19.333,23.667-18,31.667"/>
<path fill="none" stroke="#000000" stroke-width="3" stroke-miterlimit="10" d="M437.141,86.141c0,0,16,27.667,19,34.333
	s10.334,24,13.667,33.333s13,4,14-2s-2-25.333-2-25.333"/>
<path fill="none" stroke="#000000" stroke-width="3" stroke-miterlimit="10" d="M467.808,151.474c0,0-24.666,1.333-25-7.667
	s10-17,10-22.333s-0.667-9-0.667-9"/>
<path fill="none" stroke="#000000" stroke-width="3" stroke-miterlimit="10" d="M460.808,103.141c0,0-1.666-32,1-42.667
	s4.333-19.667,4.333-19.667s-17.667,16.667-23,33.667s-4,12.333-4,12.333"/>
</svg>
