<?xml version="1.0" encoding="utf-8"?>
<!-- Generator: Adobe Illustrator 16.0.0, SVG Export Plug-In . SVG Version: 6.00 Build 0)  -->
<!DOCTYPE svg PUBLIC "-//W3C//DTD SVG 1.1//EN" "http://www.w3.org/Graphics/SVG/1.1/DTD/svg11.dtd">
<svg version="1.1" id="Layer_3" xmlns="http://www.w3.org/2000/svg" xmlns:xlink="http://www.w3.org/1999/xlink" x="0px" y="0px"
	 width="595.281px" height="595.281px" viewBox="0 0 595.281 595.281" enable-background="new 0 0 595.281 595.281"
	 xml:space="preserve">
<path fill="none" stroke="#000000" stroke-width="4" stroke-miterlimit="10" d="M177.474,537.474c0,0-50-45.332-56.667-64.666
	s-69.667-84.667-56.667-177.333c15.26-108.773,90.667-202,124.667-218s75.333-19.333,87.333-24s21.333-22,36-22
	s35.999,10.667,53.333,16.667s68.001,10,117.334,76.667s23.333,78,31.333,100s19.333,88,8,144.667s-61.009,138.734-151.333,178
	c-56.167,24.417-64.667,11.917-95.417,9.167c-21.412-1.915-33.75-4-53.25,1.5c-16.271,4.589-27,3.5-28.5-4.75s0-10.25-4.75-13.5
	S177.474,537.474,177.474,537.474z"/>
<path fill="none" stroke="#000000" stroke-width="4" stroke-miterlimit="10" d="M328.391,493.891c0,0-32.5,7.5-42,24.75
	s-4.25,20.25,18.25,23s46-3,46-3"/>
<path fill="none" stroke="#000000" stroke-width="4" stroke-miterlimit="10" d="M179.141,521.891c0,0-1-12,19.5-15
	s27.75-3.5,33.5,1.25s12,20.25,10,26.25s-16,14-22.5,7.75s-4.75-15-2.75-16.75s9.75-7-0.25-9.25s-21.75,3.75-18.25,9.5
	s2.25,6.75-4.25,7.25S179.891,530.891,179.141,521.891z"/>
<path fill="none" stroke="#000000" stroke-width="4" stroke-miterlimit="10" d="M166.307,504.141c0,0-30.5-23.001-33.5-25.667
	s-21-20.166-21-20.166"/>
<path fill="none" stroke="#000000" stroke-width="4" stroke-miterlimit="10" d="M193.474,487.141c0,0-53-19.667-80.667-59
	s-31.333-85.667-31.333-85.667"/>
<path fill="none" stroke="#000000" stroke-width="4" stroke-miterlimit="10" d="M494.141,205.474c0,0-8.667,86-46.667,141.333
	s-124,113.333-135.333,122s-36.667,19.334-48,14.667"/>
<path fill="none" stroke="#000000" stroke-width="4" stroke-miterlimit="10" d="M425.474,421.475c0,0,60-65.333,72-116
	s14.667-88.667,14.667-88.667"/>
<path fill="none" stroke="#000000" stroke-width="4" stroke-miterlimit="10" d="M276.141,64.141c0,0-73,135-67,323"/>
<path fill="none" stroke="#000000" stroke-width="4" stroke-miterlimit="10" d="M311.141,63.141c0,0-44.5,30-61.5,159
	s-19.5,188-17.5,213s9.333,36.833,14.5,43.333"/>
</svg>
