<?xml version="1.0" encoding="utf-8"?>
<!-- Generator: Adobe Illustrator 16.0.0, SVG Export Plug-In . SVG Version: 6.00 Build 0)  -->
<!DOCTYPE svg PUBLIC "-//W3C//DTD SVG 1.1//EN" "http://www.w3.org/Graphics/SVG/1.1/DTD/svg11.dtd">
<svg version="1.1" id="Layer_2" xmlns="http://www.w3.org/2000/svg" xmlns:xlink="http://www.w3.org/1999/xlink" x="0px" y="0px"
	 width="595.28px" height="595.28px" viewBox="0 0 595.28 595.28" enable-background="new 0 0 595.28 595.28" xml:space="preserve">
<path fill="none" stroke="#000000" stroke-width="5" stroke-miterlimit="10" d="M12.75,512c5.75-12.5,37-34.5,44.75-37.5
	s14.5,0,14.5,0s51,38.385,74.5,48.5s58.5,10.115,73.5,10.115s82.5-7,121.5-29.308S399,456.5,419,429.5s51-71.5,63-101
	s20.5-49.5,29-82s25-76.5,41-105s38-79.334,38-79.334c-5.28,29.666-90,67.834-127.5,75.667s-65,0.667-79.5,0.667s-35.5-1.5-61.5,0
	s-28.5-2-70.5,11s-63,31-107,62s-60,62.5-74,103S53.5,456,53.5,456S38,470.5,26.25,479s-22.5,12.25-22.5,12.25s-0.25,9,0,9.75
	S12.75,512,12.75,512z"/>
<path fill="none" stroke="#000000" stroke-width="5" stroke-miterlimit="10" d="M585.643,72.062c0,0-59.143,70.438-83.143,89.938
	s-68.5,56.5-75,60.5"/>
<path fill="none" stroke="#000000" stroke-width="5" stroke-miterlimit="10" d="M62.25,462.25c0,0,53.5-24.25,66.25-31.5
	s23-12.5,40-26.75s28.75-20.75,43.5-34.75s14.75-14,14.75-14"/>
<path fill="none" stroke="#000000" stroke-width="5" stroke-miterlimit="10" d="M226.75,343c0,0-18.75-9-19.083-35.667
	c-0.333-26.667,3-48,5.333-64s9.336-22.669,19.667-33c7-7,32.667-23,55.333-27.333s61-11,79-5s30.666,17,40.333,27.333
	s11.334,14,16.667,31s1.333,95.667-7,111.333S377.333,391.333,359.333,398s-43.001,4-57,0c-14-4-41-5.667-53.333-15.667
	s-18-20.583-18-20.583"/>
<polyline fill="none" stroke="#000000" stroke-width="5" stroke-miterlimit="10" points="230,344 258.5,328 230,351.5 "/>
<path fill="none" stroke="#000000" stroke-width="5" stroke-miterlimit="10" d="M411.75,343.5c0,0-7.5,15.75-25.75,25
	S368.25,381,348,388s-23.75,4.25-46.25,3.5"/>
</svg>
