<?xml version="1.0" encoding="utf-8"?>
<!-- Generator: Adobe Illustrator 16.0.0, SVG Export Plug-In . SVG Version: 6.00 Build 0)  -->
<!DOCTYPE svg PUBLIC "-//W3C//DTD SVG 1.1//EN" "http://www.w3.org/Graphics/SVG/1.1/DTD/svg11.dtd">
<svg version="1.1" id="Layer_2" xmlns="http://www.w3.org/2000/svg" xmlns:xlink="http://www.w3.org/1999/xlink" x="0px" y="0px"
	 width="595.28px" height="595.28px" viewBox="0 0 595.28 595.28" enable-background="new 0 0 595.28 595.28" xml:space="preserve">
<path fill="none" stroke="#000000" stroke-width="3" stroke-miterlimit="10" d="M168,419c0-0.5-7.667,4.833-11.167,33.333
	s-6.065,29.119-19.5,48.334C120.627,524.561,70.5,577,70.5,577H85c0,0,33.333-34.001,45.667-46.667s29.833-44,34.167-56
	s-0.5-43.667,12.5-52c0,0-9.333-3.333-15.658-4.833s-4.801-1.75-7.176-6.375s0.5-6.875,2.375-8.625s6.375-2.75,12.875-4.5"/>
<path fill="none" stroke="#000000" stroke-width="3" stroke-miterlimit="10" d="M183.667,407.667c0,0,26.333-29.999,33.333-47.333
	s9.334-22.666,12.667-32S246,301.947,253,297.64c7-4.307,28.28-14.307,44.64-11.307s24.361,6.612,32.694,11.306
	s18.334,9.026,24,8.36s4.666-1.055,9.666-8.36c5-7.306,7-13.973,16.667-17.306s11-4.333,23-4s22.001,0.333,33.667,9
	S455,295,468.667,309.667s23.666,26.667,29.333,35.667s9,16,9,16"/>
<path fill="none" stroke="#000000" stroke-width="3" stroke-miterlimit="10" d="M320,272.968c-6.333-0.366-11,0.366-22.36,0.032
	s-19.974,2-25.974,3.272s-10.083,2.936-22.417,11.602S227.579,313.767,223.667,319c-8.946,11.966-7,12.334-15.333,30.334
	s-15.667,28-15.667,28l-9,20.666h-6.333C175.5,396,169,372.75,168,364.25s-9.75-28.818-9.75-28.818s-8.75-17.578-14.534-20.681
	c-6.737-3.613-11.861-7.037-15.681-10.004c-7.191-5.586-9.759-9.555-9.759-10.135c0-0.888-3.025-7.112-8.775-12.112
	s-17-6.5-20.75-6.227s-11.5,1.727-25.5,18.339S48.5,351.73,48.5,351.73s23.492-39.655,50.75-42.48s23.25-1.75,23.25-1.75
	s-3.75,4-6.5,11s-3.083,36-3.083,36s-8.25-10.833-9.25-12.53s-5.287-19.113-5.287-19.113"/>
<path fill="none" stroke="#000000" stroke-width="3" stroke-miterlimit="10" d="M382,272.863c0,0,3.666-7.529,14.333-10.863
	s28-0.667,33.667,0s14.334,7.545,22.667,14.272s18,18.339,21,21.367s29.833,58.2,24.083,61.03s-11,6.08-10.75,9.83s1.5,6.75,8.5,9.5
	s11,2.75,22,11.75s13.25,11.75,16.5,12.75s12.75,3.5,18.25,0s9-4.5,9.5-10.5s-1.75-12-7.25-16s-8.75-7-14-7s-15,3.117-15,3.117
	s-6.167-1.784-8.5-7.617s-4.25-7.75-5.5-10.75s-10-21.419-10-21.419L486,311"/>
<path fill="none" stroke="#000000" stroke-width="3" stroke-miterlimit="10" d="M166,156.668c6.667,2,19.667,7.333,33,13.333
	s33,24.333,45.667,32s61.667,54.667,67.333,58.358s26.667,25.309,33.334,31.642s11.333,0.333,20-9.333s15.333-20,16.666-29.333
	s-1-17.333,0-28s10-20.333,19.667-38.667s29.667-44.333,38-53.333s48-36.667,48-36.667s1.083,1.582,3.083,4.832
	s7.831,3.75,7.831,3.75C497,106,492.75,118.5,492.75,124.5s-1.5,18.25,0,24.5s6.5,11.5,9.25,14.25s15,9.5,23.5,11.75
	s28.25,5,31.5,10c0,0-0.5-18,0-26.25s-2.25-15.75-5.25-24.057S547,123.25,541,115.5s-16.458-10.25-16.458-10.25
	S520,96.5,515.5,88.336s-5-5.836-10.75-9.913s-12-1.423-17.083,0S478,88.336,478,88.336"/>
<path fill="none" stroke="#000000" stroke-width="3" stroke-miterlimit="10" d="M341.334,272.863
	c-1.666-3.14-19-25.527-31.334-35.527s-22.333-17.667-31-25.333s-23.667-16.667-33-24.667s-33-21-45.333-28s-45-12.333-45-12.333
	C154.834,120.006,140.5,89.5,125.25,82.004S67,64.5,67,64.5s12.75,18.837,15.5,32.168s-1.75,15.582,2,22.832"/>
<path fill="none" stroke="#000000" stroke-width="3" stroke-miterlimit="10" d="M158.25,155.25c0,0,5.75,17.222,0,30.611
	s-10,17.639-19.5,27.639S102.5,224,92,225s-16.25,0-16.25,0c-0.25-13,9.5-32.5,15-43.25s20.75-23.25,32-29.5s28-5.5,28-5.5"/>
<path fill="none" stroke="#000000" stroke-width="3" stroke-miterlimit="10" d="M89.5,174.25c0,0-3.25,4-29.75,4.75
	S31.516,175.204,23,168.682c-7.14-5.468-16.5-16.432-16.5-16.432c12.25-3.5,19.5-12.5,35.75-19s34-13,59.25-11.75s34,23.5,34,23.5
	s-10.5-4.25-25.5-4s-14.51-0.5-34.255,0.25S56.75,145.693,43,146.722s-16.5,0-16.5,0"/>
<path fill="none" stroke="#000000" stroke-width="3" stroke-miterlimit="10" d="M149.5,155c0,0-18.25,22.666-28.25,31.083
	s-32,31.417-38.75,35.167"/>
<path fill="none" stroke="#000000" stroke-width="3" stroke-miterlimit="10" d="M149.5,138.5c0.5-1-10.115-23.113-14-28.25
	c-3.19-4.218-12.409-14.531-19.5-22.25c-7.658-8.336-18.5-11.408-23.75-12.329"/>
<path fill="none" stroke="#000000" stroke-width="3" stroke-miterlimit="10" d="M70.5,324.595v37.072
	c-2.667-9.5,42.417-53.754,42.417-53.754"/>
<path fill="none" stroke="#000000" stroke-width="3" stroke-miterlimit="10" d="M358.667,251.003c0,0,0,0-5.333-18.999
	s-7.334-22.667-12-31s-12.334-30.333-14.5-36.667S321,138.671,320,126.671s-6.666-27-11.666-38.334s-29-12.666-29-12.666
	s-7.833-17.421-8.517-18.678S266.25,43,262.75,38s-11-8.5-15-9s-17,13.25-23.25,19.75S200.75,85,200.75,85s20.25-9,23.5-12.75
	s6.25-15.5,15.5-16.75s13.25,0.25,19,2.75s7.884,7.25,12.067,11.75"/>
<path fill="none" stroke="#000000" stroke-width="3" stroke-miterlimit="10" d="M221.438,78.423c0,0-1.125,6.577-2.875,11.077
	S216,107.085,216,107.085s8.5-8.413,23.25-18.749s15-10.086,23.75-9.836s7.817,3.504,7.817,3.504s24,1.331,29,12.666
	s10.666,26.334,11.666,38.334s4.668,31.333,6.834,37.667s8.634,30.058,11.183,39.263c2.834,10.234,2.834,10.234,8.167,29.233
	S341.334,263,341.334,263"/>
<path fill="none" stroke="#000000" stroke-width="3" stroke-miterlimit="10" d="M315.621,242.379c0,0,11.713-1.953,15.046,0
	s5.083,6.043,5.75,8.624s2.083,8.466,2.083,9.356"/>
<path fill="none" stroke="#000000" stroke-width="3" stroke-miterlimit="10" d="M377.667,223.667c0,0-5.834,20.005-7.667,27.336
	s-6.167,14.664-7.167,16.331"/>
<path fill="none" stroke="#000000" stroke-width="3" stroke-miterlimit="10" d="M477.671,72.746C475,70.25,472.5,65.25,467.5,64.5
	s-6.5-3.25-12.75,0s-6.25,3.742-6.75,8.246s-3.75,11.004-6.75,14.004s-9.75,9.918-9.75,9.918c-3.75-1.832-9.75-15.918-12.746-21.918
	s-1.004-19.75,0-22.25S431,41.75,434.5,38.75s14.25-9.5,20.25-15.5s15-5.25,18.25-4s3.5,2.25,5,9.737S478.75,46,478,57.75
	s0,30.586,0,30.586s-33.332,25.667-45.666,38s-32.001,35-41.334,49.333s-21.666,33.333-25.666,42.333s-7,24.333-6.667,33"/>
<path fill="none" stroke="#000000" stroke-width="3" stroke-miterlimit="10" d="M524,96.668c0,0,19-3.418,26.5-7.418
	s17.75-12.5,21-15.5s8.25-11,9.75-14.75s14.029-15,14.029-15s0,0-9.029-3.5S580,34.5,572,28.987s-9.25-8.737-16-10.603
	s-32.5-0.884-37,0S511.5,24,508.5,28.987s-6,14.263-8.75,21.513s0.25,22,0,23.25"/>
<path fill="none" stroke="#000000" stroke-width="3" stroke-miterlimit="10" d="M498.581,105.25c0,0,7.544,1.375,11.544,1.375
	s14.417-1.375,14.417-1.375"/>
<path fill="none" stroke="#000000" stroke-width="3" stroke-miterlimit="10" d="M186.558,404.294c0,0,6.609,3.874,8.109,7.707
	s3.5,1,3.333,14.333s0.186,15.167,0.01,26.667s-3.843,22.004-3.343,26.504s1.621,11.338,3.394,15.505S207,523.843,207,523.843"/>
<path fill="none" stroke="#000000" stroke-width="3" stroke-miterlimit="10" d="M196.779,391.697c0,0,8.388,6.558,11.888,12.597
	s6.5,15.207,9.833,22.373s6.334,24.832,8.167,28.666s16.667,27.5,16.667,27.5"/>
<path fill="none" stroke="#000000" stroke-width="3" stroke-miterlimit="10" d="M198.139,389.939c0,0,11.362,2.062,16.528,4.228
	s12.5,7.666,15.833,11.833s11,8.667,15,10.5s8.667,0,11,0"/>
<path fill="none" stroke="#000000" stroke-width="3" stroke-miterlimit="10" d="M332.87,299.024c0,0-16.12,6.476-22.87,15.476
	s-8.47,11.863-12.36,20.932S293.5,348.5,290,352.75s-19.25,11.75-19.25,11.75"/>
<path fill="none" stroke="#000000" stroke-width="3" stroke-miterlimit="10" d="M293.37,346.7c0,0,3.12,17.05,0,24.8
	s-3.12,17.25-7.12,26.5s-4.75,7.129-11,19.314S266,434.25,266,434.25"/>
<path fill="none" stroke="#000000" stroke-width="3" stroke-miterlimit="10" d="M294.687,358.67c0,0,6.185,10.83,7.124,16.08
	s2.189,12.645,2.689,16.947s0.75,20.303,0,22.803s-4.67,16.5-4.67,16.5"/>
<path fill="none" stroke="#000000" stroke-width="3" stroke-miterlimit="10" d="M361.529,301.389c0,0,15.471,15.111,20.471,18.611
	s15.75,13.363,21.5,15.432s19.5,6.258,22.5,6.538s16.25-0.05,17,0"/>
<path fill="none" stroke="#000000" stroke-width="3" stroke-miterlimit="10" d="M388.733,325.271c0,0,0.517,3.343,2.267,10.161
	s3.75,19.158,7,23.238s6.25,20.83,9,26.08s26.75,34.215,26.75,34.215"/>
<path fill="none" stroke="#000000" stroke-width="3" stroke-miterlimit="10" d="M528,451c0,0-0.833-35.833-3-40.5
	s-2.5-9.864-5.5-14.016s-6.346-10.095-6.346-10.095"/>
<path fill="none" stroke="#000000" stroke-width="3" stroke-miterlimit="10" d="M528,380.156c0,0-5.167-11.667-5-13.5
	s-0.841-6.499-0.004-10.833s1.664-8.833,2.334-10s2.67-3.854,2.67-3.854s2.75,1.28,4.75,9.78s0,39,0,39V451"/>
<path fill="none" stroke="#000000" stroke-width="3" stroke-miterlimit="10" d="M345.334,304.532c0,0-1,48.802,0,50.135
	s1.667,32.969,0,41.817s-5.261,32.349-12.464,37.766S320,459.804,320,464.068"/>
<path fill="none" stroke="#000000" stroke-width="3" stroke-miterlimit="10" d="M340.544,418.965c0,0-7.528,22.036-7.369,28.702
	s-1.492,28.999,0,35.166s8.159,8.167,8.159,8.167c-3.333-3.333-1.334-32,0.246-40s11.754-19.333,12.754-24s4-23.667,4.333-36.525
	s-4.333-28.808-4.333-28.808V306"/>
</svg>
