<?xml version="1.0" encoding="utf-8"?>
<!-- Generator: Adobe Illustrator 16.0.0, SVG Export Plug-In . SVG Version: 6.00 Build 0)  -->
<!DOCTYPE svg PUBLIC "-//W3C//DTD SVG 1.1//EN" "http://www.w3.org/Graphics/SVG/1.1/DTD/svg11.dtd">
<svg version="1.1" id="Layer_2" xmlns="http://www.w3.org/2000/svg" xmlns:xlink="http://www.w3.org/1999/xlink" x="0px" y="0px"
	 width="595.28px" height="595.28px" viewBox="0 0 595.28 595.28" enable-background="new 0 0 595.28 595.28" xml:space="preserve">
<g>
	<g>
		<path d="M354.143,32.974c5.705-20.254-22.427-26.19-36.563-27.854c-10.082-1.186-20.377-0.871-30.414,0.587
			c-8.25,1.199-16.703,4.042-21.725,11.07c-4.41,6.171-3.647,15.262,0.098,21.503c3.733,6.221,10.743,9.722,17.347,12.019
			c14.128,4.914,31.091,5.478,45.839,3.43c5.803-0.806,11.305-2.227,15.721-6.254c4.08-3.722,6.535-9.309,9.444-13.904
			c1.729-2.733-2.599-5.239-4.318-2.523c-4.349,6.872-7.332,14.111-15.69,16.617c-7.043,2.111-15.092,2.016-22.388,1.897
			c-13.43-0.219-34.273-1.534-42.061-14.51c-4.554-7.589-1.132-16.607,6.173-20.722c7.578-4.269,17.506-4.603,25.992-4.875
			c11.015-0.353,22.261,0.824,32.769,4.22c8.053,2.603,17.73,8.111,14.953,17.97C348.445,34.754,353.27,36.072,354.143,32.974
			L354.143,32.974z"/>
	</g>
</g>
<g>
	<g>
		<path d="M332.159,32.762c-0.555-9.5-13.456-13.058-21.035-14.32c-8.551-1.424-21.666-1.133-25.243,8.69
			c-3.665,10.065,9.949,13.085,17.005,13.782c4.993,0.493,9.992-0.442,14.97-0.757c5.012-0.317,11.615-0.928,13.962-6.134
			c1.313-2.915-2.995-5.459-4.318-2.523c-1.798,3.99-8.29,3.585-11.973,3.798c-3.063,0.177-6.085,0.746-9.15,0.777
			c-3.591,0.037-17.389-0.807-15.957-6.837c1.782-7.501,13.81-6.77,19.375-5.974c4.686,0.67,16.994,3.169,17.364,9.499
			C327.347,35.966,332.348,35.984,332.159,32.762L332.159,32.762z"/>
	</g>
</g>
<g>
	<g>
		<path d="M345.993,569.955c-1.387-28.221-3.676-56.4-5.271-84.61c-0.679-12.011,1.192-24.139,2.279-36.082
			c1.784-19.585,3.869-39.341,3.637-59.031c-0.39-33.021,0.942-65.957,2.306-98.958c0.985-23.853,1.362-47.675,2.063-71.53
			c1.001-34.045,2.317-68.083,3.669-102.116c1.19-29.98,0.852-60.016,0.256-90.008c-0.611,0.804-1.224,1.607-1.835,2.411
			c10.062-3.327,18.807-2.35,28.904,0.214c-0.611-0.804-1.224-1.607-1.835-2.411c-6.909,69.585-10.622,139.326-9.195,209.268
			c0.791,38.814-2.235,77.318-6.655,115.842c-2.925,25.5-2.604,51.37-1.607,76.977c0.623,16.013,2.637,32.187,2.429,48.214
			c-0.425,32.823,3.327,65.952,5.862,98.675c1.423-0.589,2.845-1.179,4.268-1.768c-7.975-8.958-18.097-13.828-29.727-8.802
			c-12.684,5.482-22.343,16.358-35.966,19.921c-8.207,2.146-17.809,0.803-25.996-0.69c-8.146-1.486-16.088-4.037-23.841-6.905
			c-6.516-2.41-12.981-6.905-20-7.665c-8.932-0.968-16.597,3.87-25.239,5.006c0.804,1.055,1.607,2.109,2.411,3.165
			c2.402-13.549,4.836-27.091,7.291-40.63c3.637-20.063,8.764-40.323,10.193-60.691c1.666-23.742-0.247-47.679-1.355-71.402
			c-0.818-17.517,0.456-34.154,2.771-51.525c2.963-22.233,6.357-44.438,8.014-66.82c1.286-17.375-0.703-34.459-0.598-51.82
			c0.25-41.551,5.591-83.108,4.22-124.666c-0.712-21.558-4.198-43.238-7.148-64.584c-0.479-3.47-0.974-6.938-1.48-10.403
			c-0.13-0.891-0.262-1.781-0.395-2.671c-0.244-1.638,0.318-0.738-0.033-0.045c3.671-7.241,18.882-8.526,25.349-5.485
			c-0.413-0.72-0.826-1.439-1.238-2.159c-1.884,41.035-4.432,81.945-3.958,123.022c0.425,36.863,0.949,73.742,2.352,110.583
			c0.46,12.095,1.614,24.18,1.917,36.273c0.311,12.446-0.238,24.925-0.789,37.356c-3.183,71.896-9.694,143.712-16.262,215.364
			c-0.807,8.805-1.625,17.61-2.489,26.41c-0.315,3.209,4.688,3.179,5,0c6.417-65.316,11.88-130.776,16.176-196.266
			c1.868-28.474,4.423-57.389,3.264-85.947c-1.31-32.271-2.886-64.471-3.478-96.783c-0.472-25.753-0.804-51.511-0.982-77.269
			c-0.054-7.833,0.715-15.757,1.074-23.579c0.726-15.827,1.453-31.653,2.179-47.479c0.332-7.229,0.664-14.458,0.996-21.687
			c0.037-0.809-0.488-1.806-1.238-2.159c-7.851-3.691-17.662-2.19-25.295,1.334c-2.893,1.335-6.645,4.059-7.543,7.326
			c-0.4,1.455,0.365,3.769,0.573,5.188c3.405,23.223,6.91,46.706,8.291,70.146c1.131,19.203-0.225,38.627-1.174,57.809
			c-1.085,21.924-2.451,43.849-2.832,65.801c-0.298,17.171,1.8,34.211,0.868,51.367c-1.228,22.584-4.703,45.024-7.742,67.415
			c-2.318,17.081-4.27,33.744-3.583,50.995c0.941,23.64,2.798,47.282,1.864,70.955c-0.842,21.338-6.266,42.513-10.071,63.47
			c-2.537,13.971-5.047,27.945-7.526,41.926c-0.25,1.407,0.66,3.395,2.411,3.165c7.475-0.982,14.314-4.643,21.833-5.226
			c7.032-0.545,14.127,4.627,20.476,7.099c14.476,5.635,29.911,9.646,45.54,9.239c13.74-0.358,24.246-8.157,35.21-15.532
			c4.771-3.209,9.735-6.209,15.449-7.302c7.638-1.46,14.049,4.142,18.724,9.393c1.404,1.577,4.435,0.385,4.268-1.768
			c-1.999-25.802-3.93-51.619-5.371-77.458c-0.477-8.553-0.241-17.069-0.583-25.595c-0.763-19.005-2.276-37.959-2.762-56.981
			c-0.681-26.681,0.824-52.83,3.966-79.308c3.216-27.094,4.532-54.434,4.802-81.707c0.233-23.729-0.335-47.467-0.185-71.2
			c0.331-52.358,4.128-104.635,9.3-156.726c0.106-1.076-0.84-2.158-1.835-2.411c-10.936-2.776-20.68-3.814-31.564-0.214
			c-1.047,0.346-1.857,1.259-1.835,2.411c0.622,31.325,0.822,62.655-0.413,93.965c-1.421,36.024-2.859,72.056-3.788,108.096
			c-0.636,24.711-1.296,49.385-2.301,74.093c-0.766,18.817-1.516,37.638-1.935,56.466c-0.306,13.712,0.453,27.428-0.014,41.123
			c-0.648,19.037-2.576,38.03-4.312,56.99c-0.924,10.089-1.865,19.913-1.273,30.023c1.59,27.195,3.759,54.37,5.096,81.579
			C341.15,573.164,346.151,573.18,345.993,569.955L345.993,569.955z"/>
	</g>
</g>
</svg>
