<?xml version="1.0" encoding="utf-8"?>
<!-- Generator: Adobe Illustrator 16.0.0, SVG Export Plug-In . SVG Version: 6.00 Build 0)  -->
<!DOCTYPE svg PUBLIC "-//W3C//DTD SVG 1.1//EN" "http://www.w3.org/Graphics/SVG/1.1/DTD/svg11.dtd">
<svg version="1.1" id="Layer_3" xmlns="http://www.w3.org/2000/svg" xmlns:xlink="http://www.w3.org/1999/xlink" x="0px" y="0px"
	 width="595.281px" height="595.281px" viewBox="0 0 595.281 595.281" enable-background="new 0 0 595.281 595.281"
	 xml:space="preserve">
<path fill="none" stroke="#000000" stroke-width="3" stroke-miterlimit="10" d="M267.14,112.807c0,0-9.25,122.083-9.5,131.333
	s-2.5,91.5-2.5,106s-1.667,111,0.333,135s-5.333,92.667-5.333,92.667s2,4.333,4,4.333s7,1,7,1s3.333-59.166,4-70.5
	s-2.5-206.5-3.5-215.5s2.5-116,4.5-133s4.333-133.667,4.333-133.667v-4c0,0,13-23.667,38.333-16S336.973,26.14,336.64,27.14
	l-0.166,3c0,0-5,53.167-5,68.667s-5.334,113.667-5.334,128.667s-5.666,103.997-4.333,116.33s7.333,131.337,7.333,146.337
	s-7.5,80.5-10,89.5l-5.25-0.25l-4.083-1.916c0,0,7.333-48.334,7.833-55.334s0.5-40.334,0.5-47.334s-5-115.332-4.666-131.332
	s0.416-121.584,3.916-149.334s5.25-77,4.5-88.5s5.75-87.25,5.75-87.25"/>
<path fill="none" stroke="#000000" stroke-width="3" stroke-miterlimit="10" d="M261.14,583.14c0.75-1.25,6.5-13.5,15.25-15.75
	s13.5-3.75,16.25-3.75s11.75,3.25,12.75,5s4.417,8.834,4.417,8.834"/>
<path fill="none" stroke="#000000" stroke-width="3" stroke-miterlimit="10" d="M316.473,523.473c0,0-0.333,3.667-6.333,7.167
	s-13.25,3.75-26.75,4s-18.083-12.167-18.083-12.167s-1.417-5.833,10.333-7.333s14.5-1.75,21.25-0.75s13.25,0.917,16.417,3.417
	C315.429,519.483,316.473,523.473,316.473,523.473z"/>
<path fill="none" stroke="#000000" stroke-width="3" stroke-miterlimit="10" d="M263.974,344.807c0,0,5.833,9.334,14.5,9.667
	s22.667,1.334,28.167-1.5s5.334-6.668,5.167-8.334s-2-6.167-6-8.5s-9.667-2.834-16.667-3s-13.5,0.334-18.5,2.667
	s-4.167,1.001-5.167,3.667s-0.833,5.333-0.833,5.333"/>
<path fill="none" stroke="#000000" stroke-width="3" stroke-miterlimit="10" d="M269.64,150.14c0,0,2.667-7.667,7.833-8.833
	s17-0.833,26.667,0.5s12.833,3.667,13.5,7.5s-2.001,8.5-4.167,10s-9.499,3.833-18,2.833c-8.5-1-18.334,0.5-23.167-3.833
	S269.64,150.14,269.64,150.14z"/>
</svg>
