<?xml version="1.0" encoding="utf-8"?>
<!-- Generator: Adobe Illustrator 16.0.0, SVG Export Plug-In . SVG Version: 6.00 Build 0)  -->
<!DOCTYPE svg PUBLIC "-//W3C//DTD SVG 1.1//EN" "http://www.w3.org/Graphics/SVG/1.1/DTD/svg11.dtd">
<svg version="1.1" id="Layer_2" xmlns="http://www.w3.org/2000/svg" xmlns:xlink="http://www.w3.org/1999/xlink" x="0px" y="0px"
	 width="595.28px" height="595.28px" viewBox="0 0 595.28 595.28" enable-background="new 0 0 595.28 595.28" xml:space="preserve">
<g>
	<g>
		<path d="M181.845,87.909c27.123-14.519,55.59-25.694,85.423-33.217c28.894-7.286,58.498-11.384,87.896-16.031
			c3.01-0.476,1.899-4.631-0.665-4.911c-17.796-1.943-35.467-1.24-53.26-2.835c-26.873-2.409-55.041-10.422-77.061-26.368
			c-1.802-1.305-4.296,0.843-3.672,2.823c2.679,8.503,6.239,17.402,6.708,26.393c0.36,6.91-5.302,11.715-9.477,16.556
			c-10.662,12.365-23.06,26.767-38.417,33.273c-0.98,0.415-1.463,1.866-1.149,2.823c4.528,13.775,8.718,27.667,12.825,41.573
			c5.965,20.199,12.191,40.473,16.376,61.133c7.198,35.529,11.64,71.687,16.233,107.622c5.577,43.636,10.562,87.348,15.267,131.086
			c4.637,43.099,7.909,86.382,16.223,128.98c2.148,11.004,4.463,22.022,7.367,32.856c0.396,1.479,2.33,2.412,3.672,1.493
			c7.784-5.324,15.715-10.442,23.738-15.397c10.199-6.298,20.488-12.638,32.184-15.644c14.193-3.647,28.945-5.443,43.509-6.799
			c15.004-1.396,30.426-2.305,45.433-0.485c3.196,0.388,3.159-4.617,0-5c-15.025-1.821-30.41-0.858-45.433,0.485
			c-14.719,1.317-29.536,3.276-43.913,6.747c-11.705,2.826-21.941,8.873-32.162,15.068c-8.777,5.32-17.408,10.912-25.879,16.708
			c1.224,0.498,2.448,0.996,3.672,1.493c-9.888-36.897-14.6-74.93-18.432-112.846c-4.098-40.542-8.526-81.053-13.264-121.525
			c-4.889-41.77-10.027-83.534-16.354-125.114c-2.271-14.923-4.667-29.851-7.776-44.625c-4.604-21.881-11.395-43.403-17.792-64.811
			c-3.431-11.479-6.932-22.946-10.673-34.328C182.611,86.026,182.228,86.968,181.845,87.909
			c16.514-6.996,29.744-22.722,41.126-36.032c4.535-5.302,8.99-9.814,9.254-17.109c0.347-9.604-4.071-19.757-6.897-28.727
			c-1.224,0.941-2.448,1.882-3.672,2.823c22.092,16,49.767,23.676,76.582,26.744c8.997,1.029,18.141,1.674,27.2,1.343
			c9.727-0.355,19.406,0.745,29.063,1.799c-0.222-1.637-0.443-3.274-0.665-4.911c-29.414,4.65-58.962,8.849-87.896,16.031
			c-30.238,7.506-59.168,19.027-86.618,33.721C176.479,85.113,179.004,89.43,181.845,87.909L181.845,87.909z"/>
	</g>
</g>
<path fill="none" stroke="#000000" stroke-width="5" stroke-miterlimit="10" d="M411,550.333L401,399c0,0-5.333-120.667-19.333-210
	S354.5,36.25,354.5,36.25"/>
<path fill="none" stroke="#000000" stroke-width="5" stroke-miterlimit="10" d="M314,80.5c0,0,34.5,156,33,190.5"/>
<path fill="none" stroke="#000000" stroke-width="5" stroke-miterlimit="10" d="M242.5,136.5c0,0,59,344,48,388"/>
<path fill="none" stroke="#000000" stroke-width="5" stroke-miterlimit="10" d="M371.396,550.333c0,0-13.896-149.333-16.896-175.333
	"/>
</svg>
