<?xml version="1.0" encoding="utf-8"?>
<!-- Generator: Adobe Illustrator 16.0.0, SVG Export Plug-In . SVG Version: 6.00 Build 0)  -->
<!DOCTYPE svg PUBLIC "-//W3C//DTD SVG 1.1//EN" "http://www.w3.org/Graphics/SVG/1.1/DTD/svg11.dtd">
<svg version="1.1" id="Layer_4" xmlns="http://www.w3.org/2000/svg" xmlns:xlink="http://www.w3.org/1999/xlink" x="0px" y="0px"
	 width="595.281px" height="595.281px" viewBox="0 0 595.281 595.281" enable-background="new 0 0 595.281 595.281"
	 xml:space="preserve">
<path fill="none" stroke="#000000" stroke-width="3" stroke-miterlimit="10" d="M145.14,210.474c0,0,19.334,56.666,21.667,69.333
	s24,39.667,29.667,48s36,53.999,40,58.666"/>
<path fill="none" stroke="#000000" stroke-width="3" stroke-miterlimit="10" d="M457.515,14.515c0,0-45.041,44.958-51.708,54.625
	s-27.334,33.667-29.667,38s-9,29.333-13,35s-22.667,34.833-26,37.167"/>
<path fill="none" stroke="#000000" stroke-width="3" stroke-miterlimit="10" d="M327.14,209.807c0,0,12.333-6.666,11-18.333
	s-0.001-17-6.667-23.333s-10.666-7.667-16.333-5.333s-14,11.667-14,17.667s-1.001,17.333,3.333,22.667s6.334,9.667,12.334,9.667
	S327.14,209.807,327.14,209.807z"/>
<path fill="none" stroke="#000000" stroke-width="3" stroke-miterlimit="10" d="M312.807,164.14c0,0,11.332,2,13.666,10
	s2,14,1,19.667s-3.666,15-5.333,17.333"/>
<path fill="none" stroke="#000000" stroke-width="3" stroke-miterlimit="10" d="M280.807,391.14c-0.667-1.333-5-10-13-10
	s-14.334,0.001-19.667,8.667s-9.667,12.334-8.667,20s3,14.999,8.333,21.666s8.333,15,16.333,11.667s7-4.001,14-12.667
	s14.333-0.666,11-12.666s-4-16-5.667-20S280.807,391.14,280.807,391.14z"/>
<path fill="none" stroke="#000000" stroke-width="3" stroke-miterlimit="10" d="M267.807,381.14c0,0,0.333,8.667-4.667,12.667
	s-3.667-1.334-10,6.333s-8,13.667-8,17s5,16.667,5,16.667"/>
<path fill="none" stroke="#000000" stroke-width="3" stroke-miterlimit="10" d="M260.807,395.473c0,0,5.333,4,9,10
	s5.333,8.001,6,13.334s2,13,2,13"/>
<path fill="none" stroke="#000000" stroke-width="4" stroke-miterlimit="10" d="M309.64,581.14c0,0-5.5-28.5-5-37.5
	s-6-133.5-5.5-138.5s2-125,2-125l-0.167-27.833c0,0,1.5-8,19.667-16.167c29.176-13.116,61.5-59.5,67.5-68.5s23-46.5,33-73
	s38.5-83.5,38.5-83.5s-51.5,29.5-62,42.5s-28.5,26.5-46,60s-46.5,54.5-46.5,54.5"/>
<path fill="none" stroke="#000000" stroke-width="4" stroke-miterlimit="10" d="M304.14,16.141c0,0,4.666,69.333,4,82
	s-4,52-3.333,56s0.708,15,0.708,15"/>
<path fill="none" stroke="#000000" stroke-width="4" stroke-miterlimit="10" d="M285.64,15.64c0,0,1.5,119.5-0.5,150s-6.5,77-7,90.5
	s3.333,124.667,3.333,124.667s-26-66.667-47.333-82c-21.333-15.333-62.667-62.667-70.667-71.333s-20-24-20-24
	s0.906,73.623,4.667,88.667c4.333,17.334,32,85.999,46.667,103.333s39.333,36.666,49.333,46s34.833,21,39.5,39.667
	c0,0,4,23.5,3,28.5s-0.5,74.5-0.5,74.5"/>
<path fill="none" stroke="#000000" stroke-width="3" stroke-miterlimit="10" d="M274.39,434.39c0,0,6.5,3.5,7.75,10.25
	s0.5,18.75-0.75,21.25s-2.5,4.75-2.5,4.75"/>
</svg>
