<?xml version="1.0" encoding="utf-8"?>
<!-- Generator: Adobe Illustrator 16.0.0, SVG Export Plug-In . SVG Version: 6.00 Build 0)  -->
<!DOCTYPE svg PUBLIC "-//W3C//DTD SVG 1.1//EN" "http://www.w3.org/Graphics/SVG/1.1/DTD/svg11.dtd">
<svg version="1.1" id="Layer_2" xmlns="http://www.w3.org/2000/svg" xmlns:xlink="http://www.w3.org/1999/xlink" x="0px" y="0px"
	 width="595.28px" height="595.28px" viewBox="0 0 595.28 595.28" enable-background="new 0 0 595.28 595.28" xml:space="preserve">
<g>
	<g>
		<path d="M242.512,51.409c17.261-9.232,24.361-29.161,37.506-42.641c-1.01,0.13-2.02,0.261-3.029,0.391
			c11.385,5.107,23.767,3.966,35.917,3.719c6.883-0.14,13.729,0.604,20.616,0.518c7.916-0.099,15.828-0.583,23.688,0.64
			c-0.367-1.393-0.735-2.786-1.103-4.178C339.303,24.702,332.074,46.11,330.667,68c1.423-0.589,2.845-1.179,4.268-1.768
			c-11.522-11.318-27.671-15.618-43.249-17.72c-16.72-2.256-33.612-1.78-50.436-1.762c-1.271,0.001-2.622,1.14-2.5,2.5
			c3.263,36.394,5.038,73.032,5.214,109.567c0.227,47.052-2.907,94.244-4.953,141.25c-2.009,46.149-1.822,92.463-2.534,138.645
			c-0.758,49.196-1.495,98.393-2.214,147.59c-0.004,0.316-0.009,0.633-0.014,0.949c-0.028,1.906,2.142,3.101,3.762,2.158
			c21.283-12.375,54.963-13.385,73.655,4.453c1.229,1.173,3.879,0.851,4.179-1.103c2.055-13.43,7.75-25.765,15.584-36.787
			c3.838-5.4,8.415-10.265,13.363-14.655c1.858-1.649,5.445-3.075,5.459-5.899c0.038-8.233,0.095-16.467,0.156-24.7
			c0.27-35.829,0.648-71.662,1.455-107.483c0.675-30.001,3.035-59.964,2.619-89.976c-0.664-47.905-1.566-95.676-0.361-143.594
			c1.325-52.699,3.47-105.396,6.254-158.039c0.171-3.224-4.83-3.207-5,0c-4.529,85.636-8.333,171.57-6.819,257.335
			c0.324,18.333,0.979,36.663,1.017,55c0.028,14.158-0.936,28.227-1.568,42.359c-1.585,35.404-1.848,70.886-2.242,106.318
			c-0.234,21.037-0.418,42.074-0.512,63.112c0.413-0.72,0.825-1.439,1.238-2.158c-18.298,13.819-31.973,35.021-35.465,57.837
			c1.394-0.367,2.786-0.735,4.179-1.103c-20.337-19.408-56.449-18.764-79.714-5.234c1.254,0.719,2.508,1.438,3.762,2.158
			c0.653-44.74,1.323-89.479,2.008-134.219c0.748-48.874,0.68-97.854,2.479-146.703c1.536-41.704,3.906-83.386,5.009-125.104
			c1.135-42.931-1.16-86.081-4.729-128.861c-0.086-1.038-0.174-2.076-0.267-3.113c-0.833,0.833-1.667,1.667-2.5,2.5
			c15.23-0.016,30.458-0.344,45.636,1.188c15.721,1.587,32.877,5.401,44.513,16.83c1.627,1.599,4.131,0.365,4.268-1.768
			c1.325-20.626,8.156-40.632,23.976-54.607c1.317-1.164,0.737-3.892-1.103-4.178c-13.366-2.079-27.382-0.906-40.885-1.333
			c-12.666-0.4-26.16,2.337-38.144-3.04c-1.03-0.462-2.184-0.476-3.029,0.391c-12.782,13.107-19.781,32.92-36.494,41.859
			C237.145,48.612,239.67,52.929,242.512,51.409L242.512,51.409z"/>
	</g>
</g>
<path fill="none" stroke="#000000" stroke-width="6" stroke-miterlimit="10" d="M333.167,68c0,0,3.5,71.333-4.5,189
	s-6,267.328-6,267.328"/>
<path fill="none" stroke="#000000" stroke-width="5" stroke-miterlimit="10" d="M314.667,345.328c0,0-7.96,129.475-14.313,238.073"
	/>
<path fill="none" stroke="#000000" stroke-width="5" stroke-miterlimit="10" d="M307.51,64.333c0,0,9.157,31.667,7.157,102.333
	s0,83,0,83"/>
<path fill="none" stroke="#000000" stroke-width="5" stroke-miterlimit="10" d="M259,58.667c0,0,4.667,145,3.333,164
	s-1.667,64.66-3.333,122.661s-8.667,219.664-8.667,219.664"/>
<g>
	<g>
		<path d="M328.601,23.566c-7.388-8.108-23.884-6.863-33.521-5.426c-7.524,1.122-21.983,6.354-17.377,16.705
			c3.683,8.275,19.583,7.079,26.521,6.289c9.358-1.065,23.223-4.173,25.02-15.135c0.517-3.153-4.302-4.505-4.822-1.329
			c-1.392,8.493-13.016,10.534-20.197,11.464c-6.175,0.8-16.863,1.798-21.75-3.115c-2.136-2.147,1.197-5.387,2.854-6.48
			c3.903-2.574,9.104-3.402,13.653-3.907c7.293-0.81,20.568-1.583,26.083,4.47C327.241,29.489,330.767,25.943,328.601,23.566
			L328.601,23.566z"/>
	</g>
</g>
</svg>
