<?xml version="1.0" encoding="utf-8"?>
<!-- Generator: Adobe Illustrator 16.0.0, SVG Export Plug-In . SVG Version: 6.00 Build 0)  -->
<!DOCTYPE svg PUBLIC "-//W3C//DTD SVG 1.1//EN" "http://www.w3.org/Graphics/SVG/1.1/DTD/svg11.dtd">
<svg version="1.1" id="Layer_4" xmlns="http://www.w3.org/2000/svg" xmlns:xlink="http://www.w3.org/1999/xlink" x="0px" y="0px"
	 width="595.281px" height="595.281px" viewBox="0 0 595.281 595.281" enable-background="new 0 0 595.281 595.281"
	 xml:space="preserve">
<path fill="none" stroke="#000000" stroke-width="3" stroke-miterlimit="10" d="M141.14,148.64c5.5-1,15.5-2.5,30.5,4
	s22.5,24,39.5,24s39.5-21,47.5-36.5s11.667-19.795,10.5-46.5c-1.333-30.5-45-60.5-45-60.5s-13,21.333-13.667,35
	s-0.667,13.667-0.667,13.667S200.473,69.14,175.14,69.14s-42,4-42,4s12.421,20.747,20.333,28c8,7.333,22,18.333,29,21
	c0,0-13.065,5.088-20,10C154.474,137.807,141.14,148.64,141.14,148.64z"/>
<path fill="none" stroke="#000000" stroke-width="3" stroke-miterlimit="10" d="M340.14,204.474c0,0-16,20-14,50
	s17.666,38.667,27,46s23.334,18,36.334,16s33-20.667,39-25.334s14.667-11.333,23-12.333c0,0-4.334-7-19.334-9.333
	s-22.333-0.333-22.333-0.333s18.333-17.333,22-34.667s1-35.333,1-35.333s-12.666-3-22.333,1.333s-21.334,11.333-26.667,16
	s-19.667,29.333-19.667,36c0,0-1.333-22-7.333-30.667S340.14,204.474,340.14,204.474z"/>
<path fill="none" stroke="#000000" stroke-width="3" stroke-miterlimit="10" d="M235.474,505.473c0,0,5.667-12.666-3-19.666
	s-36-21.667-45-21.667s-14.333,2.333-14.333,2.333s6.667,0.666,8.667,7s1.667,8.334,1.667,8.334s-21.667-3.668-33.667-3.334
	s-28.333,9.667-28.333,9.667s11.458,10.697,18,15.167c6.833,4.668,20,13.334,25,15.334s16.667,8.832,16.667,8.832s-8.688,2.969-17,9
	c-2.125,1.542-5.667,5.334-5.667,5.334s7.667,9.334,21,9s43,1.666,49-16.667S235.474,505.473,235.474,505.473z"/>
<path fill="none" stroke="#000000" stroke-width="3" stroke-miterlimit="10" d="M260.807,138.807c0,0,19.667,40.667,21.667,49
	s8,19.334,9.333,19.667c0,0-0.333-191.333-3.333-201"/>
<path fill="none" stroke="#000000" stroke-width="3" stroke-miterlimit="10" d="M302.807,9.474c0,0,4,187.333,4,190
	c0,0,15.667,0.333,30-42.667s43-87.666,51-99.333s33.001-36.333,54.667-37"/>
<path fill="none" stroke="#000000" stroke-width="3" stroke-miterlimit="10" d="M453.14,59.807c0,0-0.999-7.333,6.334-6.333
	s9.332,5,8.666,7.667s-10.999,11-14.666,12.667s-25.667,11.667-42.667,12.333s-32.334-0.333-36.667,3.333
	s-13.333,12.667-13.333,12.667"/>
<path fill="none" stroke="#000000" stroke-width="3" stroke-miterlimit="10" d="M177.14,150.807c0,0,42.667-1.667,53.667-7
	s25-8.667,25-8.667s-1.667-17.667-4-41.667s-24.667-50-24.667-50"/>
<path fill="none" stroke="#000000" stroke-width="3" stroke-miterlimit="10" d="M145.14,76.807c0,0,24.334,14,45.667,18
	s22.333,2.667,36.333,12s26.667,26.333,26.667,26.333"/>
<path fill="none" stroke="#000000" stroke-width="4" stroke-miterlimit="10" d="M305.515,215.39c0,0,22.625-10.583,27.625-22.25
	s11.001-41,17.334-56.333s20-42.75,27.666-48.417"/>
<path fill="none" stroke="#000000" stroke-width="4" stroke-miterlimit="10" d="M274.89,536.14c-1.5-3,2.75-65,3.25-68.5
	s2.75-25.25,4.25-50.25s-0.583-49.25-0.583-49.25s-20.667-4.667-34.667-22s-24.333-46-29-56.667s-22-34.667-39.333-44
	s-27-15.833-36-13.5"/>
<path fill="none" stroke="#000000" stroke-width="3" stroke-miterlimit="10" d="M219.807,295.14c0,0-23,10.001-33,19.334
	s-15.667,15.666-16,21.333s-4.667,31.999,8.667,37.333s23.333,2.334,29-6.333s7.333-13.333,6.333-19.333s-3.667-8.333-9.667-7
	s-11,8.667-8.333,13s3.667,4.666,6,4.333"/>
<path fill="none" stroke="#000000" stroke-width="3" stroke-miterlimit="10" d="M256.14,146.14c0,0,10,20.666,11.333,30.333
	s17,38.333,21.333,41c0,0,4.667,3,4.333,42.333s-1.333,53.667-3.333,63.667s-5.333,35.001-5.333,35.001s-21-5.334-32.333-21.334
	s-19.333-36.334-27-51c-7.667-14.667-25.333-36-45.333-47s-21.333-10.333-30-9.667s-22.667,12.667-23.667,14.333"/>
<path fill="none" stroke="#000000" stroke-width="3" stroke-miterlimit="10" d="M339.14,217.473c0,0-1.999,28.667,2.667,40.667
	s14.333,22.667,15.333,28.667s2,10.667,2,10.667s19,3,26,0s24.667-12.666,30-14.333s19.333-4.333,23-4.333"/>
<path fill="none" stroke="#000000" stroke-width="3" stroke-miterlimit="10" d="M425.807,205.807c0,0-28.668,30.667-36.334,41.333
	s-22.666,33-25.333,39.333s-5,11-5,11"/>
<path fill="none" stroke="#000000" stroke-width="4" stroke-miterlimit="10" d="M353.14,300.474c0,0-15.333,20.666-20,24.999
	s-14,17.333-17,17.333c0,0-8.666-9.666-11.333-11.333c0,0,1.666-60,0.666-74.333s-0.666-43.333-0.666-43.333"/>
<path fill="none" stroke="#000000" stroke-width="3" stroke-miterlimit="10" d="M187.64,469.14c0,0,27.75,10,33.5,21
	s7,12.75,7,15.75s-1,3.5-1,3.5s-7,10.25-16,18.75c-7.263,6.859-10,10.5-34.5,12.25"/>
<path fill="none" stroke="#000000" stroke-width="3" stroke-miterlimit="10" d="M134.89,489.64c0,0,41-2.5,59.25,2
	s34,14.25,34,14.25"/>
<path fill="none" stroke="#000000" stroke-width="4" stroke-miterlimit="10" d="M236.64,503.89c0,0,13,5,23,15s15.25,17,15.25,17"/>
<path fill="none" stroke="#000000" stroke-width="3" stroke-miterlimit="10" d="M234.14,513.89c0,0,17.571,10.442,27.25,21.75
	c9.417,11.001,11.417,10.834,12.75,23c1.117,10.192-3.5,19.25-4.75,22.25s-1.25,6.75-1.25,6.75"/>
<path fill="none" stroke="#000000" stroke-width="3" stroke-miterlimit="10" d="M470.807,447.473c0,0-2.333-18.666-17.333-16.333
	s-17.667,10.001-31.667,9.667s-25.666-1.668-30.333-5.334s-11.668-12.667-22.334-13s-25.332-3.666-35.666,15.667
	s-8,27.334-12,42.667s-3.001,21.666-13.334,35.333s-19.646,22.083-21.313,21.75"/>
<path fill="none" stroke="#000000" stroke-width="3" stroke-miterlimit="10" d="M358.474,304.807c0,0-15,17.999-18.667,23.666
	s-14.334,17.666-20.667,22s-16.666,4.667-16.666,4.667s-5.667,21.667-6,32s-2,43.667-2,50.667s-3.667,46.999-4.333,53.666
	s-3.75,46.167-2.625,47.417"/>
<path fill="none" stroke="#000000" stroke-width="3" stroke-miterlimit="10" d="M378.39,556.39c0,0-1.5-28.25,5.5-47
	s7-26.5,11-39.75s8.004-22.947,2.083-31.167"/>
<path fill="none" stroke="#000000" stroke-width="4" stroke-miterlimit="10" d="M378.39,556.39c0,0-3.25-37,0.5-52.75
	s12.25-40.75,9.25-50.25s-4.75-19-12.25-22s-16.25-9.5-22.5-1.75s-15.25,18-16,26.75s-5.5,35.75-7.75,45.75s-6,20.5-13.75,29
	s-24.75,20.25-26.25,26.75l-1.75,30.25"/>
</svg>
