<?xml version="1.0" encoding="utf-8"?>
<!-- Generator: Adobe Illustrator 16.0.0, SVG Export Plug-In . SVG Version: 6.00 Build 0)  -->
<!DOCTYPE svg PUBLIC "-//W3C//DTD SVG 1.1//EN" "http://www.w3.org/Graphics/SVG/1.1/DTD/svg11.dtd">
<svg version="1.1" id="Layer_2" xmlns="http://www.w3.org/2000/svg" xmlns:xlink="http://www.w3.org/1999/xlink" x="0px" y="0px"
	 width="595.281px" height="595.281px" viewBox="0 0 595.281 595.281" enable-background="new 0 0 595.281 595.281"
	 xml:space="preserve">
<path fill="none" stroke="#000000" stroke-width="3" stroke-miterlimit="10" d="M442.14,545.473c0,0-6.333-59.333-21-76.333
	s-45.333-62.334-70-61.667s-30.333,5.667-35.333,10.667s-23,28-13,52s20.332,37.667,47.666,46.667s41.667,13.666,57.667,18.333
	S442.14,545.473,442.14,545.473z"/>
<path fill="none" stroke="#000000" stroke-width="3" stroke-miterlimit="10" d="M314.807,420.473c0,0,24.999,29.333,36.666,37
	s55.668,49.667,60.334,56.667s14,17,14,17"/>
<path fill="none" stroke="#000000" stroke-width="3" stroke-miterlimit="10" d="M138.14,333.14c0,0,15-20,25-42.5
	s46.581-76.082,58.5-82.5c15.167-8.167,28.333-1.667,37.5,5.5c16.073,12.566,19.857,22.282,18.667,33.5
	c-1.167,11-5.667,37-26.667,52s-38,20-59.5,25.5S138.14,333.14,138.14,333.14z"/>
<path fill="none" stroke="#000000" stroke-width="4" stroke-miterlimit="10" d="M228.14,147.807
	c0.309-0.926-0.615-15.788-0.833-29.333c-0.252-15.707,0.5-32.333,0.5-32.333s5.667,57.667,12,67.333s48.583,31.667,48.583,31.667
	s2-78.75,0-96.75s0.75-77.583,0.75-77.583"/>
<path fill="none" stroke="#000000" stroke-width="3" stroke-miterlimit="10" d="M228.89,146.64c0,0-21.31-14.544-44.917-28.333
	c-17.278-10.093-36.756-18.415-48.167-22.5"/>
<path fill="none" stroke="#000000" stroke-width="3" stroke-miterlimit="10" d="M135.89,95.515c0,0,57.584,49.625,64.917,51.625
	s37.333,22,47,27.333s28.666,19.667,30.333,24c0,0-20,9.333-25,16.667s-12.667,17.167-23.75,35.75
	c-5.739,9.624-29.917,37.917-38.25,44.583s-51,36.5-51,36.5"/>
<path fill="none" stroke="#000000" stroke-width="4" stroke-miterlimit="10" d="M293.39,366.765c0,0,77.416-66.625,78.083-69.625
	s5.001-67.667,5.334-71l2.333,61.5l94.5-71l-116.5,112.5l37.667,5.667c0,0-40.667,4.667-50,9s-46,41.333-46,41.333"/>
<path fill="none" stroke="#000000" stroke-width="4" stroke-miterlimit="10" d="M317.64,415.39c0,0-12.75-11.75-15.25-18
	s-3.5-14.5-3.5-14.5"/>
<polyline fill="none" stroke="#000000" stroke-width="4" stroke-miterlimit="10" points="313.89,421.39 297.14,403.89 
	298.64,506.14 295.64,586.39 "/>
<path fill="none" stroke="#000000" stroke-width="4" stroke-miterlimit="10" d="M199.015,146.89c0,0-17.125,3-25.375,8.25
	s-9,6.75-9,6.75s24.75-6.75,34.75-5s25.5,4,30.75,7"/>
<path fill="none" stroke="#000000" stroke-width="3" stroke-miterlimit="10" d="M306.89,5.14c0,0,0.25,64-1.5,75.25
	s-2.5,18.5-2.5,18.5s-0.5,39.5-0.5,43.5s-9.75,213-8.75,225"/>
<path fill="none" stroke="#000000" stroke-width="4" stroke-miterlimit="10" d="M264.14,215.474c0,0,3-4,9-7s9.333-4,9.333-4
	s0.667,11,0,17.333s-4.333,99-4,102.333s-6.333,179-4.333,186.5s-1,76-1,76"/>
</svg>
