<?xml version="1.0" encoding="utf-8"?>
<!-- Generator: Adobe Illustrator 16.0.0, SVG Export Plug-In . SVG Version: 6.00 Build 0)  -->
<!DOCTYPE svg PUBLIC "-//W3C//DTD SVG 1.1//EN" "http://www.w3.org/Graphics/SVG/1.1/DTD/svg11.dtd">
<svg version="1.1" id="Layer_2" xmlns="http://www.w3.org/2000/svg" xmlns:xlink="http://www.w3.org/1999/xlink" x="0px" y="0px"
	 width="595.28px" height="595.28px" viewBox="0 0 595.28 595.28" enable-background="new 0 0 595.28 595.28" xml:space="preserve">
<path fill="none" stroke="#000000" stroke-width="6" stroke-miterlimit="10" d="M348.667,20.833c0,0,3.666,116.166-3.667,192.166
	s-8.666,82.667-7.333,126S340,564.75,340,564.75"/>
<path fill="none" stroke="#000000" stroke-width="6" stroke-miterlimit="10" d="M262,37.333l1,202.333c0,0-6,30.667-8.667,84.667
	S248,564.25,248,564.25"/>
<g>
	<g>
		<path d="M326.908,25.262c9.655-17.412-31.234-17.825-38.331-6.02c-1.984,3.301-2.945,8.469-0.431,11.715
			c2.372,3.063,6.746,3.28,10.292,3.068c9.277-0.556,18.416-4.247,26.978-7.615c2.964-1.167,1.675-6.003-1.33-4.821
			c-5.828,2.293-11.709,4.435-17.777,6.009c-3.929,1.019-16.19,4.425-14.361-3.233c1.687-7.063,11.163-8.054,17.2-8.355
			c3.688-0.185,17.152,0.041,13.445,6.728C321.026,25.56,325.345,28.082,326.908,25.262L326.908,25.262z"/>
	</g>
</g>
<path fill="none" stroke="#000000" stroke-width="4" stroke-miterlimit="10" d="M281.833,47l1.057,56l-4.224,88.007
	c0,0-0.167,48.993-0.667,114.493s-1.8,72.667-3.8,105.167s-2.445,81.573-2.7,87.833c-1.167,28.667-7,83.5-7,83.5"/>
<path fill="none" stroke="#000000" stroke-width="4" stroke-miterlimit="10" d="M305,50.667l-2.25,85.083L298.835,199
	c0,0-1.904,54.465-1.195,110.25c0.832,65.497-2.39,93.75-4.39,126.25s0.23,71,0.23,71c-1.167,28.667,3.77,81.75,3.77,81.75"/>
<path fill="none" stroke="#000000" stroke-width="4" stroke-miterlimit="10" d="M329.834,36.833l1.416,55.419l-3.154,65.736
	c0,0-2.096,37.511-4.287,86.345c-2.863,63.804-4.475,126.5-6.475,159s-0.236,79.574-0.49,85.834
	c-1.167,28.667,1.284,87.521,1.284,87.521"/>
<g>
	<g>
		<path d="M283.601,48.768c6.371-5.057,14.676,0.018,20.137,4.058c0.875,0.647,2.319,0.356,3.029-0.391
			c4.993-5.252,13.259-17.881,21.805-13.442c1.452,0.754,3.188,0.104,3.673-1.494c2.317-7.652,7.905-14.239,16.422-14.165
			c2.75,0.024,3.507-4.505,0.665-4.911c-6.136-0.876-10.35-4.518-11.254-10.754c-0.186-1.273-1.91-2.175-3.076-1.746
			c-5.556,2.046-10.99,1.258-15.234-3.024c-0.585-0.59-1.619-0.946-2.433-0.643c-5.336,1.987-13.125,4.667-18.573,1.919
			c-0.745-0.375-1.793-0.538-2.523,0c-3.79,2.791-10.92,8.899-15.81,6c-1.396-0.828-3.239-0.053-3.672,1.494
			c-1.392,4.974-2.625,9.613-8.756,9.165c-1.618-0.118-2.85,1.687-2.411,3.165c1.475,4.966-1.807,8.566-5.357,11.568
			c-1.437,1.214-0.633,3.763,1.103,4.178c5.417,1.295,15.694,1.886,18.087,7.92c1.174,2.96,6.011,1.671,4.821-1.329
			c-3.387-8.542-13.752-9.541-21.58-11.413c0.368,1.393,0.735,2.786,1.103,4.178c5.005-4.23,8.635-9.725,6.643-16.432
			c-0.804,1.055-1.607,2.11-2.411,3.165c8.541,0.625,11.553-5.6,13.578-12.835c-1.224,0.498-2.448,0.996-3.672,1.494
			c7.05,4.181,15.276-1.891,20.856-6c-0.841,0-1.682,0-2.523,0c6.858,3.459,15.626,1.117,22.427-1.415
			c-0.812-0.214-1.622-0.429-2.433-0.643c5.409,5.458,12.917,6.955,20.1,4.31c-1.025-0.582-2.051-1.164-3.076-1.746
			c1.126,7.76,7.087,13.152,14.746,14.246c0.222-1.637,0.443-3.274,0.665-4.911c-10.771-0.094-18.282,8.057-21.244,17.835
			c1.225-0.498,2.449-0.996,3.673-1.494c-11.667-6.06-20.829,6.825-27.863,14.224c1.01-0.13,2.02-0.261,3.029-0.391
			c-7.745-5.729-17.772-9.961-26.196-3.275C277.541,47.236,281.104,50.75,283.601,48.768L283.601,48.768z"/>
	</g>
</g>
<g>
	<g>
		<path d="M248,566.75c8.257,0.565,13.503,7.294,14,15.25c0.098,1.562,1.531,2.922,3.165,2.411
			c10.172-3.183,22.756-2.842,30.318,5.606c0.677,0.757,2.185,1.037,3.029,0.391c6.75-5.162,14.715-8.08,22.063-12.225
			c6.635-3.742,11.198-10.815,19.425-10.934c3.222-0.047,3.226-5.047,0-5c-8.382,0.121-13.188,5.433-19.512,10.092
			c-7.561,5.569-16.975,7.993-24.5,13.75c1.01,0.13,2.02,0.26,3.029,0.391c-8.712-9.733-23.378-10.586-35.182-6.894
			c1.055,0.804,2.11,1.607,3.165,2.411c-0.675-10.806-7.921-19.492-19-20.25C244.78,561.529,244.801,566.531,248,566.75L248,566.75z
			"/>
	</g>
</g>
</svg>
