<?xml version="1.0" encoding="utf-8"?>
<!-- Generator: Adobe Illustrator 16.0.0, SVG Export Plug-In . SVG Version: 6.00 Build 0)  -->
<!DOCTYPE svg PUBLIC "-//W3C//DTD SVG 1.1//EN" "http://www.w3.org/Graphics/SVG/1.1/DTD/svg11.dtd">
<svg version="1.1" id="Layer_2" xmlns="http://www.w3.org/2000/svg" xmlns:xlink="http://www.w3.org/1999/xlink" x="0px" y="0px"
	 width="595.28px" height="595.28px" viewBox="0 0 595.28 595.28" enable-background="new 0 0 595.28 595.28" xml:space="preserve">
<g>
	<g>
		<path d="M373.092,21.464c-9.539,17.8-31.551,17.211-49.246,18.171c-9.036,0.491-18.11,0.588-27.138-0.089
			c-7.452-0.56-16.798-1.45-22.939-6.207c-8.923-6.912,0.729-15.624,7.262-19.265c6.074-3.386,12.875-5.865,19.745-6.977
			c15.885-2.572,33.167-2.275,48.954,0.704c7.933,1.497,22.316,4.777,23.021,14.925c0.222,3.198,5.224,3.22,5,0
			c-0.979-14.121-18.291-18.367-29.669-20.276c-15.678-2.632-32.219-2.562-47.939-0.28c-6.521,0.946-12.635,3.292-18.597,6.051
			c-6.735,3.117-15.59,8.562-16.254,16.839c-1.343,16.762,21.905,18.86,33.625,19.644c12.788,0.854,25.673,0.063,38.422-1.031
			c16.073-1.379,31.766-4.185,40.071-19.685C378.932,21.146,374.614,18.621,373.092,21.464L373.092,21.464z"/>
	</g>
</g>
<g>
	<g>
		<path d="M364.015,29.372c9.192-11.695-8.447-17.618-17.099-19.949c-3.118-0.84-4.439,3.983-1.33,4.821
			c4.144,1.116,20.194,4.847,14.894,11.592C358.511,28.341,362.023,31.905,364.015,29.372L364.015,29.372z"/>
	</g>
</g>
<g>
	<g>
		<path d="M346.916,9.423c-9.725-2.742-20.149-3.394-30.207-3.408c-10.53-0.014-21.352,1.664-30.85,6.374
			c-6.033,2.992-12.315,12.355-7.103,18.802c2.436,3.013,7.462,3.624,11.007,4.145c14.223,2.091,29.065,1.196,43.331,0.051
			c6.771-0.543,13.547-1.296,20.239-2.477c3.484-0.615,7.873-1.168,10.681-3.539c2.468-2.083-1.088-5.601-3.535-3.535
			c-1.313,1.108-5.604,1.709-7.77,2.123c-5.482,1.046-11.051,1.645-16.604,2.166c-12.438,1.166-25.028,1.699-37.511,1.054
			c-4.413-0.229-8.895-0.604-13.158-1.824c-1.042-0.298-2.186-0.676-2.958-1.467c-1.397-1.431,0.089-5.314,0.876-6.824
			c1.308-2.511,3.896-3.796,6.308-4.992c8.638-4.284,19.026-5.067,28.506-5.055c9.138,0.013,18.595,0.74,27.416,3.227
			C348.696,15.121,350.014,10.296,346.916,9.423L346.916,9.423z"/>
	</g>
</g>
<path fill="none" stroke="#000000" stroke-width="5" stroke-miterlimit="10" d="M327,575.664
	c11.333-74.667,18.667-137.997,27.334-264.664S375.25,22.726,375.25,22.726"/>
<path fill="none" stroke="#000000" stroke-width="5" stroke-miterlimit="10" d="M267.71,27.604c0,0-15.376,231.397-28.71,320.73
	s-24.542,201.791-25.875,229.791c0,0,8.375,13.125,50.125,13.125c60.763,0,63.75-15.586,63.75-15.586"/>
<path fill="none" stroke="#000000" stroke-width="5" stroke-miterlimit="10" d="M276,57c0,0-14,177.333-16.667,207.667
	s-21.667,163.996-22,190.662"/>
<path fill="none" stroke="#000000" stroke-width="5" stroke-miterlimit="10" d="M348,256c0,0-9,85-16.5,164s-12.5,124-15,151"/>
</svg>
