<?xml version="1.0" encoding="utf-8"?>
<!-- Generator: Adobe Illustrator 16.0.0, SVG Export Plug-In . SVG Version: 6.00 Build 0)  -->
<!DOCTYPE svg PUBLIC "-//W3C//DTD SVG 1.1//EN" "http://www.w3.org/Graphics/SVG/1.1/DTD/svg11.dtd">
<svg version="1.1" id="Layer_2" xmlns="http://www.w3.org/2000/svg" xmlns:xlink="http://www.w3.org/1999/xlink" x="0px" y="0px"
	 width="595.28px" height="595.28px" viewBox="0 0 595.28 595.28" enable-background="new 0 0 595.28 595.28" xml:space="preserve">
<path fill="none" stroke="#000000" stroke-width="4" stroke-miterlimit="10" d="M322.75,27c4.5-3.75,4.563-12.063,0.5-15.938
	c-2.255-2.151-2.75-4.063-19-2.563S278,24.25,278,24.25v147V221c0,0,5,14.25,14.75,13.75s23.5-5.5,23.75-20s5.5-176.5,5.5-176.5
	L322.75,27z"/>
<path fill="none" stroke="#000000" stroke-width="4" stroke-miterlimit="10" d="M331.5,591.001c0,0-1.75-194.251-1-208.751
	s1.5-59.25,3.378-79.75s-0.378-50-0.019-72.5s-4.525-64-3.859-75.667s-1.583-126.417-1.583-126.417
	c6.301-5.333,8.31-15.755-0.417-20.833c-7.518-4.375-7.518-4.375-25.893-3.75s-32.994,18.542-32.994,18.542s0.363,105.125,0,132.625
	s-5.012,61.025-10.863,80.263s-3,32.987-2.75,48.737s7.75,28.25,9.5,44s4.75,87.75,4.25,99s-2.917,167.167-2.917,167.167"/>
<path fill="none" stroke="#000000" stroke-width="4" stroke-miterlimit="10" d="M279.333,584.977c0,0,0-238.977,0-245.643
	s9-16.667,21.667-16c12.666,0.667,15.334,14.333,15.334,14.333v249.736"/>
<path fill="none" stroke="#000000" stroke-width="4" stroke-miterlimit="10" d="M266.333,593.667c0,0,13.083-10.167,20.583-12
	s13-3.166,21.75,2.084s18.75,6.75,22.833,7.25"/>
<line fill="none" stroke="#000000" stroke-width="3" stroke-miterlimit="10" x1="333.792" y1="17.792" x2="333.204" y2="208.385"/>
</svg>
