<?xml version="1.0" encoding="utf-8"?>
<!-- Generator: Adobe Illustrator 16.0.0, SVG Export Plug-In . SVG Version: 6.00 Build 0)  -->
<!DOCTYPE svg PUBLIC "-//W3C//DTD SVG 1.1//EN" "http://www.w3.org/Graphics/SVG/1.1/DTD/svg11.dtd">
<svg version="1.1" id="Layer_3" xmlns="http://www.w3.org/2000/svg" xmlns:xlink="http://www.w3.org/1999/xlink" x="0px" y="0px"
	 width="595.281px" height="595.281px" viewBox="0 0 595.281 595.281" enable-background="new 0 0 595.281 595.281"
	 xml:space="preserve">
<path fill="none" stroke="#000000" stroke-width="4" stroke-miterlimit="10" d="M202.807,572.807c0,0,11.333-33.333,12-41.333
	s-3.333-37.334-5.333-44.667s6-34.667,8.667-41.333s8-58.667,6.667-70.667s-7.333-40-11.333-49.333s0.667-45.334-1.333-53.334
	s9.333-27.333,10-34s4-94.667,2.667-101.333s-10-18.667-12-36s3.333-50.667,3.333-50.667s12.667-3.333,21.333,2
	s27.333,6.667,34.667,4s28-6,40-2.667s40.667,0,40.667,0"/>
<path fill="none" stroke="#000000" stroke-width="4" stroke-miterlimit="10" d="M355.474,55.14c0,0-11.334-4.333-14-10
	s0.74-8.997,7.666-15.667c9-8.667,25-9.333,25-9.333s-5.334,54-2.667,64s6.666,22,6,39.333s-2,90-3.333,98.667
	s-7.334,39.333-6.667,55.333s7.333,16,8,38s-9.332,43.999-6.666,50.666s6,28.668,5.333,35.334s-3.334,49.999-4.667,60.666
	s-6.666,25.334-5.333,36.667s4.667,24,4.667,34s0.666,12.667,0.666,12.667s-14.665,1.333-16.999,1.333s-11.334-1.666-11.334-1.666"
	/>
<path fill="none" stroke="#000000" stroke-width="4" stroke-miterlimit="10" d="M244.807,10.474c2.667,1.333,44.667,5.333,68,5.667
	s63,5,63,5"/>
<path fill="none" stroke="#000000" stroke-width="4" stroke-miterlimit="10" d="M216.14,49.64c0,0,16.629-5.127,29.37-8.242
	c5.387-1.316,10.019-2.601,12.297-3.591c7.667-3.333,11.667-9,13.667-15.667S244.14,11.807,244.14,11.807s3.25,10.583,2.5,16.583
	s-0.375,12.25-0.375,12.25"/>
<path fill="none" stroke="#000000" stroke-width="4" stroke-miterlimit="10" d="M301.807,25.807c0,0-15-3-17.333,5.333
	s2,14.333,14.667,13.667s23.668-1.333,25.334-7.667s-1-12.333-7-12.333S301.807,25.807,301.807,25.807z"/>
<path fill="none" stroke="#000000" stroke-width="4" stroke-miterlimit="10" d="M203.807,572.141c0,0-1.333,5.666,14,3.333
	s13.667-4,24-4s60.001-2.666,69.667-1.333s11.334,3.332,16,6.666s15.333,8,15.333,8c-2-6-2-88.667-1.334-106.667
	s10-49.333,10-60.666s-4.666-49.334-5.333-58.667s1.333-54,2-66s6.667-100.667,7.333-116.667s-1.333-120-1.333-120"/>
<path fill="none" stroke="#000000" stroke-width="3" stroke-miterlimit="10" d="M246.14,55.14c0,0-4,202-2,217s-9,281-9,281
	s-0.833,11-2.833,19.5"/>
<path fill="none" stroke="#000000" stroke-width="3" stroke-miterlimit="10" d="M324.64,575.14c0,0,1.75-29.75,3.25-42.75
	s3-43.75,3-57.5s-2.082-130.084-1.416-156.75c0.666-26.667,6.166-117,5.666-137s-1.25-125.75-1.25-125.75"/>
<path fill="none" stroke="#000000" stroke-width="3" stroke-miterlimit="10" d="M355.14,25.807c0,0,0.666,13.667-1,17.667
	s-1.333,8.333-1.333,8.333"/>
<path fill="none" stroke="#000000" stroke-width="3" stroke-miterlimit="10" d="M348.807,438.14c0,0,0.667,58.666,2,65.333
	s-1,42-1,42"/>
</svg>
